<?xml version="1.0" encoding="UTF-8"?>
<svg width="192px" height="40px" viewBox="0 0 192 40" version="1.1" xmlns="http://www.w3.org/2000/svg" xmlns:xlink="http://www.w3.org/1999/xlink">
    <!-- Generator: Sketch 53 (72520) - https://sketchapp.com -->
    <title>facebook-sign-in</title>
    <desc>Created with Sketch.</desc>
    <g id="ðŸ†-Featured" stroke="none" stroke-width="1" fill="none" fill-rule="evenodd">
        <g id="Homepage-(singed-out)" transform="translate(-160.000000, -354.000000)">
            <g id="Header">
                <g id="Content" transform="translate(160.000000, 160.000000)">
                    <g id="facebook-sign-in" transform="translate(0.000000, 194.000000)">
                        <path d="M0,1.99729162 C0,0.894217919 0.898752809,0 1.99446474,0 L190.005535,0 C191.107048,0 192,0.891539827 192,1.99729162 L192,38.0027084 C192,39.1057821 191.101247,40 190.005535,40 L1.99446474,40 C0.89295228,40 0,39.1084602 0,38.0027084 L0,1.99729162 Z" id="Color" fill="#3B5998"></path>
                        <path d="M30.6754774,32 C31.4068843,32 32,31.4068889 32,30.6753014 L32,9.32460548 C32,8.59292485 31.4069774,8 30.6754774,8 L9.32461576,8 C8.59292945,8 8,8.59292485 8,9.32460548 L8,30.6753014 C8,31.4067958 8.59283633,32 9.32461576,32 L30.6754774,32 L30.6754774,32 Z M24.4776216,32 L24.4776216,22.7519173 L27.5817761,22.7519173 L28.0465792,19.1477754 L24.4776216,19.1477754 L24.4776216,16.8467585 C24.4776216,15.8032763 24.7673822,15.0921775 26.263722,15.0921775 L28.1722317,15.0913436 L28.1722317,11.8677701 C27.8421622,11.8238477 26.709251,11.7257172 25.3911969,11.7257172 C22.6395367,11.7257172 20.7556757,13.4053335 20.7556757,16.4898192 L20.7556757,19.1477754 L17.6435521,19.1477754 L17.6435521,22.7519173 L20.7556757,22.7519173 L20.7556757,32 L24.4776216,32 L24.4776216,32 Z" id="icon" fill="#FFFFFF"></path>
                        <path d="M50.1555,16.719 C50.1041664,16.8216672 50.044667,16.8939998 49.977,16.936 C49.909333,16.9780002 49.8288338,16.999 49.7355,16.999 C49.6421662,16.999 49.5371673,16.9628337 49.4205,16.8905 C49.3038327,16.8181663 49.1661675,16.7376671 49.0075,16.649 C48.8488325,16.5603329 48.6633344,16.4798337 48.451,16.4075 C48.2386656,16.3351663 47.9878348,16.299 47.6985,16.299 C47.4371654,16.299 47.2096676,16.3304997 47.016,16.3935 C46.8223324,16.4565003 46.6590007,16.5439994 46.526,16.656 C46.3929993,16.7680006 46.2938337,16.9021659 46.2285,17.0585 C46.1631663,17.2148341 46.1305,17.3863324 46.1305,17.573 C46.1305,17.8110012 46.1969993,18.0093325 46.33,18.168 C46.4630007,18.3266675 46.6391656,18.4619994 46.8585,18.574 C47.0778344,18.6860006 47.3274986,18.7863329 47.6075,18.875 C47.8875014,18.9636671 48.1733319,19.0581662 48.465,19.1585 C48.7566681,19.2588338 49.0424986,19.3754993 49.3225,19.5085 C49.6025014,19.6415007 49.8521656,19.809499 50.0715,20.0125 C50.2908344,20.215501 50.4669993,20.4639985 50.6,20.758 C50.7330007,21.0520015 50.7995,21.4089979 50.7995,21.829 C50.7995,22.2863356 50.7213341,22.714498 50.565,23.1135 C50.4086659,23.512502 50.1800015,23.8601652 49.879,24.1565 C49.5779985,24.4528348 49.2105022,24.6861658 48.7765,24.8565 C48.3424978,25.0268342 47.8455028,25.112 47.2855,25.112 C46.9634984,25.112 46.6461682,25.0805003 46.3335,25.0175 C46.0208318,24.9544997 45.7210014,24.8646673 45.434,24.748 C45.1469986,24.6313327 44.8786679,24.4913342 44.629,24.328 C44.3793321,24.1646658 44.156501,23.9826677 43.9605,23.782 L44.5065,22.879 C44.5578336,22.8136663 44.6196663,22.7588336 44.692,22.7145 C44.7643337,22.6701664 44.8448329,22.648 44.9335,22.648 C45.0501673,22.648 45.176166,22.6958329 45.3115,22.7915 C45.446834,22.8871671 45.6066657,22.9933328 45.791,23.11 C45.9753343,23.2266672 46.1923321,23.3328329 46.442,23.4285 C46.6916679,23.5241671 46.9914982,23.572 47.3415,23.572 C47.8781694,23.572 48.2934985,23.4448346 48.5875,23.1905 C48.8815015,22.9361654 49.0285,22.5710024 49.0285,22.095 C49.0285,21.8289987 48.9620007,21.6120008 48.829,21.444 C48.6959993,21.2759992 48.5198344,21.1348339 48.3005,21.0205 C48.0811656,20.9061661 47.8315014,20.8093337 47.5515,20.73 C47.2714986,20.6506663 46.9868348,20.5643338 46.6975,20.471 C46.4081652,20.3776662 46.1235014,20.2656673 45.8435,20.135 C45.5634986,20.0043327 45.3138344,19.834001 45.0945,19.624 C44.8751656,19.4139989 44.6990007,19.1515016 44.566,18.8365 C44.4329993,18.5214984 44.3665,18.1330023 44.3665,17.671 C44.3665,17.3023315 44.4399993,16.9430018 44.587,16.593 C44.7340007,16.2429982 44.9486653,15.932668 45.231,15.662 C45.5133347,15.391332 45.8598313,15.1743341 46.2705,15.011 C46.6811687,14.8476659 47.150164,14.766 47.6775,14.766 C48.2748363,14.766 48.8254975,14.8593324 49.3295,15.046 C49.8335025,15.2326676 50.2628316,15.4939983 50.6175,15.83 L50.1555,16.719 Z M53.9845,17.818 L53.9845,25 L52.2555,25 L52.2555,17.818 L53.9845,17.818 Z M54.2435,15.725 C54.2435,15.8743341 54.213167,16.0143327 54.1525,16.145 C54.091833,16.2756673 54.0113338,16.3899995 53.911,16.488 C53.8106662,16.5860005 53.692834,16.6641664 53.5575,16.7225 C53.422166,16.7808336 53.2775008,16.81 53.1235,16.81 C52.9741659,16.81 52.8330007,16.7808336 52.7,16.7225 C52.5669993,16.6641664 52.4515005,16.5860005 52.3535,16.488 C52.2554995,16.3899995 52.1773336,16.2756673 52.119,16.145 C52.0606664,16.0143327 52.0315,15.8743341 52.0315,15.725 C52.0315,15.5709992 52.0606664,15.426334 52.119,15.291 C52.1773336,15.155666 52.2554995,15.0390005 52.3535,14.941 C52.4515005,14.8429995 52.5669993,14.7648336 52.7,14.7065 C52.8330007,14.6481664 52.9741659,14.619 53.1235,14.619 C53.2775008,14.619 53.422166,14.6481664 53.5575,14.7065 C53.692834,14.7648336 53.8106662,14.8429995 53.911,14.941 C54.0113338,15.0390005 54.091833,15.155666 54.1525,15.291 C54.213167,15.426334 54.2435,15.5709992 54.2435,15.725 Z M58.4225,17.692 C58.7305015,17.692 59.019832,17.7234997 59.2905,17.7865 C59.561168,17.8495003 59.8084989,17.9416661 60.0325,18.063 L62.0975,18.063 L62.0975,18.707 C62.0975,18.8143339 62.0695003,18.898333 62.0135,18.959 C61.9574997,19.019667 61.861834,19.0616666 61.7265,19.085 L61.0825,19.204 C61.1291669,19.3253339 61.1653332,19.453666 61.191,19.589 C61.2166668,19.724334 61.2295,19.8666659 61.2295,20.016 C61.2295,20.3706684 61.158334,20.6914986 61.016,20.9785 C60.873666,21.2655014 60.6776679,21.5093323 60.428,21.71 C60.1783321,21.9106677 59.8820017,22.0658328 59.539,22.1755 C59.1959983,22.2851672 58.8238353,22.34 58.4225,22.34 C58.151832,22.34 57.8881679,22.3143336 57.6315,22.263 C57.4074989,22.398334 57.2955,22.5499992 57.2955,22.718 C57.2955,22.8626674 57.3619993,22.968833 57.495,23.0365 C57.6280007,23.104167 57.8029989,23.1519999 58.02,23.18 C58.2370011,23.2080001 58.4831653,23.2255 58.7585,23.2325 C59.0338347,23.2395 59.3161652,23.2546665 59.6055,23.278 C59.8948348,23.3013335 60.1771653,23.3421664 60.4525,23.4005 C60.7278347,23.4588336 60.9739989,23.5509994 61.191,23.677 C61.4080011,23.8030006 61.5829993,23.9744989 61.716,24.1915 C61.8490007,24.4085011 61.9155,24.6873316 61.9155,25.028 C61.9155,25.3453349 61.8373341,25.6533318 61.681,25.952 C61.5246659,26.2506682 61.2983348,26.5166655 61.002,26.75 C60.7056652,26.9833345 60.3428355,27.171166 59.9135,27.3135 C59.4841645,27.455834 58.9941694,27.527 58.4435,27.527 C57.8974973,27.527 57.4238353,27.4745005 57.0225,27.3695 C56.6211647,27.2644995 56.288668,27.1245009 56.025,26.9495 C55.761332,26.7744991 55.5641673,26.5726678 55.4335,26.344 C55.3028327,26.1153322 55.2375,25.8773346 55.2375,25.63 C55.2375,25.2939983 55.3401656,25.0116678 55.5455,24.783 C55.7508344,24.5543322 56.0354982,24.372334 56.3995,24.237 C56.2221658,24.1389995 56.0798339,24.0083341 55.9725,23.845 C55.8651661,23.6816659 55.8115,23.4693346 55.8115,23.208 C55.8115,23.1006661 55.8301665,22.9898339 55.8675,22.8755 C55.9048335,22.7611661 55.9619996,22.6480006 56.039,22.536 C56.1160004,22.4239994 56.2128328,22.3178338 56.3295,22.2175 C56.4461673,22.1171662 56.5838325,22.0273337 56.7425,21.948 C56.3784982,21.751999 56.0926677,21.4906683 55.885,21.164 C55.6773323,20.8373317 55.5735,20.4546689 55.5735,20.016 C55.5735,19.6613316 55.644666,19.3405014 55.787,19.0535 C55.929334,18.7664986 56.1276654,18.521501 56.382,18.3185 C56.6363346,18.115499 56.9373316,17.9603339 57.285,17.853 C57.6326684,17.7456661 58.0118313,17.692 58.4225,17.692 Z M60.3195,25.322 C60.3195,25.1819993 60.2775004,25.0676671 60.1935,24.979 C60.1094996,24.8903329 59.9951674,24.8215002 59.8505,24.7725 C59.7058326,24.7234998 59.5366676,24.6873335 59.343,24.664 C59.1493324,24.6406665 58.9440011,24.6231667 58.727,24.6115 C58.5099989,24.5998333 58.2860012,24.5881667 58.055,24.5765 C57.8239988,24.5648333 57.6011677,24.5450001 57.3865,24.517 C57.190499,24.6243339 57.0330006,24.7514993 56.914,24.8985 C56.7949994,25.0455007 56.7355,25.2146657 56.7355,25.406 C56.7355,25.5320006 56.7669997,25.6498328 56.83,25.7595 C56.8930003,25.8691672 56.9933326,25.9636663 57.131,26.043 C57.2686674,26.1223337 57.4471656,26.1841664 57.6665,26.2285 C57.8858344,26.2728336 58.1541651,26.295 58.4715,26.295 C58.7935016,26.295 59.0711655,26.2705002 59.3045,26.2215 C59.5378345,26.1724998 59.7303326,26.1048338 59.882,26.0185 C60.0336674,25.9321662 60.1444997,25.8295006 60.2145,25.7105 C60.2845004,25.5914994 60.3195,25.4620007 60.3195,25.322 Z M58.4225,21.234 C58.6371677,21.234 58.8238325,21.2048336 58.9825,21.1465 C59.1411675,21.0881664 59.2729995,21.0076672 59.378,20.905 C59.4830005,20.8023328 59.5623331,20.6786674 59.616,20.534 C59.6696669,20.3893326 59.6965,20.2306675 59.6965,20.058 C59.6965,19.7033316 59.5903344,19.4221677 59.378,19.2145 C59.1656656,19.0068323 58.8471688,18.903 58.4225,18.903 C57.9978312,18.903 57.6793344,19.0068323 57.467,19.2145 C57.2546656,19.4221677 57.1485,19.7033316 57.1485,20.058 C57.1485,20.2260008 57.1753331,20.3823326 57.229,20.527 C57.2826669,20.6716674 57.3619995,20.7964995 57.467,20.9015 C57.5720005,21.0065005 57.7049992,21.0881664 57.866,21.1465 C58.0270008,21.2048336 58.2124989,21.234 58.4225,21.234 Z M63.1825,25 L63.1825,17.818 L64.2395,17.818 C64.4635011,17.818 64.6104997,17.922999 64.6805,18.133 L64.7995,18.7 C64.9441674,18.5506659 65.0969992,18.4153339 65.258,18.294 C65.4190008,18.1726661 65.5893324,18.0676671 65.769,17.979 C65.9486676,17.8903329 66.1411656,17.8226669 66.3465,17.776 C66.5518344,17.7293331 66.7758321,17.706 67.0185,17.706 C67.410502,17.706 67.7581651,17.7724993 68.0615,17.9055 C68.3648348,18.0385007 68.617999,18.2251655 68.821,18.4655 C69.024001,18.7058345 69.1779995,18.9928317 69.283,19.3265 C69.3880005,19.6601683 69.4405,20.0276647 69.4405,20.429 L69.4405,25 L67.7115,25 L67.7115,20.429 C67.7115,19.9903311 67.610001,19.6508345 67.407,19.4105 C67.203999,19.1701655 66.899502,19.05 66.4935,19.05 C66.1948318,19.05 65.9148346,19.117666 65.6535,19.253 C65.3921654,19.388334 65.1448345,19.5726655 64.9115,19.806 L64.9115,25 L63.1825,25 Z M75.6845,17.818 L75.6845,25 L73.9555,25 L73.9555,17.818 L75.6845,17.818 Z M75.9435,15.725 C75.9435,15.8743341 75.913167,16.0143327 75.8525,16.145 C75.791833,16.2756673 75.7113338,16.3899995 75.611,16.488 C75.5106662,16.5860005 75.392834,16.6641664 75.2575,16.7225 C75.122166,16.7808336 74.9775008,16.81 74.8235,16.81 C74.6741659,16.81 74.5330007,16.7808336 74.4,16.7225 C74.2669993,16.6641664 74.1515005,16.5860005 74.0535,16.488 C73.9554995,16.3899995 73.8773336,16.2756673 73.819,16.145 C73.7606664,16.0143327 73.7315,15.8743341 73.7315,15.725 C73.7315,15.5709992 73.7606664,15.426334 73.819,15.291 C73.8773336,15.155666 73.9554995,15.0390005 74.0535,14.941 C74.1515005,14.8429995 74.2669993,14.7648336 74.4,14.7065 C74.5330007,14.6481664 74.6741659,14.619 74.8235,14.619 C74.9775008,14.619 75.122166,14.6481664 75.2575,14.7065 C75.392834,14.7648336 75.5106662,14.8429995 75.611,14.941 C75.7113338,15.0390005 75.791833,15.155666 75.8525,15.291 C75.913167,15.426334 75.9435,15.5709992 75.9435,15.725 Z M77.6375,25 L77.6375,17.818 L78.6945,17.818 C78.9185011,17.818 79.0654996,17.922999 79.1355,18.133 L79.2545,18.7 C79.3991674,18.5506659 79.5519992,18.4153339 79.713,18.294 C79.8740008,18.1726661 80.0443324,18.0676671 80.224,17.979 C80.4036676,17.8903329 80.5961656,17.8226669 80.8015,17.776 C81.0068344,17.7293331 81.2308321,17.706 81.4735,17.706 C81.865502,17.706 82.2131651,17.7724993 82.5165,17.9055 C82.8198348,18.0385007 83.072999,18.2251655 83.276,18.4655 C83.479001,18.7058345 83.6329995,18.9928317 83.738,19.3265 C83.8430005,19.6601683 83.8955,20.0276647 83.8955,20.429 L83.8955,25 L82.1665,25 L82.1665,20.429 C82.1665,19.9903311 82.065001,19.6508345 81.862,19.4105 C81.658999,19.1701655 81.354502,19.05 80.9485,19.05 C80.6498318,19.05 80.3698346,19.117666 80.1085,19.253 C79.8471654,19.388334 79.5998345,19.5726655 79.3665,19.806 L79.3665,25 L77.6375,25 Z M87.4235,17.818 L88.7955,17.818 C88.9261673,17.818 89.0358329,17.848333 89.1245,17.909 C89.2131671,17.969667 89.2691665,18.0466662 89.2925,18.14 L90.3215,21.976 C90.3775003,22.1860011 90.4229998,22.3913323 90.458,22.592 C90.4930002,22.7926677 90.5268332,22.9933323 90.5595,23.194 C90.6108336,22.9933323 90.6656664,22.7926677 90.724,22.592 C90.7823336,22.3913323 90.8441663,22.1860011 90.9095,21.976 L92.0995,18.126 C92.1275001,18.0326662 92.1834996,17.955667 92.2675,17.895 C92.3515004,17.834333 92.4494994,17.804 92.5615,17.804 L93.3245,17.804 C93.4505006,17.804 93.5554996,17.834333 93.6395,17.895 C93.7235004,17.955667 93.7794999,18.0326662 93.8075,18.126 L94.9835,22.046 C95.044167,22.2466677 95.0989998,22.4414991 95.148,22.6305 C95.1970002,22.8195009 95.2448331,23.0096657 95.2915,23.201 C95.3241668,23.0003323 95.3603331,22.7996677 95.4,22.599 C95.4396669,22.3983323 95.489833,22.1906677 95.5505,21.976 L96.6145,18.14 C96.6378335,18.0466662 96.6938329,17.969667 96.7825,17.909 C96.8711671,17.848333 96.9738327,17.818 97.0905,17.818 L98.3995,17.818 L96.1245,25 L94.7315,25 C94.5821659,25 94.4748337,24.8973344 94.4095,24.692 L93.1145,20.541 C93.0724998,20.405666 93.0340002,20.2691674 92.999,20.1315 C92.9639998,19.9938326 92.9348334,19.857334 92.9115,19.722 C92.8834999,19.8620007 92.8531668,20.0008326 92.8205,20.1385 C92.7878332,20.2761674 92.7505002,20.4149993 92.7085,20.555 L91.3995,24.692 C91.3341663,24.8973344 91.2081676,25 91.0215,25 L89.6985,25 L87.4235,17.818 Z M101.2135,17.818 L101.2135,25 L99.4845,25 L99.4845,17.818 L101.2135,17.818 Z M101.4725,15.725 C101.4725,15.8743341 101.442167,16.0143327 101.3815,16.145 C101.320833,16.2756673 101.240334,16.3899995 101.14,16.488 C101.039666,16.5860005 100.921834,16.6641664 100.7865,16.7225 C100.651166,16.7808336 100.506501,16.81 100.3525,16.81 C100.203166,16.81 100.062001,16.7808336 99.929,16.7225 C99.7959993,16.6641664 99.6805005,16.5860005 99.5825,16.488 C99.4844995,16.3899995 99.4063336,16.2756673 99.348,16.145 C99.2896664,16.0143327 99.2605,15.8743341 99.2605,15.725 C99.2605,15.5709992 99.2896664,15.426334 99.348,15.291 C99.4063336,15.155666 99.4844995,15.0390005 99.5825,14.941 C99.6805005,14.8429995 99.7959993,14.7648336 99.929,14.7065 C100.062001,14.6481664 100.203166,14.619 100.3525,14.619 C100.506501,14.619 100.651166,14.6481664 100.7865,14.7065 C100.921834,14.7648336 101.039666,14.8429995 101.14,14.941 C101.240334,15.0390005 101.320833,15.155666 101.3815,15.291 C101.442167,15.426334 101.4725,15.5709992 101.4725,15.725 Z M105.5255,25.112 C104.90483,25.112 104.426502,24.9358351 104.0905,24.5835 C103.754498,24.2311649 103.5865,23.7446698 103.5865,23.124 L103.5865,19.113 L102.8585,19.113 C102.765166,19.113 102.684667,19.082667 102.617,19.022 C102.549333,18.961333 102.5155,18.8703339 102.5155,18.749 L102.5155,18.063 L103.6705,17.874 L104.0345,15.914 C104.053167,15.8206662 104.096333,15.7483336 104.164,15.697 C104.231667,15.6456664 104.316833,15.62 104.4195,15.62 L105.3155,15.62 L105.3155,17.881 L107.2055,17.881 L107.2055,19.113 L105.3155,19.113 L105.3155,23.005 C105.3155,23.2290011 105.371499,23.4039994 105.4835,23.53 C105.595501,23.6560006 105.744832,23.719 105.9315,23.719 C106.038834,23.719 106.128666,23.7061668 106.201,23.6805 C106.273334,23.6548332 106.336333,23.6280001 106.39,23.6 C106.443667,23.5719999 106.4915,23.5451668 106.5335,23.5195 C106.5755,23.4938332 106.6175,23.481 106.6595,23.481 C106.710834,23.481 106.752833,23.4938332 106.7855,23.5195 C106.818167,23.5451668 106.853166,23.5836664 106.8905,23.635 L107.4085,24.475 C107.156499,24.6850011 106.867168,24.8436661 106.5405,24.951 C106.213832,25.0583339 105.875502,25.112 105.5255,25.112 Z M108.5845,25 L108.5845,14.598 L110.3135,14.598 L110.3135,18.595 C110.593501,18.3289987 110.901498,18.1143342 111.2375,17.951 C111.573502,17.7876658 111.967831,17.706 112.4205,17.706 C112.812502,17.706 113.160165,17.7724993 113.4635,17.9055 C113.766835,18.0385007 114.019999,18.2251655 114.223,18.4655 C114.426001,18.7058345 114.579999,18.9928317 114.685,19.3265 C114.790001,19.6601683 114.8425,20.0276647 114.8425,20.429 L114.8425,25 L113.1135,25 L113.1135,20.429 C113.1135,19.9903311 113.012001,19.6508345 112.809,19.4105 C112.605999,19.1701655 112.301502,19.05 111.8955,19.05 C111.596832,19.05 111.316835,19.117666 111.0555,19.253 C110.794165,19.388334 110.546834,19.5726655 110.3135,19.806 L110.3135,25 L108.5845,25 Z M125.7275,14.878 L125.7275,16.376 L121.2405,16.376 L121.2405,19.372 L125.0275,19.372 L125.0275,20.877 L121.2405,20.877 L121.2405,25 L119.3435,25 L119.3435,14.878 L125.7275,14.878 Z M132.7345,25 L131.9575,25 C131.794166,25 131.665834,24.9755002 131.5725,24.9265 C131.479166,24.8774998 131.409167,24.7783341 131.3625,24.629 L131.2085,24.118 C131.026499,24.2813341 130.848001,24.4248327 130.673,24.5485 C130.497999,24.6721673 130.317168,24.7759996 130.1305,24.86 C129.943832,24.9440004 129.745501,25.0069998 129.5355,25.049 C129.325499,25.0910002 129.092168,25.112 128.8355,25.112 C128.532165,25.112 128.252168,25.0711671 127.9955,24.9895 C127.738832,24.9078329 127.518334,24.7853342 127.334,24.622 C127.149666,24.4586658 127.006167,24.2556679 126.9035,24.013 C126.800833,23.7703321 126.7495,23.4880016 126.7495,23.166 C126.7495,22.895332 126.820666,22.628168 126.963,22.3645 C127.105334,22.100832 127.342165,21.8628344 127.6735,21.6505 C128.004835,21.4381656 128.445831,21.2620007 128.9965,21.122 C129.547169,20.9819993 130.230829,20.9026668 131.0475,20.884 L131.0475,20.464 C131.0475,19.9833309 130.946001,19.6275012 130.743,19.3965 C130.539999,19.1654988 130.244835,19.05 129.8575,19.05 C129.577499,19.05 129.344168,19.0826663 129.1575,19.148 C128.970832,19.2133337 128.808667,19.2868329 128.671,19.3685 C128.533333,19.4501671 128.406167,19.5236663 128.2895,19.589 C128.172833,19.6543337 128.044501,19.687 127.9045,19.687 C127.787833,19.687 127.6875,19.656667 127.6035,19.596 C127.5195,19.535333 127.451834,19.4606671 127.4005,19.372 L127.0855,18.819 C127.911504,18.0629962 128.907827,17.685 130.0745,17.685 C130.494502,17.685 130.868998,17.7538326 131.198,17.8915 C131.527002,18.0291674 131.805832,18.2204988 132.0345,18.4655 C132.263168,18.7105012 132.436999,19.0033316 132.556,19.344 C132.675001,19.6846684 132.7345,20.057998 132.7345,20.464 L132.7345,25 Z M129.3745,23.922 C129.551834,23.922 129.715166,23.9056668 129.8645,23.873 C130.013834,23.8403332 130.154999,23.7913337 130.288,23.726 C130.421001,23.6606663 130.549333,23.5801671 130.673,23.4845 C130.796667,23.3888329 130.921499,23.2756673 131.0475,23.145 L131.0475,21.934 C130.543497,21.9573335 130.122335,22.0004997 129.784,22.0635 C129.445665,22.1265003 129.173834,22.2069995 128.9685,22.305 C128.763166,22.4030005 128.617334,22.5173327 128.531,22.648 C128.444666,22.7786673 128.4015,22.9209992 128.4015,23.075 C128.4015,23.3783349 128.491332,23.5953327 128.671,23.726 C128.850668,23.8566673 129.085165,23.922 129.3745,23.922 Z M139.4825,19.337 C139.431166,19.4023337 139.381,19.4536665 139.332,19.491 C139.283,19.5283335 139.211834,19.547 139.1185,19.547 C139.029833,19.547 138.9435,19.5201669 138.8595,19.4665 C138.7755,19.4128331 138.675167,19.352167 138.5585,19.2845 C138.441833,19.216833 138.303001,19.1561669 138.142,19.1025 C137.980999,19.0488331 137.781501,19.022 137.5435,19.022 C137.240165,19.022 136.974168,19.0768328 136.7455,19.1865 C136.516832,19.2961672 136.326667,19.4536656 136.175,19.659 C136.023333,19.8643344 135.910167,20.1128319 135.8355,20.4045 C135.760833,20.6961681 135.7235,21.0263315 135.7235,21.395 C135.7235,21.7776686 135.764333,22.1183318 135.846,22.417 C135.927667,22.7156682 136.045499,22.966499 136.1995,23.1695 C136.353501,23.372501 136.540166,23.5264995 136.7595,23.6315 C136.978834,23.7365005 137.226165,23.789 137.5015,23.789 C137.776835,23.789 137.999666,23.755167 138.17,23.6875 C138.340334,23.619833 138.483833,23.5451671 138.6005,23.4635 C138.717167,23.3818329 138.818666,23.307167 138.905,23.2395 C138.991334,23.171833 139.088166,23.138 139.1955,23.138 C139.335501,23.138 139.4405,23.1916661 139.5105,23.299 L140.0075,23.929 C139.816166,24.1530011 139.608501,24.3408326 139.3845,24.4925 C139.160499,24.6441674 138.928335,24.7654995 138.688,24.8565 C138.447665,24.9475005 138.199168,25.0116665 137.9425,25.049 C137.685832,25.0863335 137.431501,25.105 137.1795,25.105 C136.736164,25.105 136.318502,25.0221675 135.9265,24.8565 C135.534498,24.6908325 135.192668,24.4493349 134.901,24.132 C134.609332,23.8146651 134.378334,23.426169 134.208,22.9665 C134.037666,22.506831 133.9525,21.9830029 133.9525,21.395 C133.9525,20.867664 134.028333,20.3788356 134.18,19.9285 C134.331667,19.4781644 134.554499,19.0885016 134.8485,18.7595 C135.142501,18.4304984 135.506498,18.1726676 135.9405,17.986 C136.374502,17.7993324 136.873831,17.706 137.4385,17.706 C137.975169,17.706 138.445331,17.7923325 138.849,17.965 C139.252669,18.1376675 139.615498,18.3849984 139.9375,18.707 L139.4825,19.337 Z M144.0815,17.706 C144.534169,17.706 144.950665,17.7783326 145.331,17.923 C145.711335,18.0676674 146.039165,18.2788319 146.3145,18.5565 C146.589835,18.8341681 146.804499,19.1748313 146.9585,19.5785 C147.112501,19.9821687 147.1895,20.4429974 147.1895,20.961 C147.1895,21.0916673 147.183667,21.2001662 147.172,21.2865 C147.160333,21.3728338 147.139333,21.4404998 147.109,21.4895 C147.078667,21.5385002 147.037834,21.5734999 146.9865,21.5945 C146.935166,21.6155001 146.869834,21.626 146.7905,21.626 L142.3525,21.626 C142.403834,22.363337 142.602165,22.9046649 142.9475,23.25 C143.292835,23.5953351 143.750164,23.768 144.3195,23.768 C144.599501,23.768 144.840999,23.7353337 145.044,23.67 C145.247001,23.6046663 145.424333,23.5323337 145.576,23.453 C145.727667,23.3736663 145.860666,23.3013337 145.975,23.236 C146.089334,23.1706663 146.200166,23.138 146.3075,23.138 C146.3775,23.138 146.438166,23.1519999 146.4895,23.18 C146.540834,23.2080001 146.585166,23.2476664 146.6225,23.299 L147.1265,23.929 C146.935166,24.1530011 146.720501,24.3408326 146.4825,24.4925 C146.244499,24.6441674 145.996001,24.7654995 145.737,24.8565 C145.477999,24.9475005 145.214335,25.0116665 144.946,25.049 C144.677665,25.0863335 144.417501,25.105 144.1655,25.105 C143.666164,25.105 143.201835,25.0221675 142.7725,24.8565 C142.343165,24.6908325 141.969835,24.445835 141.6525,24.1215 C141.335165,23.797165 141.085501,23.3958357 140.9035,22.9175 C140.721499,22.4391643 140.6305,21.8850031 140.6305,21.255 C140.6305,20.7649976 140.709833,20.3041688 140.8685,19.8725 C141.027167,19.4408312 141.254665,19.0651683 141.551,18.7455 C141.847335,18.4258317 142.208998,18.1726676 142.636,17.986 C143.063002,17.7993324 143.544831,17.706 144.0815,17.706 Z M144.1165,18.945 C143.612497,18.945 143.218168,19.0873319 142.9335,19.372 C142.648832,19.6566681 142.466834,20.0603307 142.3875,20.583 L145.6355,20.583 C145.6355,20.3589989 145.605167,20.1478343 145.5445,19.9495 C145.483833,19.7511657 145.390501,19.5773341 145.2645,19.428 C145.138499,19.2786659 144.979834,19.1608338 144.7885,19.0745 C144.597166,18.9881662 144.373168,18.945 144.1165,18.945 Z M148.6175,25 L148.6175,14.598 L150.3465,14.598 L150.3465,18.7 C150.631168,18.3966652 150.953165,18.1551676 151.3125,17.9755 C151.671835,17.7958324 152.091831,17.706 152.5725,17.706 C152.964502,17.706 153.322665,17.7864992 153.647,17.9475 C153.971335,18.1085008 154.251332,18.3429985 154.487,18.651 C154.722668,18.9590015 154.904666,19.3393311 155.033,19.792 C155.161334,20.2446689 155.2255,20.7649971 155.2255,21.353 C155.2255,21.8896693 155.153167,22.3866644 155.0085,22.844 C154.863833,23.3013356 154.657335,23.6979983 154.389,24.034 C154.120665,24.3700017 153.796335,24.6324991 153.416,24.8215 C153.035665,25.0105009 152.609836,25.105 152.1385,25.105 C151.919166,25.105 151.718501,25.0828336 151.5365,25.0385 C151.354499,24.9941664 151.188834,24.9323337 151.0395,24.853 C150.890166,24.7736663 150.751334,24.6768339 150.623,24.5625 C150.494666,24.4481661 150.372167,24.3210007 150.2555,24.181 L150.1785,24.664 C150.1505,24.7853339 150.102667,24.8716664 150.035,24.923 C149.967333,24.9743336 149.875167,25 149.7585,25 L148.6175,25 Z M151.9775,19.05 C151.618165,19.05 151.311335,19.1258326 151.057,19.2775 C150.802665,19.4291674 150.565834,19.6426653 150.3465,19.918 L150.3465,23.138 C150.542501,23.3806679 150.755999,23.5498329 150.987,23.6455 C151.218001,23.7411671 151.468832,23.789 151.7395,23.789 C152.000835,23.789 152.236499,23.7400005 152.4465,23.642 C152.656501,23.5439995 152.834999,23.3946677 152.982,23.194 C153.129001,22.9933323 153.242166,22.7401682 153.3215,22.4345 C153.400834,22.1288318 153.4405,21.7683354 153.4405,21.353 C153.4405,20.9329979 153.406667,20.5771681 153.339,20.2855 C153.271333,19.9938319 153.174501,19.7570009 153.0485,19.575 C152.922499,19.3929991 152.769668,19.2600004 152.59,19.176 C152.410332,19.0919996 152.206168,19.05 151.9775,19.05 Z M159.6425,17.706 C160.179169,17.706 160.665664,17.7923325 161.102,17.965 C161.538336,18.1376675 161.910498,18.3826651 162.2185,18.7 C162.526502,19.0173349 162.764499,19.4046644 162.9325,19.862 C163.100501,20.3193356 163.1845,20.8303305 163.1845,21.395 C163.1845,21.9643362 163.100501,22.4776644 162.9325,22.935 C162.764499,23.3923356 162.526502,23.7819984 162.2185,24.104 C161.910498,24.4260016 161.538336,24.6733325 161.102,24.846 C160.665664,25.0186675 160.179169,25.105 159.6425,25.105 C159.105831,25.105 158.618169,25.0186675 158.1795,24.846 C157.740831,24.6733325 157.366335,24.4260016 157.056,24.104 C156.745665,23.7819984 156.505334,23.3923356 156.335,22.935 C156.164666,22.4776644 156.0795,21.9643362 156.0795,21.395 C156.0795,20.8303305 156.164666,20.3193356 156.335,19.862 C156.505334,19.4046644 156.745665,19.0173349 157.056,18.7 C157.366335,18.3826651 157.740831,18.1376675 158.1795,17.965 C158.618169,17.7923325 159.105831,17.706 159.6425,17.706 Z M159.6425,23.775 C160.239836,23.775 160.681999,23.5743353 160.969,23.173 C161.256001,22.7716647 161.3995,22.1836705 161.3995,21.409 C161.3995,20.6343295 161.256001,20.044002 160.969,19.638 C160.681999,19.231998 160.239836,19.029 159.6425,19.029 C159.03583,19.029 158.587835,19.2331646 158.2985,19.6415 C158.009165,20.0498354 157.8645,20.6389962 157.8645,21.409 C157.8645,22.1790039 158.009165,22.7658313 158.2985,23.1695 C158.587835,23.5731687 159.03583,23.775 159.6425,23.775 Z M167.6015,17.706 C168.138169,17.706 168.624664,17.7923325 169.061,17.965 C169.497336,18.1376675 169.869498,18.3826651 170.1775,18.7 C170.485502,19.0173349 170.723499,19.4046644 170.8915,19.862 C171.059501,20.3193356 171.1435,20.8303305 171.1435,21.395 C171.1435,21.9643362 171.059501,22.4776644 170.8915,22.935 C170.723499,23.3923356 170.485502,23.7819984 170.1775,24.104 C169.869498,24.4260016 169.497336,24.6733325 169.061,24.846 C168.624664,25.0186675 168.138169,25.105 167.6015,25.105 C167.064831,25.105 166.577169,25.0186675 166.1385,24.846 C165.699831,24.6733325 165.325335,24.4260016 165.015,24.104 C164.704665,23.7819984 164.464334,23.3923356 164.294,22.935 C164.123666,22.4776644 164.0385,21.9643362 164.0385,21.395 C164.0385,20.8303305 164.123666,20.3193356 164.294,19.862 C164.464334,19.4046644 164.704665,19.0173349 165.015,18.7 C165.325335,18.3826651 165.699831,18.1376675 166.1385,17.965 C166.577169,17.7923325 167.064831,17.706 167.6015,17.706 Z M167.6015,23.775 C168.198836,23.775 168.640999,23.5743353 168.928,23.173 C169.215001,22.7716647 169.3585,22.1836705 169.3585,21.409 C169.3585,20.6343295 169.215001,20.044002 168.928,19.638 C168.640999,19.231998 168.198836,19.029 167.6015,19.029 C166.99483,19.029 166.546835,19.2331646 166.2575,19.6415 C165.968165,20.0498354 165.8235,20.6389962 165.8235,21.409 C165.8235,22.1790039 165.968165,22.7658313 166.2575,23.1695 C166.546835,23.5731687 166.99483,23.775 167.6015,23.775 Z M174.2445,14.598 L174.2445,20.555 L174.5665,20.555 C174.683167,20.555 174.774166,20.5386668 174.8395,20.506 C174.904834,20.4733332 174.974833,20.4126671 175.0495,20.324 L176.8345,18.119 C176.913834,18.0256662 176.997833,17.9521669 177.0865,17.8985 C177.175167,17.8448331 177.291833,17.818 177.4365,17.818 L179.0185,17.818 L176.7855,20.485 C176.706166,20.5830005 176.6245,20.6728329 176.5405,20.7545 C176.4565,20.8361671 176.3655,20.907333 176.2675,20.968 C176.3655,21.0380004 176.451833,21.1196662 176.5265,21.213 C176.601167,21.3063338 176.675833,21.4066661 176.7505,21.514 L179.1445,25 L177.5835,25 C177.448166,25 177.333834,24.9766669 177.2405,24.93 C177.147166,24.8833331 177.063167,24.8040006 176.9885,24.692 L175.1615,21.969 C175.0915,21.8616661 175.0215,21.7916668 174.9515,21.759 C174.8815,21.7263332 174.776501,21.71 174.6365,21.71 L174.2445,21.71 L174.2445,25 L172.5155,25 L172.5155,14.598 L174.2445,14.598 Z" id="SigninwithFacebook" fill="#FFFFFF" fill-rule="nonzero"></path>
                    </g>
                </g>
            </g>
        </g>
    </g>
</svg>