<svg width="480px" height="283px" xmlns="http://www.w3.org/2000/svg" xmlns:xlink="http://www.w3.org/1999/xlink">
  <defs>
    <path d="M16 0h448a16 16 0 0 1 16 16v247a695.6 695.6 0 0 1-167.8-10c-56-10.8-80.9-43.4-140.4-43.4H0V16A16 16 0 0 1 16 0z" id="a"/>
    <path d="M621.7 220.5c-11.7-.3-20-.3-25.1 0-30.5 1.6-52.7 3.6-68.4 3.6-29.5 0-57.7-4.3-83.2-3.6-46.6 1.3-63.4 8.1-84 13.4-13.1 3.4-19.5 3.8-31.3 5.2-47.2 5.3-47.6 10.7-26.6 12.4 21 1.7 74.7 1.9 113 11.7 38.5 9.9 126.4-9.8 145.5-9.8h60.1v-32.9z" id="c"/>
    <filter x="-0.8%" y="-5.5%" width="101.5%" height="110.9%" filterUnits="objectBoundingBox" id="d">
      <feOffset dy="-5" in="SourceAlpha" result="shadowOffsetInner1"/>
      <feComposite in="shadowOffsetInner1" in2="SourceAlpha" operator="arithmetic" k2="-1" k3="1" result="shadowInnerInner1"/>
      <feColorMatrix values="0 0 0 0 0.950866284 0 0 0 0 0.898140144 0 0 0 0 0.718871269 0 0 0 1 0" in="shadowInnerInner1"/>
    </filter>
    <path id="e" d="M440.7 233.3v13.6l-81.6-9v-13z"/>
    <filter x="-1.8%" y="-6.8%" width="103.7%" height="113.6%" filterUnits="objectBoundingBox" id="f">
      <feOffset dy="3" in="SourceAlpha" result="shadowOffsetInner1"/>
      <feComposite in="shadowOffsetInner1" in2="SourceAlpha" operator="arithmetic" k2="-1" k3="1" result="shadowInnerInner1"/>
      <feColorMatrix values="0 0 0 0 0.950866284 0 0 0 0 0.898140144 0 0 0 0 0.718871269 0 0 0 1 0" in="shadowInnerInner1"/>
    </filter>
    <path d="M23.8 0c23.3 14.6 29.5 47.3 18.7 98l-18.7 3.8V0zm0 0v101.8L5.1 98C-5.7 47.3.6 14.6 23.8 0z" id="g"/>
    <filter x="-6.3%" y="-2.9%" width="112.6%" height="105.9%" filterUnits="objectBoundingBox" id="h">
      <feOffset dx="-6" dy="-4" in="SourceAlpha" result="shadowOffsetInner1"/>
      <feComposite in="shadowOffsetInner1" in2="SourceAlpha" operator="arithmetic" k2="-1" k3="1" result="shadowInnerInner1"/>
      <feColorMatrix values="0 0 0 0 0.900722789 0 0 0 0 0.900722789 0 0 0 0 0.900722789 0 0 0 1 0" in="shadowInnerInner1"/>
    </filter>
    <circle id="k" cx="34.3199959" cy="47.2799944" r="11.2799987"/>
    <filter x="-4.4%" y="-4.4%" width="113.3%" height="117.7%" filterUnits="objectBoundingBox" id="j">
      <feOffset dx="1" dy="2" in="SourceAlpha" result="shadowOffsetOuter1"/>
      <feColorMatrix values="0 0 0 0 0.901960784 0 0 0 0 0.901960784 0 0 0 0 0.901960784 0 0 0 1 0" in="shadowOffsetOuter1"/>
    </filter>
    <circle id="l" cx="34.3199959" cy="47.2799944" r="7.91999906"/>
    <filter x="-12.4%" y="-12.4%" width="124.7%" height="124.7%" filterUnits="objectBoundingBox" id="m">
      <feOffset dx="1" dy="2" in="SourceAlpha" result="shadowOffsetInner1"/>
      <feComposite in="shadowOffsetInner1" in2="SourceAlpha" operator="arithmetic" k2="-1" k3="1" result="shadowInnerInner1"/>
      <feColorMatrix values="0 0 0 0 0 0 0 0 0 0 0 0 0 0 0 0 0 0 0.5 0" in="shadowInnerInner1"/>
    </filter>
    <path d="M2 4.3h35c.2 0 .4.2.4.5v15.4c0 .2-.2.4-.4.4H2a.5.5 0 0 1-.6-.4V4.8c0-.3.3-.5.5-.5z" id="n"/>
    <filter x="-2.8%" y="-6.1%" width="105.6%" height="112.3%" filterUnits="objectBoundingBox" id="o">
      <feOffset dx="2" dy="1" in="SourceAlpha" result="shadowOffsetInner1"/>
      <feComposite in="shadowOffsetInner1" in2="SourceAlpha" operator="arithmetic" k2="-1" k3="1" result="shadowInnerInner1"/>
      <feColorMatrix values="0 0 0 0 0.266741071 0 0 0 0 0.266741071 0 0 0 0 0.266741071 0 0 0 0.5 0" in="shadowInnerInner1"/>
    </filter>
    <path d="M460.4 240.5l.2-.1.2-.4.2-.6 1.2-4.8h.5l1.3 4.4a6.1 6.1 0 0 1 .2.9l.4-.1v.6l-1.7.3v-.6c.2 0 .3-.1.3-.4l-.1-.4-.1-.4-1.4.3-.1.4-.1.3-.1.4h.4v.6l-1.3.2v-.6zm2.4-2.2l-.3-1-.2-1.2-.3 1.2-.3 1.2 1.1-.2zm5.9 1.6c-.5 0-.9 0-1.2-.2a2 2 0 0 1-.7-1c-.2-.4-.3-1-.3-1.5 0-.6 0-1.1.3-1.6.1-.6.4-1 .7-1.4a2 2 0 0 1 2.4-.4v-.4h.5v2h-.4c0-.4-.2-.8-.4-1a.9.9 0 0 0-.8-.2c-.3 0-.5.2-.7.4l-.5 1a5 5 0 0 0 .3 3c.2.5.5.6 1 .6a2.4 2.4 0 0 0 .8-.4v-1.6h-.3l-.1.1v-.6l1.7-.3v.5l-.3.1-.1.3v1.8h-.2l-.3.2-.4.2-.5.2-.5.2zm2.7-1.2h.3l.1-.3v-4.6l-.4.1v-.7l1.8-.3c.6 0 1 0 1.4.2.3.3.4.7.4 1.3 0 .4 0 .8-.2 1.1-.2.4-.5.6-.9.8l.3.2.2.3.3.6.3.5.4.2v.5l-1 .2-.3-.2-.2-.5-.5-1-.3-.4h-.3v1.7h.5v.6l-1.9.3v-.6zm1.7-2.7c.3 0 .6-.2.7-.4.2-.2.3-.6.3-1 0-.5-.1-.8-.3-1a.8.8 0 0 0-.6 0l-.3.1-.1.6v1.8h.3zm2.7 2l.2-.1.2-.2v-4.6h-.4v-.6l3.2-.5v1.7h-.4c0-.4 0-.7-.2-.8a.6.6 0 0 0-.6-.2l-.2.1h-.2l-.2.3v1.8l.7-.1v-.8h.5v2l-.4.1-.1-.5-.2-.1h-.5v2.2l.8-.1c.2 0 .4-.2.5-.4.2-.3.3-.6.3-1h.4v1.8l-3.4.6v-.6zm3.7-.6l.3-.2.1-.4.2-.5 1.2-4.8.5-.1 1.3 4.5a6.1 6.1 0 0 1 .2.8l.4-.1v.7l-1.7.2v-.5c.2 0 .3-.2.3-.4v-.4l-.2-.5-1.4.3-.1.4v.3l-.2.4h.4v.6l-1.3.3v-.6zm2.4-2.3l-.3-1-.2-1.1c0 .4-.2.8-.3 1.1l-.2 1.2 1-.2zm3 1.4l.2-.1.2-.2v-4.7h-.3l-.6.5-.2 1-.4.1v-2l4-.5v1.9h-.5c0-.4 0-.7-.2-1a.5.5 0 0 0-.6-.2h-.3v5l.5-.1v.7l-1.8.3v-.6zm6.6-.4h-.6l-.5-.2v.3l-.5.1v-2h.4l.4 1c.3.2.5.2.8.2l.6-.3.2-.7c0-.1 0-.3-.2-.4a1 1 0 0 0-.3-.3 8 8 0 0 0-.5-.2c-.5-.2-.9-.4-1.1-.7-.3-.3-.4-.7-.4-1.2 0-.3 0-.5.2-.8l.4-.7 1-.4h.5c.2 0 .4.1.5.3v-.4h.5v2h-.5c0-.5-.1-.8-.3-1a.7.7 0 0 0-.8-.3l-.4.3-.3.6.3.6.8.4c.4.2.8.4 1 .7.3.2.4.6.4 1s0 .7-.2 1a2 2 0 0 1-1.4 1.1zm3-1.2l.3-.1.1-.2v-4.7h-.2a1 1 0 0 0-.6.5l-.2 1-.4.2v-2l3.9-.6v1.9h-.4c0-.4 0-.7-.2-1a.5.5 0 0 0-.6-.2h-.3v5l.5-.1v.7l-1.9.3v-.6zm5.5-.2c-.6.1-1 0-1.3-.2-.3-.3-.6-.6-.7-1-.2-.5-.3-1-.3-1.6l.3-1.5c.2-.5.4-1 .8-1.3a2 2 0 0 1 1.2-.7c.5-.1.9 0 1.2.3.3.2.6.6.8 1l.2 1.5c0 .5 0 1-.3 1.5-.1.5-.4 1-.7 1.3a2 2 0 0 1-1.2.7zm0-.6c.3 0 .5-.2.7-.5l.4-1a5.7 5.7 0 0 0-.2-3c-.2-.5-.6-.6-1-.6a1 1 0 0 0-.7.5c-.1.3-.3.6-.3 1a6 6 0 0 0 0 2.3c0 .4.2.7.4 1 .2.2.4.3.7.3zm2.7-.6h.3l.1-.3v-3.8l.1-.8-.5.1v-.6l1.9-.4c.5 0 1 0 1.3.2.3.3.5.7.5 1.3 0 .4-.1.8-.3 1.1-.2.4-.5.7-.8.9l.2.1.2.3.3.6.4.6h.3v.7l-1 .1-.3-.2-.2-.5-.5-1c0-.2-.2-.3-.3-.4h-.3v1.7h.5v.6l-1.9.3v-.6zm1.7-2.6c.4-.1.6-.2.8-.5l.2-1c0-.5 0-.8-.3-1a.8.8 0 0 0-.6 0l-.3.1v2.4h.2zm3.7 1.8l.3-.1.1-.3v-1.2l-1.1-2.3-.2-.5v-.3h-.4v-.6l1.9-.3v.5l-.3.2c-.1 0-.2.1-.2.3l.1.3.5 1a35.5 35.5 0 0 1 .3.8v-.2a19.7 19.7 0 0 0 .3-.7l.4-1 .3-.8h-.5v-.6l1.4-.2v.6l-.4.3-.3.7-.8 2.3v1.8l.5-.1v.6l-2 .3v-.5z" id="q"/>
    <filter x="-3.0%" y="-3.5%" width="103.9%" height="106.9%" filterUnits="objectBoundingBox" id="p">
      <feOffset dx="-1" in="SourceAlpha" result="shadowOffsetOuter1"/>
      <feColorMatrix values="0 0 0 0 0.719228316 0 0 0 0 0.579059125 0 0 0 0 0.0843697042 0 0 0 1 0" in="shadowOffsetOuter1"/>
    </filter>
    <path d="M20.5.5c-3.5 3.7-6.6 7.2-9 10.5-6 5.5-7.4 5.8-9 6.9-1.7 1-3.3 4.7-1.7 8.7 1.7 4 1.8 8.5 2.7 14.6.6 4 5.3 5.6 14.2 4.7-.7-4.7-1-7.5-1-8.4 0-1.3 2.8-3.9 1.9-6.8 7.5-2 8.3-.6 10-2.7 1.2-1.4-1.2-3.7-7-6.8-1.3.2-2 .5-2.4 1.2l2.3 2.4c-2.7.4-5.2.4-7.5 0a24 24 0 0 1-7.9-3.6c7-6.2 11.2-9.9 12.5-10.9 1.9-1.4 3.4-8.2 4.1-9-.4-1-1.2-1.2-2.2-.8z" id="r"/>
    <path d="M8.1.3C5.4-.2 2.5.4.8 3.7c-.6 1.3 0 3 0 4.8 0 .7.5 2.2.5 3 0 1.2-.6 1.6-.5 2.7.2 1 0 2.4 0 3 0 1 .6 1.8.7 2.4.2 1-.2 1.9-.7 2.9-.8 1.6-.4 6.3 2 5.4 2.3-.8 5.4 2.9 6.6.7.4-.9.5-1.7 1-2.7.3-.7.7-1.3.8-2.2.3-1-.2-2.4-.4-3.8 0-.6.6-1.7.4-2.7-.3-1.1-.5-2.2 0-2.2l2.1.4c.5 0 1.3.4-1-1.2s-2.3-2.8-2.3-4c0-.6-1-1.5-.6-2.7.4-1.2 1.3.2 1.8 0s.3-1 .6-1.4c.6-.6.2-1.8 0-2.1C11 2.3 9.8.7 8.1.3z" id="t"/>
    <path d="M.6.2C.3 3.8.1 7.2.1 10.6c0 5 2 12.1 2 18.2s-2.2 20-1.2 21c1 1.3 4.7 3 7 .8 2.3-2.1 0-7.7 1.3-16.1.4-2.5 1-9.8 1.2-12 0-1.4 0-3 .3-3.8 1.6 3.8 2.3 7.8 2 12-.4 5.5-.6 13.3-.6 23.5a5.4 5.4 0 0 0 4.2 2.1c1.6 0 2.7-.4 3.2-1.4l.7-12.5c.1-3.6 1.7-13.6 2-15.5.8-6 0-7.7 0-12.6 0-3.2-1-8-2.7-14H.6z" id="v"/>
    <path d="M1 5C.4 3.4 0 2.3.4 1.9c.4-.6.7 0 2.6 0C6 .2 8-.2 8 .5c0 .9.8 1.3.4 2.1-.3.9.3 1.3-.3 1.9-.7.6-2.2 2-3.7 1.7C3 6.4 2 6 1.1 5.1z" id="x"/>
    <path d="M5.7.2C1.7.6 0 3.8.6 9.8c1.2 3.3 3 6.2 3.8 9.1 1.3 5.1 1.4 9.5 2.4 10.2a27 27 0 0 0 15.4 2.8 5.7 5.7 0 0 0 4.6-2.8c-.2-5.4-.5-8.8-1-10.2-.5-2-.8-10.2-2.9-12.4-2.1-2.3-7.2-5-9.6-5-1.5 0-4-.4-7.6-1.3z" id="z"/>
    <path d="M1.3 13.2c.4.9.5 1.6.3 2.2-.3.8 2.5 2.8 5.4 1.4 1.3-.4 2-1.2 1.7-2.2-1-1.5-1-2.7 0-3.3C10 10.3 11 10 10.5 8c-.4-1.9-.4-1.9-.4-2.8 0-1 0-1.5-.7-2.2C8.7 2.4 8 .5 6.7.5 5.4.5-.9 8 .2 10a7.6 7.6 0 0 1 1.1 3.2z" id="B"/>
    <path d="M.5 3c0 .5-.3 6 .9 12.4.7 4 .6 6.1.9 11.2 0 1-.8 6.1-1 10.4 0 5 .6 7.8.6 8.8 0 1 3.7 1 5.4-.7L10 29.8c.4-2-.1-12.4 0-14 .4 1.1 2 9.3 2.2 12.3.2 2.6-.5 11.5-.4 12.7l.7 9.7c.3.8.9 1.3 1.7 1.3 2.4 0 3.8-1 3.8-2.2 0-1.4 1.2-3.5 1.3-8.3 0-2.6.7-8 .7-9.8 0-2.3 1-8.3 1.3-13.4.3-6.2-.1-12.5-1.9-15.3C16.2-2.3.4 2.5.4 3z" id="D"/>
    <path d="M20.9 9.1c-.4 0-.8-.5-1.1-1.3A9.3 9.3 0 0 0 15 3.2C12.6 2.5 5 0 4.4.2c-.7.2-1.7.9-1 4C4 7.6 8 15 7.4 17c-.3 1-2.1 4.3-4 7.2-1.7 2.5-2.8 7.6-3 8 0 .1 12 9 22.6 2 1.4-.2-5.6-8.7-3-14.2a14 14 0 0 0 .9-10.8z" id="F"/>
    <path d="M11.8.2l-.1.3a34.1 34.1 0 0 1-7.4 9C.2 12.7-.2 14 .3 16c.4 2 8.5 7 9 7.3.6.3 1.2 1.3 1.9.9.6-.4 3.2-2.8 3.2-4.7 0-1.8-2.1 1.5-3 1.5a31 31 0 0 1-5.5-6c2.6-2 5-4.2 7.2-6.5-.7-2-1.2-3.8-1.6-5.4-.2-.9 0-1.8.3-2.8z" id="H"/>
    <path d="M21.3.4c-2.5 1.6-5 3.6-7.5 6-6.5 2-9.8 1-10.8 1s-4 1.6-2.6 7c.7 1.7 2 0 3.4 0s11.5-2.3 13.7-3.8a28 28 0 0 0 6-8.4L21.3.4z" id="J"/>
    <path d="M15.5 12.5c-2.4 3.9-6 5.8-10.6 5.8C1.2 14.3-.8 9.9.5 5c1.3-5 8-5.1 8.4-5 .4.3 3.5 3.1 5 10 .3 1 .8 2 1.6 2.4z" id="L"/>
    <path d="M45 25l7.6 5.5c.2.2.4.1.6 0a21 21 0 0 1 5.4-4l5.9-8a2 2 0 0 0 0-2.1c-.3-.8-.6-1.1-.7-1.1-.3 0-1.3 1.3-1.6 1.3-.3 0-.5-.2 0-.9l1-1.3A1 1 0 0 0 63 13l-.4-.3a1 1 0 0 0-1.4 0l-1 1c-.2.3-.5.3-.7.1a.4.4 0 0 1 0-.5l1-1.3a1 1 0 0 0-.3-1.4l-.5-.3a1 1 0 0 0-1.2.2l-1 1c-.2.2-.4.3-.6.1a.3.3 0 0 1 0-.5l6-8.3c.5-.6.4-1.5-.2-2l-.5-.3a1.4 1.4 0 0 0-2 .3l-9.8 13.8a.3.3 0 0 1-.5 0 .4.4 0 0 1 0-.5l1.7-2.5c-.7 0-1.3.2-1.7.6a20 20 0 0 0-2.7 3.9c-.2.7 0 4.7-.2 5.5l-2 2.6a.5.5 0 0 0 0 .7z" id="O"/>
    <filter x="-2.5%" y="-1.7%" width="105.0%" height="106.6%" filterUnits="objectBoundingBox" id="N">
      <feOffset dy="1" in="SourceAlpha" result="shadowOffsetOuter1"/>
      <feColorMatrix values="0 0 0 0 0.719228316 0 0 0 0 0.579059125 0 0 0 0 0.0843697042 0 0 0 1 0" in="shadowOffsetOuter1"/>
    </filter>
    <path d="M3.8 1.3A26 26 0 0 0 2.4 10c0 4.7.6 9.6-.6 13A37 37 0 0 0 .2 35c0 3.8 0 6.8.5 7.6.5.8 4.2 1 5 0 .6-1 1.3-2.2 1.3-3.7s-.3-5.3 1-10.2c1.1-4.9 3-7.2 3-10 .9 4.3 1.3 6.8 1.3 9.5 0 2.6-.5 11.9.7 24.4 3 1.3 8 .4 8.3-1 .3-1.4.5-4.8-.3-9.4a44 44 0 0 1 .3-15c.8-5.6 2.2-12.5-.9-21.1-2-5.8-7.6-7.4-16.6-4.8z" id="P"/>
    <path d="M21.8 14.1c0 1.5 0 2.8.3 3.8.4 2 .5 6.3 0 8.7-3.8 3.4-9 2.9-15.7-1.5-.2-3-.4-4.9-.7-5.6-2-4.7-4.6-5.2-5.1-9.7-.6-4.5-.3-7.2 3-8.6 2.1-1 5.2-.2 9.1 2.3a1662.6 1662.6 0 0 0 6 4.4H23c1.4-.1 4.8-.7 10.3-1.7a42 42 0 0 1 10-6c1.5.2 2.2 1.2 2.2 2.8l-6.8 6.7c-1.2 1-2.3 2-6.5 2.4-2.8.2-6.5 1.3-10.4 2z" id="R"/>
    <path d="M.4 13c.3 0 .4-1 .2-2.7C.4 7.8 4.8-1.2 6.3.6c1.6 1.8 2 2.6 2.7 3 .6.3-.2.8 0 1.4 0 .6.5 2.2.3 3.1-.3 1-1.9 1.8-2 2l.2 2.1c0 1 .8 1.3-1.6 2-2.1.6-4 .3-5.5-1.1z" id="T"/>
    <path d="M31 1.8v21.7c0 1.5 1 2.8 2.4 3.2l24.7 7.5a1.4 1.4 0 0 0 1.9-1.4V11c0-1.5-1-2.8-2.4-3.2L32.9.4A1.4 1.4 0 0 0 31 1.8z" id="W"/>
    <filter x="-1.7%" y="-4.4%" width="106.9%" height="105.9%" filterUnits="objectBoundingBox" id="V">
      <feOffset dx="1" dy="-1" in="SourceAlpha" result="shadowOffsetOuter1"/>
      <feComposite in="shadowOffsetOuter1" in2="SourceAlpha" operator="out" result="shadowOffsetOuter1"/>
      <feColorMatrix values="0 0 0 0 0.931335034 0 0 0 0 0.752056206 0 0 0 0 0.00374827073 0 0 0 1 0" in="shadowOffsetOuter1"/>
    </filter>
    <path d="M9.7.1a40 40 0 0 0-1.4 8.7c0 3.2 1.4 6 .7 7.3-.7 1.3-5.2 9-6.2 14.6C1.8 36.2.3 36.3.3 38c0 1.7-.6 1.6 1.4 2.6 2.1 1 4.2 1.1 6.1-2.6 1.4-2.8 3.6-7.2 6.7-14.5 1.2-2.7 2.1-6.3 3.7-9.7a12 12 0 0 1 2.6 5.8c.7 3.3 3 5.5 2 8-1 2.4-4 9.5-4.6 17.8-.1 1.5-2.2 4-2.2 4.7 0 .7 5 5.1 9.5 1.6-.4-2-1-2.7 0-4a111 111 0 0 0 6-20.1c.5-3 1-9.8-.7-17.5-.3-1.7-1.6-4.1-3.6-7.2L9.7.1z" id="X"/>
    <path d="M2.4 10.9a5 5 0 0 1-.8-2.7c0-.6-1.7-2.4-1.4-2.8 0-.1 1-.9 1.7-2C2.7 2 2 .7 3.5.4l1 .5C5.5 1.4 6.8 3 6.7 4c-.2 1.6-1.4 3.1-1.8 3.1-.2 0 0 .5.6 1.6" id="Z"/>
    <path d="M15.5 29.7a20 20 0 0 0 2 8c2.1 5.2 5 5.7 5 10.6 4.1 3.1 13.2 6.7 17.4 3.1.2-2 .3-4 .2-6.2 0-.5 4.2 4.7 8 1.3 2-2-.2-15.1-4-19.9-1.2-1-4.4.4-4.6 2.6-.1 1.4 2.2 5.8 1.4 5.7a18 18 0 0 0-6.8-7.7c-7-3.5-10.6-2.7-12.4-3.5a34 34 0 0 1-10.7-10A45.7 45.7 0 0 1 5 .4 27 27 0 0 1 .1 3l.5.7C1.4 5.9 3.7 15.5 5 17.8c2.4 4 10.5 10.6 10.4 12z" id="ab"/>
    <path d="M2.4 10.9c0 .7 0 1.3-.3 1.7-.3.8-.4 2.4 3 2.7 2.3.2 4.1-.3 5.4-1.5-1-.9-1.2-1.9-.8-2.9.8-1.6 3.4-4.9 3-6l-1-2.4V1.4c-.2-.7-.9-.6-2-1-1-.2-4 0-7 2.2C-.2 5 .1 8.4 1.4 9.6c.9.9 1.2 1.3 1 1.3z" id="ad"/>
  </defs>
  <g fill="none" fill-rule="evenodd">
    <mask id="b" fill="#fff">
      <use xlink:href="#a"/>
    </mask>
    <use fill="#FFF" xlink:href="#a"/>
    <g mask="url(#b)">
      <g transform="translate(-92 -66)">
        <path fill="#F7F7F7" opacity="0.5" d="M0 0h614.4v266H0z"/>
        <path d="M406.6 225.7a117 117 0 0 0 16.4-11.4c3-2.8 6.9-6.8 11.4-12 3.2-9.2 6.5-12.5 10-9.9a47 47 0 0 1 7.2 6.5c10.2 2.3 15.5 2.3 15.9 0 .6-3.4 3.8-9.8 5.7-11.3 2-1.5 2.6-1.4 4.8-1.4 2.2 0 .7 3.4 3.8 3.4 3 0 3.8 6.5 10.5 6.5 2 0 3-2.6 7.5-6.5a18 18 0 0 1 5.5-2c1.6.3 2.6.7 2.9 1.2 2.3 4.1 1.4 6.2 2.6 7.3 1.3 1.2.3 1.7 5.2 0 1.9-.6 3.9 1.7 6.4 2.8 2 1 4.3-.6 6.3 0 2 .7 1.3 3.4 4.8 3.4 1 0 2.9-3.7 5.2-3.9 4.9-.4 7.8 1.8 11 .5 2-.7 8-10 10.8-9.3 6 1.5 9.1 14.8 9.1 17 0 1.2.1 6.3 5.8 4.6 4.6-1.3 8.4 1.6 11.4 6 .7 1 3.5 3.9 8.4 8.5H406.6z" fill="#E9E9E9"/>
        <path d="M0 229.4h614.4V436c-68.9 1.6-139 2.3-210.2 2.3-107 0-135-47.4-215-83.9C136 330 72.8 314.8 0 308.8v-79.4z" fill="#F7F7F7"/>
        <path d="M621.7 237.1H420c-59.6 3.4-98.6 6-117 7.5-27.4 2.3-20.9 9 0 10.7 21 1.7 74.8 1.9 113.2 11.8 38.4 9.8 126.3-10 145.4-10h60.1v-20z" fill="#D5D5D5" opacity="0.209999993"/>
        <use fill="#FCF2D0" xlink:href="#c"/>
        <use fill="#000" filter="url(#d)" xlink:href="#c"/>
        <path d="M356.6 240l12.5 2.9 79.8 8.9 46.2-2.3a222 222 0 0 1 22.9-6.4c2.9-.6 15.9-2.2 39-4.8l1.8-1.5-34-2.4-88.2 2.8-80 2.7z" fill="#F2E5B7"/>
        <path d="M525.4 221.1v13.2c0 1.2-.9 2.2-2 2.4L445 249c-1.5.2-3 .2-4.4 0h-.6v-18.3l2.8.3 81.2-12c.5.1.8.3 1 .5l.3 1.5z" fill="#D5AC00"/>
        <path d="M354.3 223v.5c0 .5.4.9.9 1l84.2 8.6c.8.1 1.3.7 1.3 1.5v10.7a1.4 1.4 0 0 1-1.6 1.4l-83.8-9.3a.8.8 0 0 0-1 .9c0 .5.4 1 .9 1l86.1 10a1.4 1.4 0 0 0 1.6-1.5v-15.4c0-.8-.5-1.4-1.3-1.5l-86.2-8.9a1 1 0 0 0-1 1z" fill="#FCDA4E"/>
        <path fill="#EDC001" d="M440.7 233.3v13.6l-85.4-9.5 32.9-4.6z"/>
        <use fill="#FFFAE8" xlink:href="#e"/>
        <use fill="#000" filter="url(#f)" xlink:href="#e"/>
        <path fill="#EDC001" d="M446.2 213.1l77.9 6-81.2 12-87.6-9z"/>
        <path d="M523.4 236.7l-80.5 12.7v-2.3l82.5-13.3v.5c0 1.2-.9 2.2-2 2.4z" fill="#AD8C00" opacity="0.300000012"/>
        <ellipse fill="#D5AC00" cx="440.159948" cy="221.039974" rx="53.7599936" ry="5.0399994"/>
        <ellipse fill="#FFF" cx="440.159948" cy="220.319974" rx="52.7999937" ry="4.79999943"/>
        <rect stroke="#979797" stroke-width="0.5" fill="#D8D8D8" x="433.689948" y="219.129974" width="10.5399987" height="1" rx="0.5"/>
        <path d="M404.3 218.2a57 57 0 0 1 19 1.9c2.5.9 5.4 1.5 8.6 1.9 2.1.2 3.5 2.8 14 4.5 10.4 1.8 8.9-.2 26 2.1a68 68 0 0 0 30.6-2c-4.2-4.4-12-7.1-23.3-8.4-7.1-.8-13.1-.6-22.3-.6-5.9 0-10-2-18-2-3.8 0-6.7 2-15 2-5.4 0-12 .2-19.6.6z" fill="#CEB357" opacity="0.200000003"/>
        <path d="M454.3 177.3C464.7 183 471 196.6 473 218c-5.5.6-6.5-5.6-8-11.7-1-4-4.6-8.1-10.8-12.4v-16.7z" fill="#D5AC00"/>
        <path d="M454.3 175.4a68.7 68.7 0 0 1 11.8 14.8c3.5 7-2.1 13-3.3 11.5a50 50 0 0 0-8.5-7.7v-18.6z" fill="#D5AC00"/>
        <path fill="#474747" d="M430.6 210.2l1.4-10h13.4l1.6 10-8 3.9z"/>
        <path fill="#D5AC00" d="M421.4 200.2l.8 2.6 16.8 3.4 16-3.4.8-2.6z"/>
        <path d="M423 177.3c-10.5 5.7-16.8 19.3-18.8 40.8 5.4.6 6.5-5.6 8-11.7.9-4 4.5-8.1 10.8-12.4v-16.7z" fill="#EDC001"/>
        <g transform="translate(414.8 102.2)">
          <mask id="i" fill="#fff">
            <use xlink:href="#g"/>
          </mask>
          <use fill="#FFF" xlink:href="#g"/>
          <use fill="#000" filter="url(#h)" xlink:href="#g"/>
          <path d="M25.4 75.8c3 6 4.9 13.4 5.5 22.4h-8l2.5-22.4z" fill="#E6E6E6" mask="url(#i)"/>
        </g>
        <g transform="translate(404.2 102.2)">
          <use fill="#000" filter="url(#j)" xlink:href="#k"/>
          <use fill="#EDC001" xlink:href="#k"/>
        </g>
        <g transform="translate(404.2 102.2)">
          <use fill="#6F6F6F" xlink:href="#l"/>
          <use fill="#000" filter="url(#m)" xlink:href="#l"/>
          <circle stroke="#B79416" stroke-width="0.959999886" cx="34.3199959" cy="47.2799944" r="8.399999"/>
        </g>
        <path d="M438.5 177.3h.8c.5 0 1 .4 1 1v43.4c0 .6-.5 1-1 1h-.8a1 1 0 0 1-1-1v-43.4c0-.6.5-1 1-1z" fill="#EDC001"/>
        <path d="M545.8 229.4h32.8l27.5 3.9a.5.5 0 0 1 0 1h-30.4l-30-2.9a1 1 0 0 1-.9-1c0-.5.4-1 1-1z" fill="#F2E5B7"/>
        <path d="M554.4 204.5h8.2c.8 0 1.4.6 1.4 1.4v23.5c0 .8-.6 1.5-1.4 1.5h-8.2c-.8 0-1.4-.7-1.4-1.5V206c0-.8.6-1.4 1.4-1.4z" fill="#D8D8D8"/>
        <path d="M554.4 213.1h8.2c.8 0 1.4.7 1.4 1.5v13.9h-11v-14c0-.7.6-1.4 1.4-1.4z" fill="#BBB"/>
        <path d="M540.5 207.4h36c.8 0 1.4.6 1.4 1.4v16.3c0 .8-.6 1.5-1.4 1.5h-36c-.8 0-1.5-.7-1.5-1.5v-16.3c0-.8.7-1.4 1.5-1.4z" fill="#7B7B7B"/>
        <g transform="translate(539 204.5)">
          <use fill="#636363" xlink:href="#n"/>
          <use fill="#000" filter="url(#o)" xlink:href="#n"/>
        </g>
        <text font-family="Lato-Bold, Lato" font-size="13.4399982" font-weight="bold" fill="#FFF" transform="translate(539 204.5)">
          <tspan x="5.27999937" y="16.8399995">T-10</tspan>
        </text>
        <text transform="rotate(95 449.6 184)" font-family="Lato-Bold, Lato" font-size="2.87999966" font-weight="bold" letter-spacing="0.575999893">
          <tspan x="438.595382" y="184.905787" fill="#2A2A2A">DISCOVERY</tspan>
        </text>
        <circle fill="#FFF" cx="524.159938" cy="142.559983" r="15.8399981"/>
        <circle fill="#FFF" cx="441.839947" cy="145.199983" r="1"/>
        <g transform="rotate(.3 485.7 234)">
          <use fill="#000" filter="url(#p)" xlink:href="#q"/>
          <use fill="#FFF" xlink:href="#q"/>
        </g>
      </g>
    </g>
    <g transform="translate(18 131)">
      <path d="M35.4 89.6c-6.6.8-10.4-3.2-19.7.7-5.5 2.3-1.6 6.4-5.6 7.2-18.5 3.6-6.3 10.3 5.6 17.4 2.5 1.5 8.8 5 4.7 14.6-4.7 11.3 13 12.7 26.2 19 16.6 7.9 33.1-3.7 35.8-7.7 9.4-14.2 21.2-7.6 34.4-2.2 11.6 4.8 14-9.6 21.6-9.1 11.5.7 9-.4 18.7 3.7 9.7 4 4 7.4 11.8 12.6 1 .7 4.5 2.1 9.7 2.7 8.2.8 14-1.7 15.4-4 2-3.9 3.5-8.3-2.8-10.6-4.8-1.7-13.6-1.4-21.7-4.4-3.8-1.4-1.9-5.5-4.5-10.5-2.8-5.3-6.2.3-15.4-2.2-9.2-3.8-26.6.9-36-1.9-1.5-.4-10.1 1.4-10.1-2.8 0-7.5-11.7-18-26.5-11.2-3.1 1.5-2.2-5-3-7.2-2.6-6.9-11.5-2.7-15.4-4.1a79.8 79.8 0 0 0-23.2 0z" fill="#F7F7F7"/>
      <path d="M13.7 92.3c-.5 2-.8 3.9-.8 5.6.1 1.3.6 2 1.5 2.2 1.3.3 3.7 1.2 5.1-.6 1.4-1.9 1.4-1.8 2.2-2.4.8-.7 2.5-4 2.1-4.5-.4-.5-.3-2.4-3-2.1-1.2 0-3 1.5-4.1 1.8-.3 0-.5-.2-.6-.9l-2.4.9zm12.6 12.2c-.2.5-.3 1-.3 1.7v2.6c.2 1 3 1.3 4.2 1 .3-.2.5-.5.6-1 0 .2.5.3 1.9.3 2 0 4.9-.7 5.5-1.2.7-.4-.3-3.4-2.4-3.4-2 0-3.7-1.3-5.6-1.3-1.2 0-2.5.4-3.9 1.3z" fill="#868686"/>
      <path d="M89.6 102.3v2.6c.2 1 1.7 1.7 2.3 1.7.6 0 2.6-.7 3.4-1.2.8-.5 2-.2 2.6-.5.7-.3 3.2-1.6 2.2-3-.9-1.5-3-.5-5.5-1.2-1.6-.4-3.3 0-5 1.6zM79 99c-.5.6-.6 1.2-.4 1.7.4.9-.3 1.2.4 1.7s3 1 4.2.4c.6-.3.8-.7 1-.9l1.5-.8c1.1-.6 2.3-.6 2.3-1.7s-.4-2.4-2.8-2.4C83 97 83 98.4 83 98.4l-4 .7z" fill="#6A6A6A"/>
      <path d="M93.8 43c-1.2-.7-2.2-1.5-3.1-2.5-1.4-1.4-2.8-2.9-1.4-2.7 1.4.3 1.2 1.4 2 1.1.7-.3 1.2-2.4 1.2-4S97 33.6 97 36c0 2.6-1.5 5.3-1.8 5.3-.2 0 .4.4 1.8 1.2l-3.1.4z" fill="#F9E2BD"/>
      <path d="M102.4 14l.8 10.3c-1.3 1.6-2.9 1.8-4.8.4a498 498 0 0 1-.3-10.3c.4-.8 1-1.2 2-1.2s1.8.3 2.3.9z" fill="#FFF"/>
      <path d="M95 22l.5-2.7c.2-1-.2-2 .4-2.4.6-.5.4-2 1-2.5.6-.4 2.6-2.1 2.8-2 .2.2.5.5.2.9-.2.3-1.5 1-1.6 1.6 0 .7.5 3.2 2.4 2.5 2-.7 2-.6 2-.2.2.4-1.7 1.2-2 1.5-.3.2-.8 2.7-2.4 3.1-1.5.5-1.5 0-2.1.9-.5.6-.9.3-1.2-.7z" fill="#F9E2BD"/>
      <path d="M78.8 63.9a18 18 0 0 0 0 9.2c1 2.9 1.3 7 1.3 9.2 0 2.1-2.7 12-2 16.5.8.7 2.3 1.8 4 1.8 1.5 0 2.7-1.7 2.7-2.8 0-1.2.2-8.8 1-13.8.3-2 0-5.4 0-6.9 0-1.1 1 3.2 2.7 7 .9 2.8.1 5.8 0 9-.2 4.5.5 8.5.5 9 0 .7 2 2.8 3.5 2.3 1-.3 2.7-.3 3.3-1.3.3-.4-.9-3.9-.6-8.5.3-3.9 0-7.8 0-10.6 0-2.4-1.6-8.2-1.6-11.8a9 9 0 0 0-2.3-6.2l-12.5-2.1z" fill="#444"/>
      <g transform="translate(74.4 20.6)">
        <mask id="s" fill="#fff">
          <use xlink:href="#r"/>
        </mask>
        <use fill="#EDC001" xlink:href="#r"/>
        <path d="M11.7 46.8c.2-1-.3-2.1-1.4-3.4-1.7-2-2.1-2.6-1-3.2 1-.6 1.6 0 2.4-.6.7-.6 1.6-3.2 1.6-3.2s.6-2.7.6-3.6c0-.9-1.6-3.3 0-4 1.6-.5 1-3.2-1.7-4.7-2.7-1.4-7.6-5-6.3-6.1 1.4-1.2 8.6-2.3 8.6-3 0-.7 10.3-10.4 10.3-10.4s1-5.4.5-5.4-2.4.6-2.4.6-10.4 14.5-12.6 14.5c-2.2 0-4.3 2.4-5.9 2.4-1.6 0-5.7-.6-7.3 1.3-1.6 1.8-5.3 8-4.5 14.8.8 6.8 1.6 12.3 5.3 12.3 2.5 0 7.1.6 13.8 1.7z" fill="#D5AC00" mask="url(#s)"/>
        <path d="M17.8 48c-1.4-.3-2.2-.6-2.2-.7 0-.9 1-1.5.9-4.3 0-1.8-1.3-5.5-1.3-7.3 0-2 .4-4.3.4-4.6 0-1.3 1.2-3 4-3 3 0 5.6-.9 6.4-.9.8 0 1.3-6.6 3-5.6s8 2.2 6.8 4.8c-1.2 2.6-9.5 5.5-11.4 6.5-1.3.6-3.5 5.7-6.6 15z" fill="#D5AC00" mask="url(#s)"/>
        <path d="M20 21.3c1.6 1 2.4 1.8 2.4 2.2 0 .6.7 1.4 0 1.4h-1.7L16.9 23l3-1.8z" fill="#D5AC00" mask="url(#s)"/>
      </g>
      <path d="M85.7 42c.6 0 1.2-.5 1.9-1.5 1-1.5.6-4.6.4-5-.1-.2-1-.5-2.8-.8a28 28 0 0 0-.7 3.7c0 .4.4 1.6 1.2 3.6z" fill="#F9E2BD"/>
      <path d="M100.5 12.6l-.5 2c5.8-4 9.3-6.1 10.5-6.4 1.8-.4 3.9-.5 5.7-.7 0-1.2-2.9-7-5.7-7-.2.7-.1 2.9-2.4 5.5-1 1.2-3.6 3.3-7.6 6.2" fill="#EDC001"/>
      <g transform="translate(76.3 30.2)">
        <mask id="u" fill="#fff">
          <use xlink:href="#t"/>
        </mask>
        <use fill="#C6A36A" xlink:href="#t"/>
        <path d="M9.3.2C5.2 1.4 3.5 3 4 5.2c1 3.1 5.1 5.5 4.6 9.5S5 22 6.4 26a26 26 0 0 1 1.2 9.3c-6.8 1.2-10.7.2-11.6-3-1.3-4.7-1-12.3 0-16.8C-3 10.9-1.6 4-.7 2.7a19 19 0 0 1 7-5c.9 0 1.8.9 3 2.5zm1.1 30.2c0-.7.7-1.4 0-3.9-.8-2.5 0-3.6 0-5.2s1.2-2 1.2-3.3c0-1.2-1.2 2.5-1.2 0s-1.2-4 0-4 3 1 3 1 2.8 9 2.8 11c0 1.8-5.8 5.1-5.8 4.4z" fill="#B5945D" mask="url(#u)"/>
      </g>
      <path d="M100.4 14.8l.7-1.8c.2-1.1.2-1.7 0-1.7-.8 0-1 .3-1.2.8-.1.2-.8 0-.4 1v1.3l1 .4z" fill="#D5AC00"/>
      <g transform="translate(128.7 14.3)">
        <path d="M21 104.2v3c0 1.1.2 2.8 2.7 2.8s4.3-1.9 5.5-1.9c1.3 0 6.4-.6 6.4-2.2 0-.8.3-1.9-.6-2.6-1.3-.9-4-1.2-6.7-.9-3 .4-5.5 1-7.3 1.8zm-11.4-4.1c-.4 1-.6 1.7-.4 2.4.3 1.7 1.2 2.7 1.4 2.7.4 0 2.4.6 3.7 0 .8-.3 1.9-1.9 2.3-2.7 1-2.3 2-3 2-3.9 0-.8-.2-4.2-2.4-3.4a24 24 0 0 0-6.6 5z" fill="#444"/>
        <g transform="translate(8.2 49.8)">
          <mask id="w" fill="#fff">
            <use xlink:href="#v"/>
          </mask>
          <use fill="#444" xlink:href="#v"/>
          <path d="M7 53.3a4.4 4.4 0 0 0 2.2-4.7c-.1-1-3.4 2.3-3.4-1.3 0-9.4-.4-12.9 0-14.4.3-1.5 1.2-2 1.8-5.3.6-3.3.6-5 .6-6.6 0-1.1.5-3.1 1.5-6a12 12 0 0 1 1 3.5v40.2c5.4-.7 8.4-1.8 9-3.3.3-.5-1.8-.4-2.7-1.1-1-.9-.8-2.7-.7-3.4.5-3.8-.7-4.5-.7-10 0-4.5 1.4-14 1.4-16.3 0-5.1 0-7.4-.7-12.3-.5-3.7 5.3-8.2 5-9.2-.5-1.3-3-1.3-7.7 0A79.8 79.8 0 0 0-3.7-4.7c-2.4 0-2.9-4-4.3 1-1.5 5 0 49.2 0 52.3 0 2 4.6 4.4 13.8 6.8l1.2-2z" fill="#303030" mask="url(#w)"/>
        </g>
        <path d="M32.7 7.5c.2-3.7.8-5.9 1.8-6.6 1.5-1.1 6-1 9.3 4.9 3.3 5.9 2 11.2-1.2 11.2-2.2 0-4.8-1.5-7.7-4.3l-2.2-5.2z" fill="#EDC001"/>
        <path d="M26.1 12.2a15 15 0 0 0 6.4-6c1.7-3.4 1-4.8 3.8-4.8s7.9 4 8.4 10.5c.5 6.6-4.3 3.9-6.4 3.9-2 0-3.9-.1-9 2.9-3.4 2-4.4-.2-3.2-6.5z" fill="#FFF"/>
        <path d="M28.3 25.7c.3.2.4.6.4 1.1 0 .8.6 1.7-.9 1.7s-1.8-.6-1.8-1v-1c-.3-.9-.3-1.3 0-1.3l2.3.5z" fill="#717171"/>
        <g transform="translate(21.6 20.1)">
          <mask id="y" fill="#fff">
            <use xlink:href="#x"/>
          </mask>
          <use fill="#F9E2BD" xlink:href="#x"/>
          <path d="M7.6.1c0 .7-.5 1.2-1.4 1.5C5 2 5.3 1.6 5 2.8 4.6 3.9 6 4 4.6 5 3.2 6 3 7.3 1.6 6.5.2 5.8-.9 5.2-1.2 4.1c-.2-1-1-2.7.8-3.5a22 22 0 0 1 8-.6z" fill="#F4D098" mask="url(#y)"/>
        </g>
        <path d="M21.6 26.8l.8-2c.6.8 1.1 1.2 1.4 1.3.4.2 1.1.2 2.3.3v2c-1.3 0-2.2-.2-2.8-.4-.5-.2-1.1-.6-1.7-1.2z" fill="#FFF"/>
        <path d="M2.5 33.8c-.8-1-2.7-3.4-2-5.5.5-2 2.7-4.4 5.7-4 3 .2 13.6 4 14.2 3.4.2-.6.6-1.1 1.2-1.6 1 1.7 2.7 2.2 4.8 1.6.1 2.1-.2 3.5-.8 4.3L6.2 36c-1.9-.9-3-1.6-3.7-2.3z" fill="#D5AC00"/>
        <g transform="translate(2 24)">
          <mask id="A" fill="#fff">
            <use xlink:href="#z"/>
          </mask>
          <use fill="#EDC001" xlink:href="#z"/>
          <path d="M13.8 2.4c-2 1.5-2.9 3.2-2.9 5.2 0 3 2.6 5.5 6 13 2.4 5 2.1 10.6-.6 17-8.7-.3-13.5-1-14.4-1.9-1.3-1.5-3.3-2.2-3.3-7.8V10.6c0-3-1.3-6.2.7-8.2C1.3.4.5-.9 2.9-.9h6.6l4.3 3.3z" fill="#D5AC00" mask="url(#A)"/>
        </g>
        <path d="M52 17.5c-.3-.3 1-1.1 4.2-2.4 1-1.4.5-3 .2-3.3a5 5 0 0 0-1.2-.6l2.1-1.9a.4.4 0 0 0 0-.6.6.6 0 0 0-.7 0 24.5 24.5 0 0 0-3.8 2.5c-.6.7-2 3.4-2.2 3.6l-.9 1.6 2.4 1.3v-.2z" fill="#F9E2BD"/>
        <path d="M48.5 17.2l1.6-2c1.4.2 2.1 1 2.1 2.3-1 1.6-1.6 2.3-1.8 2l-2-2.3z" fill="#FFF"/>
        <path d="M39 25c-5.5 2.1-9 3.4-10.5 3.8-2.1.6-6.8.8-8.4 2-1.6 1.3-2.3 6.6 2.4 6.4 6-1 12.2-4.6 16.5-5.8 4.3-1.1 5.3-2.4 6.3-3.7l6-8.3C51 17.7 50 17 48.4 17a43 43 0 0 0-9.5 8.2z" fill="#EDC001"/>
        <g transform="translate(7.2 11)">
          <mask id="C" fill="#fff">
            <use xlink:href="#B"/>
          </mask>
          <use fill="#F9E2BD" xlink:href="#B"/>
          <path d="M7 17c.4-.3.4-1 0-2.1-.9-1.8-.7-1.6 0-3.6.5-2-1.3-1.6 0-4.7.7-2-.8-2.3-4.6-.9 1 2.2 1 3.6 0 4.4C.9 11.3-.4 11-.4 13s-1.4 4.3-.7 5c.5.5 3.1.2 8-.8z" fill="#F4D098" mask="url(#C)"/>
        </g>
        <path d="M5.7 14c1.3-2.2 3.8-4.3 5.7-5 2-.6 3.3 0 3.3 1.4 0 1.3 0 2.6.5 3.8.6 1.2-.3 1.5 0 2.6.4 1 .3 1.7-.2 2-.5.4-.5-.3-1.2-.3s-.7 1.5-.7 2.2c0 .8.1 4.4-2.5 4-2.6-.3-1.9-.5-2.6-1.2-.8-.6-1.6-1.8-3.5-2.8-1.9-.9 0-4.6 1.2-6.8zM24 21.8l.6 4.5 1 .1-.5-4.7c1.8-.5 2.8-.9 3.1-1.2.3-.3.3-.7 0-1.2L24 21.8z" fill="#717171"/>
        <path d="M24 21.8l5.5-3.2c.7-2.9-.4-5-3.4-6.5a97 97 0 0 1-4 2.2 4 4 0 0 0-2 .7c-.7.6-1.8 3.3.5 5.5 1 1 2.1 1.5 3.4 1.3z" fill="#EDC001"/>
        <ellipse fill="#FFF" transform="rotate(-20 22 18.2)" cx="22.0682303" cy="18.2130178" rx="1.91897655" ry="2.87573964"/>
      </g>
      <g opacity="0.900000036">
        <path d="M185.6 133.2a9 9 0 0 0 3.8.3c1.4.9 2.2.5 3.1.6 1.5.3 1.9.8 1.9 2.2 0 .3-1 1.1-2.3 1.7l-2.2.6h-1c-.7.4-1.2.9-1.9 1-1.9.5-3-.3-3.5-1-.5-.8.5-2.7.5-4.3l1.6-1.1zm-10.6-4.8a9 9 0 0 0 3.8.3c1.4.9 2.2.5 3.2.6 1.5.3 1.8.9 1.8 2.2 0 .4-1 1.1-2.3 1.7l-2.1.6h-1c-.8.4-1.3.9-1.9 1-2 .5-3.1-.3-3.6-1-.5-.8.6-2.7.5-4.3l1.6-1.1z" fill="#A2A2A2"/>
        <g transform="translate(171.3 84.3)">
          <mask id="E" fill="#fff">
            <use xlink:href="#D"/>
          </mask>
          <use fill="#888" xlink:href="#D"/>
          <path d="M14.6 4.6a48 48 0 0 0 2.5 12.8c.7 2-.5 8.2-.7 14.2-.4 7.2 0 14.4-.6 17.2-1.2 5-2.6 6.6-2.6 7.4 0 .8-8-4.6-8-5.4 0-.7 4.2-1 4.2-2 0-1.1.2-3 .8-6 .6-3-.5-26.2-.5-27v-.4c0-1-3.3 9.6-2.4 16.2.8 6.6-1.6 7.7-3 13-1.4 5.4.2 10-3.1 10-3.4 0-9.3-4.3-10-14.7C-9.4 29.6-10 17.4-7.4 11-4.8 4.6-3.7.6-2.4-.2A24 24 0 0 1 8.1.6c.3.4 2.5 1.8 6.5 4z" fill="#6A6A6A" mask="url(#E)"/>
        </g>
        <g transform="translate(170 55.5)">
          <mask id="G" fill="#fff">
            <use xlink:href="#F"/>
          </mask>
          <use fill="#FCF2D0" xlink:href="#F"/>
          <path d="M8.6 24.4c0 3.6.6 4.5 3.6 7.3s2.9 1.7 5.5 6c2.7 4.2-5 2-7.7 2-2.8 0-7.9-5.2-15-6.3-7-1.2-.5-1.8.7-9S-2.6 16-1.6 9c1-7.1 0-6.4 2.6-9.3C3.6-3.3 3.4-2 6.3-2c3 0 7.5 6.1 6.4 7.8-1 1.7-5.4.1-4 2 1.2 1.9.7 2.2 1.8 6.8 1.2 4.7-1.9 6.3-1.9 10z" fill="#EAD797" opacity="0.5" mask="url(#G)"/>
        </g>
        <g transform="translate(161.8 56)">
          <mask id="I" fill="#fff">
            <use xlink:href="#H"/>
          </mask>
          <use fill="#F9E2BD" xlink:href="#H"/>
          <path d="M13 4.2s-2.5 4.1-5.3 6.2c-2.8 2-5.1 2.7-4.5 3.6.6 1 .2 1.8 3.3 4.2 3.1 2.3 5.4 3.3 5.4 2.3 0-.6 1-1.7 3-3.2 1.7-1 2.5-.7 2.5.9 0 2.3.5 5-2.5 6.1-3 1.1-7.9 2-10.2.6C2.5 23.5-1 22-1 19c0-3.2 0-6.6 1-8 1.1-1.2 5.4-7.4 6.5-7.4.8 0 3-2 6.4-6 2-.9 2.6-.3 2 1.7-.9 3-2 5-2 5z" fill="#F4D098" mask="url(#I)"/>
        </g>
        <path d="M185.5 61.4a9 9 0 0 0-6 0l5.5-2.3c.2 0 .7.3 1.4 1 1.1 1 1.8 2.4-.9 1.3z" fill="#F9E2BD"/>
        <g transform="translate(188.1 57.5)">
          <mask id="K" fill="#fff">
            <use xlink:href="#J"/>
          </mask>
          <use fill="#F9E2BD" xlink:href="#J"/>
          <path d="M1.2 8.3a9.1 9.1 0 0 0 8.5 2c5-1.1 6.3-1.6 7.4-2.7 1.2-1.1 4-3.3 6.2-4.8 2.2-1.4 3.2-5.7 3.8-2 .5 3.5 6 6 2.7 9.5-3.3 3.6-12.4 5-20 6.2C2 17.7.6 18.3-.5 18.3c-.7 0-1.3-3 0-8 0-.6.6-1.2 1.6-2z" fill="#F4D098" mask="url(#K)"/>
        </g>
        <path d="M182.9 45c2 .6 3.4 1.8 4 3.6.7.3 1.1.6 1 .9a6.4 6.4 0 0 0 0 2.8c.2.7.2 2.5-1.2 3-1 .4-2.3.3-4.2-.2l.4-10.1z" fill="#F9E2BD"/>
        <g transform="rotate(8 -217.1 1266.6)">
          <mask id="M" fill="#fff">
            <use xlink:href="#L"/>
          </mask>
          <use fill="#C6A36A" xlink:href="#L"/>
          <path d="M8.4-.7s-2.9.3-4 3.5C3 6 3 8.1 6.2 11.5c3.3 3.3 9.8.8 8.2 5.4-1.5 4.6-9.3 10.2-11.4 8.8-2-1.4-11.4-8.8-10.7-15C-7 4.4-3-.5-1.1-.8c1.8-.2 9.5 0 9.5 0z" fill="#B5945D" mask="url(#M)"/>
        </g>
        <g transform="translate(161.8 30.6)">
          <use fill="#000" filter="url(#N)" xlink:href="#O"/>
          <use fill="#EDC001" xlink:href="#O"/>
        </g>
      </g>
      <g transform="translate(1 17.4)">
        <g transform="translate(11.4 34.6)">
          <mask id="Q" fill="#fff">
            <use xlink:href="#P"/>
          </mask>
          <use fill="#444" xlink:href="#P"/>
          <path d="M4.6 46s-1.1-4.1-.8-7.8a216 216 0 0 1 3-18.6 9.4 9.4 0 0 1 3.4-5.2 29 29 0 0 1 1 5.2 914 914 0 0 0 2 39.5c.4 0 2.5-.3 3.6-.8 1.2-.6 4.2-4 3.1-5.8-1-2-3-13.6-3-18.6 0-5 .6-12.1 0-15.6-.9-4.6-4.8-5.9-6.7-9-1.4-2.1-1-4 0-3.4 1 .6 4.4 1 7.6-.4 1-.5 2.2-1.6 2.1-1.8-.3-1.6-5.7-3-16-4C2.6-4 1.6-3.6.8 1.3-.6 8.5-3.4 37.9-2.2 43c1.2 5.3 6.8 3 6.8 3z" fill="#303030" mask="url(#Q)"/>
        </g>
        <g transform="translate(8.9 11.4)">
          <mask id="S" fill="#fff">
            <use xlink:href="#R"/>
          </mask>
          <use fill="#FCF2D0" xlink:href="#R"/>
          <path d="M13 3.5s-.9.3-2 1.2c-1.2 1-2 1.1-2 2.9 0 1.7-4.7 1.9-2.7 6 2 4.3 4.7 3.9 4.7 9 0 5 6.4 5.4 7.4 5.4s7.6.4 7.6-2.5c0-3 3.2-5.6-2.6-6.4-5.8-.7-6.8-1.3-7.8-2.7-1-1.3-2.3-2 0-4.7 1.4-1.7 1-.5 7-.8 1.9-.1 6.2-1 13-2.4C44 3.1 48.1.8 48.2 1.5 48.9 11.4 37 27.3 37 28c0 1.3 1 11.7-14.9 10.7-15.8-1-18.6 6.7-23.5-6.7C-6.2 18.7-11 14.7-7.7 6.3-4.4-2.1-2-9 .9-7.5s5 1.6 6 2.5C8-4.1 13 3.5 13 3.5z" fill="#EAD797" opacity="0.5" mask="url(#S)"/>
        </g>
        <path d="M56.5 6.4c6.5.3 10.6-.6 12.4-2.7 2.5-3.2 3 6.7.6 4.7-1.6-1.4-6-1.6-13-.7V6.4z" fill="#EDC001"/>
        <path d="M58.9 7.4v7.5c-1.1 1-2.3 1-3.7 0V6.8c.2-1 .9-1.5 2-1.2 1.2.2 1.7.8 1.7 1.8z" fill="#FFF"/>
        <ellipse fill="#D5AC00" cx="56.3285873" cy="7.07713885" rx="1" ry="1.68783443"/>
        <path d="M54.2 10.9c-.3-1.4-.3-2.2 0-2.5.6-.7.3 1 1.2.7 1-.2 2.7-1.8 3-1.7 1.5.1.6 2.8.6 3.6 0 .8-.4 1.9-1.3 1.6-.9-.2-1.7 0-2.3.3-.4.2-.8-.5-1.2-2z" fill="#F9E2BD"/>
        <ellipse fill="#EDC001" cx="55.3231584" cy="6.68618394" rx="1.05825912" ry="2.32077235"/>
        <path d="M52.4 11.7l1.8-1.6c1.3.4 1.8 1.2 1.6 2.5-1.2 1.3-2 1.8-2 1.5l-1.4-2.4z" fill="#FFF"/>
        <g transform="translate(14 1.7)">
          <mask id="U" fill="#fff">
            <use xlink:href="#T"/>
          </mask>
          <use fill="#F9E2BD" xlink:href="#T"/>
          <path d="M7.6 6c0 .4-.4.5-.7 1.3-.3 1-.6.8-.6 2v4c0 .8.3 2.3-.9 2.7-1.1.5-3.9 1.2-4.9-.4-1-1.6-2.2-4-2.2-5S-1 8.2-.4 8c.5-.3 8-2.4 8-2z" fill="#F4D098" mask="url(#U)"/>
        </g>
        <path d="M20 8.3c-.7.5-1 1.2-1 2.2 0 1.5.8 3-2 3.2-2.7.3-2.2-1.2-3-1.7-1-.6-3.4-2-3-4 .4-2.1 4.4-7.2 6.4-7.5 2-.4 3.3.3 3.3 1.2 0 1 .5 1.7.8 2.6.3.8.5 3 0 3.6-.4.6-.5 1.3-1 1.1-.4-.1-.6-.4-.6-.7z" fill="#C6A36A"/>
      </g>
      <path d="M118.8 125.5c2.6-1 4.5-1.2 5.8-.7 1.9.7 1.8 3.2 1.3 4a17 17 0 0 1-7 3.4c-1.7 0-7 2.4-8.3-.8a47 47 0 0 0 1.2-6h7z" fill="#444"/>
      <g transform="translate(76.4 5.2)">
        <use fill="#000" filter="url(#V)" xlink:href="#W"/>
        <path stroke="#FFF" stroke-width="1.91999991" d="M32 1.8v21.7c0 1 .7 2 1.7 2.3l24.7 7.5a.5.5 0 0 0 .6-.5V11c0-1-.7-2-1.7-2.3L32.6 1.3a.5.5 0 0 0-.6.5z" stroke-linejoin="square" fill="#F2E4B3"/>
        <path stroke="#DCB11C" stroke-width="0.959999957" d="M31.5 1.8v21.7a3 3 0 0 0 2 2.8l24.8 7.4a1 1 0 0 0 1.2-.9V11a3 3 0 0 0-2-2.8L32.6 1a1 1 0 0 0-1.2.9z" stroke-linejoin="square"/>
      </g>
      <path fill="#DCB11C" opacity="0.400000006" d="M122.8 27.4L124 29v7.2l-1.5-.5z"/>
      <path d="M95.1 115.8c-1.2 3-1.4 4.9-.5 5.5 1.2.9 3.4 1.6 4.6 0 1.1-1.7 1.8-1.3 2.7-2.3.9-.9 2.4-4.2.9-6-1-1-3.5-.1-7.7 2.8z" fill="#444"/>
      <g transform="translate(94.1 76.1)">
        <mask id="Y" fill="#fff">
          <use xlink:href="#X"/>
        </mask>
        <use fill="#888" xlink:href="#X"/>
        <path d="M2.8 42.6c.4-2.1 2.2-5.3 2.6-7.4.5-2 2.4-5 2.9-6.1.4-1 1.9-5.5 2.7-6.8.9-1.4 2.4-3 3.4-3.9.7-.6 1.9-2 3.7-4.5l-4.4 37c.2-.3 7.4 2.4 8.2-2.7.7-5.4 7-16.7 6.4-24.3-.8-9-6-12.6-6.4-14.4-.8-2.6-.3-3.6 1.5-4 1.1-.2 2.8-1 4.9-2.3a3.7 3.7 0 0 0-3-1.4l-12.1-.5c-.3 0-2.8-2.9-3.9-2.9-1 0-2.5-5.2-3 1.7C6 7.1-5 38.3-4.5 40.6c.6 2.3 4.8 3.3 5.1 3.3.3 0 1.8.8 2.2-1.3z" fill="#6A6A6A" mask="url(#Y)"/>
      </g>
      <path fill="#C6A36A" d="M119 26.9l3 .8v35.5h-3z"/>
      <path fill="#FFF" d="M119 26.9l3 .8.8-.3-3-1z"/>
      <path fill="#B5945D" d="M122.8 27.3l-.9.4v35.5l1-.8z"/>
      <path d="M82.2 31.4s0-1.1-.4-1.8c-.4-.6-2.3-2.3-2.8-3.5-.5-1.1-2.6-2.3-2.6-2.7 0-.4.5-.8.8-.4.3.4 1.5 1.5 1.8 1.5.3 0 .3-.5 0-.9s-1.9-1.8-1.5-2.3c.4-.4.7 0 .9.2.1.2 1.5 1.9 2 1.9.3 0 .6-.1.5-.4-.2-.3-1.7-2.6-1.6-3.1.1-.5.6-.2.7 0 .2.2 1.4 2.3 1.8 2.4.4.2.4-.7.4-1 0-.2-.2-2.9 0-3.1.3-.3.8 0 .8.1 0 .2.7 4.6 1 5 .2.3.7.3 1 0 .7-.3 1.2-1.2 1.6-1.4.6-.3 1.1.3.8.6-.3.2-1.7 1.8-2 2.8 0 1-.5 2.1 0 3l.7 1.5-3.9 1.6z" fill="#F9E2BD"/>
      <g transform="translate(119 45.5)">
        <mask id="aa" fill="#fff">
          <use xlink:href="#Z"/>
        </mask>
        <use fill="#F9E2BD" xlink:href="#Z"/>
        <path d="M2.3 2.8a2 2 0 0 0 0 1.5c.2.8.5 1.4 1 2.6.4 1.2.5 2.4.5 2.8 0 .4-.6 2-1.5 2-1 0-3-.4-3.6-2.4-.6-2-.6-5.6-.6-5.8 0-.3 1.4-1.6 1.5-1.6l2.7 1z" fill="#F4D098" mask="url(#aa)"/>
      </g>
      <g transform="translate(81.2 27.7)">
        <mask id="ac" fill="#fff">
          <use xlink:href="#ab"/>
        </mask>
        <use fill="#FCF2D0" xlink:href="#ab"/>
        <path d="M36.6 36.3c1.5 1.2 4.3 6 7.4 7.4 2.7 1.3 4.2-1.9 4.2-3.9s1-10.8 2.2 1c.1 1.7-.3 4.4-1.4 8.2-4.6-.7-7.5-1.9-8.7-3.5-.6-.8-1.8 2.2-2.3 4.6-.3 1.7 3 .7 2 1.8-1 1-6.5 4.2-7 3.3-1-2.1 3.7-11 .9-18.9-.7-1.8 1.3-1.2 2.7 0z" fill="#EAD797" opacity="0.5" mask="url(#ac)"/>
        <path d="M41.7 26.6a49.7 49.7 0 0 1 2 9.6c.4 2.1.5 4.2-.3 3.1-.7-1-3.2-5.4-3.2-5.8l-.8-3.6c-.5-2-.6-3.7-.4-3.9.2-.2 1.1 0 2.7.6zM2.3 1.4C2.3 1.7 6 13.2 8 16.1c2 3 6.4 5.5 7.4 7.1 1 1.7 5-.5 5 0 0 .6 9.6 1.7 8.8 2.2-.8.4-3.9 1.2-4.7 2.5-.8 1.4-1 2.3 2.4 7 2 2.7 2.5 6 2.5 8.8 0 2 3.1 5.7 5.6.8 1-2.1.1 7.5-1.4 9-2 2-5.8 0-6 0-.2 0-12.3-4-13.2-6L8.4 35C7.7 33.8-2.3 8.7-2.3 8c0-.5.2-6.7.5-6.7s4.1-.2 4.1 0z" fill="#EAD797" opacity="0.5" mask="url(#ac)"/>
      </g>
      <path d="M118 46.2c-.4 0-.8 0-.8.7 0 .6 1.2.8 1.2 1.7 0 1 .5 2.8 1.2 2.8.6 0 1.6-2.5 1.6-2.8 0-.2 0 .2-1.2-.2-1-.5-1.5-2.2-2-2.2z" fill="#F4D098"/>
      <g transform="translate(99 38.8)">
        <mask id="ae" fill="#fff">
          <use xlink:href="#ad"/>
        </mask>
        <use fill="#F9E2BD" xlink:href="#ad"/>
        <path d="M9.8 7.3c-1 2.2-1 1.1-1 3.1s1 3.7 1.5 3.7c.4 0-.4 5-2.8 5s-13 6.1-12.5-2.9-1.7-14.7 4-14c6 .6 11.7 2.8 10.8 5z" fill="#F4D098" mask="url(#ae)"/>
      </g>
      <path d="M108.7 39.7c0 .6-.8 1.4-.8 2.2 0 .7 1.2 1.8 1.2 3.2 0 1.4 0 1.7-1.2 2.7-1.3 1-1.3 1.1-1.3 2.2 0 1 .7 2-1.7 1.7-2.5-.2-5.8-3.2-6.8-4.3-1-1.1-2-3.2-.3-6.7s5.5-2.4 6.3-4.6c.6-1.3 1.3-1 3-.8.8 1 .5 3 1.3 3.4.7.5.3.5.3 1z" fill="#717171"/>
      <g transform="translate(43.6 56.5)">
        <path d="M11.8 13.1v1c0 .6.7 1.3 1.4 1.3l2.5-.3c.3 0 1.5-.2 1.5-.6 0-.4.5-1 .2-1.4-.2-.3.1-.8-.5-1a16 16 0 0 0-5.1 1z" fill="#1E1E1E"/>
        <path d="M15 4L26 .4c4 2.2 5 5.5 3.3 9.7L18 12.7l-3-8.5v-.1z" fill="#868686"/>
        <path d="M14.2 5c.3-1 .8-1.3 1.6-.7a8 8 0 0 1 2.9 7.5c-.2 1.2-1.3 1.3-2 0A28 28 0 0 1 14.2 5z" fill="#161616"/>
        <path d="M1.2 9.6l14-5c2.2 1.7 3.1 4.2 2.8 7.6L3 15.8a7.9 7.9 0 0 0-1.8-6.2z" fill="#494949"/>
        <path d="M2.2 9.3a7.4 7.4 0 0 1 1.9 6.2" stroke="#FFF" stroke-width="0.5" stroke-linecap="round" stroke-linejoin="round"/>
        <path d="M4 10l11.2-4" stroke="#979797" stroke-width="0.5"/>
        <path d="M16.2 3.6a7.9 7.9 0 0 1 3 8.7" stroke="#FFF" stroke-width="0.5" opacity="0.900000036" stroke-linecap="round" stroke-linejoin="round"/>
        <ellipse fill="#1E1E1E" transform="rotate(-17.5 2 12.7)" cx="2.06751589" cy="12.7258841" rx="1" ry="3.19126385"/>
        <path fill="#5B5B5B" d="M15.6 14.7l-2.5 32.2-.9.2 3-32.4z"/>
        <path fill="#868686" d="M14.4 14.7l-3.8 32.1 1.6.3 3-32.4zm1.2-.2l14.3 27 .6-.7c.3-.4.4-.8.2-1.2L16.6 14.5h-1z"/>
        <path d="M15.6 14.5l14.3 27h-.7a1 1 0 0 1-.8-.6L15.3 14.8l.3-.3z" fill="#5B5B5B"/>
        <path d="M13 14.5l-5.1 21c-.2.5.2 1 .7 1.2l.6-.3c.3-.1.5-.4.6-.7L14 14.5l-.3.3-.7-.3z" fill="#1E1E1E"/>
      </g>
      <ellipse fill="#878787" cx="120.496802" cy="29.4171598" rx="1" ry="1"/>
      <path d="M66 122l16.2 7.6a.5.5 0 0 0 .5-.7l-19.4-24m-18.8-2.8v9" stroke="#5B5B5B" stroke-width="1.23552001" stroke-linecap="round" stroke-linejoin="round"/>
      <path d="M44.5 111.2l19.7 27a1.4 1.4 0 0 0 2.3 0l18.2-26.3-19.3 12.8c-.5.3-1.2.3-1.6 0l-19.3-13.5z" stroke="#5B5B5B" stroke-width="1.23552001" stroke-linecap="round" stroke-linejoin="round"/>
      <path d="M42.6 101.4c1-.9 16.6-6.4 18.7-7 2.1-.7 3.7-.7 5.5 0 1.7.5 2.7 2.9.6 2.9-2.2 0-19.2 7.2-22 7.2-2.8 0-3.7-2.3-2.8-3.1z" fill="#D5AC00"/>
      <path d="M66.2 122l-21 7a.5.5 0 0 1-.6-.8L64 104.5" stroke="#5B5B5B" stroke-width="1.23552001" stroke-linecap="round" stroke-linejoin="round"/>
      <path d="M63.6 104.6a55.3 55.3 0 0 0 21.8 6c0 2.4-6.4 6.2-19.4 11.3-8.1.3-15.2-3.3-21.2-10.6 7.2 2.9 13.5.7 18.8-6.7z" fill="#D5AC00"/>
      <path d="M44.8 83.5A30.3 30.3 0 0 0 66 92.6c0 3.8-2.5 10.8-2.5 14.4 0 3.5.9 8.5 2.5 14.9-8.1.3-15.2-3.3-21.2-10.6 2.6-9 2.6-18.2 0-27.8z" fill="#EDC001"/>
      <path d="M89 104c-1.2-.3-2.4.2-3.4 1.5A9.2 9.2 0 0 0 84 111m-18 1.4v9.4" stroke="#5B5B5B" stroke-width="1.23552001" stroke-linecap="round" stroke-linejoin="round"/>
      <path d="M64 110.8c11-5.2 17.2-8 18.6-8.5 2.1-.6 3.7-.5 5.5 0 1.7.6 2.7 3 .6 3-2.2 0-19.2 9.1-22 9.1-1.8 0-2.8-1.2-2.8-3.6z" fill="#EDC001"/>
      <path d="M66 112.4V93.3m-21.5 9.2V82.8" stroke="#5B5B5B" stroke-width="1.23552001" stroke-linecap="round" stroke-linejoin="round"/>
    </g>
  </g>
</svg>
