<?xml version="1.0" encoding="UTF-8"?>
<svg width="16px" height="16px" viewBox="0 0 16 16" version="1.1" xmlns="http://www.w3.org/2000/svg" xmlns:xlink="http://www.w3.org/1999/xlink">
    <!-- Generator: sketchtool 44.1 (41455) - http://www.bohemiancoding.com/sketch -->
    <title>linkedin</title>
    <desc>Created with sketchtool.</desc>
    <defs></defs>
    <g id="icons" stroke="none" stroke-width="1" fill="none" fill-rule="evenodd">
        <g id="v1" transform="translate(-176.000000, -16.000000)" fill="#000000">
            <g id="linkedin" transform="translate(176.000000, 16.000000)">
                <path d="M3.50939133,15.2879295 L3.50939133,5.45846741 L0.195875749,5.45846741 L0.195875749,15.2879295 L3.50939133,15.2879295 L3.50939133,15.2879295 Z M1.85261879,4.11642035 L1.85255979,4.11642035 L1.83102526,4.11642035 C0.719046894,4.11642035 -6.92779167e-14,3.36162796 -6.92779167e-14,2.41835561 C-6.92779167e-14,1.45385018 0.741082916,0.72 1.87453682,0.72 C3.00810871,0.72 3.70576857,1.45385018 3.7273031,2.41835561 C3.7273031,3.36162796 3.00810871,4.11642035 1.85261879,4.11642035 Z M5.89423881,15.2879295 L5.89432731,15.2879295 C5.89432731,15.2879295 5.93780936,6.38079754 5.89432731,5.45846741 L9.20781339,5.45846741 L9.20781339,6.88399247 L9.18568887,6.88399247 C9.62168941,6.21296894 10.4064314,5.22781216 12.1939746,5.22781216 C14.3740068,5.22781216 16.0087138,6.63268587 16.0087138,9.65185546 L16.0087138,15.2879295 L12.6954932,15.2879295 L12.6954932,10.0293971 C12.6954932,8.70800138 12.2158631,7.80661347 11.0168616,7.80661347 C10.1014965,7.80661347 9.55628933,8.41451948 9.31675453,9.00148328 C9.22925943,9.21148718 9.20772489,9.50496908 9.20772489,9.79874184 L9.20772489,15.2879295 L5.89423881,15.2879295 Z" id="icon"></path>
            </g>
        </g>
    </g>
</svg>