<svg width="544px" height="272px" xmlns="http://www.w3.org/2000/svg">
  <defs>
    <linearGradient x1="50%" y1="0%" x2="50%" y2="102.395581%" id="a">
      <stop stop-color="#D8D8D8" offset="0%"/>
      <stop stop-color="#FFF" offset="100%"/>
    </linearGradient>
  </defs>
  <g fill="none" fill-rule="evenodd">
    <path fill="#FFF" d="M-593-1034H687v4140H-593z"/>
    <g transform="translate(18 15)">
      <path d="M19 15h265a19 19 0 0 1 19 19v194a19 19 0 0 1-19 19H19a19 19 0 0 1-19-19V34a19 19 0 0 1 19-19z" fill="url(#a)"/>
      <rect fill="#F7F7F7" x="12" y="31" width="39" height="40" rx="5"/>
      <rect fill="#F7F7F7" x="52" y="31" width="39" height="40" rx="5"/>
      <rect fill="#FFF" x="92" y="31" width="39" height="40" rx="5"/>
      <rect fill="#FFF" x="132" y="31" width="39" height="40" rx="5"/>
      <rect fill="#FFF" x="172" y="31" width="39" height="40" rx="5"/>
      <rect fill="#FFF" x="212" y="31" width="39" height="40" rx="5"/>
      <rect fill="#FFF" x="252" y="31" width="39" height="40" rx="5"/>
      <rect fill="#FFF" x="12" y="71" width="39" height="40" rx="5"/>
      <rect fill="#FFF" x="52" y="71" width="39" height="40" rx="5"/>
      <rect fill="#FFF" x="92" y="71" width="39" height="40" rx="5"/>
      <rect fill="#FFF" x="132" y="71" width="39" height="40" rx="5"/>
      <rect fill="#FFF" x="172" y="71" width="39" height="40" rx="5"/>
      <rect fill="#FFF" x="212" y="71" width="39" height="40" rx="5"/>
      <rect fill="#FFF" x="252" y="71" width="39" height="40" rx="5"/>
      <rect fill="#FFF" x="12" y="111" width="39" height="40" rx="5"/>
      <rect fill="#FFF" x="52" y="111" width="39" height="40" rx="5"/>
      <rect fill="#FFF" x="92" y="111" width="39" height="40" rx="5"/>
      <rect fill="#FFF" x="132" y="111" width="39" height="40" rx="5"/>
      <rect fill="#FFF" x="172" y="111" width="39" height="40" rx="5"/>
      <rect fill="#FFF" x="212" y="111" width="39" height="40" rx="5"/>
      <rect fill="#FFF" x="252" y="111" width="39" height="40" rx="5"/>
      <rect fill="#FFF" x="12" y="151" width="39" height="40" rx="5"/>
      <rect fill="#FFF" x="52" y="151" width="39" height="40" rx="5"/>
      <rect fill="#FFF" x="92" y="151" width="39" height="40" rx="5"/>
      <rect fill="#FFF" x="132" y="151" width="39" height="40" rx="5"/>
      <rect fill="#FFF" x="172" y="151" width="39" height="40" rx="5"/>
      <rect fill="#FFF" x="212" y="151" width="39" height="40" rx="5"/>
      <rect fill="#FFF" x="252" y="151" width="39" height="40" rx="5"/>
      <rect fill="#FFF" x="12" y="191" width="39" height="40" rx="5"/>
      <rect fill="#FFF" x="52" y="191" width="39" height="40" rx="5"/>
      <rect fill="#FFF" x="92" y="191" width="39" height="40" rx="5"/>
      <rect fill="#FFF" x="132" y="191" width="39" height="40" rx="5"/>
      <rect fill="#FFF" x="172" y="191" width="39" height="40" rx="5"/>
      <rect fill="#F7F7F7" x="212" y="191" width="39" height="40" rx="5"/>
      <rect fill="#F7F7F7" x="252" y="191" width="39" height="40" rx="5"/>
      <path d="M22 0a3 3 0 0 1 3 3v18a3 3 0 0 1-6 0V3a3 3 0 0 1 3-3zm16 0a3 3 0 0 1 3 3v18a3 3 0 0 1-6 0V3a3 3 0 0 1 3-3zm16 0a3 3 0 0 1 3 3v18a3 3 0 0 1-6 0V3a3 3 0 0 1 3-3zm16 0a3 3 0 0 1 3 3v18a3 3 0 0 1-6 0V3a3 3 0 0 1 3-3zm16 0a3 3 0 0 1 3 3v18a3 3 0 0 1-6 0V3a3 3 0 0 1 3-3zm16 0a3 3 0 0 1 3 3v18a3 3 0 0 1-6 0V3a3 3 0 0 1 3-3zm16 0a3 3 0 0 1 3 3v18a3 3 0 0 1-6 0V3a3 3 0 0 1 3-3zm16 0a3 3 0 0 1 3 3v18a3 3 0 0 1-6 0V3a3 3 0 0 1 3-3zm16 0a3 3 0 0 1 3 3v18a3 3 0 0 1-6 0V3a3 3 0 0 1 3-3zm16 0a3 3 0 0 1 3 3v18a3 3 0 0 1-6 0V3a3 3 0 0 1 3-3zm16 0a3 3 0 0 1 3 3v18a3 3 0 0 1-6 0V3a3 3 0 0 1 3-3zm16 0a3 3 0 0 1 3 3v18a3 3 0 0 1-6 0V3a3 3 0 0 1 3-3zm16 0a3 3 0 0 1 3 3v18a3 3 0 0 1-6 0V3a3 3 0 0 1 3-3zm16 0a3 3 0 0 1 3 3v18a3 3 0 0 1-6 0V3a3 3 0 0 1 3-3zm16 0a3 3 0 0 1 3 3v18a3 3 0 0 1-6 0V3a3 3 0 0 1 3-3zm16 0a3 3 0 0 1 3 3v18a3 3 0 0 1-6 0V3a3 3 0 0 1 3-3zm16 0a3 3 0 0 1 3 3v18a3 3 0 0 1-6 0V3a3 3 0 0 1 3-3zM413.2 88.8l-6.9 20.2h-42c-.5-.5-1-1.4-1-1.9 9.5-10.5 18.7-20.5 26.2-32.1a33 33 0 0 0 6.4-19.4c0-8-6-14-13-14-8.8 0-14 7.6-15.1 9.3-.7 0-2.4-1.2-2.4-2.4 1.5-3.8 10-15.3 22.7-15.3A20 20 0 0 1 408.7 53c0 7-3.3 13.5-8 19.1-7.5 9-17.2 19.9-24 26.5h22c6 0 8.3-4.5 10.4-9.7.3-.6 1-.8 1.7-.8s1.9.2 2.4.7zm28.2 4.8V49.8c0-4.2-.7-5.3-2.5-5.3a31 31 0 0 0-8.4 2.5c-.7-.5-1.4-1.4-1.4-2.1 0-.3-.1-1 .3-1.1 11.5-5 23.5-10.6 23.8-10.6h.3c.7 0 1.1 1.4 1.3 2 0 0-1.1 3.8-1.1 11.2v47.2c0 4.3.1 7.8.8 10 .5 1.4 6.2 2 7.6 2 .4.7.4 3.2 0 3.9-4.8-.4-10-.7-14.7-.7-4.7 0-9.7.3-14.4.7-.5-.7-.5-3.2 0-4 1.6 0 7.1-.5 7.6-2 .7-2 .8-5.6.8-9.9zM374.2 127.3c-4.7 0-6.6 4.6-6.6 8.8 0 4.8 2.7 10.2 7.6 10.2 4.6 0 6.5-4.7 6.5-9 0-4.8-2.7-10-7.5-10zm.5-1c5.4 0 10.1 4.3 10.1 10.5 0 5.8-4.7 10.5-10.1 10.5-5.5 0-10.1-4.4-10.1-10.5 0-5.9 4.6-10.6 10-10.6zm23.6 8.7c0 1-.7 1.5-1.2 1.5-.7 0-1.3-.8-1.8-1.2-.7-.4-1-.6-1.8-.6-1.7 0-3.5 2-3.5 5.2 0 3.7 2.2 5.3 5 5.3 1.8 0 3-1.1 3.4-1.6l.2.4c0 .2 0 .4-.2.6-.5.9-2.1 2.6-4.5 2.6-3.8 0-6.3-3-6.3-6.2 0-4.6 4.3-7.7 7.5-7.7 1.1 0 2.1.3 2.8.8.2.1.4.6.4.9zm6.2-1.5h4c.2 0 .2.2.2.4 0 .3-.2.6-.4 1h-3.8v8c0 1.7.7 2.6 2 2.6 1 0 1.9-.5 2.1-.7l.1.2-.1.5c-.5.5-1.7 1.7-3.2 1.7-1.6 0-3.3-.7-3.3-3.3v-9h-1.8l-.1-.4.8-1h1.1v-2l2-2c0-.2.4-.2.4 0v4zm12.3.8c-2.6 0-3.6 2.8-3.6 5.4 0 3 1.5 6.5 4.3 6.5 2.7 0 3.6-2.7 3.6-5.4 0-3-1.5-6.5-4.3-6.5zm.3-1c4.2 0 6.7 3 6.7 6.8 0 4-2.8 7.1-6.6 7.1-4.1 0-6.7-3-6.7-6.8 0-4 2.9-7 6.6-7zm14.6 14c-.5 0-1.7-.4-2.3-.5-.7-.2-1.3-.5-2-.2-.2 0-.5-.6-.5-.7.3-.6.4-1.7.4-2.3v-14l-.1-1.6c-.2-.5-1-.6-2-.6v-.8c1.6-.1 3.2-.6 4.5-1.2.2 0 .4.2.4.5 0 0-.4 1-.4 2.7v6.1c0 .2 0 .5.2.3.5-.3 2.6-1.7 3.8-1.7 3.7 0 5.7 3.6 5.7 6.4 0 4.1-3.3 7.5-7.7 7.5zm.5-12.1c-.8 0-2 .5-2.3.8l-.2.4v7.5c0 1.4 1.5 2.3 3 2.3 2.2 0 4-2.7 4-5.2 0-3.7-1.8-5.8-4.5-5.8zm12 3h5.1c.4 0 .7-.2.7-.8 0-.9-.6-3-2.5-3-2.6 0-3.3 3.7-3.3 3.7zm-.1 1v.3c0 3.8 2.4 5.8 5 5.8 1.8 0 3-1.2 3.5-1.7l.2.4-.1.6c-.6.9-2.2 2.6-4.6 2.6-3.7 0-6.2-2.8-6.2-6.4 0-4.2 3.4-7.5 6.1-7.5 3.8 0 4.7 3 4.7 4.3 0 .9-.2 1.4-.8 1.5l-7.8.2zm19.4-5.8c.8 0 1.6.4 1.9.9l.1.8c0 1.2-.7 1.6-1 1.6-.5 0-.8-.3-1.2-.5-.3-.2-.6-.4-1.1-.4-1.4 0-2.5 2-2.5 2.8v4.8l.1 2.3c.1.3 2.3.5 2.7.5.1.1.2.7 0 .9l-3.9-.2-3.5.2v-1c.4 0 2 0 2-.4.2-.5.2-1.4.2-2.3v-5.8c0-.4 0-1.3-.2-1.6-.2-.6-1.8-.6-2-.6 0 0-.1-.7 0-.8a14 14 0 0 0 4.4-1.3c.2 0 .4.3.4.5a68 68 0 0 0-.1 3c.6-1.4 2.3-3.4 3.7-3.4z" fill="#2A2A2A"/>
      <path d="M70.5 196.5c-14.3 0-26-11.4-26-25.5a25.8 25.8 0 0 1 26-25.5c14.3 0 26 11.4 26 25.5a25.8 25.8 0 0 1-26 25.5z" fill="#EDC001" fill-rule="nonzero"/>
      <rect fill="#EDC001" x="332" y="174" width="170" height="42" rx="21"/>
      <circle fill="#FFF" cx="355.5" cy="194.5" r="6.5"/>
      <path d="M373.4 198.2h4.6v1.8h-6.8v-11.6h2.2v9.8zm8.5 1.8h-2.1v-11.6h2.1V200zm1.5-11.6h1.7a.7.7 0 0 1 .8.5l2.7 7a9.5 9.5 0 0 1 .5 1.7c0-.6.2-1.2.4-1.6l2.7-7c0-.2.2-.3.3-.4l.5-.2h1.7L390 200h-2l-4.6-11.6zm19.8 0v1.7H398v3.3h4v1.6h-4v3.3h5v1.7H396v-11.6h7.3zm7.4 11.6h-2.2v-11.6h2.2V200zm3.7-11.6h.4l.2.2.1.2 6 7.7a8 8 0 0 1 0-1v-7h2V200h-1.2a1 1 0 0 1-.4 0 1 1 0 0 1-.3-.4l-6-7.7a11.1 11.1 0 0 1 0 1v7.1h-2v-11.6h1.2zm21.7 0v.9a1.9 1.9 0 0 1-.3 1l-4.4 9c0 .2-.2.4-.4.5a1 1 0 0 1-.6.2h-1.5l4.5-8.8.6-1h-5.5l-.3-.1-.1-.3v-1.4h8zm15 5.8c0 .9-.1 1.6-.4 2.4a5.4 5.4 0 0 1-3 3c-.8.3-1.6.4-2.5.4h-4.4v-11.6h4.4c1 0 1.7.2 2.4.5a5.4 5.4 0 0 1 3 3c.4.7.5 1.5.5 2.3zm-2.2 0c0-.6 0-1.2-.3-1.7a3.1 3.1 0 0 0-1.9-2 4 4 0 0 0-1.5-.4H443v8.2h2.2c.6 0 1.1-.1 1.6-.3.4-.2.8-.4 1.1-.8.3-.3.6-.8.7-1.3.2-.5.3-1 .3-1.7zm14 5.8h-1.6a.7.7 0 0 1-.7-.5l-.9-2.3h-4.8l-.9 2.3a.8.8 0 0 1-.7.5h-1.6l4.5-11.6h2.2l4.5 11.6zm-7.4-4.4h3.6l-1.4-3.8a17.6 17.6 0 0 1-.4-1.4 26.7 26.7 0 0 1-.4 1.4l-1.4 3.8zm13.8-.1v4.5H467v-4.5l-4.2-7h2.4l.2.4 2.2 3.9a9.7 9.7 0 0 1 .5 1.2 8.7 8.7 0 0 1 .6-1.2l2-3.9.3-.3.5-.2h1.9l-4.2 7.1zm11.5-5c0 .2-.1.2-.2.3h-.3-.3a12.2 12.2 0 0 0-1.1-.6l-.9-.1h-.8l-.5.4c-.2 0-.3.2-.4.4v.6l.1.7.6.5.9.3a41.9 41.9 0 0 1 2 .7l.8.6a2.6 2.6 0 0 1 .8 2c0 .6 0 1-.2 1.5a3.4 3.4 0 0 1-2 2 5.5 5.5 0 0 1-5.5-1.2l.6-1c0-.1 0-.2.2-.2h.7a13 13 0 0 0 1.3.8l1 .2c.6 0 1-.2 1.4-.5.4-.3.5-.7.5-1.2 0-.3 0-.6-.2-.8l-.6-.4-.9-.4a28.4 28.4 0 0 1-2-.7l-.8-.5-.6-1a3.4 3.4 0 0 1 .8-3.6 4.3 4.3 0 0 1 2.8-1c.7 0 1.3.1 1.9.3.5.2 1 .5 1.4 1l-.5 1z" fill="#FFF"/>
      <path d="M109.3 55h2.5V47v-.7l-2 1.7-.2.1a.5.5 0 0 1-.4 0l-.1-.1-.5-.6 3.4-3h1.2V55h2.2V56h-6.1v-1zM67 44.4c.4 0 .9 0 1.3.2l1 .6c.4.3.6.6.8 1l.2 1.1-.1 1a2.4 2.4 0 0 1-1 1.3l-.9.4c.8.2 1.3.5 1.7 1 .4.4.6 1 .6 1.7a3.3 3.3 0 0 1-1.2 2.5c-.3.3-.7.5-1.2.7l-1.5.2c-.6 0-1 0-1.5-.2a3.2 3.2 0 0 1-1.8-1.6l-.5-1.2.6-.2h.6l.2.2a1.7 1.7 0 0 1 0 .1l.3.6a2.2 2.2 0 0 0 1.1 1l1 .1c.4 0 .8 0 1-.2.4-.1.6-.3.8-.5a2.1 2.1 0 0 0 .6-1.4v-.9l-.5-.7-1-.4-1.4-.2v-1c.5 0 .9 0 1.2-.2.4 0 .7-.2.9-.4l.5-.6.1-.8-.1-.9a1.7 1.7 0 0 0-1.1-1 2.6 2.6 0 0 0-1.6 0 2.2 2.2 0 0 0-1.1 1l-.3.6-.2.4H64a1 1 0 0 1-.1 0h-.8c0-.6.2-1 .4-1.4a3.3 3.3 0 0 1 2-1.7l1.4-.2zm13 5.9c0 1 0 1.8-.2 2.6-.3.7-.6 1.3-1 1.8-.3.5-.7.8-1.3 1-.5.3-1 .4-1.6.4-.6 0-1.1-.1-1.6-.3-.5-.3-1-.6-1.3-1.1-.4-.5-.7-1-1-1.8l-.2-2.6c0-1 0-1.9.3-2.6.2-.8.5-1.4.9-1.9a3.6 3.6 0 0 1 3-1.4c.5 0 1 .1 1.5.4.6.2 1 .6 1.4 1l.9 1.9c.2.7.3 1.6.3 2.6zm-1.4 0c0-.9 0-1.6-.2-2.2l-.6-1.5a2.2 2.2 0 0 0-3.8 0l-.5 1.5a9.3 9.3 0 0 0 0 4.4c.1.6.3 1 .5 1.4a2.2 2.2 0 0 0 3 .8l.8-.8.6-1.4.2-2.2zM26.8 44.4c.5 0 1 0 1.4.2.4.2.8.4 1 .7.4.2.6.6.8 1 .2.4.2.8.2 1.3l-.1 1.2c-.2.3-.3.7-.6 1l-.7 1-1 1-3 3a6 6 0 0 1 1.3-.2H30c.1 0 .3 0 .3.2l.2.3v.9h-7.7v-.5a.9.9 0 0 1 .3-.6l3.7-3.7a21.9 21.9 0 0 0 1.4-1.7c.2-.3.4-.6.4-1l.2-.9c0-.3 0-.6-.2-.8a1.7 1.7 0 0 0-1-1 2.6 2.6 0 0 0-1.7 0 2.2 2.2 0 0 0-1.1.9l-.3.6c0 .2 0 .3-.2.4H24a1 1 0 0 1-.2 0h-.7c0-.6.2-1 .4-1.4a3.3 3.3 0 0 1 2-1.7l1.3-.2zm8.9 6.9c-.5 0-.9 0-1.3-.2a3 3 0 0 1-1.7-1.7l-.2-1.4a3.5 3.5 0 0 1 2.2-3.3 4 4 0 0 1 1.6-.3l1.5.3a3.4 3.4 0 0 1 1.8 2c.2.4.3.9.3 1.4a4.6 4.6 0 0 1-.4 1.8 7.1 7.1 0 0 1-1 1.7l-2.7 4c0 .2-.2.2-.3.3a1 1 0 0 1-.5.1h-1.3l3.5-4.6a30.7 30.7 0 0 0 .6-.8l-1 .5-1.1.2zm2.8-3.4l-.1-1-.5-.7a2 2 0 0 0-.7-.4l-1-.2c-.3 0-.6 0-1 .2l-.7.4a2 2 0 0 0-.4.8c-.2.3-.2.6-.2.9l.1 1 .5.7.7.4 1 .2c.3 0 .7 0 1-.2l.7-.5.5-.7.1-.9zM150.8 44.4c.5 0 1 0 1.4.2.4.2.8.4 1 .7.4.2.6.6.8 1 .2.4.2.8.2 1.3l-.1 1.2c-.2.3-.3.7-.6 1l-.7 1-1 1-3 3a6 6 0 0 1 1.3-.2h3.9c.1 0 .3 0 .3.2l.2.3v.9h-7.7v-.5a.9.9 0 0 1 .3-.6l3.7-3.7a21.9 21.9 0 0 0 1.4-1.7c.2-.3.4-.6.4-1l.2-.9c0-.3 0-.6-.2-.8a1.7 1.7 0 0 0-1-1 2.6 2.6 0 0 0-1.7 0 2.2 2.2 0 0 0-1.1.9l-.3.6c0 .2 0 .3-.2.4h-.3a1 1 0 0 1-.2 0h-.7c0-.6.2-1 .4-1.4a3.3 3.3 0 0 1 2-1.7l1.3-.2zM191 44.4c.4 0 .9 0 1.3.2l1 .6c.4.3.6.6.8 1l.2 1.1-.1 1a2.4 2.4 0 0 1-1 1.3l-.9.4c.8.2 1.3.5 1.7 1 .4.4.6 1 .6 1.7a3.3 3.3 0 0 1-1.2 2.5c-.3.3-.7.5-1.2.7l-1.5.2c-.6 0-1 0-1.5-.2a3.2 3.2 0 0 1-1.8-1.6l-.5-1.2.6-.2h.6l.2.2a1.7 1.7 0 0 1 0 .1l.3.6a2.2 2.2 0 0 0 1.1 1l1 .1c.4 0 .8 0 1-.2.4-.1.6-.3.8-.5a2.1 2.1 0 0 0 .6-1.4v-.9l-.5-.7-1-.4-1.4-.2v-1c.5 0 .9 0 1.2-.2.4 0 .7-.2.9-.4l.5-.6.1-.8-.1-.9a1.7 1.7 0 0 0-1.1-1 2.6 2.6 0 0 0-1.6 0 2.2 2.2 0 0 0-1.1 1l-.3.6-.2.4h-.4a1 1 0 0 1-.1 0h-.8c0-.6.2-1 .4-1.4a3.3 3.3 0 0 1 2-1.7l1.4-.2zM232.9 52.3h1.7v1.1h-1.7v3h-1.3v-3h-5a.4.4 0 0 1-.5-.3l-.1-.7 5.6-7.4h1.3v7.3zm-1.3-4.7a9 9 0 0 1 .1-1l-4.2 5.7h4.1v-4.7zM274 84.6l-.2.5c-.2.2-.4.2-.7.2h-3.6l-.5 3a8 8 0 0 1 1.6-.2c.6 0 1.2.1 1.6.3.5.2.9.4 1.2.7l.7 1.1.2 1.4a4 4 0 0 1-.3 1.6 3.8 3.8 0 0 1-2.2 2.1 4.6 4.6 0 0 1-2.6.2 4.9 4.9 0 0 1-2.2-1.1l.4-.6c.1-.2.3-.2.4-.2h.4a9.5 9.5 0 0 0 1.1.6l1 .2 1-.2a2.3 2.3 0 0 0 1.4-1.4 3.2 3.2 0 0 0 0-2.1c0-.3-.2-.5-.5-.7l-.7-.5-1.1-.2a5.8 5.8 0 0 0-1.9.3l-.9-.2 1-5.4h5.4v.6zM31.2 89c.5 0 .9 0 1.3.2a3.2 3.2 0 0 1 1.8 1.7l.3 1.5a3.7 3.7 0 0 1-1.1 2.6c-.3.4-.8.6-1.2.8-.5.2-1 .3-1.6.3-.6 0-1.1 0-1.6-.2a3.4 3.4 0 0 1-2-2l-.2-1.7c0-.5 0-1 .3-1.6l1-1.8 3-4 .3-.2H33.2l-4 5a3.4 3.4 0 0 1 2-.6zm-3 3.5c0 .3 0 .7.2 1l.5.8.7.5 1 .1 1-.1.9-.6.5-.7.2-1-.2-1a2.2 2.2 0 0 0-1.3-1.3l-1-.1c-.3 0-.7 0-1 .2a2.4 2.4 0 0 0-1.3 1.3l-.2.9zM74.7 84.5v.7a1.4 1.4 0 0 1-.2.7l-4.8 9.6-.2.4-.5.1h-1l4.8-9.5a4.6 4.6 0 0 1 .4-.6h-6l-.2-.2-.1-.2v-1h7.8z" fill="#9B9B9B"/>
      <path d="M110.6 96.1c-.5 0-1 0-1.5-.2s-1-.4-1.3-.7c-.3-.2-.6-.6-.8-1l-.2-1.3c0-.8.2-1.4.5-1.9.4-.4 1-.8 1.7-1-.6-.2-1-.5-1.4-1-.3-.4-.4-1-.4-1.6a2.9 2.9 0 0 1 1-2.1c.2-.3.6-.5 1-.7l1.4-.2c.5 0 1 0 1.4.2l1.1.7a2.8 2.8 0 0 1 1 2.1c0 .6-.2 1.2-.5 1.6-.3.5-.7.8-1.3 1 .7.2 1.2.6 1.6 1 .4.5.6 1.1.6 1.9 0 .5-.1 1-.3 1.3a3 3 0 0 1-.8 1c-.3.3-.7.5-1.2.7-.5.2-1 .2-1.6.2zm0-1.1c.4 0 .7 0 1-.2.3 0 .6-.2.8-.4l.5-.7.1-.9c0-.4 0-.7-.2-1l-.5-.7c-.2-.1-.5-.3-.8-.3a3.3 3.3 0 0 0-1.8 0c-.3 0-.5.2-.7.3l-.6.7-.2 1c0 .4 0 .7.2 1l.5.6.7.4 1 .2zm0-5.5c.4 0 .7 0 1-.2l.6-.4.4-.7.1-.8-.1-.7a1.7 1.7 0 0 0-1-1l-1-.2c-.3 0-.6 0-.9.2-.2 0-.4.2-.6.4l-.4.6-.1.7v.8a1.8 1.8 0 0 0 1 1.1l1 .2zM150.4 91.3c-.4 0-.8 0-1.2-.2a3 3 0 0 1-1.8-1.7l-.2-1.4a3.5 3.5 0 0 1 2.2-3.3 4 4 0 0 1 1.6-.3l1.5.3a3.4 3.4 0 0 1 1.9 2l.2 1.4a4.6 4.6 0 0 1-.3 1.8 7.1 7.1 0 0 1-1 1.7l-2.8 4c0 .2-.2.2-.3.3a1 1 0 0 1-.4.1h-1.4l3.5-4.6a30.7 30.7 0 0 0 .7-.8l-1 .5-1.2.2zm2.9-3.4l-.2-1-.5-.7a2 2 0 0 0-.7-.4l-1-.2c-.3 0-.6 0-.9.2-.3 0-.5.2-.7.4a2 2 0 0 0-.5.8l-.2.9c0 .4 0 .7.2 1 0 .3.2.5.4.7l.7.4 1 .2c.3 0 .7 0 1-.2l.7-.5.5-.7.2-.9zM184.5 95h2.5V87v-.7l-2 1.7-.2.1a.5.5 0 0 1-.4 0l-.1-.1-.5-.6 3.4-3h1.2V95h2.3V96h-6.2v-1zm15.8-4.7c0 1-.1 1.8-.3 2.6-.2.7-.5 1.3-1 1.8-.3.5-.7.8-1.2 1-.5.3-1 .4-1.7.4-.6 0-1.1-.1-1.6-.3-.5-.3-1-.6-1.3-1.1-.4-.5-.7-1-.9-1.8-.2-.8-.3-1.6-.3-2.6s0-1.9.3-2.6c.2-.8.5-1.4.9-1.9a3.6 3.6 0 0 1 3-1.4c.5 0 1 .1 1.6.4.5.2 1 .6 1.3 1 .4.5.7 1.1.9 1.9.2.7.3 1.6.3 2.6zm-1.5 0c0-.9 0-1.6-.2-2.2-.1-.6-.3-1.1-.6-1.5a2.2 2.2 0 0 0-3.7 0c-.3.4-.5.9-.6 1.5-.2.6-.2 1.3-.2 2.2 0 .8 0 1.6.2 2.2.1.6.3 1 .6 1.4a2.2 2.2 0 0 0 2.8.8c.4-.2.7-.4 1-.8.2-.4.4-.8.5-1.4l.2-2.2zM224.7 95.4h2.4v-7.8-.7l-2 1.7-.1.1a.5.5 0 0 1-.4 0l-.2-.1-.4-.6 3.4-3h1.2v10.4h2.2v1h-6.1v-1zm9.3 0h2.4v-7.8-.7l-2 1.7-.2.1a.5.5 0 0 1-.3 0l-.2-.1-.4-.6 3.4-3h1.1v10.4h2.3v1H234v-1zM264.7 55.5h2.4v-7.8-.7l-2 1.7-.1.1a.5.5 0 0 1-.4 0l-.2-.1-.4-.6 3.4-3h1.2v10.4h2.2v1h-6.1v-1zM276.5 45c.5 0 1 0 1.3.2l1.1.6.7 1a3.5 3.5 0 0 1 0 2.5c0 .4-.2.8-.4 1.1l-.8 1-.9 1-3 3a6 6 0 0 1 1.3-.2h3.8c.2 0 .3 0 .4.2l.1.3v.9h-7.6V56a.9.9 0 0 1 .3-.6l3.6-3.7a21.9 21.9 0 0 0 1.5-1.7l.4-1 .2-.9-.2-.9a1.7 1.7 0 0 0-1.1-1 2.6 2.6 0 0 0-1.6 0 2.2 2.2 0 0 0-1.1 1l-.3.6-.2.4h-.3a1 1 0 0 1-.2 0h-.8c.1-.6.2-1 .5-1.5a3.3 3.3 0 0 1 1.9-1.6l1.4-.2zM264.5 135h2.5V127v-.7l-2 1.7-.2.1a.5.5 0 0 1-.4 0l-.1-.1-.5-.6 3.4-3h1.2V135h2.3v1.1h-6.2v-1zm11.4-3.7c-.4 0-.8 0-1.2-.2a3 3 0 0 1-1.8-1.7l-.2-1.4a3.5 3.5 0 0 1 2.2-3.3 4 4 0 0 1 1.6-.3l1.5.3a3.4 3.4 0 0 1 1.9 2l.2 1.4a4.6 4.6 0 0 1-.3 1.8 7.1 7.1 0 0 1-1 1.7l-2.8 4c0 .2-.2.2-.3.3a1 1 0 0 1-.4.1h-1.4l3.5-4.6a30.7 30.7 0 0 0 .7-.8l-1 .5-1.2.2zm2.9-3.4l-.2-1-.5-.7a2 2 0 0 0-.7-.4l-1-.2c-.3 0-.6 0-.9.2-.3 0-.5.2-.7.4a2 2 0 0 0-.5.8l-.2.9c0 .4 0 .7.2 1 0 .3.2.5.4.7l.7.4 1 .2c.3 0 .7 0 1-.2l.7-.5.5-.7.2-.9zM224.5 135h2.5V127v-.7l-2 1.7-.2.1a.5.5 0 0 1-.4 0l-.1-.1-.5-.6 3.4-3h1.2V135h2.3v1.1h-6.2v-1zm11.6 1.1c-.5 0-1 0-1.5-.2s-1-.4-1.3-.7c-.3-.2-.6-.6-.8-1l-.2-1.3c0-.8.2-1.4.5-1.9.4-.4 1-.8 1.7-1-.6-.2-1-.5-1.4-1-.3-.4-.4-1-.4-1.6a2.9 2.9 0 0 1 1-2.1c.2-.3.6-.5 1-.7l1.4-.2c.5 0 1 0 1.4.2l1.1.7a2.8 2.8 0 0 1 1 2.1c0 .6-.2 1.2-.5 1.6-.3.5-.7.8-1.3 1 .7.2 1.2.6 1.6 1 .4.5.6 1.1.6 1.9 0 .5-.1 1-.3 1.3a3 3 0 0 1-.8 1c-.3.3-.7.5-1.2.7-.5.2-1 .2-1.6.2zm0-1.1c.4 0 .7 0 1-.2.3 0 .6-.2.8-.4l.5-.7.1-.9c0-.4 0-.7-.2-1l-.5-.7c-.2-.1-.5-.3-.8-.3a3.3 3.3 0 0 0-1.8 0c-.3 0-.5.2-.7.3l-.6.7-.2 1c0 .4 0 .7.2 1l.5.6.7.4 1 .2zm0-5.5c.4 0 .7 0 1-.2l.6-.4.4-.7.1-.8-.1-.7a1.7 1.7 0 0 0-1-1l-1-.2c-.3 0-.6 0-.9.2-.2 0-.4.2-.6.4l-.4.6-.1.7v.8a1.8 1.8 0 0 0 1 1.1l1 .2zM184.5 135h2.5V127v-.7l-2 1.7-.2.1a.5.5 0 0 1-.4 0l-.1-.1-.5-.6 3.4-3h1.2V135h2.3v1.1h-6.2v-1zm15.7-10.5v.7a1.4 1.4 0 0 1-.2.7l-4.8 9.6-.2.4-.5.1h-1l4.8-9.5a4.6 4.6 0 0 1 .4-.6h-6l-.2-.2-.1-.2v-1h7.8zM144.5 135h2.5V127v-.7l-2 1.7-.2.1a.5.5 0 0 1-.4 0l-.1-.1-.5-.6 3.4-3h1.2V135h2.3v1.1h-6.2v-1zm12.2-6c.5 0 .9 0 1.3.2a3.2 3.2 0 0 1 1.8 1.7l.3 1.5a3.7 3.7 0 0 1-1.1 2.6c-.3.4-.8.6-1.2.8-.5.2-1 .3-1.6.3-.6 0-1.1 0-1.6-.2a3.4 3.4 0 0 1-2-2l-.2-1.7c0-.5 0-1 .3-1.6l1-1.8 3-4 .3-.2H158.7l-4 5a3.4 3.4 0 0 1 2-.6zm-3 3.5c0 .3 0 .7.2 1l.5.8.7.5 1 .1 1-.1.9-.6.5-.7.2-1-.2-1a2.2 2.2 0 0 0-1.3-1.3l-1-.1c-.3 0-.7 0-1 .2a2.4 2.4 0 0 0-1.3 1.3l-.2.9zM104.5 135h2.5V127v-.7l-2 1.7-.2.1a.5.5 0 0 1-.4 0l-.1-.1-.5-.6 3.4-3h1.2V135h2.3v1.1h-6.2v-1zm14.8-9.8c0 .2 0 .3-.2.5l-.6.2h-3.6l-.5 3a8 8 0 0 1 1.6-.2c.6 0 1.1 0 1.6.2l1.1.8c.3.3.6.6.7 1l.3 1.4a4 4 0 0 1-.3 1.7 3.8 3.8 0 0 1-2.2 2 4.6 4.6 0 0 1-2.6.2 4.9 4.9 0 0 1-2.2-1l.4-.7.4-.2.3.1a9.5 9.5 0 0 0 1.2.6l1 .1c.3 0 .7 0 1-.2a2.3 2.3 0 0 0 1.4-1.4 3.2 3.2 0 0 0 0-2c-.1-.4-.3-.6-.5-.8l-.8-.5-1-.1a5.8 5.8 0 0 0-2 .3l-.8-.3.9-5.4h5.4v.7zM64.5 135H67V127v-.7l-2 1.7-.2.1a.5.5 0 0 1-.4 0l-.1-.1-.5-.6 3.4-3h1.2V135h2.3v1.1h-6.2v-1zm14.2-3.1h1.8v.8l-.1.2h-1.7v3.1h-1.2v-3h-5.1a.4.4 0 0 1-.4-.3l-.2-.8 5.6-7.4h1.3v7.4zm-1.2-4.8a9 9 0 0 1 0-1l-4.1 5.8h4V127zM24.5 135H27V127v-.7l-2 1.7-.2.1a.5.5 0 0 1-.4 0l-.1-.1-.5-.6 3.4-3h1.2V135h2.3v1.1h-6.2v-1zm12-10.6c.4 0 .9 0 1.3.2l1 .6c.4.3.6.6.8 1l.2 1.1-.1 1a2.4 2.4 0 0 1-1 1.3l-.9.4c.8.2 1.3.5 1.7 1 .4.4.6 1 .6 1.7a3.3 3.3 0 0 1-1.2 2.5c-.3.3-.7.5-1.2.7l-1.5.2c-.6 0-1 0-1.5-.2a3.2 3.2 0 0 1-1.8-1.6l-.5-1.2.6-.2h.6l.2.2a1.7 1.7 0 0 1 0 .1l.3.6a2.2 2.2 0 0 0 1.1 1l1 .1c.4 0 .8 0 1-.2.4-.1.6-.3.8-.5a2.1 2.1 0 0 0 .6-1.4v-.9l-.5-.7-1-.4-1.4-.2v-1c.5 0 .9 0 1.2-.2.4 0 .7-.2.9-.4l.5-.6.1-.8-.1-.9a1.7 1.7 0 0 0-1.1-1 2.6 2.6 0 0 0-1.6 0 2.2 2.2 0 0 0-1.1 1l-.3.6-.2.4h-.4a1 1 0 0 1-.1 0h-.8c0-.6.2-1 .4-1.4a3.3 3.3 0 0 1 2-1.7l1.4-.2zM27 164.4c.5 0 1 0 1.4.2.4.2.8.4 1 .7.4.2.6.6.8 1 .2.4.3.8.3 1.3l-.2 1.2-.5 1-.8 1-1 1-3 3a6 6 0 0 1 1.4-.2h3.8c.2 0 .3 0 .4.2l.1.3v.9h-7.6v-.5a.9.9 0 0 1 .2-.6l3.7-3.7a21.9 21.9 0 0 0 1.5-1.7l.4-1 .1-.9-.1-.8a1.7 1.7 0 0 0-1.1-1 2.6 2.6 0 0 0-1.7 0 2.2 2.2 0 0 0-1 .9l-.4.6c0 .2 0 .3-.2.4h-.3a1 1 0 0 1-.2 0h-.7c0-.6.2-1 .4-1.4a3.3 3.3 0 0 1 2-1.7l1.3-.2zm13.3 5.9c0 1-.1 1.8-.3 2.6-.2.7-.5 1.3-1 1.8-.3.5-.7.8-1.2 1-.5.3-1 .4-1.7.4-.6 0-1.1-.1-1.6-.3-.5-.3-1-.6-1.3-1.1-.4-.5-.7-1-.9-1.8-.2-.8-.3-1.6-.3-2.6s0-1.9.3-2.6c.2-.8.5-1.4.9-1.9a3.6 3.6 0 0 1 3-1.4c.5 0 1 .1 1.6.4.5.2 1 .6 1.3 1 .4.5.7 1.1.9 1.9.2.7.3 1.6.3 2.6zm-1.5 0c0-.9 0-1.6-.2-2.2-.1-.6-.3-1.1-.6-1.5a2.2 2.2 0 0 0-3.7 0c-.3.4-.5.9-.6 1.5-.2.6-.2 1.3-.2 2.2 0 .8 0 1.6.2 2.2.1.6.3 1 .6 1.4a2.2 2.2 0 0 0 2.8.8c.4-.2.7-.4 1-.8.2-.4.4-.8.5-1.4l.2-2.2z" fill="#9B9B9B" opacity="0.800000012"/>
      <path d="M65.4 162.4c.7 0 1.3 0 1.8.3.6.2 1 .4 1.5.8.4.4.7.8.9 1.3.2.5.3 1 .3 1.7 0 .5 0 1-.2 1.5l-.6 1.3-1 1.2-1 1.2-3.3 3.3a7.9 7.9 0 0 1 1.8-.3h3.7c.3 0 .5 0 .6.2l.3.6v1.5h-10v-.8a1.4 1.4 0 0 1 .5-1l4.4-4.4a20.8 20.8 0 0 0 1.7-2.1l.4-1 .2-1.1c0-.4 0-.7-.2-1a1.8 1.8 0 0 0-1-1l-1-.1c-.5 0-1 .1-1.4.4-.4.3-.6.7-.8 1.2 0 .3-.2.5-.3.6a1 1 0 0 1-.6.1 2 2 0 0 1-.3 0l-1.3-.2c0-.7.3-1.3.6-1.9a4.4 4.4 0 0 1 2.5-2l1.8-.3zm8.3 12.8h3v-8.5-1l-2.1 1.7-.3.2H74a.8.8 0 0 1-.6-.3l-.8-1 4.5-3.8h2v12.7h2.6v1.8h-8v-1.8z" fill="#FFF"/>
      <path d="M107 164.4c.5 0 1 0 1.4.2.4.2.8.4 1 .7.4.2.6.6.8 1 .2.4.3.8.3 1.3l-.2 1.2-.5 1-.8 1-1 1-3 3a6 6 0 0 1 1.4-.2h3.8c.2 0 .3 0 .4.2l.1.3v.9h-7.6v-.5a.9.9 0 0 1 .2-.6l3.7-3.7a21.9 21.9 0 0 0 1.5-1.7l.4-1 .1-.9-.1-.8a1.7 1.7 0 0 0-1.1-1 2.6 2.6 0 0 0-1.7 0 2.2 2.2 0 0 0-1 .9l-.4.6c0 .2 0 .3-.2.4h-.3a1 1 0 0 1-.2 0h-.7c0-.6.2-1 .4-1.4a3.3 3.3 0 0 1 2-1.7l1.3-.2zm9.3 0c.5 0 1 0 1.4.2.4.2.8.4 1 .7.4.2.6.6.8 1 .2.4.2.8.2 1.3l-.1 1.2c-.2.3-.3.7-.6 1l-.7 1-1 1-3 3a6 6 0 0 1 1.3-.2h3.9c.1 0 .3 0 .3.2l.2.3v.9h-7.7v-.5a.9.9 0 0 1 .3-.6l3.7-3.7a21.9 21.9 0 0 0 1.4-1.7c.2-.3.4-.6.4-1l.2-.9c0-.3 0-.6-.2-.8a1.7 1.7 0 0 0-1-1 2.6 2.6 0 0 0-1.7 0 2.2 2.2 0 0 0-1.1.9l-.3.6c0 .2 0 .3-.2.4h-.3a1 1 0 0 1-.2 0h-.7c0-.6.2-1 .4-1.4a3.3 3.3 0 0 1 2-1.7l1.3-.2zM147 164.4c.5 0 1 0 1.4.2.4.2.8.4 1 .7.4.2.6.6.8 1 .2.4.3.8.3 1.3l-.2 1.2-.5 1-.8 1-1 1-3 3a6 6 0 0 1 1.4-.2h3.8c.2 0 .3 0 .4.2l.1.3v.9h-7.6v-.5a.9.9 0 0 1 .2-.6l3.7-3.7a21.9 21.9 0 0 0 1.5-1.7l.4-1 .1-.9-.1-.8a1.7 1.7 0 0 0-1.1-1 2.6 2.6 0 0 0-1.7 0 2.2 2.2 0 0 0-1 .9l-.4.6c0 .2 0 .3-.2.4h-.3a1 1 0 0 1-.2 0h-.7c0-.6.2-1 .4-1.4a3.3 3.3 0 0 1 2-1.7l1.3-.2zm9.5 0c.4 0 .9 0 1.3.2l1 .6c.4.3.6.6.8 1l.2 1.1-.1 1a2.4 2.4 0 0 1-1 1.3l-.9.4c.8.2 1.3.5 1.7 1 .4.4.6 1 .6 1.7a3.3 3.3 0 0 1-1.2 2.5c-.3.3-.7.5-1.2.7l-1.5.2c-.6 0-1 0-1.5-.2a3.2 3.2 0 0 1-1.8-1.6l-.5-1.2.6-.2h.6l.2.2a1.7 1.7 0 0 1 0 .1l.3.6a2.2 2.2 0 0 0 1.1 1l1 .1c.4 0 .8 0 1-.2.4-.1.6-.3.8-.5a2.1 2.1 0 0 0 .6-1.4v-.9l-.5-.7-1-.4-1.4-.2v-1c.5 0 .9 0 1.2-.2.4 0 .7-.2.9-.4l.5-.6.1-.8-.1-.9a1.7 1.7 0 0 0-1.1-1 2.6 2.6 0 0 0-1.6 0 2.2 2.2 0 0 0-1.1 1l-.3.6-.2.4h-.4a1 1 0 0 1-.1 0h-.8c0-.6.2-1 .4-1.4a3.3 3.3 0 0 1 2-1.7l1.4-.2zM187 164.4c.5 0 1 0 1.4.2.4.2.8.4 1 .7.4.2.6.6.8 1 .2.4.3.8.3 1.3l-.2 1.2-.5 1-.8 1-1 1-3 3a6 6 0 0 1 1.4-.2h3.8c.2 0 .3 0 .4.2l.1.3v.9h-7.6v-.5a.9.9 0 0 1 .2-.6l3.7-3.7a21.9 21.9 0 0 0 1.5-1.7l.4-1 .1-.9-.1-.8a1.7 1.7 0 0 0-1.1-1 2.6 2.6 0 0 0-1.7 0 2.2 2.2 0 0 0-1 .9l-.4.6c0 .2 0 .3-.2.4h-.3a1 1 0 0 1-.2 0h-.7c0-.6.2-1 .4-1.4a3.3 3.3 0 0 1 2-1.7l1.3-.2zm11.7 7.5h1.8v.8l-.1.2h-1.7v3.1h-1.2v-3h-5.1a.4.4 0 0 1-.4-.3l-.2-.8 5.6-7.4h1.3v7.4zm-1.2-4.8a9 9 0 0 1 0-1l-4.1 5.8h4V167zM228 164.4c.5 0 1 0 1.4.2.4.2.8.4 1 .7.4.2.6.6.8 1 .2.4.3.8.3 1.3l-.2 1.2-.5 1-.8 1-1 1-3 3a6 6 0 0 1 1.4-.2h3.8c.2 0 .3 0 .4.2l.1.3v.9h-7.6v-.5a.9.9 0 0 1 .2-.6l3.7-3.7a21.9 21.9 0 0 0 1.5-1.7l.4-1 .1-.9-.1-.8a1.7 1.7 0 0 0-1.1-1 2.6 2.6 0 0 0-1.7 0 2.2 2.2 0 0 0-1 .9l-.4.6c0 .2 0 .3-.2.4h-.3a1 1 0 0 1-.2 0h-.7c0-.6.2-1 .4-1.4a3.3 3.3 0 0 1 2-1.7l1.3-.2zm12.3.8c0 .2 0 .3-.2.5l-.6.2h-3.6l-.5 3a8 8 0 0 1 1.6-.2c.6 0 1.1 0 1.6.2l1.1.8c.3.3.6.6.7 1l.3 1.4a4 4 0 0 1-.3 1.7 3.8 3.8 0 0 1-2.2 2 4.6 4.6 0 0 1-2.6.2 4.9 4.9 0 0 1-2.2-1l.4-.7.4-.2.3.1a9.5 9.5 0 0 0 1.2.6l1 .1c.3 0 .7 0 1-.2a2.3 2.3 0 0 0 1.4-1.4 3.2 3.2 0 0 0 0-2c-.1-.4-.3-.6-.5-.8l-.8-.5-1-.1a5.8 5.8 0 0 0-2 .3l-.8-.3.9-5.4h5.4v.7zM229.7 215h2.4V207v-.7l-2 1.7-.2.1a.5.5 0 0 1-.3 0l-.2-.1-.4-.6 3.4-3h1.1V215h2.3v1.1h-6.1v-1zM272.2 204.4c.5 0 1 0 1.3.2l1.1.7c.3.2.6.6.7 1 .2.4.3.8.3 1.3 0 .4 0 .8-.2 1.2l-.5 1-.8 1-.9 1-3 3a6 6 0 0 1 1.3-.2h3.8c.2 0 .3 0 .4.2l.1.3v.9h-7.6v-.5a.9.9 0 0 1 .2-.6l3.7-3.7a21.9 21.9 0 0 0 1.5-1.7l.4-1 .2-.9-.2-.8a1.7 1.7 0 0 0-1.1-1 2.6 2.6 0 0 0-1.6 0 2.2 2.2 0 0 0-1.1.9l-.3.6-.2.4h-.3a1 1 0 0 1-.2 0h-.8c.1-.6.2-1 .5-1.4a3.3 3.3 0 0 1 1.9-1.7l1.4-.2zM268 164.4c.5 0 1 0 1.4.2.4.2.8.4 1 .7.4.2.6.6.8 1 .2.4.3.8.3 1.3l-.2 1.2-.5 1-.8 1-1 1-3 3a6 6 0 0 1 1.4-.2h3.8c.2 0 .3 0 .4.2l.1.3v.9h-7.6v-.5a.9.9 0 0 1 .2-.6l3.7-3.7a21.9 21.9 0 0 0 1.5-1.7l.4-1 .1-.9-.1-.8a1.7 1.7 0 0 0-1.1-1 2.6 2.6 0 0 0-1.7 0 2.2 2.2 0 0 0-1 .9l-.4.6c0 .2 0 .3-.2.4h-.3a1 1 0 0 1-.2 0h-.7c0-.6.2-1 .4-1.4a3.3 3.3 0 0 1 2-1.7l1.3-.2zm9.7 4.6c.5 0 .9 0 1.3.2a3.2 3.2 0 0 1 1.8 1.7l.3 1.5a3.7 3.7 0 0 1-1.1 2.6c-.3.4-.8.6-1.2.8-.5.2-1 .3-1.6.3-.6 0-1.1 0-1.6-.2a3.4 3.4 0 0 1-2-2l-.2-1.7c0-.5 0-1 .3-1.6l1-1.8 3-4 .3-.2H279.7l-4 5a3.4 3.4 0 0 1 2-.6zm-3 3.5c0 .3 0 .7.2 1l.5.8.7.5 1 .1 1-.1.9-.6.5-.7.2-1-.2-1a2.2 2.2 0 0 0-1.3-1.3l-1-.1c-.3 0-.7 0-1 .2a2.4 2.4 0 0 0-1.3 1.3l-.2.9zM28 204.4c.5 0 1 0 1.4.2.4.2.8.4 1 .7.4.2.6.6.8 1 .2.4.3.8.3 1.3l-.2 1.2-.5 1-.8 1-1 1-3 3a6 6 0 0 1 1.4-.2h3.8c.2 0 .3 0 .4.2l.1.3v.9h-7.6v-.5a.9.9 0 0 1 .2-.6l3.7-3.7a21.9 21.9 0 0 0 1.5-1.7l.4-1 .1-.9-.1-.8a1.7 1.7 0 0 0-1.1-1 2.6 2.6 0 0 0-1.7 0 2.2 2.2 0 0 0-1 .9l-.4.6c0 .2 0 .3-.2.4h-.3a1 1 0 0 1-.2 0h-.7c0-.6.2-1 .4-1.4a3.3 3.3 0 0 1 2-1.7l1.3-.2zm13.2.1v.7a1.4 1.4 0 0 1-.2.7l-4.8 9.6-.2.4-.5.1h-1l4.8-9.5a4.6 4.6 0 0 1 .4-.6h-6l-.2-.2-.1-.2v-1h7.8zM68 204.4c.5 0 1 0 1.4.2.4.2.8.4 1 .7.4.2.6.6.8 1 .2.4.3.8.3 1.3l-.2 1.2-.5 1-.8 1-1 1-3 3a6 6 0 0 1 1.4-.2h3.8c.2 0 .3 0 .4.2l.1.3v.9h-7.6v-.5a.9.9 0 0 1 .2-.6l3.7-3.7a21.9 21.9 0 0 0 1.5-1.7l.4-1 .1-.9-.1-.8a1.7 1.7 0 0 0-1.1-1 2.6 2.6 0 0 0-1.7 0 2.2 2.2 0 0 0-1 .9l-.4.6c0 .2 0 .3-.2.4h-.3a1 1 0 0 1-.2 0h-.7c0-.6.2-1 .4-1.4a3.3 3.3 0 0 1 2-1.7l1.3-.2zm9.1 11.7c-.5 0-1 0-1.5-.2s-1-.4-1.3-.7c-.3-.2-.6-.6-.8-1l-.2-1.3c0-.8.2-1.4.5-1.9.4-.4 1-.8 1.7-1-.6-.2-1-.5-1.4-1-.3-.4-.4-1-.4-1.6a2.9 2.9 0 0 1 1-2.1c.2-.3.6-.5 1-.7l1.4-.2c.5 0 1 0 1.4.2l1.1.7a2.8 2.8 0 0 1 1 2.1c0 .6-.2 1.2-.5 1.6-.3.5-.7.8-1.3 1 .7.2 1.2.6 1.6 1 .4.5.6 1.1.6 1.9 0 .5-.1 1-.3 1.3a3 3 0 0 1-.8 1c-.3.3-.7.5-1.2.7-.5.2-1 .2-1.6.2zm0-1.1c.4 0 .7 0 1-.2.3 0 .6-.2.8-.4l.5-.7.1-.9c0-.4 0-.7-.2-1l-.5-.7c-.2-.1-.5-.3-.8-.3a3.3 3.3 0 0 0-1.8 0c-.3 0-.5.2-.7.3l-.6.7-.2 1c0 .4 0 .7.2 1l.5.6.7.4 1 .2zm0-5.5c.4 0 .7 0 1-.2l.6-.4.4-.7.1-.8-.1-.7a1.7 1.7 0 0 0-1-1l-1-.2c-.3 0-.6 0-.9.2-.2 0-.4.2-.6.4l-.4.6-.1.7v.8a1.8 1.8 0 0 0 1 1.1l1 .2zM107 204.4c.5 0 1 0 1.4.2.4.2.8.4 1 .7.4.2.6.6.8 1 .2.4.3.8.3 1.3l-.2 1.2-.5 1-.8 1-1 1-3 3a6 6 0 0 1 1.4-.2h3.8c.2 0 .3 0 .4.2l.1.3v.9h-7.6v-.5a.9.9 0 0 1 .2-.6l3.7-3.7a21.9 21.9 0 0 0 1.5-1.7l.4-1 .1-.9-.1-.8a1.7 1.7 0 0 0-1.1-1 2.6 2.6 0 0 0-1.7 0 2.2 2.2 0 0 0-1 .9l-.4.6c0 .2 0 .3-.2.4h-.3a1 1 0 0 1-.2 0h-.7c0-.6.2-1 .4-1.4a3.3 3.3 0 0 1 2-1.7l1.3-.2zm8.9 6.9c-.4 0-.8 0-1.2-.2a3 3 0 0 1-1.8-1.7l-.2-1.4a3.5 3.5 0 0 1 2.2-3.3 4 4 0 0 1 1.6-.3l1.5.3a3.4 3.4 0 0 1 1.9 2l.2 1.4a4.6 4.6 0 0 1-.3 1.8 7.1 7.1 0 0 1-1 1.7l-2.8 4c0 .2-.2.2-.3.3a1 1 0 0 1-.4.1h-1.4l3.5-4.6a30.7 30.7 0 0 0 .7-.8l-1 .5-1.2.2zm2.9-3.4l-.2-1-.5-.7a2 2 0 0 0-.7-.4l-1-.2c-.3 0-.6 0-.9.2-.3 0-.5.2-.7.4a2 2 0 0 0-.5.8l-.2.9c0 .4 0 .7.2 1 0 .3.2.5.4.7l.7.4 1 .2c.3 0 .7 0 1-.2l.7-.5.5-.7.2-.9zM147.2 204.4c.5 0 1 0 1.3.2l1 .6c.4.3.6.6.8 1l.2 1.1-.1 1a2.4 2.4 0 0 1-1 1.3l-.9.4c.8.2 1.3.5 1.7 1 .4.4.6 1 .6 1.7a3.3 3.3 0 0 1-1.1 2.5l-1.3.7-1.4.2c-.6 0-1.2 0-1.6-.2a3.2 3.2 0 0 1-1.8-1.6l-.5-1.2.6-.2h.6s.2 0 .2.2a1.7 1.7 0 0 1 0 .1l.3.6a2.2 2.2 0 0 0 1.1 1l1 .1c.4 0 .8 0 1.1-.2l.8-.5a2.1 2.1 0 0 0 .6-1.4c0-.4 0-.6-.2-.9 0-.3-.2-.5-.4-.7l-1-.4-1.4-.2v-1c.5 0 1 0 1.3-.2.3 0 .6-.2.8-.4l.5-.6.1-.8-.1-.9a1.7 1.7 0 0 0-1.1-1 2.6 2.6 0 0 0-1.6 0 2.2 2.2 0 0 0-1.1 1l-.3.6-.2.4h-.3a1 1 0 0 1-.2 0h-.8c.1-.6.3-1 .5-1.4a3.3 3.3 0 0 1 2-1.7l1.3-.2zm13.1 5.9c0 1-.1 1.8-.3 2.6-.2.7-.5 1.3-1 1.8-.3.5-.7.8-1.2 1-.5.3-1 .4-1.7.4-.6 0-1.1-.1-1.6-.3-.5-.3-1-.6-1.3-1.1-.4-.5-.7-1-.9-1.8-.2-.8-.3-1.6-.3-2.6s0-1.9.3-2.6c.2-.8.5-1.4.9-1.9a3.6 3.6 0 0 1 3-1.4c.5 0 1 .1 1.6.4.5.2 1 .6 1.3 1 .4.5.7 1.1.9 1.9.2.7.3 1.6.3 2.6zm-1.5 0c0-.9 0-1.6-.2-2.2-.1-.6-.3-1.1-.6-1.5a2.2 2.2 0 0 0-3.7 0c-.3.4-.5.9-.6 1.5-.2.6-.2 1.3-.2 2.2 0 .8 0 1.6.2 2.2.1.6.3 1 .6 1.4a2.2 2.2 0 0 0 2.8.8c.4-.2.7-.4 1-.8.2-.4.4-.8.5-1.4l.2-2.2zM187.2 204.4c.5 0 1 0 1.3.2l1 .6c.4.3.6.6.8 1l.2 1.1-.1 1a2.4 2.4 0 0 1-1 1.3l-.9.4c.8.2 1.3.5 1.7 1 .4.4.6 1 .6 1.7a3.3 3.3 0 0 1-1.1 2.5l-1.3.7-1.4.2c-.6 0-1.2 0-1.6-.2a3.2 3.2 0 0 1-1.8-1.6l-.5-1.2.6-.2h.6s.2 0 .2.2a1.7 1.7 0 0 1 0 .1l.3.6a2.2 2.2 0 0 0 1.1 1l1 .1c.4 0 .8 0 1.1-.2l.8-.5a2.1 2.1 0 0 0 .6-1.4c0-.4 0-.6-.2-.9 0-.3-.2-.5-.4-.7l-1-.4-1.4-.2v-1c.5 0 1 0 1.3-.2.3 0 .6-.2.8-.4l.5-.6.1-.8-.1-.9a1.7 1.7 0 0 0-1.1-1 2.6 2.6 0 0 0-1.6 0 2.2 2.2 0 0 0-1.1 1l-.3.6-.2.4h-.3a1 1 0 0 1-.2 0h-.8c.1-.6.3-1 .5-1.4a3.3 3.3 0 0 1 2-1.7l1.3-.2zm6.6 10.5h2.5v-7.8-.7l-2 1.7-.2.1a.5.5 0 0 1-.4 0l-.1-.1-.5-.6 3.4-3h1.2V215h2.2v1.1h-6.1v-1z" fill="#9B9B9B" opacity="0.800000012"/>
    </g>
  </g>
</svg>
