<svg width="432px" height="310px" xmlns="http://www.w3.org/2000/svg" xmlns:xlink="http://www.w3.org/1999/xlink">
  <defs>
    <path d="M6 0h428a6 6 0 0 1 6 6v298a6 6 0 0 1-6 6H6a6 6 0 0 1-6-6V6a6 6 0 0 1 6-6z" id="a"/>
    <path d="M3.2 347.3a7.2 7.2 0 0 1 0-12l170.1-113.2a7.2 7.2 0 0 1 8 0L239.8 8.3A10.8 10.8 0 0 1 256.3 2l227.3 148.6a32.8 32.8 0 0 1 13 38.2l-61 177.2-.2.8a39.4 39.4 0 0 1-11.1 17.2l-9 6-158.4 105.4a28.4 28.4 0 0 1-31.4 0L3.2 347.3" id="c"/>
    <path d="M.6 294.6v28.2a8.6 8.6 0 0 0 3.8 7.1L220.5 474a14.4 14.4 0 0 0 16 0l162.1-107.9 1-4.3a22 22 0 0 1 11.4-14.5l57.5-167.5a26.3 26.3 0 0 0-10.2-30.7L238.3 3a15.6 15.6 0 0 0-8.7-2.6h-8l-56.9 191.8L.6 294.6z" id="e"/>
    <path d="M.1 45.2L60.5 5 67.7.4h83.8l139.8 93.3v25.2l-11.2 6.7-.3.2-98.4 65.4L0 70.4V45.1z" id="g"/>
    <path d="M81.5 24c2.5-1.6 4.9-3 7.2-4.6C109.7 7 125 .6 134.7.6c9 0 21.6 6.3 37.8 18.8l139.8 93.3 12.4 17.4-12.4 7.8-11.2 6.7-98.7 65.6L21 89.4.3 74.5 21 64.2 81.5 24z" id="i"/>
    <path d="M0 .8h330.6v162.4a608.8 608.8 0 0 0-31.8 18.2L200.1 247 0 113.6V.8z" id="k"/>
    <path d="M299.3 118.9L121.6.4C115 3 99.5 10.1 68.6 30.3L30 55.9 8 70.3.3 75.6l190 129.5 119.5-79.5-10.5-6.7z" id="m"/>
    <path d="M8 0h183a8 8 0 0 1 8 8v62a8 8 0 0 1-8 8H8a8 8 0 0 1-8-8V8a8 8 0 0 1 8-8z" id="p"/>
    <filter x="-18.6%" y="-29.5%" width="137.2%" height="194.9%" filterUnits="objectBoundingBox" id="o">
      <feOffset dy="12" in="SourceAlpha" result="shadowOffsetOuter1"/>
      <feGaussianBlur stdDeviation="9" in="shadowOffsetOuter1" result="shadowBlurOuter1"/>
      <feColorMatrix values="0 0 0 0 0 0 0 0 0 0 0 0 0 0 0 0 0 0 0.048658288 0" in="shadowBlurOuter1" result="shadowMatrixOuter1"/>
      <feOffset dy="2" in="SourceAlpha" result="shadowOffsetOuter2"/>
      <feGaussianBlur stdDeviation="2" in="shadowOffsetOuter2" result="shadowBlurOuter2"/>
      <feColorMatrix values="0 0 0 0 0 0 0 0 0 0 0 0 0 0 0 0 0 0 0.1 0" in="shadowBlurOuter2" result="shadowMatrixOuter2"/>
      <feMerge>
        <feMergeNode in="shadowMatrixOuter1"/>
        <feMergeNode in="shadowMatrixOuter2"/>
      </feMerge>
    </filter>
    <path d="M33 46C14.8 46 0 35.7 0 23S14.8 0 33 0s33 10.3 33 23-14.8 23-33 23zm0-15c11 0 20-4.5 20-10s-9-10-20-10-20 4.5-20 10 9 10 20 10z" id="q"/>
    <path d="M20.5 271c-5.7-3.7-6.8-6.8-3.5-9.5 5-4 19 7 18.5 11s-4.8 4.5-7.5 3l-7.5-4.5z" id="t"/>
    <filter x="-14.7%" y="-12.8%" width="129.5%" height="163.9%" filterUnits="objectBoundingBox" id="s">
      <feMorphology radius="0.5" operator="dilate" in="SourceAlpha" result="shadowSpreadOuter1"/>
      <feOffset dy="3" in="shadowSpreadOuter1" result="shadowOffsetOuter1"/>
      <feColorMatrix values="0 0 0 0 0.79857568 0 0 0 0 0.79857568 0 0 0 0 0.79857568 0 0 0 1 0" in="shadowOffsetOuter1" result="shadowMatrixOuter1"/>
      <feOffset dy="2" in="SourceAlpha" result="shadowOffsetOuter2"/>
      <feColorMatrix values="0 0 0 0 0.737254902 0 0 0 0 0.596078431 0 0 0 0 0 0 0 0 1 0" in="shadowOffsetOuter2" result="shadowMatrixOuter2"/>
      <feMerge>
        <feMergeNode in="shadowMatrixOuter1"/>
        <feMergeNode in="shadowMatrixOuter2"/>
      </feMerge>
    </filter>
    <path d="M20.4 288.4c-5.7-3.7-6.9-6.9-3.5-9.5 5-4 19 7 18.5 11s-4.9 4.5-7.5 3l-7.5-4.5z" id="v"/>
    <filter x="-14.7%" y="-12.8%" width="129.5%" height="163.9%" filterUnits="objectBoundingBox" id="u">
      <feMorphology radius="0.5" operator="dilate" in="SourceAlpha" result="shadowSpreadOuter1"/>
      <feOffset dy="3" in="shadowSpreadOuter1" result="shadowOffsetOuter1"/>
      <feColorMatrix values="0 0 0 0 0.79857568 0 0 0 0 0.79857568 0 0 0 0 0.79857568 0 0 0 1 0" in="shadowOffsetOuter1" result="shadowMatrixOuter1"/>
      <feOffset dy="2" in="SourceAlpha" result="shadowOffsetOuter2"/>
      <feColorMatrix values="0 0 0 0 0.737254902 0 0 0 0 0.596078431 0 0 0 0 0 0 0 0 1 0" in="shadowOffsetOuter2" result="shadowMatrixOuter2"/>
      <feMerge>
        <feMergeNode in="shadowMatrixOuter1"/>
        <feMergeNode in="shadowMatrixOuter2"/>
      </feMerge>
    </filter>
    <path d="M0 61.5c3.7-19.7 6.3-30.3 8-32 2.5-2.5 4-1.5 6-1.5 1.3 0 5.2 2.7 11.5 8 1.9-.5 3.2-1.3 4-2.5.7-1 .5-1.5-.5-1.5.4 0 .7-.3 1-1a68.4 68.4 0 0 0 3.5-9.5c.7-2.7 1-4.6 1.5-5.5.3-.6-5.4 5-9.5 7.5-1 .6-2.4 6-3.5 6-.2 0-3.1 1.2-3 0 .2-2.1 3.5-8 3.5-8 2-4.2 9.1-8.5 9.5-9 2-2.5 2.8-5.2 6.5-5 .2 0 3.3.2 4-.5 1.9-2 2.2-6.2 3-6 .7.2 2.3-.5 3 1.5.3.7-.5 3.5-.5 5 0 1 .8 1 1 1 4 1 4.3 1.8 5 2.5 1 1 2 3 2.5 5 .8 4.3-.2 8-.5 10 0 .2-.4 4.7-1.5 8.5-1.5 5.3-3 8.5-4.5 8.5-.5 0-1.5-.9-1.5-3.5 0-.4.7-3.5 1.5-6.5 1-3.5 2-7 2-7.5 0-2-.4-3.8-.5-5v2c0 2.3-1 5-1.5 7.5-1 4.5-1.6 5.5-2 8.5-1.5 4.5-2 6-2.5 7s-2 1.5-3 2c-3 1.2-5.6 2.4-6.5 2.5-2.7.3-3.2 0-4.5 0-2.5 0-3.5-1-5-1.5S23.2 47 23 48c-.6 2.5-1.1 3.9-2 10.5-.3 2.5-1.5 6.6-3.5 12.5-.9.7-1.6 1-2 1-.7 0-1.6 0-2-1.5-1-3.8-1.3-24.2 1.4-30 .2-.5-.8-2.4-1.4-1.5C12 41.1 12 45.3 11 50.5c-1 5.3-5 10.8-6.5 13-2.3.7-3.8 0-4.5-2z" id="w"/>
    <path d="M5.5 5c5 2 7.2 4.5 6.5 7.5-.7 3-2 5-4 6 5.3 1 9.8.8 13.5-.5 5.5-2 7-6.5 6.5-11.5 0-.7-1.5.5-3.5 0s-3-.8-4-1.5c-2-1.3-6.7-3.2-9-4C10 .5 9.1.3 9 .5l-1.5 1L2 .5C1.3.5.8.7.5 1l2 1c.5.4 1 .6 1 1 0 .7-.3 1.5-1 2.5l3-.5z" id="y"/>
    <path d="M5.3 11.5c-1.8.6-3.5 1.1-4.7-1.1C-.5 8 0 3 1.2 1.3c1.2-1.7 6.4-1.7 8.2 0 1 1 .7 4.8-.6 7.3a6.3 6.3 0 0 1-3.5 2.9z" id="A"/>
  </defs>
  <g transform="matrix(-1 0 0 1 440 0)" fill="none" fill-rule="evenodd">
    <mask id="b" fill="#fff">
      <use xlink:href="#a"/>
    </mask>
    <path d="M38.5 240.5a38 38 0 0 0 4.5 11 15 15 0 0 0 7 5l18.2 37.2a16 16 0 0 0 5.3 6.2L133 341l74-17c195 2 288.1-1.7 279.5-11-3-3.2-11-38.4-41.5-47-20.4-5.7-133.2-22.4-338.5-50l-68 24.5z" fill="#F3F3F3" mask="url(#b)"/>
    <path d="M152 138.3l-19.3-12.9.6-.8L253.8 205l-.6.8L153 139l-13 8.8 97.9 65.4-.6.8-98.3-65.6-11 7.4 85.9 57.4-.6.8-86.3-57.6-8.5 5.7 100.4 67-.6 1-100.7-67.4-11.1 7.4 88.4 59-.6 1-88.7-59.4-11.1 7.4 35.5 23.8.3-.2.5.7 17.2 11.5 6.3-4.2.6.8-6 4 30 20 1.4-.8.6.8-1 .7 15 10-.6.8-15.3-10.2-17 11.4 8.9 6-.6.8-9.3-6.2-38.3 25.6 7.2 4.8-.6.8-7.5-5-12.6 8.4 14.1 9.4 63-42.1.6.8-62.7 41.9 20.7 13.8-.6.8-21-14-17 11.4 38.6 25.8-.6.8-39-26-39 26-.5-.8 38.6-25.8-14-9.4-30 20-.6-.8 29.7-19.8-16.1-10.8-35 23.4-.6-.8 34.7-23.2-13-8.7-25.1 16.7-.6-.8 24.7-16.5-17-11.4-31.1 20.7-.6-.8 30.7-20.5-16.7-11.2.6-.8 17 11.4 17-11.4-34.6-23.2.6-.8 35 23.4 12.5-8.4-35.5-23.8-3.7 2.5-.6-.8 3.4-2.3-26.7-17.8.6-.8 27 18 12.3-8.2-38.9-26 .6-.8 39.2 26.2 12.1-8-37.9-25.4.6-.8L62.5 198l12.1-8-24.9-16.7.6-.8 25.2 16.8L92.6 178l-18.9-12.6.6-.8 19.2 12.8 11-7.4-30.8-20.6.6-.8 31.2 20.8 11-7.4-18.8-12.6.6-.8 19.2 12.8 8.5-5.7-33.3-22.3.6-.8 33.6 22.5 11.1-7.4-21.3-14.3.6-.8 21.6 14.5 13.1-8.8zm26 96.8L148 215l-17.2 11.4 13.1 8.7 14.3-9.5.6.8-14 9.3 16.1 10.8 17-11.4zm-84.5-56.5L76.4 190l35.5 23.8 17.1-11.4-35.5-23.8zm36.4 24.4l-17 11.4 17 11.4 17.1-11.4-17-11.4zm30.1 44l-16-10.7-12.2 8.1 13 8.7-.6.8L131 245l-12 8.1 11.9 8-.6.8-12.3-8.2-12.3 8.2 16 10.8L160 247zm-84.5-56.4l-12 8.1 35.4 23.8 12.1-8.1-35.5-23.8zM112 215l-12 8 17 11.5 12.1-8-17-11.5zm18 12l-12 8 13 8.8 12.1-8-13-8.8zm.1 17.4l-13-8.7-12.1 8 13 8.8 12.1-8zm-14-9.3l-17-11.4-12.1 8 17 11.5L116 235zm-18-12l-35.5-23.8-12 8.1L86 231.2l12-8.1zM49.5 208l-12.3 8.2L72.7 240l12.4-8.3L49.5 208zM86 232.4l-12.4 8.2L90.7 252l12.3-8.2-17-11.5zm18 12l-12.4 8.2 13.1 8.7 12.3-8.2-13-8.7zm-29.8 38.5l16 10.8 17.1-11.4-16-10.8L74.2 283zm-.9-.6l17-11.4-13-8.7-17 11.4 13 8.7zM92.2 271l16 10.8 12.6-8.4-16-10.8-12.6 8.4zm-1-.6l12.6-8.4-13-8.7-12.6 8.4 13 8.7zm31.1 22l-14-9.4-17.1 11.4 14 9.4 17.1-11.4zm-32.5-39.7l-17-11.4-12.6 8.4 17 11.4 12.6-8.4zm-13.4 9l-17.1-11.4-17 11.4 17 11.4 17-11.4zm64.3-150.2l.6-.8L261.8 191l-.6.8-120.5-80.5zm24 0l.6-.8L285.8 191l-.6.8-120.5-80.5zm0-8l.6-.8L285.8 183l-.6.8-120.5-80.5z" fill="#E3E3E3" mask="url(#b)"/>
    <g mask="url(#b)">
      <path d="M38 236.7v-5l174-114.8a7.2 7.2 0 0 1 8 0l64.5-225.5s8.1-3.3 12.9-.6L525.6 40a33 33 0 0 1 13 38.3L475.8 262a41.9 41.9 0 0 1-12 17.4l-9 6-157.5 104.9a31 31 0 0 1-34.3 0l-222-148.3a6.5 6.5 0 0 1-2.9-5.4" fill="#BC9800"/>
      <g transform="translate(38 -109.6)">
        <mask id="d" fill="#fff">
          <use xlink:href="#c"/>
        </mask>
        <use fill="#FBE68C" xlink:href="#c"/>
        <path fill="#E1BE2F" opacity="0.356431159" mask="url(#d)" d="M13.5 337.1l16 34 106 69.5L374 468.1l54.5-97-59.5-21.5z"/>
      </g>
      <path d="M534.6 79.2l-61 177.3a40.3 40.3 0 0 1-11.4 18l-9 6-136.7 91c-9.5 6.3-30.5 11.7-40 5.3C404.4 187.1 481.8 84 508.7 67.6c23-13.9 26.7 9.1 25.9 11.6z" fill="#F5D95F" opacity="0.5"/>
      <path d="M224.6 117.6L284-99.6a4.3 4.3 0 0 1 6.6-2.5L518 46.5A26.3 26.3 0 0 1 528.5 77l-61.1 177.4-.3.8a33 33 0 0 1-9 14l-8.5 5.7-158.3 105.4a21.8 21.8 0 0 1-24.3 0L48.6 234.8a3.7 3.7 0 0 1 0-6.2L214.9 118a.7.7 0 0 1 .4-.2.7.7 0 0 1 .4.2l4.5 3" stroke="#EDC001" stroke-width="1.08000001" stroke-linecap="round" stroke-linejoin="round" stroke-dasharray="3.603599643611915,3.603599643611915"/>
      <path stroke="#F7931E" stroke-width="0.719999938" stroke-linecap="round" stroke-linejoin="round" d="M221.7 121.8l1.5 1 .4-1.7"/>
      <path d="M431.3 243.2l-144.2 96a14.4 14.4 0 0 1-16 0L54.5 194.6" fill="#FFF"/>
      <path d="M431.3 243.2l-144.2 96a14.4 14.4 0 0 1-16 0L54.5 194.6" stroke="#000" stroke-width="0.719999938" stroke-linecap="round" stroke-linejoin="round"/>
      <g transform="translate(50.6 -99)">
        <mask id="f" fill="#fff">
          <use xlink:href="#e"/>
        </mask>
        <use fill="#FCF2D0" xlink:href="#e"/>
        <path fill="#F7EABD" mask="url(#f)" d="M228.2 445.6v39.1l214.2-99.4 54-224.6-44.1 3.2L230.8 436z"/>
      </g>
      <path d="M215.3 93.3s-7.4-42 12.7-86.6a833 833 0 0 0 34.4-98 10 10 0 0 1 15.2-5.6L499.9 51.4a23.2 23.2 0 0 1 9 27.3c-9 24.3-29.1 58.7-40.7 92-16.7 47.6-19 78.5-19 78.5l-233.9-156z" fill="#FFF"/>
      <path d="M430 213.9c4.7-34.8 21.7-81.2 50.8-139m-65.3 130c4.9-34.8 21.8-81.2 50.9-139m-64.8 128.6c4.8-34.8 21.8-81.1 50.9-139m-64.9 130c4.8-34.7 21.8-81.1 50.9-139m-64.9 131c4.8-34.7 21.8-81.1 50.9-139m-64.9 130c4.8-34.7 21.8-81.1 50.9-139m-64.9 129c4.8-34.7 21.8-81.1 50.9-139m-65.9 130c4.8-34.7 21.8-81.1 50.9-139m-65.9 130c4.8-34.7 21.8-81.1 50.9-139m-65.9 130c4.8-34.7 21.8-81.1 50.9-139m-65.9 130c4.8-34.7 21.8-81.1 50.9-139m-65.9 130c4.8-34.7 21.8-81.1 50.9-139m-65.9 130c4.8-34.7 21.8-81.1 50.9-139" stroke="#979797" stroke-width="0.899999976" opacity="0.200000003"/>
      <path d="M215.3 93.3s-10.1-3.3-67.4 34l-93.4 62.2a7.5 7.5 0 0 0 0 12.4l216.6 144.4a14.4 14.4 0 0 0 16 0l100.5-66.8c51.6-31.5 61.6-30.3 61.6-30.3l-233.9-156z" fill="#FFF"/>
      <path d="M79 195.7l79.2-52.7c31-20.2 46.5-27.3 53.2-29.8l198.2 132.1a609.4 609.4 0 0 0-31.8 18.2l-98.7 65.6L79 195.7z" fill="#FCF2D0"/>
      <path d="M211.4 113.2l198.2 132.1a609.4 609.4 0 0 0-31.8 18.2l-98.7 65.6-67.7-198.6v-17.3z" fill="#F7EABD"/>
      <g transform="translate(97.7 138)">
        <mask id="h" fill="#fff">
          <use xlink:href="#g"/>
        </mask>
        <path d="M291.3 118.9L113.6.4C107 3 91.5 10.1 60.6 30.3L0 70.3l181.3 121 109.9-72.4z" fill="#F9E6D7" mask="url(#h)"/>
      </g>
      <g transform="translate(76.7 119)">
        <mask id="j" fill="#fff">
          <use xlink:href="#i"/>
        </mask>
        <path d="M312.3 137.9L134.6 19.4c-6.6 2.5-22.2 9.7-53.1 29.9L21 89.3l181.3 121 109.9-72.4z" stroke="#42210B" stroke-width="0.719999938" fill="#FFF" stroke-linecap="round" stroke-linejoin="round" mask="url(#j)"/>
      </g>
      <g transform="translate(79 82.1)">
        <mask id="l" fill="#fff">
          <use xlink:href="#k"/>
        </mask>
        <g mask="url(#l)">
          <g transform="translate(10.7 47.8)">
            <mask id="n" fill="#fff">
              <use xlink:href="#m"/>
            </mask>
            <use fill="#BBE0EF" xlink:href="#m"/>
            <path d="M299.3 134.9L121.6 16.4C115 19 99.5 26.1 68.6 46.3L30 71.9 8 86.3.3 91.6l190 129.5 119.5-79.5-10.5-6.7z" fill="#D5F0FC" mask="url(#n)"/>
            <path d="M.3 137.6c-2 1-29-49-30-50.5s4.5-45.5 8.5-52 132-51 135-52.5 14.5 8.5 30.5 11 174 115 175.5 116c1 .6 10 19.6 27 57L300.3 186 119.8 64.6A355.3 355.3 0 0 0 88.3 83c-7.5 4.9-31.7 20.5-50.5 33.5C19 129.4 1.3 137 .3 137.6z" fill="#B5D7E6" opacity="0.400000006" mask="url(#n)"/>
          </g>
        </g>
      </g>
    </g>
    <g mask="url(#b)">
      <g transform="matrix(-1 0 0 1 412 37)">
        <use fill="#000" filter="url(#o)" xlink:href="#p"/>
        <use fill="#FFF" xlink:href="#p"/>
        <path d="M23.3 36.5V41h-2.1v-4.5l-4.3-7h2.4c0 .2.2.3.3.4l2 3.9a9.7 9.7 0 0 1 .7 1.2 8.7 8.7 0 0 1 .5-1.2l2.1-3.9.3-.3.4-.2h2l-4.3 7.1zm7.4-3.8c.7 0 1.2 0 1.7.3a3.6 3.6 0 0 1 2.1 2.1 5.3 5.3 0 0 1 0 3.5 3.5 3.5 0 0 1-2 2.2c-.6.2-1.1.3-1.7.3-.7 0-1.2 0-1.7-.3a3.6 3.6 0 0 1-2.1-2.2c-.2-.5-.3-1-.3-1.7s0-1.3.3-1.8a3.6 3.6 0 0 1 2-2.1c.6-.2 1.1-.3 1.8-.3zm0 6.9c.7 0 1.2-.2 1.6-.7.3-.5.5-1.1.5-2 0-.9-.2-1.6-.5-2-.4-.5-.9-.7-1.5-.7-.7 0-1.2.2-1.6.7-.3.4-.5 1.1-.5 2 0 .9.2 1.6.5 2 .4.5.9.7 1.6.7zm7.5-6.8V38c0 .5 0 .9.3 1.2.2.2.6.4 1 .4s.7 0 1-.2l.8-.7v-6h2V41h-1.2c-.2 0-.4-.1-.5-.4l-.1-.6-.6.5a3.2 3.2 0 0 1-2 .6 3 3 0 0 1-1.2-.2 2.4 2.4 0 0 1-.8-.6 2.7 2.7 0 0 1-.5-1 4.1 4.1 0 0 1-.2-1.3v-5.2h2zM48.5 41V29.1h2v4.6l1-.8 1.4-.2c.5 0 .9 0 1.2.2.4.1.6.4.9.6l.5 1 .2 1.3V41h-2v-5.2c0-.5-.1-1-.3-1.2-.3-.3-.6-.4-1-.4s-.7 0-1 .2l-.9.7V41h-2zm15.6 0h-1a1 1 0 0 1-.4 0 .6.6 0 0 1-.2-.4l-.2-.6-.6.5a3.7 3.7 0 0 1-1.3.6 4.1 4.1 0 0 1-1.8-.1 1.9 1.9 0 0 1-1.2-1.1l-.2-1 .3-1c.1-.2.4-.5.8-.7a5.2 5.2 0 0 1 1.5-.6c.6-.2 1.4-.3 2.3-.3v-.5c0-.5 0-1-.3-1.2-.2-.3-.6-.4-1-.4a2.5 2.5 0 0 0-1.4.4l-.4.2a.9.9 0 0 1-.5.1.6.6 0 0 1-.3 0 .8.8 0 0 1-.2-.3l-.4-.7a4.9 4.9 0 0 1 3.4-1.3c.5 0 1 .1 1.3.3a2.7 2.7 0 0 1 1.6 1.6l.2 1.3V41zm-3.9-1.2h.6a2.1 2.1 0 0 0 .9-.5 4 4 0 0 0 .4-.4v-1.4l-1.4.1-1 .3-.5.4a.9.9 0 0 0-.1.5c0 .3.1.6.3.7.2.2.5.3.8.3zm9.6 1.2H68l-3.2-8.2h1.6a.6.6 0 0 1 .4.1l.2.3 1.6 4.3A8.2 8.2 0 0 1 69 39a7 7 0 0 1 .4-1.5l1.6-4.3c0-.1 0-.2.2-.3l.3-.1h1.6L69.8 41zm7.6-8.3c.5 0 1 0 1.4.2a3.1 3.1 0 0 1 1.9 2 4.4 4.4 0 0 1 .2 1.9.6.6 0 0 1 0 .2.3.3 0 0 1-.2.1.6.6 0 0 1-.2 0h-5.1c0 .9.3 1.5.7 1.9.4.4.9.6 1.6.6a2.9 2.9 0 0 0 1.4-.4l.4-.2a.8.8 0 0 1 .4-.1h.2l.2.2.6.7a3.3 3.3 0 0 1-.8.6 4.1 4.1 0 0 1-1.7.7h-1c-.5 0-1 0-1.5-.3a3.6 3.6 0 0 1-1.3-.8 4 4 0 0 1-.9-1.4 5.3 5.3 0 0 1 0-3.5 3.7 3.7 0 0 1 2-2.1 4 4 0 0 1 1.7-.3zm0 1.4c-.6 0-1 .1-1.3.5a2.4 2.4 0 0 0-.7 1.3h3.7v-.7a1.7 1.7 0 0 0-.4-.6 1.6 1.6 0 0 0-.5-.4l-.8-.1zm12-4.8c.5 0 1 0 1.4.2a3 3 0 0 1 2 1.7 3.7 3.7 0 0 1 0 2.6l-.5 1a7 7 0 0 1-.8 1l-.8 1-2.6 2.6a6.3 6.3 0 0 1 1.4-.2h3a.7.7 0 0 1 .5.1l.2.5V41h-8v-.7a1.1 1.1 0 0 1 .4-.8L89 36a7.6 7.6 0 0 0 1.4-1.7l.3-.8a3 3 0 0 0 .2-.8c0-.3 0-.6-.2-.8a1.4 1.4 0 0 0-.8-.8l-.7-.1c-.5 0-.9 0-1.2.3-.3.3-.5.6-.6 1a.8.8 0 0 1-.3.4.7.7 0 0 1-.5.2h-.2l-1-.2c0-.6.2-1.1.4-1.5a3.5 3.5 0 0 1 2-1.7l1.5-.2zM98 41v-8.2h1.2c.3 0 .4.1.5.3l.1.7a4.5 4.5 0 0 1 1.1-.8 3 3 0 0 1 1.5-.3 3 3 0 0 1 1.2.2l.8.6c.3.3.4.6.6 1l.1 1.3V41h-2v-5.2c0-.5 0-1-.3-1.2-.2-.3-.5-.4-1-.4a2 2 0 0 0-1 .2l-.8.7V41h-2zm12.5-8.3c.5 0 1 0 1.4.2a3.1 3.1 0 0 1 1.9 2 4.4 4.4 0 0 1 .2 1.9.6.6 0 0 1 0 .2.3.3 0 0 1-.2.1.6.6 0 0 1-.2 0h-5c0 .9.2 1.5.6 1.9.4.4 1 .6 1.6.6a2.9 2.9 0 0 0 1.4-.4l.5-.2a.8.8 0 0 1 .3-.1h.2a.4.4 0 0 1 .2.2l.6.7a3.3 3.3 0 0 1-.8.6 4.1 4.1 0 0 1-1.7.7h-1a3.8 3.8 0 0 1-2.8-1.1 4 4 0 0 1-.8-1.4 5.3 5.3 0 0 1 0-3.5 3.7 3.7 0 0 1 2-2.1 4 4 0 0 1 1.6-.3zm0 1.4c-.5 0-1 .1-1.3.5a2.4 2.4 0 0 0-.6 1.3h3.7l-.1-.7a1.7 1.7 0 0 0-.4-.6l-.5-.4-.8-.1zm4.2-1.3h1.5a.7.7 0 0 1 .4 0l.2.4 1.2 4.3a8.2 8.2 0 0 1 .2 1.4 22 22 0 0 1 .4-1.4l1.4-4.4s0-.2.2-.2l.3-.1h.9a.6.6 0 0 1 .4 0c0 .2.1.2.2.3l1.3 4.5a17.4 17.4 0 0 1 .3 1.3 20.7 20.7 0 0 1 .3-1.4l1.3-4.3c0-.1 0-.2.2-.3a.6.6 0 0 1 .3-.1h1.5l-2.6 8.2H123c-.2 0-.3-.1-.4-.3l-1.4-4.8a9.4 9.4 0 0 1-.3-1 13.7 13.7 0 0 1-.2 1l-1.5 4.8c0 .2-.2.3-.4.3h-1.6l-2.6-8.2zM18 61V49.1h2v4.7l1-.8a3.2 3.2 0 0 1 2.7 0c.4.1.7.4 1 .7.3.4.5.8.6 1.3a6.6 6.6 0 0 1 0 3.5l-.7 1.4a3.3 3.3 0 0 1-2.6 1.2 2.9 2.9 0 0 1-1.3-.3l-.4-.3a4 4 0 0 1-.4-.4l-.1.5a.5.5 0 0 1-.2.3.5.5 0 0 1-.3.1H18zm3.8-6.8a2 2 0 0 0-1 .3c-.3.1-.6.4-.8.7v3.7a1.9 1.9 0 0 0 1.5.7c.3 0 .6 0 .8-.2.3 0 .5-.2.7-.5l.4-.8a6 6 0 0 0 0-2.5l-.4-.8-.5-.5-.7-.1zm8.8-1.5c.6 0 1.2 0 1.7.3a3.6 3.6 0 0 1 2 2.1c.2.6.3 1.1.3 1.8 0 .6 0 1.2-.3 1.7a3.5 3.5 0 0 1-2 2.2c-.6.2-1.1.3-1.7.3-.6 0-1.2 0-1.7-.3a3.6 3.6 0 0 1-2.1-2.2c-.2-.5-.3-1-.3-1.7s.1-1.2.3-1.8A3.6 3.6 0 0 1 29 53c.5-.2 1-.3 1.7-.3zm0 6.9c.7 0 1.2-.2 1.5-.7a3.5 3.5 0 0 0 .5-2 3.5 3.5 0 0 0-.5-2c-.3-.5-.8-.7-1.5-.7s-1.2.2-1.6.7c-.3.4-.5 1.1-.5 2 0 .9.2 1.6.5 2 .4.5.9.7 1.6.7zm9-7c.7 0 1.2.2 1.7.4a3.6 3.6 0 0 1 2.1 2.1 5.4 5.4 0 0 1 0 3.5 3.5 3.5 0 0 1-2 2.2c-.6.2-1.1.3-1.7.3-.6 0-1.2 0-1.7-.3a3.6 3.6 0 0 1-2.1-2.2c-.2-.5-.3-1-.3-1.7s.1-1.2.3-1.8a3.6 3.6 0 0 1 2.1-2.1c.5-.2 1-.3 1.7-.3zm0 7c.8 0 1.3-.2 1.6-.7.3-.4.5-1.1.5-2a3.5 3.5 0 0 0-.5-2c-.3-.5-.8-.7-1.5-.7s-1.2.2-1.6.7c-.3.4-.5 1.1-.5 2 0 .9.2 1.6.5 2 .4.5.9.7 1.6.7zm7.7-10.5V56h.6a.8.8 0 0 0 .3-.2l2-2.6a1 1 0 0 1 .3-.2l.4-.1h1.8l-2.5 3a2.7 2.7 0 0 1-.6.6 2 2 0 0 1 .5.6l2.8 4h-1.8a.9.9 0 0 1-.4 0 .8.8 0 0 1-.3-.3l-2-3.2a.6.6 0 0 0-.3-.2.9.9 0 0 0-.4 0h-.4V61h-2V49.1h2zM59 54.4a.5.5 0 0 1-.2.2.4.4 0 0 1-.2 0 .7.7 0 0 1-.3 0l-.4-.2-.5-.2-.7-.1c-.3 0-.7 0-.9.3a.8.8 0 0 0-.3.6c0 .2 0 .3.2.4 0 .2.2.3.4.4l.7.2a21.1 21.1 0 0 1 1.4.5l.7.5c.2.1.3.3.4.6l.2.8c0 .4 0 .8-.2 1.1a2.4 2.4 0 0 1-.6.9 3 3 0 0 1-1 .5 4.4 4.4 0 0 1-2.3.2 4.9 4.9 0 0 1-1.5-.6l-.5-.4.4-.7.2-.2a.6.6 0 0 1 .3-.1h.4l.4.3a2.2 2.2 0 0 0 1.2.4l.6-.1.4-.3.3-.3a1 1 0 0 0 0-.3.7.7 0 0 0-.1-.5 1.5 1.5 0 0 0-.5-.3 4.4 4.4 0 0 0-.6-.3l-.8-.2-.7-.3a2.5 2.5 0 0 1-.7-.5 2 2 0 0 1-.4-.6 2.3 2.3 0 0 1-.2-1 2.4 2.4 0 0 1 .8-1.7l1-.5c.4-.2.8-.2 1.3-.2a3.7 3.7 0 0 1 2.7 1l-.4.7zM67 61c-.7 0-1.3-.2-1.7-.6a2.3 2.3 0 0 1-.5-1.6v-4.6h-.9a.4.4 0 0 1-.3-.1.4.4 0 0 1 0-.3V53l1.3-.2.4-2.3a.4.4 0 0 1 .1-.2.5.5 0 0 1 .3-.1h1v2.6H69v1.4h-2.2v4.4c0 .3 0 .5.2.6.1.2.3.2.5.2h.3a1.7 1.7 0 0 0 .4-.2.3.3 0 0 1 .2 0h.1l.1.1.6 1a3 3 0 0 1-1 .5 3.7 3.7 0 0 1-1.1.2zm7-8.4c.6 0 1.1 0 1.6.3a3.6 3.6 0 0 1 2.1 2.1c.2.6.3 1.1.3 1.8 0 .6 0 1.2-.3 1.7a3.5 3.5 0 0 1-2 2.2c-.6.2-1.1.3-1.7.3-.6 0-1.2 0-1.7-.3a3.6 3.6 0 0 1-2.1-2.2c-.2-.5-.3-1-.3-1.7s0-1.2.3-1.8a3.6 3.6 0 0 1 2-2.1l1.8-.3zm0 6.9c.7 0 1.2-.2 1.5-.7.3-.4.5-1.1.5-2a3.5 3.5 0 0 0-.5-2c-.3-.5-.8-.7-1.5-.7s-1.2.2-1.6.7c-.3.4-.5 1.1-.5 2 0 .9.2 1.6.5 2 .4.5.9.7 1.6.7zm8.7 1.4v-8.2h1.1l.4.1.2.4.1 1c.3-.5.7-1 1-1.2.4-.3.9-.5 1.4-.5.4 0 .7.1 1 .3l-.3 1.5a.3.3 0 0 1 0 .2.3.3 0 0 1-.3 0H87a2.2 2.2 0 0 0-.6 0c-.4 0-.7 0-1 .3-.3.2-.6.6-.8 1V61h-2zm9.9-8.3c.5 0 1 0 1.4.2a3.1 3.1 0 0 1 1.9 2 4.4 4.4 0 0 1 .2 1.9.6.6 0 0 1 0 .2.3.3 0 0 1-.2.1.6.6 0 0 1-.2 0h-5.1c0 .9.3 1.5.7 1.9.4.4.9.6 1.6.6a2.9 2.9 0 0 0 1.4-.4l.4-.2a.8.8 0 0 1 .4-.1h.2l.2.2.6.7a3.3 3.3 0 0 1-.8.6 4.1 4.1 0 0 1-1.7.7h-1c-.5 0-1 0-1.5-.3a3.6 3.6 0 0 1-1.3-.8 4 4 0 0 1-.9-1.4 5.3 5.3 0 0 1 0-3.5 3.7 3.7 0 0 1 2-2.1 4 4 0 0 1 1.7-.3zm0 1.4c-.6 0-1 .1-1.3.5a2.4 2.4 0 0 0-.7 1.3h3.8l-.1-.7a1.7 1.7 0 0 0-.4-.6 1.6 1.6 0 0 0-.5-.4l-.8-.1zm11.6 6.9h-1a1 1 0 0 1-.4 0 .6.6 0 0 1-.2-.4l-.2-.6-.6.5a3.7 3.7 0 0 1-1.3.6 4.1 4.1 0 0 1-1.7-.1 1.9 1.9 0 0 1-1.3-1.1l-.2-1 .3-1c.1-.2.4-.5.8-.7a5.2 5.2 0 0 1 1.5-.6c.6-.2 1.4-.3 2.3-.3v-.5c0-.5 0-1-.3-1.2-.2-.3-.6-.4-1-.4a2.5 2.5 0 0 0-1.4.4l-.4.2a.9.9 0 0 1-.4.1.6.6 0 0 1-.4 0 .8.8 0 0 1-.2-.3l-.4-.7a4.9 4.9 0 0 1 3.4-1.3c.5 0 1 .1 1.3.3a2.7 2.7 0 0 1 1.6 1.6l.2 1.3V61zm-3.9-1.2h.6a2.1 2.1 0 0 0 1-.5 4 4 0 0 0 .3-.4v-1.4a10 10 0 0 0-1.4.1l-1 .3-.4.4a.9.9 0 0 0-.2.5c0 .3.1.6.3.7.2.2.5.3.8.3zM112 61c-.3 0-.4-.1-.5-.4l-.2-.8a3.4 3.4 0 0 1-1.8 1.2l-.8.1a2.7 2.7 0 0 1-2.2-1 3.9 3.9 0 0 1-.6-1.4 6.7 6.7 0 0 1 0-3.5c.2-.5.4-1 .7-1.3a3.2 3.2 0 0 1 2.6-1.3 2.9 2.9 0 0 1 2 .8v-4.3h2V61h-1.2zm-2.6-1.4a2 2 0 0 0 1-.3l.8-.7v-3.7a2 2 0 0 0-1.6-.8 2 2 0 0 0-.8.2l-.6.5-.4.9-.1 1.2.1 1.2c0 .4.2.6.3.9l.6.4.7.2zm8.7-10.2V54a17.7 17.7 0 0 1-.2 3h-1.4a16.9 16.9 0 0 1-.2-3v-4.6h1.8zM116 60a1.2 1.2 0 0 1 .3-.8 1.3 1.3 0 0 1 .9-.4 1.2 1.2 0 0 1 .8.4 1.2 1.2 0 0 1 .3 1.3 1.2 1.2 0 0 1-.7.6 1.3 1.3 0 0 1-1.3-.2 1.3 1.3 0 0 1-.4-.9z" fill="#2A2A2A"/>
        <path d="M18 14a.2.2 0 0 1 .2.1l2.9 3.8a2.4 2.4 0 0 1 0-.4V14h.6v5h-.4a.3.3 0 0 1-.1 0 .3.3 0 0 1-.1-.1l-3-3.8a4.5 4.5 0 0 1 .1.3V19h-.6v-5h.4zm10 2.5l-.1 1a2.3 2.3 0 0 1-1.3 1.4l-1 .2-1-.2a2.3 2.3 0 0 1-1.3-1.4 2.9 2.9 0 0 1-.2-1c0-.4 0-.7.2-1a2.3 2.3 0 0 1 1.3-1.4 2.6 2.6 0 0 1 2 0 2.3 2.3 0 0 1 1.3 1.4l.2 1zm-.6 0c0-.3 0-.6-.2-.8a1.8 1.8 0 0 0-.3-.7l-.6-.3a1.9 1.9 0 0 0-.7-.2 1.6 1.6 0 0 0-1.3.6c-.2.1-.3.3-.4.6v1.6c.1.3.2.5.4.6l.6.4.7.2c.3 0 .5 0 .7-.2.2 0 .4-.2.6-.4.1-.1.3-.3.3-.6l.2-.8zm5.2-2.5v.6h-1.7V19h-.6v-4.5h-1.7V14h4zm2 5h-.7v-5h.7v5zm5-5v.5H37v1.8h2v.5h-2V19h-.7v-5h3.1zm2.1 5H41v-5h.7v5zm5.4-1l.4.3a2.2 2.2 0 0 1-1.9.8 2.5 2.5 0 0 1-1-.2 2.2 2.2 0 0 1-1.2-1.4 3 3 0 0 1 0-2 2.3 2.3 0 0 1 1.3-1.4 2.9 2.9 0 0 1 2 0l.7.5-.2.3a.1.1 0 0 1-.1 0 4.9 4.9 0 0 1-.4-.2 1.4 1.4 0 0 0-.5-.1 2.1 2.1 0 0 0-1.2 0 1.6 1.6 0 0 0-1 1V17.4a1.7 1.7 0 0 0 1 1l.7.2h.4a1.6 1.6 0 0 0 .6-.3l.3-.2zm5.9 1h-.6a.2.2 0 0 1-.1 0 .3.3 0 0 1-.1-.2l-.5-1.2h-2.2l-.5 1.2a.3.3 0 0 1 0 .1.2.2 0 0 1-.2.1h-.5l2-5h.7l2 5zm-3.3-1.9h1.8l-.7-2-.2-.5a8.3 8.3 0 0 1-.1.5l-.8 2zM57 14v.6h-1.6V19h-.7v-4.5h-1.6V14h4zm2 5h-.6v-5h.7v5zm6.6-2.5c0 .4 0 .7-.2 1A2.3 2.3 0 0 1 64 19l-1 .2-1-.2a2.3 2.3 0 0 1-1.3-1.4 2.9 2.9 0 0 1-.2-1c0-.4 0-.7.2-1a2.3 2.3 0 0 1 1.3-1.4l1-.2c.4 0 .7 0 1 .2a2.3 2.3 0 0 1 1.3 1.4l.2 1zm-.7 0c0-.3 0-.6-.2-.8a1.6 1.6 0 0 0-.9-1 1.9 1.9 0 0 0-.7-.2 1.6 1.6 0 0 0-1.3.5l-.4.7v1.6a1.6 1.6 0 0 0 1 1l.7.2c.3 0 .5 0 .7-.2.2 0 .4-.2.6-.4.1-.1.3-.3.3-.6l.2-.8zm2.4-2.5h.2v.1l3 3.8a2.4 2.4 0 0 1 0-.4V14h.6v5h-.4a.3.3 0 0 1-.1 0 .3.3 0 0 1-.1-.1l-3-3.8a4.5 4.5 0 0 1 0 .3V19H67v-5h.3z" fill="#9B9B9B"/>
        <circle fill="#EDC001" cx="161" cy="40" r="17"/>
        <path d="M160.4 32.8c.6 0 1.2.1 1.7.3a3.4 3.4 0 0 1 2 2 4 4 0 0 1 .2 2.8l-.6 1.2-.8 1-1 1-3 3a7.1 7.1 0 0 1 1.7-.2h3.3a.8.8 0 0 1 .6.2.7.7 0 0 1 .2.6V46h-9v-.7a1.3 1.3 0 0 1 .5-1l3.9-4 .9-.9a5 5 0 0 0 1-1.8 3.2 3.2 0 0 0 0-1.8 1.6 1.6 0 0 0-1-1 2.3 2.3 0 0 0-.7 0c-.5 0-1 0-1.3.3-.4.3-.6.6-.8 1.1a.9.9 0 0 1-.3.5.8.8 0 0 1-.5.1h-.3l-1.1-.2a5 5 0 0 1 .5-1.6 4 4 0 0 1 2.3-2l1.6-.2z" fill="#FFF"/>
      </g>
    </g>
    <g mask="url(#b)">
      <path d="M230 238a50.4 50.4 0 0 1-15.3-2.3c-.3.3-.7 3-1.2 4.3-.2.5.4 2.7 0 4.5a5.6 5.6 0 0 1-2 3c-1.2 1-5 0-4.5-1 .3-.5 0-1.6 1-3s3-3.1 3-3.7c-.4-2.1-.6-5.1-.6-5.8a34.3 34.3 0 0 1-7.7-4.6c-.2-.2-.7-1.3-1.2-.9-.5 1.5-.9 2.7-2 5-.5 1-.5 3.3-1 4-.5.7-1.6 0-3 .5-1.4.6-3 2.5-4 3-2 1-5 .6-4.5-1 .1-.5.5-2.2 1.5-3 1.9-1.6 5-2.5 6-3.5.2-.2 1-1.3 1-1.5 1.3-3.8 2-7.5 2-8.5a16.3 16.3 0 0 1-2.5-8.5c0-12.7 15.7-23 35-23s35 10.3 35 23-15.7 23-35 23zm0-15c11.6 0 21-4.5 21-10s-9.4-10-21-10-21 4.5-21 10 9.4 10 21 10z" fill="#ABD4E6" opacity="0.400000006"/>
      <path d="M217.5 197c-4 3.3-6 6.3-6 9 0 4 7.5 10.5 13.5 8.5 4-1.3 7-4 9-8l-11-6.5-.5-1a31.5 31.5 0 0 1-4.5-2h-.5z" fill="#232323"/>
      <g transform="translate(197 184)">
        <mask id="r" fill="#fff">
          <use xlink:href="#q"/>
        </mask>
        <use fill="#EDC001" xlink:href="#q"/>
        <path d="M1 17c1.7 13.7 13.2 20.8 34.5 21.5A49 49 0 0 0 61 31C81.8 16.1 83.6 3.8 66.5-6L0 1.5v14.8l1 .7z" fill="#FBE68C" mask="url(#r)"/>
        <path d="M13.5 18.5c2.3-6.7 8.3-10.3 18-11 14.5-1 24 3.5 26 8.5s-4.5 12-16 12c-7.7 0-17-3.2-28-9.5z" fill="#EDC001" mask="url(#r)"/>
        <path d="M9.5 33l4.5-9 3.5 1c12.4-5 18.4-7 18-6 0 .1 3.3 2.4 7 1 4.1-1.5 8-6.9 11-6.5 2 .3 4 6 4 6.5 0 1-3.3 8.5-11 11.5a37.5 37.5 0 0 1-12 2.5c-4.7.1-8.8-.8-10-.5-.6.2-2 5.3-3 5.5-1.5.4-4.3-.8-8.5-3.5L9.5 33z" fill="#EDC001" mask="url(#r)"/>
      </g>
    </g>
    <path d="M86.5 178.5v-27.2a6.5 6.5 0 0 1 9.8-5.7 19.5 19.5 0 0 1 9.7 16.9V211m4.5-48.5v-27.2a6.5 6.5 0 0 1 9.8-5.7 19.5 19.5 0 0 1 9.7 16.9V196" stroke="#B79416" stroke-width="3" stroke-linecap="round" stroke-linejoin="round" mask="url(#b)"/>
    <path d="M107.5 207.4l21-13.8v-2.3c0-.9.7.7 1.5.7s1.5-1.6 1.5-.8V212a1.5 1.5 0 0 1-3 0v-13.6l-20.9 13.8-.1-.2v2.7l-3-2v-5.5c0-.8.7.3 1.5.3s1.5-1 1.5-.3v.3z" fill="#ACD1E1" fill-rule="nonzero" mask="url(#b)"/>
    <path d="M106.5 194.5L130 179m-23.5-.5L130 163" stroke="#B79416" stroke-width="4" mask="url(#b)"/>
    <g mask="url(#b)">
      <use fill="#000" filter="url(#s)" xlink:href="#t"/>
      <use fill="#FFF" xlink:href="#t"/>
    </g>
    <g mask="url(#b)" transform="rotate(-20 25.2 285.8)">
      <use fill="#000" filter="url(#u)" xlink:href="#v"/>
      <use fill="#FFF" xlink:href="#v"/>
    </g>
    <path d="M17 262.5c.3-2 2-2.8 5-2.5 3 .3 5.7 2.3 8 6m-7.5 4c-3.7-6-3.8-9.3-.5-10m-5.5 23.5c1-2 2.3-3 4-3s4 .7 7 2m-7-2c-1 3-.3 5.7 2 8" stroke="#DCB11C" stroke-linecap="round" mask="url(#b)"/>
    <g mask="url(#b)">
      <g transform="translate(197 165)">
        <mask id="x" fill="#fff">
          <use xlink:href="#w"/>
        </mask>
        <use fill="#FFF" xlink:href="#w"/>
        <path d="M1.5 64.5A62 62 0 0 0 10 39c0-3 2-4 3-5.5.8-1.2 3.4-.6 7.7 2 .1 0 1.5-.4 1.8-1 .4-.9-1.8-2.7-1.5-2.5.1 0 5 .7 5 2 0 .4-1.2 1.2-3.5 2.5-4.7.3-7.3 2-8 5A33 33 0 0 1 12 49L8 66.5 2.5 65l-1-.5z" fill="#F7EABD" opacity="0.600000024" mask="url(#x)"/>
        <path d="M16.5 77.5c2.3-16 3.5-25.3 3.5-28 0-4 1.5-4 2-5.5s1-2 3-2.5c1.8-.4 1.9 1.3 5.5 2 .3 0 .5-2.6-1.5-4.5-2-1.8-5.3-2.9-5-3 3-1 5.2-1.3 6.5-1L46 48.5 34.5 56c-4.9 7.9-8.6 13.4-11 16.5-2.5 3.1-4.3 4.6-5.5 4.5l-1.5.5zm35-61.3L52 18c.5 2.5.5 5.6.5 8 0 2-1.5 6.2-4.5 12.5l1 4c2.2-4.3 3.5-7.5 4-9.5 1.9-7.9 3-8.5 3-12.5s-.5-6-1.5-8c-.4-.9-2.5-3-3.5-3-.6-.4-2.7-.3-3.5-.5-1-.2-1.1-.3-1-.5.5-.5 1-1.6.5-2-.4-.4 0 1.5-3 1-1-.7-1.3-1.7-1-3L49.5 1l3 2 6 6L61 27l-7 18.5-10-3-4.5-6c2-.6 3.7.3 4-1.5.3-2 2.5-1 3-4.5.3-2.3 1-5.2 2-8.5.5 0 1-.6 1.5-1.5.5-1 1.1-2 1-3.5 0-1 .3-.6.5-.8z" fill="#F7EABD" opacity="0.600000024" mask="url(#x)"/>
        <path d="M35 16v2.5c0 .5-.8 2.5-2.8 8.5l-2.7 8-1.5-4-6.5-.5c.7-4.7 1.8-7.7 3.5-9 2.5-2 7.5-6.5 8-6.5.2 0 2.1-1.2 2.5-1 .2.1 0 .8-.5 2z" fill="#F7EABD" opacity="0.600000024" mask="url(#x)"/>
      </g>
    </g>
    <g mask="url(#b)">
      <g transform="translate(217 196)">
        <mask id="z" fill="#fff">
          <use xlink:href="#y"/>
        </mask>
        <use fill="#555" xlink:href="#y"/>
        <path d="M12 13.5c5.3 0 9-1.2 11-3.5s2.5-3.7 1.5-4a105.1 105.1 0 0 0-8-4C12.4.3 10.2.1 9.5-1c-1-1.7 2.7-1.7 11 0l7 4L31 4l1 18.5L3 23v-5l9-4.5z" fill="#3C3C3C" mask="url(#z)"/>
      </g>
    </g>
    <g mask="url(#b)">
      <g transform="translate(237 160)">
        <mask id="B" fill="#fff">
          <use xlink:href="#A"/>
        </mask>
        <use fill="#FFF" xlink:href="#A"/>
        <path d="M-.5 3c1.1 1.3 1.8 2 2 2 1.5.5 3.2 1 4 1h2c.2 0 .6 0 .5 1.5V11c3.3-.3 5-.7 5-1 0-.5.5-10-.5-10L0 .5-.5 3z" fill="#F7EABD" opacity="0.600000024" mask="url(#B)"/>
      </g>
    </g>
    <path d="M233.5 199c-1.3 2-2 3.2-2 3.5m-.5-4.5c-2.3 1-3.8 1.5-4.5 1.5" stroke="#FFF" mask="url(#b)"/>
    <path d="M236.7 163.2c-.1.5.1.8.8.8 1-.4 2.2 1.3 4.7 1 .5 0 1.8.2 2.3 0 .2 0 .3.8.5 1 .2.2.6-.5 1.1 0 1 .8-1.2 2.8-.5 3 .2 0 .7-1.2 1.6-3.5.8-3 .5-5-1-5.8-2.4-1.2-6.8-1-8.4 1.2-.2.3-.6 1-1 2.3z" fill="#555" mask="url(#b)"/>
    <g mask="url(#b)">
      <path d="M227 186.5l.5-.5 4.5-.5h2.5l.5.5 1 10.5h-1l-8-10z" fill="#F7EABD"/>
      <path fill="#FFF" d="M227 186.5l.5-.5-4-2.5-.5.5z"/>
      <path fill="#737373" d="M227 186.5l1.5 9.5-3-2.5-3-10z"/>
      <path fill="#555" d="M227 186.5l1.5 9.5 7 1-1-11z"/>
    </g>
  </g>
</svg>
