<?xml version="1.0" encoding="UTF-8"?>
<svg width="657px" height="350px" viewBox="0 0 657 350" version="1.1" xmlns="http://www.w3.org/2000/svg" xmlns:xlink="http://www.w3.org/1999/xlink">
    <!-- Generator: Sketch 51 (57462) - http://www.bohemiancoding.com/sketch -->
    <title>rocket</title>
    <desc>Created with Sketch.</desc>
    <defs>
        <path d="M475.366817,268.964844 C417.846625,268.963913 362.70461,259.896808 312.915447,261.386719 C221.978756,264.107945 150.367114,276.035156 142.405265,272.5 C138.152962,270.611927 124.733054,267.91291 116.646339,268.964844 C110.719678,269.735794 95.3128882,283.203288 88.0041708,284.085937 C-4.10463749,295.209609 -4.83348254,306.464695 36.015838,309.967583 C76.8651586,313.470471 181.75615,313.819977 256.68545,334.374132 C331.614751,354.928287 503.287852,313.819977 540.470174,313.819977 C559.027466,313.819977 659.925493,306.5 649.153578,298.5 C644.803795,295.269537 618.599062,286.835324 587.332157,281.5 C566.357269,277.920885 543.034475,280.114937 523.169016,278 C499.312943,275.46021 480.361672,268.964925 475.366817,268.964844 Z" id="path-1"></path>
        <filter x="-0.8%" y="-6.3%" width="101.6%" height="112.7%" filterUnits="objectBoundingBox" id="filter-2">
            <feOffset dx="0" dy="-10" in="SourceAlpha" result="shadowOffsetInner1"></feOffset>
            <feComposite in="shadowOffsetInner1" in2="SourceAlpha" operator="arithmetic" k2="-1" k3="1" result="shadowInnerInner1"></feComposite>
            <feColorMatrix values="0 0 0 0 0.950866284   0 0 0 0 0.898140144   0 0 0 0 0.718871269  0 0 0 1 0" type="matrix" in="shadowInnerInner1"></feColorMatrix>
        </filter>
        <polygon id="path-3" points="333.164062 272.975586 333.164062 301.389648 163.061279 282.619903 163.061279 255.380615"></polygon>
        <filter x="-2.1%" y="-7.6%" width="104.1%" height="115.2%" filterUnits="objectBoundingBox" id="filter-4">
            <feOffset dx="0" dy="7" in="SourceAlpha" result="shadowOffsetInner1"></feOffset>
            <feComposite in="shadowOffsetInner1" in2="SourceAlpha" operator="arithmetic" k2="-1" k3="1" result="shadowInnerInner1"></feComposite>
            <feColorMatrix values="0 0 0 0 0.950866284   0 0 0 0 0.898140144   0 0 0 0 0.718871269  0 0 0 1 0" type="matrix" in="shadowInnerInner1"></feColorMatrix>
        </filter>
        <path d="M49.6496841,0 C98.1290848,30.51 111.103577,98.55 88.5731599,204.12 C88.5731599,204.12 75.598668,206.786667 49.6496841,212.12 L49.6496841,0 Z M49.6463526,0 L49.6463526,212.12 C23.6973687,206.786667 10.7228768,204.12 10.7228768,204.12 C-11.8075401,98.55 1.16695188,30.51 49.6463526,0 Z" id="path-5"></path>
        <filter x="-5.5%" y="-2.6%" width="111.1%" height="105.2%" filterUnits="objectBoundingBox" id="filter-7">
            <feOffset dx="-11" dy="-9" in="SourceAlpha" result="shadowOffsetInner1"></feOffset>
            <feComposite in="shadowOffsetInner1" in2="SourceAlpha" operator="arithmetic" k2="-1" k3="1" result="shadowInnerInner1"></feComposite>
            <feColorMatrix values="0 0 0 0 0.900722789   0 0 0 0 0.900722789   0 0 0 0 0.900722789  0 0 0 1 0" type="matrix" in="shadowInnerInner1"></feColorMatrix>
        </filter>
        <circle id="path-8" cx="71.5" cy="98.5" r="23.5"></circle>
        <filter x="-5.3%" y="-5.3%" width="114.9%" height="121.3%" filterUnits="objectBoundingBox" id="filter-9">
            <feOffset dx="2" dy="5" in="SourceAlpha" result="shadowOffsetOuter1"></feOffset>
            <feColorMatrix values="0 0 0 0 0.901960784   0 0 0 0 0.901960784   0 0 0 0 0.901960784  0 0 0 1 0" type="matrix" in="shadowOffsetOuter1"></feColorMatrix>
        </filter>
        <circle id="path-10" cx="71.5" cy="98.5" r="16.5"></circle>
        <filter x="-10.6%" y="-10.6%" width="121.2%" height="121.2%" filterUnits="objectBoundingBox" id="filter-11">
            <feOffset dx="2" dy="3" in="SourceAlpha" result="shadowOffsetInner1"></feOffset>
            <feComposite in="shadowOffsetInner1" in2="SourceAlpha" operator="arithmetic" k2="-1" k3="1" result="shadowInnerInner1"></feComposite>
            <feColorMatrix values="0 0 0 0 0   0 0 0 0 0   0 0 0 0 0  0 0 0 0.5 0" type="matrix" in="shadowInnerInner1"></feColorMatrix>
        </filter>
        <path d="M4,9 L77,9 C77.5522847,9 78,9.44771525 78,10 L78,42 C78,42.5522847 77.5522847,43 77,43 L4,43 C3.44771525,43 3,42.5522847 3,42 L3,10 C3,9.44771525 3.44771525,9 4,9 Z" id="path-12"></path>
        <filter x="-2.0%" y="-4.4%" width="104.0%" height="108.8%" filterUnits="objectBoundingBox" id="filter-13">
            <feOffset dx="3" dy="2" in="SourceAlpha" result="shadowOffsetInner1"></feOffset>
            <feComposite in="shadowOffsetInner1" in2="SourceAlpha" operator="arithmetic" k2="-1" k3="1" result="shadowInnerInner1"></feComposite>
            <feColorMatrix values="0 0 0 0 0.266741071   0 0 0 0 0.266741071   0 0 0 0 0.266741071  0 0 0 0.5 0" type="matrix" in="shadowInnerInner1"></feColorMatrix>
        </filter>
        <path d="M374.078,288.10436 C374.308517,288.066212 374.501351,287.944301 374.656507,287.738624 C374.811663,287.532946 374.93357,287.293775 375.02223,287.021101 C375.110891,286.748427 375.221715,286.355091 375.354706,285.84108 L377.948015,275.781918 L378.878946,275.62786 L381.711638,284.969083 C381.782566,285.197347 381.857927,285.481872 381.937721,285.822669 C382.017516,286.163466 382.066278,286.452393 382.08401,286.68946 C382.37659,286.605041 382.633702,286.544493 382.855354,286.507812 L382.855354,287.893812 L379.277917,288.485835 L379.277917,287.297835 C379.703488,287.227408 379.91627,286.952198 379.91627,286.472195 C379.91627,286.232194 379.867507,285.952267 379.769981,285.632405 L379.504,284.686421 L376.618113,285.236001 L376.405328,286.117215 L376.225792,286.794926 C376.132698,287.146333 376.050688,287.429902 375.97976,287.645641 C376.263474,287.56269 376.578214,287.492604 376.92399,287.435382 L376.92399,288.875382 L374.078,289.34636 L374.078,288.10436 Z M379.171525,283.463442 L378.55977,281.31468 C378.302654,280.373225 378.134202,279.57911 378.054407,278.932312 L378.041108,278.934512 C377.899251,279.821992 377.735231,280.641128 377.549044,281.391943 L376.950588,283.830981 L379.171525,283.463442 Z M391.406624,286.766678 C390.466822,286.922204 389.657806,286.774089 388.979553,286.322329 C388.3013,285.87057 387.782643,285.191409 387.423568,284.284827 C387.064492,283.378244 386.884957,282.318966 386.884957,281.10696 C386.884957,279.966955 387.060059,278.848988 387.410268,277.753027 C387.760478,276.657067 388.283567,275.72751 388.979553,274.964329 C389.675539,274.201149 390.515585,273.738134 391.499718,273.575272 C391.880958,273.512181 392.313172,273.518654 392.796372,273.594691 C393.279572,273.670728 393.689621,273.818868 394.026532,274.039114 L393.986634,273.289717 L395.010659,273.120253 L395.010659,277.314253 L394.146223,277.457307 C394.030964,276.504376 393.751687,275.8066 393.308384,275.363959 C392.865081,274.921318 392.319827,274.747554 391.672605,274.842661 C391.087445,274.939498 390.590953,275.258659 390.183114,275.800154 C389.775276,276.341649 389.469401,277.019261 389.265482,277.833012 C389.061563,278.646762 388.959604,279.503626 388.959604,280.403631 C388.959604,281.999639 389.203417,283.249278 389.691051,284.152585 C390.178684,285.055892 390.86136,285.434913 391.7391,285.289657 C392.022814,285.242706 392.348637,285.146786 392.716578,285.001896 C393.084519,284.857006 393.383744,284.687489 393.614262,284.49334 L393.614262,282.81934 C393.614262,282.147337 393.631994,281.604408 393.667458,281.190537 C393.43694,281.252685 393.219725,281.300631 393.015806,281.334377 L392.670031,281.409599 L392.670031,280.023599 L396.207571,279.438178 L396.207571,280.626178 C395.98592,280.674859 395.813034,280.745469 395.688909,280.83801 C395.564784,280.930552 395.471692,281.092956 395.40963,281.325228 C395.347567,281.5575 395.316537,281.895632 395.316537,282.339634 L395.316537,285.219634 L394.99736,285.272454 C394.793441,285.3062 394.591741,285.369579 394.392255,285.462591 C394.192768,285.555604 393.937873,285.693786 393.627561,285.877139 C393.166526,286.133436 392.780858,286.329258 392.470546,286.464611 C392.160234,286.599965 391.805597,286.700653 391.406624,286.766678 Z M397.098605,284.348722 C397.337989,284.297107 397.519741,284.22803 397.643865,284.141488 C397.76799,284.054947 397.865515,283.897809 397.936444,283.67007 C398.007372,283.442331 398.042836,283.094466 398.042836,282.626464 L398.042836,275.732464 C398.042836,275.06046 398.060568,274.517531 398.096032,274.10366 L397.098605,274.322722 L397.098605,272.936722 L400.875528,272.275687 C402.090178,272.062676 403.027749,272.195517 403.688271,272.674211 C404.348792,273.152905 404.679048,274.052243 404.679048,275.372249 C404.679048,276.200253 404.481781,276.967891 404.087241,277.675186 C403.692702,278.382481 403.109767,278.949945 402.33842,279.377595 C402.498009,279.453186 402.662029,279.573041 402.830484,279.755165 C402.998939,279.937288 403.140794,280.144811 403.256052,280.377738 L403.881106,281.534299 C404.182552,282.120416 404.433015,282.516963 404.632501,282.723952 C404.831987,282.930941 405.078017,283.016224 405.370597,282.979806 L405.370597,284.167806 L403.176258,284.530943 C403.025535,284.411885 402.874814,284.22983 402.724091,283.984771 C402.573368,283.739713 402.400483,283.411327 402.20543,282.999604 L401.221302,281.002465 C400.999651,280.559143 400.813466,280.241958 400.662743,280.0509 L399.971194,280.165343 L399.971194,282.091343 C399.971194,282.775347 399.953462,283.324275 399.917998,283.738146 C400.201712,283.655195 400.578514,283.574839 401.048415,283.497076 L401.048415,284.883076 L397.098605,285.536722 L397.098605,284.348722 Z M400.609547,278.763703 C401.336564,278.643391 401.86187,278.337461 402.185481,277.845905 C402.509092,277.354349 402.670895,276.640579 402.670895,275.704575 C402.670895,274.70857 402.482494,274.079754 402.105687,273.81811 C401.728879,273.556465 401.314397,273.463059 400.862228,273.537887 C400.551916,273.58924 400.325835,273.716653 400.183978,273.92013 C400.042121,274.123606 399.971194,274.51934 399.971194,275.107343 L399.971194,278.797343 C400.237176,278.801327 400.449958,278.790113 400.609547,278.763703 Z M406.221734,282.838953 C406.461118,282.787338 406.642869,282.71826 406.766994,282.631719 C406.891119,282.545177 406.988644,282.388039 407.059572,282.1603 C407.130501,281.932562 407.165965,281.584696 407.165965,281.116694 L407.165965,274.222694 C407.165965,273.55069 407.183696,273.007761 407.219161,272.593891 L406.221734,272.812953 L406.221734,271.426953 L412.871245,270.326538 L412.951039,273.805333 L412.073303,273.950587 C412.073303,273.062583 411.915933,272.473632 411.601188,272.183717 C411.286443,271.893802 410.907425,271.797526 410.464122,271.894888 L409.985357,271.992118 C409.772572,272.039331 409.604119,272.106208 409.479994,272.192749 C409.355869,272.279291 409.260561,272.442062 409.194065,272.681067 C409.12757,272.920073 409.094323,273.261571 409.094323,273.705573 L409.094323,276.405573 L410.650308,276.148076 C410.641442,275.945542 410.62371,275.426482 410.597112,274.59088 L411.621137,274.421416 L411.621137,278.795416 L410.743401,278.94067 C410.743401,278.460668 410.687989,278.115842 410.577164,277.906181 C410.466338,277.69652 410.322267,277.573364 410.144945,277.536708 C409.967624,277.500052 409.732677,277.511933 409.440097,277.572352 L409.094323,277.647573 L409.094323,280.599573 C409.094323,281.247577 409.076591,281.778506 409.041127,282.192377 L410.823195,281.897465 C411.275364,281.822637 411.658816,281.552182 411.973561,281.086094 C412.288306,280.620005 412.445676,279.936969 412.445676,279.036964 L413.310112,278.89391 L413.243617,282.864914 L406.221734,284.026953 L406.221734,282.838953 Z M413.908568,281.512873 C414.139086,281.474725 414.33192,281.352814 414.487076,281.147137 C414.642232,280.941459 414.764138,280.702287 414.852799,280.429614 C414.941459,280.15694 415.052284,279.763604 415.185274,279.249593 L417.778584,269.190431 L418.709515,269.036373 L421.542207,278.377596 C421.613135,278.60586 421.688495,278.890385 421.76829,279.231182 C421.848084,279.571979 421.896847,279.860906 421.914579,280.097973 C422.207159,280.013554 422.464271,279.953005 422.685922,279.916325 L422.685922,281.302325 L419.108486,281.894348 L419.108486,280.706348 C419.534056,280.635921 419.746839,280.360711 419.746839,279.880708 C419.746839,279.640707 419.698076,279.36078 419.600549,279.040917 L419.334569,278.094934 L416.448681,278.644514 L416.235897,279.525727 L416.05636,280.203439 C415.963267,280.554846 415.881257,280.838415 415.810328,281.054154 C416.094042,280.971203 416.408783,280.901117 416.754559,280.843895 L416.754559,282.283895 L413.908568,282.754873 L413.908568,281.512873 Z M419.002093,276.871955 L418.390339,274.723193 C418.133223,273.781738 417.96477,272.987623 417.884976,272.340825 L417.871677,272.343025 C417.72982,273.230505 417.5658,274.049641 417.379613,274.800456 L416.781157,277.239493 L419.002093,276.871955 Z M425.132942,279.709372 C425.372326,279.657757 425.554077,279.588679 425.678202,279.502138 C425.802327,279.415596 425.899852,279.258459 425.970781,279.03072 C426.041709,278.802981 426.077173,278.455115 426.077173,277.987113 L426.077173,269.365113 L425.465418,269.466351 C424.94232,269.564918 424.538921,269.871673 424.255207,270.386627 C423.971493,270.90158 423.829638,271.633049 423.829638,272.581053 L422.951903,272.726308 L423.018398,268.647304 L431.077605,267.313601 L431.157399,271.368396 L430.279664,271.513651 C430.279664,270.565646 430.135592,269.872495 429.847445,269.434178 C429.559298,268.99586 429.158115,268.825253 428.643884,268.922353 L428.005531,269.027993 L428.005531,277.469993 C428.005531,278.273997 427.987799,278.816926 427.952335,279.098796 C428.244915,279.014377 428.599552,278.937689 429.016256,278.868729 L429.016256,280.254729 L425.132942,280.897372 L425.132942,279.709372 Z M438.963924,278.896508 C438.600416,278.956665 438.212532,278.942856 437.80026,278.855081 C437.387988,278.767306 437.00897,278.614031 436.663194,278.395252 L436.689792,279.14685 L435.665767,279.316314 L435.665767,275.104314 L436.543503,274.959059 C436.658761,275.92399 436.938038,276.630766 437.381341,277.079407 C437.824644,277.528048 438.365465,277.699546 439.003821,277.593906 C439.464857,277.51761 439.846091,277.289522 440.147537,276.909634 C440.448983,276.529747 440.599704,276.105809 440.599704,275.637806 C440.599704,275.253804 440.499962,274.940314 440.300476,274.697325 C440.10099,274.454336 439.879342,274.275018 439.635525,274.159366 C439.391708,274.043714 439.003824,273.885907 438.471861,273.685939 C437.496594,273.319331 436.74964,272.84295 436.230976,272.256779 C435.712311,271.670608 435.452983,270.831533 435.452983,269.739528 C435.452983,269.187525 435.554941,268.633657 435.75886,268.077908 C435.96278,267.52216 436.297468,267.031777 436.762936,266.606746 C437.228404,266.181715 437.829071,265.908313 438.564954,265.786533 C438.946194,265.723442 439.345161,265.732417 439.761866,265.813458 C440.17857,265.8945 440.524342,266.050276 440.799189,266.280794 L440.759292,265.549396 L441.796616,265.377731 L441.796616,269.571731 L440.918881,269.716986 C440.803622,268.752055 440.548726,268.044245 440.154187,267.593534 C439.759647,267.142823 439.256506,266.96809 438.644748,267.069328 C438.245775,267.135353 437.902221,267.339206 437.614074,267.680893 C437.325927,268.022579 437.181856,268.415417 437.181856,268.85942 C437.181856,269.387422 437.345875,269.804274 437.673919,270.109989 C438.001964,270.415703 438.556084,270.719999 439.336297,271.022885 C440.231769,271.354697 440.960991,271.789014 441.523986,272.325848 C442.086981,272.862683 442.368474,273.65309 442.368474,274.697096 C442.368474,275.405099 442.226619,276.058568 441.942905,276.657522 C441.659191,277.256476 441.260225,277.751496 440.745993,278.142597 C440.231762,278.533698 439.637745,278.784999 438.963924,278.896508 Z M445.227763,276.383917 C445.467147,276.332302 445.648898,276.263225 445.773023,276.176683 C445.897148,276.090142 445.994673,275.933004 446.065602,275.705265 C446.13653,275.477526 446.171994,275.129661 446.171994,274.661658 L446.171994,266.039658 L445.560239,266.140896 C445.037141,266.239463 444.633742,266.546218 444.350028,267.061172 C444.066314,267.576126 443.924459,268.307594 443.924459,269.255599 L443.046724,269.400853 L443.113219,265.321849 L451.172426,263.988146 L451.25222,268.042941 L450.374485,268.188196 C450.374485,267.240191 450.230413,266.54704 449.942266,266.108723 C449.65412,265.670405 449.252936,265.499799 448.738705,265.596898 L448.100352,265.702538 L448.100352,274.144538 C448.100352,274.948542 448.08262,275.491471 448.047156,275.773341 C448.339736,275.688922 448.694373,275.612234 449.111078,275.543275 L449.111078,276.929275 L445.227763,277.571917 L445.227763,276.383917 Z M456.571829,275.982609 C455.507902,276.158676 454.630175,275.985933 453.938622,275.464373 C453.24707,274.942814 452.741712,274.210453 452.422534,273.267268 C452.103356,272.324083 451.943769,271.288503 451.943769,270.160498 C451.943769,269.092492 452.121088,268.025159 452.47573,266.958465 C452.830372,265.89177 453.360111,264.973113 454.064963,264.202465 C454.769815,263.431817 455.618727,262.964336 456.611726,262.800006 C457.631322,262.631275 458.489101,262.81632 459.185086,263.355146 C459.881072,263.893972 460.397512,264.639499 460.734422,265.591749 C461.071332,266.543999 461.239785,267.554112 461.239785,268.622117 C461.239785,269.666123 461.062467,270.724456 460.707824,271.797151 C460.353182,272.869845 459.823443,273.794502 459.118591,274.57115 C458.413739,275.347798 457.564827,275.818279 456.571829,275.982609 Z M456.704819,274.646601 C457.281113,274.551231 457.751007,274.227471 458.114515,273.675313 C458.478023,273.123154 458.739568,272.455877 458.899157,271.673464 C459.058746,270.89105 459.13854,270.091853 459.13854,269.275849 C459.13854,267.57184 458.916892,266.252534 458.473589,265.31789 C458.030286,264.383246 457.374207,263.987825 456.505333,264.131613 C455.920174,264.22845 455.441414,264.559677 455.069039,265.125303 C454.696665,265.690929 454.430687,266.370939 454.271098,267.165352 C454.111509,267.959766 454.031715,268.770963 454.031715,269.598967 C454.031715,270.438972 454.120375,271.264291 454.297696,272.074951 C454.475017,272.88561 454.765376,273.542552 455.168782,274.045796 C455.572187,274.54904 456.084195,274.749306 456.704819,274.646601 Z M462.370202,273.547047 C462.609585,273.495432 462.791337,273.426354 462.915462,273.339813 C463.039587,273.253271 463.137112,273.096133 463.20804,272.868394 C463.278969,272.640656 463.314432,272.29279 463.314432,271.824788 L463.314432,264.930788 C463.314432,264.258784 463.332164,263.715855 463.367628,263.301984 L462.370202,263.521047 L462.370202,262.135047 L466.147124,261.474011 C467.361774,261.261001 468.299345,261.393841 468.959867,261.872535 C469.620388,262.35123 469.950644,263.250567 469.950644,264.570573 C469.950644,265.398578 469.753377,266.166216 469.358837,266.87351 C468.964298,267.580805 468.381363,268.148269 467.610016,268.57592 C467.769605,268.65151 467.933625,268.771365 468.10208,268.953489 C468.270535,269.135613 468.41239,269.343135 468.527649,269.576062 L469.152703,270.732623 C469.454149,271.318741 469.704611,271.715288 469.904097,271.922276 C470.103584,272.129265 470.349613,272.214549 470.642193,272.17813 L470.642193,273.36613 L468.447855,273.729267 C468.297132,273.610209 468.146411,273.428154 467.995688,273.183095 C467.844965,272.938037 467.672079,272.609651 467.477026,272.197928 L466.492898,270.200789 C466.271247,269.757468 466.085063,269.440282 465.93434,269.249224 L465.24279,269.363667 L465.24279,271.289667 C465.24279,271.973671 465.225059,272.5226 465.189594,272.936471 C465.473308,272.853519 465.85011,272.773163 466.320011,272.6954 L466.320011,274.0814 L462.370202,274.735047 L462.370202,273.547047 Z M465.881143,267.962028 C466.60816,267.841715 467.133466,267.535785 467.457077,267.044229 C467.780689,266.552673 467.942492,265.838904 467.942492,264.902899 C467.942492,263.906894 467.754091,263.278079 467.377283,263.016434 C467.000476,262.75479 466.585994,262.661383 466.133825,262.736212 C465.823513,262.787565 465.597432,262.914978 465.455575,263.118454 C465.313718,263.321931 465.24279,263.717664 465.24279,264.305667 L465.24279,267.995667 C465.508772,267.999651 465.721554,267.988438 465.881143,267.962028 Z M473.528081,271.70055 C473.767464,271.648935 473.949216,271.579858 474.073341,271.493316 C474.197465,271.406774 474.294991,271.249637 474.365919,271.021898 C474.436847,270.794159 474.472311,270.446293 474.472311,269.978291 L474.472311,268.412291 L472.025291,263.579244 C471.8923,263.301251 471.774827,263.008694 471.672867,262.701566 C471.570908,262.394437 471.519928,262.144876 471.519928,261.952875 L470.868276,262.114716 L470.868276,260.728716 L474.791488,260.079471 L474.791488,261.267471 C474.507774,261.290422 474.279476,261.376202 474.106588,261.524814 C473.9337,261.673425 473.847257,261.873729 473.847257,262.12573 C473.847257,262.341731 473.900453,262.560926 474.006845,262.78332 L475.017571,264.866057 C475.044169,264.921656 475.143911,265.139147 475.316799,265.518538 C475.489687,265.897929 475.616027,266.225018 475.695821,266.499815 C475.735718,266.409212 475.766749,266.311077 475.802213,266.203208 C475.837678,266.095339 475.877574,265.971737 475.921904,265.832401 C476.143556,265.195717 476.280978,264.794979 476.334174,264.630175 L477.025723,262.679732 C477.300571,261.842244 477.535518,261.257368 477.730571,260.925088 L477.039022,261.075531 L476.706547,261.148552 L476.706547,259.762552 L479.64563,259.276168 L479.64563,260.464168 C479.335318,260.575521 479.069341,260.790536 478.847689,261.109218 C478.626038,261.4279 478.386658,261.93851 478.129542,262.641063 L476.400669,267.427171 L476.400669,269.461171 C476.400669,270.133174 476.382937,270.676103 476.347473,271.089974 C476.640053,271.005555 476.99469,270.928867 477.411395,270.859908 L477.411395,272.245908 L473.528081,272.88855 L473.528081,271.70055 Z" id="path-14"></path>
        <filter x="-2.1%" y="-4.5%" width="103.3%" height="108.9%" filterUnits="objectBoundingBox" id="filter-15">
            <feMorphology radius="0.25" operator="dilate" in="SourceAlpha" result="shadowSpreadOuter1"></feMorphology>
            <feOffset dx="-1" dy="0" in="shadowSpreadOuter1" result="shadowOffsetOuter1"></feOffset>
            <feColorMatrix values="0 0 0 0 0.719228316   0 0 0 0 0.579059125   0 0 0 0 0.0843697042  0 0 0 1 0" type="matrix" in="shadowOffsetOuter1"></feColorMatrix>
        </filter>
    </defs>
    <g id="Headers" stroke="none" stroke-width="1" fill="none" fill-rule="evenodd">
        <g id="Artboard-3" transform="translate(-865.000000, -193.000000)">
            <g id="rocket" transform="translate(865.000000, 193.000000)">
                <path d="M392.257223,209.33642 C392.519994,209.23307 392.785913,209.14355 393.054974,209.068545 C398.158805,207.645759 409.137954,226.821644 412.725042,228.402529 C418.803139,231.08124 424.164855,226.596326 433.155736,227.376162 C437.378888,227.742463 440.949161,235.449404 442.746006,235.449404 C449.168586,235.449404 447.754486,229.743819 451.58083,228.402529 C455.176419,227.142129 459.32677,230.305988 463.098997,228.402529 C467.848679,226.005848 471.498369,221.317866 474.915024,222.636904 C476.481833,223.241788 486.354792,233.814149 493.903897,235.449404 C502.48774,237.3088 509.145977,230.476427 516.448111,235.449404 C528.965782,243.974322 527.769232,254.629808 537.224151,266.513857 C545.321173,276.691143 565.768127,288.603288 558.442235,291.5 C541.182888,298.324474 464.709378,295.866202 329.021705,284.125186 L108,284.125186 C122.539084,274.229352 132.631257,266.338727 138.27652,260.453311 C143.921783,254.567894 150.949582,246.233258 159.359919,235.449404 C165.230808,216.293154 171.325021,209.450706 177.642558,214.922061 C183.960095,220.393415 188.408157,224.886904 190.986743,228.402529 C209.79546,233.100446 219.545741,233.100446 220.237585,228.402529 C221.275351,221.355654 227.23603,207.890811 230.791371,204.765811 C234.346712,201.640811 235.529524,202.013857 239.604611,202.013857 C243.679699,202.013857 240.817641,209.068545 246.545211,209.068545 C252.272781,209.068545 253.528246,222.636904 265.854392,222.636904 C269.55711,222.636904 271.411725,217.042763 279.785667,209.068545 C281.026812,207.886645 284.398544,206.4524 289.900863,204.765811 C292.848898,205.504128 294.590595,206.393451 295.125954,207.433779 C299.503617,215.9406 297.727276,220.282412 300.076495,222.636904 C302.425714,224.991396 300.581564,226.11835 309.599423,222.636904 C313.016078,221.317866 316.665768,226.005848 321.41545,228.402529 C325.187676,230.305988 329.338028,227.142129 332.933616,228.402529 C336.759961,229.743819 335.345861,235.449404 341.768441,235.449404 C343.565286,235.449404 347.135559,227.742463 351.358711,227.376162 C360.349592,226.596326 365.711308,231.08124 371.789405,228.402529 C375.376493,226.821644 386.355642,207.645759 391.459473,209.068545 C391.728534,209.14355 391.994452,209.23307 392.257223,209.33642 Z" id="Combined-Shape" fill="#E9E9E9"></path>
                <path d="M548.459597,281 L264.268141,281 C147.807723,288.101563 71.7236222,293.279948 36.015838,296.535156 C-17.5458382,301.417969 -4.83348254,315.464695 36.015838,318.967583 C76.8651586,322.470471 181.75615,322.819977 256.68545,343.374132 C331.614751,363.928287 503.287852,322.819977 540.470174,322.819977 C556.346104,322.819977 634.56221,312.977853 649,307 C672.134252,301.956902 638.620784,293.290235 548.459597,281 Z" id="Path-19-Copy" fill="#EBEBEB" opacity="0.600000024"></path>
                <g id="Path-19">
                    <use fill="#FCF2D0" fill-rule="evenodd" xlink:href="#path-1"></use>
                    <use fill="black" fill-opacity="1" filter="url(#filter-2)" xlink:href="#path-1"></use>
                </g>
                <path d="M158.011719,286.837891 L184.050781,293.015625 L350.128906,311.492187 L446.392578,306.867188 C467.417314,300.04123 483.33984,295.544485 494.160156,293.376953 C499.372046,292.332904 520.602348,289.712597 557.851061,285.51603 C558.882649,285.399808 562.129521,290.992181 571.5,293.015625 C581.054799,295.078871 626.74307,293.573271 628.5,293.376953 C629.696108,293.243301 621.363872,290.849331 606,286.837891 C603.165216,286.097741 593.680061,286.265406 590.5,285.51603 C586.743533,284.630825 581.778038,283.969232 575.603516,283.53125 L579.207031,280.261719 L508.164063,275.261719 L324.660156,281.261719 L158.011719,286.837891 Z" id="Path-22" fill="#F2E5B7"></path>
                <path d="M509.597656,247.668945 L509.597656,275.097074 C509.597656,277.555554 507.810404,279.649258 505.382391,280.035109 L342.232269,305.962325 C339.248194,306.436543 336.2096,306.457233 333.219344,306.023693 L331.847656,305.82482 L331.847656,267.807091 L337.730469,268.386622 L506.809401,243.317465 C507.862604,243.76418 508.51712,244.187167 508.772949,244.586426 C509.028778,244.985684 509.30368,246.013191 509.597656,247.668945 Z" id="Path-91-Copy" fill="#D5AC00"></path>
                <path d="M153.162109,251.543349 L153.162109,252.56232 C153.162109,253.587259 153.936932,254.446315 154.956437,254.551716 L330.472571,272.697328 C332.001829,272.855429 333.164062,274.144014 333.164062,275.681423 L333.164062,298.038363 C333.164062,299.695218 331.820917,301.038363 330.164062,301.038363 C330.053528,301.038363 329.943079,301.032255 329.833219,301.020065 L155.123819,281.63466 C154.153962,281.527046 153.2805,282.226033 153.172886,283.195889 C153.165707,283.260592 153.162109,283.325641 153.162109,283.390741 L153.162109,283.582151 C153.162109,284.597958 153.92358,285.452421 154.932682,285.568948 L334.386327,306.291566 C336.032244,306.48163 337.5206,305.301428 337.710664,303.655512 C337.723856,303.541272 337.730469,303.426369 337.730469,303.31137 L337.730469,271.092766 C337.730469,269.555228 336.568045,268.266578 335.038641,268.108636 L155.367558,249.553929 C154.268831,249.440464 153.286156,250.239175 153.17269,251.337901 C153.165641,251.406157 153.162109,251.47473 153.162109,251.543349 Z" id="Path-91" fill="#FCDA4E"></path>
                <polygon id="Path-91-Copy-3" fill="#EDC001" points="333.164062 272.975586 333.164062 301.389648 155.152384 281.637829 223.661133 271.975586"></polygon>
                <g id="Path-91-Copy-4">
                    <use fill="#FFFAE8" fill-rule="evenodd" xlink:href="#path-3"></use>
                    <use fill="black" fill-opacity="1" filter="url(#filter-4)" xlink:href="#path-3"></use>
                </g>
                <polygon id="Path-91-Copy-2" fill="#EDC001" points="344.582031 230.962891 506.800272 243.311593 337.730469 268.386622 155.224919 249.539199"></polygon>
                <path d="M505.382391,280.035109 L337.730469,306.677734 L337.730469,301.698568 L509.597656,273.994494 L509.597656,275.097074 C509.597656,277.555554 507.810404,279.649258 505.382391,280.035109 Z" id="Path-91-Copy-5" fill="#AD8C00" opacity="0.300000012"></path>
                <ellipse id="Oval-3-Copy" fill="#D5AC00" cx="332" cy="247.5" rx="112" ry="10.5"></ellipse>
                <ellipse id="Oval-3" fill="#FFFFFF" cx="332" cy="246" rx="110" ry="10"></ellipse>
                <rect id="Rectangle" stroke="#979797" fill="#D8D8D8" x="318.5" y="243.5" width="22" height="1" rx="0.5"></rect>
                <path d="M257.298828,241.592773 C274.423828,241.114472 287.56901,242.423173 296.734375,245.518876 C302.15411,247.349451 308.151048,248.650706 314.72519,249.422639 C319.268642,249.95613 322.058047,255.334247 343.833984,258.948242 C365.609921,262.562237 362.452148,258.474609 398.223633,263.280273 C422.071289,266.484049 443.267904,265.040039 461.813477,258.948242 C453.116862,249.995331 436.942383,244.210175 413.290039,241.592773 C398.521854,239.958505 385.973633,240.329102 366.833008,240.329102 C354.670902,240.329102 346.120117,236.21875 329.182617,236.21875 C321.552405,236.21875 315.378906,240.329102 298.254883,240.329102 C286.838867,240.329102 273.186849,240.750326 257.298828,241.592773 Z" id="Path-37" fill="#CEB357" opacity="0.200000003"></path>
                <g id="Group" transform="translate(257.000000, 0.000000)">
                    <path d="M104.359551,156.33 C126.202247,168.21 139.280899,196.56 143.595506,241.38 C132.269663,242.595 130.044944,229.635 127.011236,217.08 C124.988764,208.71 117.438202,200.07 104.359551,191.16 L104.359551,156.33 Z" id="Path-3" fill="#D5AC00"></path>
                    <path d="M104.359551,152.33 C116.545916,164.634666 124.754063,174.947277 128.983993,183.26783 C136.399807,197.855231 124.594703,210.514019 122.126608,207.169497 C119.550686,203.678857 113.628334,198.342358 104.359551,191.16 L104.359551,152.33 Z" id="Path-3-Copy-2" fill="#D5AC00"></path>
                    <polygon id="Path-6-Copy" fill="#474747" transform="translate(72.125000, 218.500000) scale(1, -1) translate(-72.125000, -218.500000) " points="55 212 57.9842657 233 86 233 89.25 212 72.5 204"></polygon>
                    <polygon id="Path-6" fill="#D5AC00" points="36 204 37.5 209.5 72.5 216.5 106 209.5 107.5 204"></polygon>
                    <path d="M0,156.33 C21.8426966,168.21 34.9213483,196.56 39.2359551,241.38 C27.9101124,242.595 25.6853933,229.635 22.6516854,217.08 C20.6292135,208.71 13.0786517,200.07 0,191.16 L0,156.33 Z" id="Path-3-Copy" fill="#EDC001" transform="translate(19.617978, 198.894647) scale(-1, 1) translate(-19.617978, -198.894647) "></path>
                    <g id="Rectangle-5" transform="translate(22.123596, 0.000000)">
                        <mask id="mask-6" fill="white">
                            <use xlink:href="#path-5"></use>
                        </mask>
                        <g id="Mask">
                            <use fill="#FFFFFF" fill-rule="evenodd" xlink:href="#path-5"></use>
                            <use fill="black" fill-opacity="1" filter="url(#filter-7)" xlink:href="#path-5"></use>
                        </g>
                        <path d="M52.8764045,158 C59.2097378,170.333333 63.0430712,185.833333 64.3764045,204.5 C62.7097378,204.5 57.2097378,204.5 47.8764045,204.5 L52.8764045,158 Z" id="Path-5" fill="#E6E6E6" mask="url(#mask-6)"></path>
                    </g>
                    <g id="Oval-2">
                        <use fill="black" fill-opacity="1" filter="url(#filter-9)" xlink:href="#path-8"></use>
                        <use fill="#EDC001" fill-rule="evenodd" xlink:href="#path-8"></use>
                    </g>
                    <g id="Oval-2-Copy">
                        <use fill="#4A4A4A" fill-rule="evenodd" xlink:href="#path-10"></use>
                        <use fill="black" fill-opacity="1" filter="url(#filter-11)" xlink:href="#path-10"></use>
                        <circle stroke="#B79416" stroke-width="2" cx="71.5" cy="98.5" r="17.5"></circle>
                    </g>
                    <path d="M71.5980336,156.33 L73.2109552,156.33 C74.3293317,156.33 75.2359551,157.236623 75.2359551,158.355 L75.2359551,248.975 C75.2359551,250.093377 74.3293317,251 73.2109552,251 L71.5980336,251 C70.479657,251 69.5730337,250.093377 69.5730337,248.975 L69.5730337,158.355 C69.5730337,157.236623 70.479657,156.33 71.5980336,156.33 Z" id="Rectangle-6" fill="#EDC001"></path>
                </g>
                <g id="Group-17" transform="translate(532.000000, 233.000000)">
                    <path d="M32,0 L49,0 C50.6568542,-3.04359188e-16 52,1.34314575 52,3 L52,52 C52,53.6568542 50.6568542,55 49,55 L32,55 C30.3431458,55 29,53.6568542 29,52 L29,3 C29,1.34314575 30.3431458,3.04359188e-16 32,0 Z" id="Rectangle-41-Copy-2" fill="#D8D8D8"></path>
                    <path d="M32,18 L49,18 C50.6568542,18 52,19.3431458 52,21 L52,50 L29,50 L29,21 C29,19.3431458 30.3431458,18 32,18 Z" id="Rectangle-41-Copy-4" fill="#BBBBBB"></path>
                    <path d="M3,6 L78,6 C79.6568542,6 81,7.34314575 81,9 L81,43 C81,44.6568542 79.6568542,46 78,46 L3,46 C1.34314575,46 2.02906125e-16,44.6568542 0,43 L0,9 C-2.02906125e-16,7.34314575 1.34314575,6 3,6 Z" id="Rectangle-41" fill="#464646"></path>
                    <g id="Rectangle-41-Copy">
                        <use fill="#636363" fill-rule="evenodd" xlink:href="#path-12"></use>
                        <use fill="black" fill-opacity="1" filter="url(#filter-13)" xlink:href="#path-12"></use>
                    </g>
                    <text id="T-10" font-family="Lato-Bold, Lato" font-size="27.9999995" font-weight="bold" fill="#FFFFFF">
                        <tspan x="11" y="36">T-10</tspan>
                    </text>
                </g>
                <path d="M333.030488,169.801436 C333.030488,170.119437 332.977489,170.411434 332.871488,170.677436 C332.765488,170.943437 332.616489,171.172435 332.424488,171.364436 C332.232487,171.556437 332.001489,171.705435 331.731488,171.811436 C331.461487,171.917436 331.16249,171.970436 330.834488,171.970436 L329.178488,171.970436 L329.178488,167.632436 L330.834488,167.632436 C331.16249,167.632436 331.461487,167.685935 331.731488,167.792936 C332.001489,167.899936 332.232487,168.048935 332.424488,168.239936 C332.616489,168.430937 332.765488,168.659434 332.871488,168.925436 C332.977489,169.191437 333.030488,169.483434 333.030488,169.801436 Z M332.205488,169.801436 C332.205488,169.563435 332.173488,169.349937 332.109488,169.160936 C332.045488,168.971935 331.954489,168.811936 331.836488,168.680936 C331.718488,168.549935 331.574989,168.449436 331.405988,168.379436 C331.236987,168.309435 331.046489,168.274436 330.834488,168.274436 L329.991488,168.274436 L329.991488,171.328436 L330.834488,171.328436 C331.046489,171.328436 331.236987,171.293436 331.405988,171.223436 C331.574989,171.153435 331.718488,171.052936 331.836488,170.921936 C331.954489,170.790935 332.045488,170.630937 332.109488,170.441936 C332.173488,170.252935 332.205488,170.039437 332.205488,169.801436 Z M335.772488,171.970436 L334.962488,171.970436 L334.962488,167.632436 L335.772488,167.632436 L335.772488,171.970436 Z M340.272488,168.421436 C340.250488,168.465436 340.224988,168.496436 340.195988,168.514436 C340.166988,168.532436 340.132488,168.541436 340.092488,168.541436 C340.052488,168.541436 340.007488,168.525936 339.957488,168.494936 C339.907488,168.463936 339.848488,168.429436 339.780488,168.391436 C339.712488,168.353436 339.632989,168.318936 339.541988,168.287936 C339.450988,168.256936 339.343489,168.241436 339.219488,168.241436 C339.107488,168.241436 339.009989,168.254936 338.926988,168.281936 C338.843988,168.308936 338.773988,168.346435 338.716988,168.394436 C338.659988,168.442436 338.617488,168.499935 338.589488,168.566936 C338.561488,168.633936 338.547488,168.707435 338.547488,168.787436 C338.547488,168.889436 338.575988,168.974435 338.632988,169.042436 C338.689988,169.110436 338.765488,169.168435 338.859488,169.216436 C338.953489,169.264436 339.060488,169.307436 339.180488,169.345436 C339.300489,169.383436 339.422988,169.423936 339.547988,169.466936 C339.672989,169.509936 339.795488,169.559935 339.915488,169.616936 C340.035489,169.673936 340.142488,169.745935 340.236488,169.832936 C340.330489,169.919936 340.405988,170.026435 340.462988,170.152436 C340.519988,170.278436 340.548488,170.431435 340.548488,170.611436 C340.548488,170.807437 340.514988,170.990935 340.447988,171.161936 C340.380988,171.332937 340.282989,171.481935 340.153988,171.608936 C340.024988,171.735936 339.867489,171.835935 339.681488,171.908936 C339.495487,171.981936 339.282489,172.018436 339.042488,172.018436 C338.904487,172.018436 338.768489,172.004936 338.634488,171.977936 C338.500487,171.950936 338.371989,171.912436 338.248988,171.862436 C338.125988,171.812435 338.010989,171.752436 337.903988,171.682436 C337.796988,171.612435 337.701489,171.534436 337.617488,171.448436 L337.851488,171.061436 C337.873488,171.033436 337.899988,171.009936 337.930988,170.990936 C337.961988,170.971936 337.996488,170.962436 338.034488,170.962436 C338.084488,170.962436 338.138488,170.982936 338.196488,171.023936 C338.254488,171.064936 338.322988,171.110435 338.401988,171.160436 C338.480989,171.210436 338.573988,171.255936 338.680988,171.296936 C338.787989,171.337936 338.916487,171.358436 339.066488,171.358436 C339.296489,171.358436 339.474488,171.303936 339.600488,171.194936 C339.726489,171.085935 339.789488,170.929437 339.789488,170.725436 C339.789488,170.611435 339.760988,170.518436 339.703988,170.446436 C339.646988,170.374435 339.571489,170.313936 339.477488,170.264936 C339.383488,170.215935 339.276489,170.174436 339.156488,170.140436 C339.036488,170.106436 338.914489,170.069436 338.790488,170.029436 C338.666488,169.989436 338.544489,169.941436 338.424488,169.885436 C338.304488,169.829435 338.197489,169.756436 338.103488,169.666436 C338.009488,169.576435 337.933988,169.463936 337.876988,169.328936 C337.819988,169.193935 337.791488,169.027437 337.791488,168.829436 C337.791488,168.671435 337.822988,168.517436 337.885988,168.367436 C337.948988,168.217435 338.040988,168.084436 338.161988,167.968436 C338.282989,167.852435 338.431487,167.759436 338.607488,167.689436 C338.783489,167.619435 338.984487,167.584436 339.210488,167.584436 C339.466489,167.584436 339.702487,167.624435 339.918488,167.704436 C340.134489,167.784436 340.318487,167.896435 340.470488,168.040436 L340.272488,168.421436 Z M345.348488,170.947436 C345.392488,170.947436 345.430488,170.964436 345.462488,170.998436 L345.780488,171.343436 C345.604487,171.561437 345.387989,171.728435 345.130988,171.844436 C344.873987,171.960436 344.56549,172.018436 344.205488,172.018436 C343.883487,172.018436 343.593989,171.963436 343.336988,171.853436 C343.079987,171.743435 342.860489,171.590437 342.678488,171.394436 C342.496487,171.198435 342.356989,170.964437 342.259988,170.692436 C342.162988,170.420434 342.114488,170.123437 342.114488,169.801436 C342.114488,169.475434 342.168488,169.176937 342.276488,168.905936 C342.384489,168.634934 342.536487,168.401437 342.732488,168.205436 C342.928489,168.009435 343.162987,167.856936 343.435988,167.747936 C343.70899,167.638935 344.010486,167.584436 344.340488,167.584436 C344.66249,167.584436 344.943987,167.635935 345.184988,167.738936 C345.425989,167.841936 345.632487,167.978435 345.804488,168.148436 L345.534488,168.523436 C345.518488,168.547436 345.497988,168.568436 345.472988,168.586436 C345.447988,168.604436 345.413488,168.613436 345.369488,168.613436 C345.323488,168.613436 345.276488,168.595436 345.228488,168.559436 C345.180488,168.523436 345.119489,168.484436 345.045488,168.442436 C344.971488,168.400436 344.877989,168.361436 344.764988,168.325436 C344.651988,168.289436 344.508489,168.271436 344.334488,168.271436 C344.130487,168.271436 343.942989,168.306935 343.771988,168.377936 C343.600987,168.448936 343.453989,168.550435 343.330988,168.682436 C343.207988,168.814436 343.111988,168.974935 343.042988,169.163936 C342.973988,169.352937 342.939488,169.565435 342.939488,169.801436 C342.939488,170.045437 342.973988,170.262435 343.042988,170.452436 C343.111988,170.642437 343.205488,170.802435 343.323488,170.932436 C343.441489,171.062436 343.580487,171.161935 343.740488,171.230936 C343.900489,171.299936 344.072487,171.334436 344.256488,171.334436 C344.366489,171.334436 344.465988,171.328436 344.554988,171.316436 C344.643989,171.304436 344.725988,171.285436 344.800988,171.259436 C344.875989,171.233436 344.946988,171.199936 345.013988,171.158936 C345.080988,171.117936 345.147488,171.067436 345.213488,171.007436 C345.233488,170.989436 345.254488,170.974936 345.276488,170.963936 C345.298488,170.952936 345.322488,170.947436 345.348488,170.947436 Z M351.750488,169.801436 C351.750488,170.119437 351.697489,170.413934 351.591488,170.684936 C351.485488,170.955937 351.336489,171.190435 351.144488,171.388436 C350.952487,171.586437 350.721489,171.740935 350.451488,171.851936 C350.181487,171.962936 349.88249,172.018436 349.554488,172.018436 C349.226487,172.018436 348.92699,171.962936 348.655988,171.851936 C348.384987,171.740935 348.152989,171.586437 347.959988,171.388436 C347.766987,171.190435 347.617489,170.955937 347.511488,170.684936 C347.405488,170.413934 347.352488,170.119437 347.352488,169.801436 C347.352488,169.483434 347.405488,169.188937 347.511488,168.917936 C347.617489,168.646934 347.766987,168.412437 347.959988,168.214436 C348.152989,168.016435 348.384987,167.861936 348.655988,167.750936 C348.92699,167.639935 349.226487,167.584436 349.554488,167.584436 C349.88249,167.584436 350.181487,167.640435 350.451488,167.752436 C350.721489,167.864436 350.952487,168.018935 351.144488,168.215936 C351.336489,168.412937 351.485488,168.646934 351.591488,168.917936 C351.697489,169.188937 351.750488,169.483434 351.750488,169.801436 Z M350.922488,169.801436 C350.922488,169.563435 350.890988,169.349937 350.827988,169.160936 C350.764988,168.971935 350.674489,168.811436 350.556488,168.679436 C350.438488,168.547435 350.294989,168.446436 350.125988,168.376436 C349.956987,168.306435 349.766489,168.271436 349.554488,168.271436 C349.342487,168.271436 349.151489,168.306435 348.981488,168.376436 C348.811487,168.446436 348.666989,168.547435 348.547988,168.679436 C348.428988,168.811436 348.337488,168.971935 348.273488,169.160936 C348.209488,169.349937 348.177488,169.563435 348.177488,169.801436 C348.177488,170.039437 348.209488,170.252935 348.273488,170.441936 C348.337488,170.630937 348.428988,170.790935 348.547988,170.921936 C348.666989,171.052936 348.811487,171.153435 348.981488,171.223436 C349.151489,171.293436 349.342487,171.328436 349.554488,171.328436 C349.766489,171.328436 349.956987,171.293436 350.125988,171.223436 C350.294989,171.153435 350.438488,171.052936 350.556488,170.921936 C350.674489,170.790935 350.764988,170.630937 350.827988,170.441936 C350.890988,170.252935 350.922488,170.039437 350.922488,169.801436 Z M352.992488,167.632436 L353.643488,167.632436 C353.713488,167.632436 353.770488,167.649436 353.814488,167.683436 C353.858488,167.717436 353.891488,167.761435 353.913488,167.815436 L354.933488,170.461436 C354.967488,170.547436 354.999988,170.641935 355.030988,170.744936 C355.061988,170.847936 355.091488,170.956435 355.119488,171.070436 C355.165488,170.840435 355.222488,170.637437 355.290488,170.461436 L356.307488,167.815436 C356.325488,167.769435 356.357488,167.727436 356.403488,167.689436 C356.449488,167.651436 356.506488,167.632436 356.574488,167.632436 L357.225488,167.632436 L355.473488,171.970436 L354.744488,171.970436 L352.992488,167.632436 Z M361.614488,167.632436 L361.614488,168.274436 L359.691488,168.274436 L359.691488,169.477436 L361.206488,169.477436 L361.206488,170.098436 L359.691488,170.098436 L359.691488,171.325436 L361.614488,171.325436 L361.614488,171.970436 L358.878488,171.970436 L358.878488,167.632436 L361.614488,167.632436 Z M364.347488,170.275436 L364.347488,171.970436 L363.540488,171.970436 L363.540488,167.632436 L364.863488,167.632436 C365.15949,167.632436 365.412987,167.662935 365.623988,167.723936 C365.834989,167.784936 366.007987,167.870435 366.142988,167.980436 C366.277989,168.090436 366.376988,168.221935 366.439988,168.374936 C366.502988,168.527936 366.534488,168.696435 366.534488,168.880436 C366.534488,169.026436 366.512988,169.164435 366.469988,169.294436 C366.426988,169.424436 366.364989,169.542435 366.283988,169.648436 C366.202988,169.754436 366.102989,169.847435 365.983988,169.927436 C365.864988,170.007436 365.729489,170.071435 365.577488,170.119436 C365.679489,170.177436 365.767488,170.260435 365.841488,170.368436 L366.927488,171.970436 L366.201488,171.970436 C366.131488,171.970436 366.071988,171.956436 366.022988,171.928436 C365.973988,171.900436 365.932488,171.860436 365.898488,171.808436 L364.986488,170.419436 C364.952488,170.367435 364.914988,170.330436 364.873988,170.308436 C364.832988,170.286436 364.772489,170.275436 364.692488,170.275436 L364.347488,170.275436 Z M364.347488,169.696436 L364.851488,169.696436 C365.003489,169.696436 365.135988,169.677436 365.248988,169.639436 C365.361989,169.601436 365.454988,169.548936 365.527988,169.481936 C365.600989,169.414935 365.655488,169.335436 365.691488,169.243436 C365.727488,169.151435 365.745488,169.050436 365.745488,168.940436 C365.745488,168.720435 365.672989,168.551436 365.527988,168.433436 C365.382987,168.315435 365.16149,168.256436 364.863488,168.256436 L364.347488,168.256436 L364.347488,169.696436 Z M370.572488,170.284436 L370.572488,171.970436 L369.765488,171.970436 L369.765488,170.284436 L368.184488,167.632436 L368.895488,167.632436 C368.965488,167.632436 369.020988,167.649436 369.061988,167.683436 C369.102988,167.717436 369.137488,167.760435 369.165488,167.812436 L369.960488,169.261436 C370.006488,169.347436 370.046488,169.428935 370.080488,169.505936 C370.114488,169.582936 370.145488,169.658435 370.173488,169.732436 C370.199488,169.656435 370.228988,169.579936 370.261988,169.502936 C370.294988,169.425935 370.334488,169.345436 370.380488,169.261436 L371.169488,167.812436 C371.191488,167.768436 371.224488,167.727436 371.268488,167.689436 C371.312488,167.651436 371.368488,167.632436 371.436488,167.632436 L372.150488,167.632436 L370.572488,170.284436 Z" id="DISCOVERY" fill="#2A2A2A" transform="translate(350.664488, 169.801436) rotate(95.000000) translate(-350.664488, -169.801436) "></path>
                <circle id="Combined-Shape" fill="#FFFFFF" cx="507.842212" cy="84.0171286" r="29.1288872"></circle>
                <circle id="Oval-23" fill="#FFFFFF" cx="335.5" cy="89.5" r="1.5"></circle>
                <g id="A-GREAT-STORY" transform="translate(426.861815, 274.311264) rotate(0.300000) translate(-426.861815, -274.311264) ">
                    <use fill="black" fill-opacity="1" filter="url(#filter-15)" xlink:href="#path-14"></use>
                    <use fill="#FFFFFF" fill-rule="evenodd" xlink:href="#path-14"></use>
                </g>
            </g>
        </g>
    </g>
</svg>