<?xml version="1.0" encoding="UTF-8"?>
<svg width="455px" height="338px" viewBox="0 0 455 338" version="1.1" xmlns="http://www.w3.org/2000/svg" xmlns:xlink="http://www.w3.org/1999/xlink">
    <!-- Generator: Sketch 51 (57462) - http://www.bohemiancoding.com/sketch -->
    <title>submit-crowd</title>
    <desc>Created with Sketch.</desc>
    <defs>
        <path d="M42.6376953,1.04394531 C35.3336589,8.73339844 29.0572917,16.069987 23.8085938,23.0537109 C11.6132813,34.3339844 8.52636719,35.140625 5.11621094,37.2910156 C1.70605469,39.4414062 -1.70410156,47.0488281 1.70605469,55.4492187 C5.11621094,63.8496094 5.47363281,73.2724609 7.28515625,85.9228516 C8.49283854,94.3564453 18.3343099,97.6526693 36.8095703,95.8115234 C35.4807943,85.9638672 34.8164063,80.1142578 34.8164063,78.2626953 C34.8164063,75.4853516 40.6025391,70.1806641 38.7060547,64.0527344 C54.4384766,59.8164063 55.9814453,62.8984375 59.6582031,58.4414062 C62.109375,55.4700521 57.1751302,50.7503255 44.8554688,44.2822266 C42.3860677,44.5671375 40.7438151,45.3705229 39.9287109,46.6923828 C41.4007161,48.4332682 43.0429688,50.0986328 44.8554688,51.6884766 C39.2434896,52.6526693 34.0423177,52.6526693 29.2519531,51.6884766 C24.4615885,50.7242839 18.9641927,48.2555339 12.7597656,44.2822266 C27.4361979,31.2320964 36.0849609,23.6666667 38.7060547,21.5859375 C42.6376953,18.4648437 45.8798828,4.30175781 47.3623047,2.67285156 C46.4072266,0.648111979 44.8323568,0.105143229 42.6376953,1.04394531 Z" id="path-1"></path>
        <path d="M16.8967166,0.72154001 C11.3027642,-0.335571004 5.16606271,0.898573984 1.74804688,7.64160156 C0.367804087,10.3645308 1.51813675,13.950934 1.74804687,17.6699219 C1.83762313,19.1188925 2.80798225,22.2716317 2.74804688,23.8417969 C2.64983666,26.4146725 1.48595353,27.4197844 1.74804687,29.5839844 C1.98830018,31.5678433 1.74804687,34.6489389 1.74804687,35.8681641 C1.74804687,37.981563 3.00711216,39.5905168 3.22354847,40.9713285 C3.56467464,43.1476316 2.79990599,44.757206 1.74804687,46.8818359 C0.0288085937,50.3544922 0.766113281,60.003418 5.69921875,58.2363281 C10.6323242,56.4692383 17.0136719,64.2392578 19.5253906,59.6503906 C20.4856721,57.8959729 20.5886966,56.1193586 21.5339547,54.0963593 C22.2375405,52.5905764 23.0368041,51.4000522 23.4416504,49.5288086 C23.9155416,47.3384316 22.9167849,44.3825806 22.612793,41.4165039 C22.487744,40.1963897 23.8585291,37.9873973 23.3584841,35.9487736 C22.7647973,33.528383 22.3531888,31.3481445 23.1835937,31.3481445 C25.3067627,31.5976562 26.7409668,32.1164551 27.7556152,32.1164551 C28.7702637,32.1164551 30.3569336,32.9775391 25.6098633,29.5839844 C20.862793,26.1904297 20.7868652,23.8054199 20.7868652,21.3625488 C20.7868652,19.9795141 18.7219731,18.1688526 19.5253906,15.6943359 C20.3647461,13.1091309 22.2554068,16.1364987 23.4416504,15.6943359 C24.4831477,15.3061261 23.918526,13.3647013 24.612793,12.6660156 C25.8062779,11.4649348 24.9468441,8.96296097 24.612793,8.28173828 C22.8847656,4.7578125 20.3959961,1.3828125 16.8967166,0.72154001 Z" id="path-3"></path>
        <path d="M1.27539062,0.479492188 C0.541015625,7.83886719 0.173828125,15.0527344 0.173828125,22.1210937 C0.173828125,32.7236328 4.25,47.4208984 4.25,60.1464844 C4.25,72.8720703 -0.222630718,101.621672 1.79785156,104.073242 C3.81833384,106.524812 11.7695313,110.025391 16.5214844,105.606445 C21.2734375,101.1875 16.4726562,89.4169922 19.2734375,71.8857422 C20.0982796,66.7227141 21.4479592,51.5965893 21.6547417,46.7988281 C21.6897077,44.0408427 21.4992867,40.6741281 22.3989654,38.9175551 C25.6136317,47.0264542 27.1453013,55.3520342 26.4824219,64.1181641 C25.6204427,75.5172526 25.2093099,91.835612 25.2490234,113.073242 C27.758138,116.027018 30.6682943,117.503906 33.9794922,117.503906 C37.2906901,117.503906 39.5120443,116.538086 40.6435547,114.606445 C41.4328993,102.280488 41.9104384,93.5656442 42.0761719,88.4619141 C42.3166686,81.0558646 45.674123,60.154972 46.2519531,56.1181641 C48.0146484,43.8037109 46.2519531,40.0566406 46.2519531,29.8720703 C46.2519531,23.0823568 44.382487,13.2848307 40.6435547,0.479492188 L1.27539062,0.479492188 Z" id="path-5"></path>
        <path d="M2.24951172,10.6030273 C0.67578125,6.78662109 0.151204427,4.49104818 0.67578125,3.71630859 C1.46264648,2.55419922 2.05371094,3.71630859 6.078125,3.71630859 C12.4902344,0.498046875 16.5742188,-0.541992188 16.5742188,1.14453125 C16.5742188,2.83105469 18.1943359,3.67615385 17.3842773,5.47406325 C16.5742188,7.27197266 17.8657227,8.13623047 16.5742188,9.36962891 C15.2827148,10.6030273 12.0120337,13.565918 9.04507935,12.9711914 C6.26567749,13.3038737 4.00048828,12.5144857 2.24951172,10.6030273 Z" id="path-7"></path>
        <path d="M11.9755859,0.325195312 C3.47623698,1.24967448 -0.120442708,7.98144531 1.18554687,20.5205078 C3.79526021,27.2661634 7.4676324,33.3548712 9.09277344,39.4433594 C11.9483535,50.1416097 12.0165224,59.2634588 14.1767578,60.671875 C15.9119258,61.8031586 28.2272058,68.2880859 46.2089844,66.6152344 C50.6014383,66.2066027 53.8442769,64.225483 55.9375,60.671875 C55.4791667,49.4140625 54.820638,42.3378906 53.9619141,39.4433594 C52.6738281,35.1015625 52.1220703,18.2207031 47.7431641,13.4599609 C43.3642578,8.69921875 32.6458178,3.20410156 27.7652917,3.20410156 C24.5116077,3.20410156 19.2483724,2.24446615 11.9755859,0.325195312 Z" id="path-9"></path>
        <path d="M2.72509766,27.5922852 C3.50048828,29.4233398 3.69433594,30.9127604 3.30664062,32.0605469 C2.72509766,33.7822266 8.49560547,38.0654297 14.5258789,35.0629883 C17.3982747,34.1375326 18.5737305,32.5932617 18.0522461,30.4301758 C15.9975586,27.2351888 15.9975586,24.9220378 18.0522461,23.4907227 C21.1342773,21.34375 22.9277344,20.8544922 21.9838867,16.9052734 C21.0400391,12.9560547 21.0400391,12.9555664 21.0400391,11.0498047 C21.0400391,9.14404297 21.1762695,7.82421875 19.6142578,6.45458984 C18.0522461,5.08496094 16.6669922,0.95703125 13.965332,0.95703125 C11.2636719,0.95703125 -1.83154297,16.9526367 0.446777344,20.9233398 C1.96565755,23.5704753 2.72509766,25.793457 2.72509766,27.5922852 Z" id="path-11"></path>
        <path d="M0.962244754,6.24877274 C0.962244754,7.30541337 0.519893227,18.7757229 2.88326595,32.0436983 C4.39155461,40.5112314 4.21086972,44.8609724 4.70309088,55.4205386 C4.79519472,57.3964322 3.06633885,68.2727415 2.88326595,77.1089442 C2.66407141,87.688595 3.97324082,93.4514601 3.97324082,95.5012114 C3.97324082,97.8322893 11.6925602,97.8033234 15.2623844,94.0909211 C16.1270127,90.5327996 19.8865899,67.6060582 20.8985373,62.1547639 C21.6393868,58.1638558 20.5409347,36.2028111 20.8985373,32.8059246 C21.7602775,35.2604933 25.057352,52.3288801 25.5210304,58.5351562 C25.9374969,64.109508 24.3370377,82.676763 24.5210304,85.1961284 C25.203322,94.5385763 25.7123269,101.226819 26.0480449,105.260857 C26.747073,107.117436 27.9253271,108.045725 29.5828072,108.045725 C34.5811502,108.045725 37.5586611,106.1091 37.5586611,103.478506 C37.5586611,100.51806 39.9434985,96.2735378 40.2267283,86.1605794 C40.3802793,80.6779139 41.7070312,69.3217317 41.7070312,65.6523438 C41.7070312,60.9336494 43.8372783,48.417525 44.4081427,37.7771428 C45.1000235,24.8811259 44.1388412,11.640415 40.4398596,5.79791824 C33.688883,-4.8651677 0.962244754,5.19213212 0.962244754,6.24877274 Z" id="path-13"></path>
        <path d="M43.472168,19.046875 C42.7058919,18.8626302 41.9602865,17.9134115 41.2353516,16.1992187 C40.1479492,13.6279297 36.1367187,8.29492187 31.1723633,6.70507812 C26.2080078,5.11523437 10.6503906,-0.299804688 9.22851562,0.291992187 C7.80664062,0.883789062 5.65185547,2.24609375 7.04931641,8.95214844 C8.44677734,15.6582031 16.7250977,31.3676758 15.5224609,35.2998047 C14.8811308,37.3966913 11.0513865,44.3321715 7.04931641,50.2519531 C3.54661475,55.4330791 1.22646127,66.2065504 0.982157315,67.0711858 C0.926051041,67.269756 25.7312301,85.7902012 47.9804688,71.097168 C50.919884,70.7843822 36.3696289,53.0136719 41.8222656,41.5644531 C45.4573568,33.9316406 46.0073242,26.4257812 43.472168,19.046875 Z" id="path-15"></path>
        <path d="M24.7001953,0.469726562 C24.5216631,0.755017144 24.3877358,0.968300634 24.2984133,1.10957703 C18.9183218,9.61897369 14.4474314,15.9211524 8.88574219,20.0161133 C0.335449219,26.3115234 -0.498046875,29.1225586 0.475585938,33.1420898 C1.44921875,37.1616211 18.3110352,47.8994141 19.4223633,48.4545898 C20.5336914,49.0097656 21.9316406,51.0600586 23.315918,50.2119141 C24.7001953,49.3637695 29.9858398,44.4052734 29.9858398,40.5795898 C29.9858398,36.7539062 25.5932617,43.5986328 23.9013672,43.5986328 C22.2094727,43.5986328 12.8364258,32.1445312 12.2802734,31.1630859 C17.8180339,26.9827474 22.8577474,22.4087728 27.3994141,17.4411621 C25.8896484,13.2919108 24.7236328,9.53548177 23.9013672,6.171875 C23.6386471,4.46890126 23.9049231,2.56818512 24.7001953,0.469726562 Z" id="path-17"></path>
        <path d="M44.46875,0.887695312 C39.2545573,4.1813151 34.0221354,8.34440104 28.7714844,13.3769531 C15.2597656,17.3837891 8.43847656,15.4316406 6.2421875,15.4316406 C4.04589844,15.4316406 -1.79492187,18.7744141 0.870117187,30.0644531 C2.20019531,33.6513672 5.17578125,30.0644531 7.97265625,30.0644531 C10.7695313,30.0644531 31.9111328,25.2675781 36.515625,22.0410156 C39.5852865,19.889974 43.7613932,14.0488281 49.0439453,4.51757812 L44.46875,0.887695312 Z" id="path-19"></path>
        <path d="M32.3417969,26.1469727 C27.2128906,34.1674805 19.840332,38.1777344 10.2241211,38.1777344 C2.546875,29.6806641 -1.76513672,20.6738281 0.942871094,10.4189453 C3.65087891,0.1640625 17.8081055,-0.237792969 18.6137695,0.277832031 C19.4194336,0.793457031 25.8291016,6.67382813 29.0854492,20.8813477 C29.5493164,23.3302409 30.6347656,25.0854492 32.3417969,26.1469727 Z" id="path-21"></path>
        <path d="M93.9375747,52.0764783 L109.56969,63.6493439 C109.988621,63.9594894 110.57552,63.8958311 110.918211,63.5030761 C113.052081,61.0574654 116.775389,58.3371204 122.088135,55.342041 C124.362104,52.0586377 128.449664,46.4635228 134.350815,38.5566962 L134.350815,38.5566962 C135.294114,37.2927897 135.406701,35.5925863 134.638299,34.2153314 C133.761732,32.6442055 133.191788,31.8586426 132.928467,31.8586426 C132.372314,31.8586426 130.228516,34.6433105 129.656982,34.6433105 C129.085449,34.6433105 128.629395,34.1975098 129.656982,32.7753906 C130.156916,32.0835131 130.785526,31.1504056 131.542811,29.9760683 L131.542809,29.9760669 C132.065075,29.1661794 131.935532,28.0990176 131.234664,27.4376068 L130.415543,26.6645996 C129.626832,25.9202911 128.38863,25.9401658 127.624213,26.7094039 L125.363856,28.9840195 C125.029003,29.3209842 124.496672,29.3586804 124.117676,29.0722656 L124.117676,29.0722656 C123.754935,28.7981353 123.683102,28.2818494 123.957232,27.9191086 C123.958442,27.9175076 123.959658,27.9159109 123.96088,27.9143187 L125.971618,25.2936902 C126.644008,24.4173536 126.478676,23.1618628 125.602339,22.4894732 C125.574713,22.4682763 125.546538,22.4478045 125.517843,22.4280787 L124.488393,21.7204104 C123.658245,21.1497465 122.533234,21.285571 121.862754,22.0374083 L119.834514,24.3117571 C119.529231,24.654083 119.023074,24.7296644 118.631104,24.4914551 L118.631104,24.4914551 C118.28923,24.283691 118.180514,23.8381221 118.388278,23.496249 C118.399403,23.4779427 118.411335,23.460139 118.424038,23.4428902 L131.192106,6.10597973 C132.157811,4.79471266 131.90105,2.95247518 130.613598,1.95524133 L129.720838,1.26372784 C128.410969,0.2491301 126.526616,0.488494945 125.512018,1.79836419 C125.488044,1.82931497 125.464679,1.86073206 125.441935,1.89259743 L104.965858,30.5803678 C104.771383,30.8528344 104.392852,30.9160592 104.120386,30.7215845 C104.090419,30.7001955 104.062463,30.6761205 104.036865,30.6496582 L104.036865,30.6496582 C103.743222,30.3460992 103.70679,29.8766798 103.95008,29.531449 L107.548828,24.4248047 C106.001953,24.4319661 104.846761,24.8326823 104.083252,25.6269531 C102.937988,26.8183594 98.8347168,32.1555176 98.387207,33.7121582 C97.9396973,35.2687988 98.4416504,43.630127 97.9396973,45.3120117 C97.5558547,46.1251168 96.1696477,47.8921262 93.7810765,50.61304 L93.7810745,50.6130382 C93.4167205,51.0280879 93.4578175,51.6599194 93.8728672,52.0242734 C93.8937033,52.0425646 93.9152912,52.0599812 93.9375747,52.0764783 Z" id="path-23"></path>
        <filter x="-2.4%" y="-1.6%" width="104.8%" height="106.3%" filterUnits="objectBoundingBox" id="filter-24">
            <feOffset dx="0" dy="2" in="SourceAlpha" result="shadowOffsetOuter1"></feOffset>
            <feColorMatrix values="0 0 0 0 0.719228316   0 0 0 0 0.579059125   0 0 0 0 0.0843697042  0 0 0 1 0" type="matrix" in="shadowOffsetOuter1"></feColorMatrix>
        </filter>
        <path d="M7.957312,2.79056854 C5.97044508,8.43915755 4.97701162,14.4837264 4.97701162,20.9242751 C4.97701162,30.5850981 6.31548289,40.8496547 3.68801268,47.9062323 C1.06054246,54.9628098 0.43697359,64.7066259 0.43697359,72.8475372 C0.43697359,80.9884486 0.460894279,87.2736792 1.50253155,88.9259457 C2.54416882,90.5782122 10.2618529,91.1000377 11.7237332,88.9259457 C13.1856135,86.7518537 14.6224858,84.3211885 14.6224858,81.1858961 C14.6224858,78.0506037 14.0293614,70.1722324 16.5372282,59.9613772 C19.045095,49.7505219 23.0817112,44.9450625 23.0817112,39.1648419 C24.7920405,47.9062323 25.6825425,53.2986097 25.6825425,58.7783196 C25.6825425,64.2580295 24.5832781,83.6740598 27.0944068,109.682883 C33.4594846,112.410262 43.6915593,110.533968 44.3629696,107.64657 C45.0343798,104.759172 45.4502736,97.6673361 43.6915593,87.9978341 C41.932845,78.3283321 42.5558703,68.6385643 44.3629696,56.9000298 C46.1700689,45.1614954 49.0291349,30.7196227 42.5558703,12.6358205 C38.2403605,0.579952367 26.7075078,-2.70179829 7.957312,2.79056854 Z" id="path-25"></path>
        <path d="M45.4787439,29.4967458 C45.5936119,32.4693232 45.5729379,35.3637669 45.9811282,37.3735633 C46.841471,41.6096111 47.1954405,50.4164236 45.9811282,55.5629258 C38.2179689,62.6123208 27.3111115,61.5520163 13.2605562,52.3820123 C12.9630053,46.119358 12.523461,42.2303953 11.9419233,40.7151241 C7.69833392,30.9399026 2.28782874,29.7481007 1.17919922,20.4271346 C0.0705696979,11.1061685 0.661652602,5.44766747 7.41575652,2.49814593 C11.9184925,0.531798245 18.2686845,2.15744903 26.4663325,7.37509829 C30.5807341,10.5873836 33.3400342,12.7374548 34.7442329,13.8253119 C35.9935501,14.7931795 37.4378068,15.6965543 38.8084979,16.5453134 C42.1932078,16.5141401 45.7571896,16.7116262 48.0355252,16.499907 C50.9406567,16.2299415 58.0484756,15.0397398 69.3589819,12.9293021 C75.2063449,8.10116027 82.2160959,3.91968399 90.388235,0.384873252 C93.3968529,0.915373775 94.886912,2.84374034 94.8584122,6.16997293 C87.0035263,14.1504602 82.2741779,18.8249814 80.670367,20.1935366 C78.2646506,22.2463694 75.8985925,24.4430833 67.1991185,25.1784964 C61.3807658,25.6703529 53.5590448,28.0029092 45.4787439,29.4967458 Z" id="path-27"></path>
        <path d="M0.775752172,27.316071 C1.40683684,26.9750408 1.56460801,25.0344231 1.24906567,21.4942178 C0.775752172,16.1839099 9.9317479,-2.43041513 13.1602233,1.26787044 C16.3886987,4.96615602 17.4134498,6.62182636 18.6954154,7.36488476 C19.977381,8.10794317 18.4402625,9.22993499 18.5678389,10.4824641 C18.6954154,11.7349932 19.8697288,14.9447702 19.2825721,16.9493848 C18.6954154,18.9539993 15.464732,20.7573153 15.2885647,21.1257666 C15.1123973,21.4942178 15.6210767,23.6047579 15.6210767,25.539996 C15.6210767,27.4752341 17.3526706,28.1141823 12.3140508,29.4878615 C7.93028862,30.9144268 4.08418908,30.1904967 0.775752172,27.316071 Z" id="path-29"></path>
        <path d="M64.6479492,3.7229688 L64.6479492,49.0477779 C64.6479492,52.1343566 66.6696016,54.8566524 69.6244001,55.7489157 L121.139112,71.3048634 C122.725228,71.7838243 124.399303,70.8862981 124.878264,69.3001825 C124.963192,69.0189352 125.006348,68.7267378 125.006348,68.4329472 L125.006348,22.8952816 C125.006348,19.7988853 122.972044,17.0703758 120.004475,16.1865196 L68.5042894,0.847785074 C66.9163693,0.374841434 65.2457091,1.27870846 64.7727655,2.86662858 C64.689992,3.14454281 64.6479492,3.43298987 64.6479492,3.7229688 Z" id="path-31"></path>
        <filter x="-1.7%" y="-2.8%" width="106.6%" height="104.2%" filterUnits="objectBoundingBox" id="filter-32">
            <feOffset dx="2" dy="-1" in="SourceAlpha" result="shadowOffsetOuter1"></feOffset>
            <feComposite in="shadowOffsetOuter1" in2="SourceAlpha" operator="out" result="shadowOffsetOuter1"></feComposite>
            <feColorMatrix values="0 0 0 0 0.931335034   0 0 0 0 0.752056206   0 0 0 0 0.00374827073  0 0 0 1 0" type="matrix" in="shadowOffsetOuter1"></feColorMatrix>
        </filter>
        <path d="M20.3144531,0.291015625 C18.3333333,7.86132813 17.3427734,13.883138 17.3427734,18.3564453 C17.3427734,25.0664062 20.3144531,30.9492187 18.8286133,33.6074219 C17.3427734,36.265625 7.94726563,52.4365234 5.85644531,64.0068359 C3.765625,75.5771484 0.67578125,75.7587891 0.67578125,79.3935547 C0.67578125,83.0283203 -0.671875,82.828125 3.63085938,84.8837891 C7.93359375,86.9394531 12.3242188,87.2724609 16.3193359,79.3935547 C19.234992,73.6434903 23.6828876,64.5688622 30.2329102,49.2788086 C32.6579199,43.617984 34.644908,36.0709873 37.9912109,29.0097656 C40.5761719,32.5078125 41.6230469,34.1484375 43.265625,41.0908203 C44.9082031,48.0332031 49.6689453,52.6650391 47.6210937,57.7109375 C45.5732422,62.7568359 39.1162109,77.5419922 37.9912109,94.8398437 C37.6630859,98.0849609 33.3310547,103.119141 33.3310547,104.666016 C33.3310547,106.212891 43.96875,115.436523 53.0654297,108.048828 C52.3007813,103.818359 51.1914063,102.392578 53.0654297,99.8476562 C54.9394531,97.3027344 63.7900391,70.0087891 65.7597656,57.7109375 C66.743653,51.5681048 67.7621454,37.3884132 64.2871094,21.3310547 C63.5118152,17.7485952 60.9658517,12.7252228 56.6492188,6.2609375 L20.3144531,0.291015625 Z" id="path-33"></path>
        <path d="M4.92773438,22.7207031 C3.83626302,20.8499349 3.29052734,18.9785156 3.29052734,17.1064453 C3.29052734,15.8620205 -0.183144625,12.1692838 0.319335938,11.2216797 C0.41421849,11.0427452 2.48620472,9.48222782 4.03125,7.04541016 C5.72942436,4.36708005 4.03125,1.51416016 7.34277344,0.844726562 C7.43846263,0.825382728 9.26088915,1.67451575 9.51074219,1.82714844 C11.1634204,2.83675281 13.9855968,6.40891846 13.7583008,8.44091797 C13.404675,11.6022906 10.7599497,14.8588867 10.0712891,14.8588867 C9.52571615,14.8588867 9.90413411,15.9344889 11.206543,18.0856934" id="path-35"></path>
        <path d="M32.2988281,62.0537109 C31.8524846,66.6863837 34.1845703,72.7744141 36.5869141,78.7763672 C40.8533255,89.4354585 46.9365234,90.6542969 46.9365234,100.87793 C55.5185547,107.256836 74.4873047,114.662109 83.2246094,107.256836 C83.6870761,103.264398 83.8625216,98.8424702 83.6431644,94.2873993 C83.5956914,93.3015958 92.4345703,104.128906 100.103516,96.9511719 C104.535265,92.8032846 99.8037109,65.4423828 91.8134766,55.6015507 C89.5002004,53.4876003 82.8190918,56.4216309 82.2697754,60.8881836 C82.0985022,63.783361 86.8640749,72.9962005 85.2705078,72.7744141 C83.5117188,68.734375 77.3478124,59.8691771 71.0410156,56.6884766 C56.6035156,49.4072266 49.0195312,51.0664063 45.2460937,49.4072266 C44.3943619,49.0327203 31.7396489,41.6519787 22.8398438,28.6025391 C17.9030647,21.3639312 13.8386116,12.1139312 10.6464844,0.852539063 C7.89583333,2.72233073 4.47395833,4.49446615 0.380859375,6.16894531 C0.631854225,6.63902901 0.899912228,7.12161364 1.18503338,7.6166992 C2.83372543,12.3169607 7.70996094,32.3964844 10.6464844,37.1806641 C15.7292367,45.4614768 32.5703046,59.2360113 32.2988281,62.0537109 Z" id="path-37"></path>
        <path d="M5.03710938,22.7407227 C5.0608724,24.1427409 4.86474609,25.3525391 4.44873047,26.3701172 C3.82470703,27.8964844 3.55664063,31.2280273 10.7280273,31.8334961 C15.5089518,32.2371419 19.2179362,31.2259115 21.8549805,28.7998047 C19.800944,26.9388021 19.2874349,24.9191081 20.3144531,22.7407227 C21.8549805,19.4731445 27.2871094,12.5727539 26.4609375,10.1455078 C25.9918417,8.76733089 24.9953633,6.7596304 24.5712833,5.27951033 C24.2484733,4.15284196 24.4626084,3.45867322 24.2919922,2.83837891 C23.8972351,1.40319523 22.5288086,1.65332031 20.3144531,0.984375 C18.1000977,0.315429687 11.7568359,0.83984375 5.69482422,5.49267578 C-0.3671875,10.1455078 0.213378906,17.5219727 2.95410156,20.1313477 C4.78125,21.870931 5.47558594,22.7407227 5.03710938,22.7407227 Z" id="path-39"></path>
    </defs>
    <g id="📙-Submission-process" stroke="none" stroke-width="1" fill="none" fill-rule="evenodd">
        <g id="submit-crowd" transform="translate(-14.000000, 0.000000)">
            <path d="M82.3247726,160.157939 C68.5977603,161.949869 78.1444699,180.50214 58.8226123,188.513817 C47.2209846,193.324352 45.8803954,184.637044 37.538285,186.27145 C-0.922437282,193.806764 15.6606048,215.799348 40.6110618,230.669387 C45.6740391,233.686834 68.8055865,240.410196 66.4142742,247.041055 C62.1709513,258.807346 50.6156489,275.38712 78.1444699,288.516229 C112.819492,305.053521 128.159801,274.378385 154.926138,276.529075 C186.455767,279.062499 211.782517,305.02597 239.29855,316.374172 C263.390174,326.310074 268.331449,296.336299 284.21725,297.297543 C308.236577,298.750944 303.214001,296.565106 323.365927,305.065814 C343.517854,313.566521 331.545413,320.554368 347.7984,331.336373 C349.842436,332.692358 357.232258,335.727076 368.1269,336.854459 C385.227972,338.624087 397.481268,333.359136 400.11865,328.534641 C404.469921,320.574976 407.411003,311.210701 394.470045,306.519214 C384.435615,302.881431 365.988093,303.501473 349.169335,297.297543 C341.225371,294.367256 345.198825,285.862291 339.69644,275.38712 C333.857856,264.271908 325.132973,263.99688 305.925517,258.807346 C279.06962,247.969003 254.415799,254.742536 226.402465,244.961591 C200.617704,235.95876 216.882421,221.60614 206.756979,215.483058 C187.369798,203.759195 162.868934,205.406547 143.779599,193.320914 C138.49768,189.976883 139.222197,182.793878 137.538019,178.381105 C132.029156,163.947135 113.428408,172.58271 105.374534,169.687751 C97.3206601,166.792792 96.0517849,158.366008 82.3247726,160.157939 Z" id="Path-139" fill="#F7F7F7"></path>
            <path d="M26.401453,186.242751 C25.3539041,190.521927 24.8301297,194.443591 24.8301297,198.007742 C25.0592268,200.629214 26.1015755,202.156913 27.9571757,202.59084 C30.7405761,203.24173 35.7180222,205.130718 38.6314272,201.265679 C41.5448322,197.400639 41.5742999,197.640715 43.2296929,196.292566 C44.8850859,194.944418 48.3744117,187.98828 47.576183,186.924409 C46.7779542,185.860537 46.9365599,182.010251 41.3038902,182.473935 C38.7057478,182.687815 34.8693301,185.666389 32.7006134,186.242751 C32.0567836,186.413856 31.6179456,185.845302 31.3840992,184.537089 L26.401453,186.242751 Z" id="Path-138" fill="#868686"></path>
            <path d="M52.728352,211.784578 C52.3310691,212.828606 52.1324276,214.005156 52.1324276,215.314226 C52.1324276,217.277831 51.8344654,218.820488 52.1324276,220.754143 C52.4303898,222.687797 58.2327589,223.507949 60.9385994,222.67754 C61.4171508,222.369829 61.8141673,221.728697 62.1296488,220.754143 C61.9463285,221.193143 63.2599467,221.412644 66.0705036,221.412644 C70.2863389,221.412644 76.2799554,219.885167 77.6036989,218.91116 C78.9274424,217.937153 76.854297,211.784578 72.5893009,211.784578 C68.3243048,211.784578 64.7787346,209 60.9385994,209 C58.3785093,209 55.6417602,209.928193 52.728352,211.784578 Z" id="Path-137" fill="#868686"></path>
            <g id="Group-45" transform="translate(155.000000, 0.000000)">
                <path d="M31.7797852,213.387128 C31.5253906,215.42722 31.5253906,217.230143 31.7797852,218.795898 C32.161377,221.144531 35.2407227,222.443848 36.5229492,222.443848 C37.8051758,222.443848 42.0541992,220.951172 43.6835938,219.873535 C45.3129883,218.795898 47.699707,219.438477 49.1015625,218.795898 C50.503418,218.15332 55.6723633,215.60791 53.7255859,212.564941 C51.7788086,209.521973 47.2735276,211.483288 42.1856503,210.118542 C38.7937321,209.208711 35.3251104,210.29824 31.7797852,213.387128 Z" id="Path-135" fill="#6A6A6A"></path>
                <path d="M9.57763672,206.733398 C8.60042318,207.911458 8.35611979,209.067708 8.84472656,210.202148 C9.57763672,211.903809 8.11474609,212.619629 9.57763672,213.653809 C11.0405273,214.687988 15.7905677,215.684414 18.504069,214.392186 C19.7094832,213.818142 20.0932754,212.982755 20.5084105,212.601666 C20.9637067,212.18371 23.0664701,211.299874 23.6743164,210.960449 C25.9399414,209.695312 28.4077148,209.664062 28.4077148,207.355957 C28.4077148,205.047852 27.5132671,202.298214 22.6587749,202.298214 C17.8042827,202.298214 17.7314453,205.228516 17.7314453,205.228516 C17.7314453,205.228516 15.0135091,205.730143 9.57763672,206.733398 Z" id="Path-136" fill="#6A6A6A"></path>
                <path d="M40.4267578,89.8149414 C38.1158854,88.3598633 35.9812826,86.6188151 34.0229492,84.5917969 C31.0854492,81.5512695 28.1479492,78.4438477 31.0854492,78.9526367 C34.0229492,79.4614258 33.5405719,81.8481445 35.1477273,81.2319336 C36.7548828,80.6157227 37.8393555,76.050293 37.8393555,72.7915039 C37.8393555,69.5327148 47.0288086,70.1001673 47.0288086,75.4111328 C47.0288086,80.7220984 43.8295898,86.34375 43.2006836,86.34375 C42.7814128,86.34375 44.0574544,87.1582031 47.0288086,88.7871094 L40.4267578,89.8149414 Z" id="Path-110" fill="#F9E2BD"></path>
                <path d="M58.5375977,29.3496094 L60.0463867,50.6206055 C57.3995768,54.0870768 54.0994466,54.3684896 50.1459961,51.4648438 C49.7075195,39.3020833 49.4882812,32.1796875 49.4882812,30.0976563 C50.3242188,28.422526 51.7428385,27.5849609 53.7441406,27.5849609 C55.7454427,27.5849609 57.3432617,28.1731771 58.5375977,29.3496094 Z" id="Path-112" fill="#FFFFFF"></path>
                <path d="M43,45.8176041 C43.4396167,43.4791076 43.8136553,41.6310323 44.1221156,40.2733781 C44.5848062,38.2368969 43.6448522,36.2328444 44.9444147,35.2630292 C46.2439772,34.2932141 45.6550593,30.959148 46.9014735,30.0911896 C48.1478876,29.2232311 52.402969,25.6617286 52.8607305,26.0260622 C53.3184919,26.3903958 53.7762534,26.9630134 53.3184919,27.6720928 C52.8607305,28.3811721 50.2131719,29.8367654 49.9639319,31.1887609 C49.714692,32.5407563 50.9767506,37.6758144 54.9545177,36.2439441 C58.9322847,34.8120739 58.9322847,35.071341 58.9322847,35.9088021 C59.562564,36.6890231 55.6021558,38.4765213 54.9545177,39.0053927 C54.3068795,39.534264 53.1772631,44.643205 49.9639319,45.5522979 C46.7506008,46.4613908 46.7628163,45.5109458 45.442466,47.3506782 C44.5622324,48.5771664 43.7480771,48.0661417 43,45.8176041 Z" id="Path-111" fill="#F9E2BD"></path>
                <path d="M9.15039063,133.332031 C7.52539063,141.326823 7.52539063,147.711263 9.15039063,152.485352 C11.2792969,158.554688 11.8759766,167.123047 11.8759766,171.63623 C11.8759766,176.149414 6.23925781,196.848633 7.88085938,206.039062 C9.50097656,207.660156 12.6142578,209.94043 15.9511719,209.94043 C19.2880859,209.94043 21.7412109,206.342773 21.7412109,203.960937 C21.7412109,201.579102 22.2808473,185.702984 23.8326051,175.225933 C24.427524,171.209201 23.9219331,164.037956 23.8326051,160.891604 C23.7666005,158.566761 25.7998047,167.507858 29.4648438,175.665084 C31.265625,181.35712 29.7105196,187.628036 29.4648437,194.321289 C29.1261128,203.549755 30.4648437,212.01244 30.4648437,213.21582 C30.4648437,214.507449 34.6580564,218.938767 37.8808594,217.818359 C39.8384116,217.137816 43.3984909,217.162283 44.7568359,215.15625 C45.4025808,214.2026 42.8242216,207.023382 43.4746094,197.333008 C44.012391,189.320395 43.4746094,181.040039 43.4746094,175.225933 C43.4746094,170.253277 40.0166016,158.254883 40.0166016,150.600586 C40.0166016,145.497721 38.4378255,141.174805 35.2802734,137.631836 L9.15039063,133.332031 Z" id="Path-115" fill="#444444"></path>
                <g id="Group-47" transform="translate(0.000000, 43.000000)">
                    <mask id="mask-2" fill="white">
                        <use xlink:href="#path-1"></use>
                    </mask>
                    <use id="Path-108" fill="#EDC001" xlink:href="#path-1"></use>
                    <path d="M24.2929688,97.6347656 C24.781901,95.563151 23.8388672,93.1744792 21.4638672,90.46875 C17.9013672,86.4101563 17.0869141,85.1015625 19.2753906,83.8945312 C21.4638672,82.6875 22.6816406,83.9765625 24.2929688,82.6875 C25.9042969,81.3984375 27.8046875,76.0400391 27.8046875,76.0400391 C27.8046875,76.0400391 28.9980469,70.4111328 28.9980469,68.4873047 C28.9980469,66.5634766 25.7050781,61.5 28.9980469,60.2529297 C32.2910156,59.0058594 31.1819424,53.3115234 25.5329328,50.3095703 C19.8839232,47.3076172 9.50195313,39.9833984 12.3632813,37.4667969 C15.2246094,34.9501953 30.2744141,32.7373047 30.2744141,31.2548828 C30.2744141,29.7724609 51.6748047,9.58691406 51.6748047,9.58691406 C51.6748047,9.58691406 53.8369141,-1.70507812 52.7558594,-1.70507812 C51.6748047,-1.70507812 47.7236328,-0.487304688 47.7236328,-0.487304688 C47.7236328,-0.487304688 26.0820313,29.8603516 21.4638672,29.8603516 C16.8457031,29.8603516 12.5986328,34.8496094 9.17871094,34.8496094 C5.75878906,34.8496094 -2.67578125,33.5742187 -6.07421875,37.4667969 C-9.47265625,41.359375 -17.1884766,54.2871094 -15.5224609,68.4873047 C-13.8564453,82.6875 -12.0712891,94.0888672 -4.28613281,94.0888672 C0.903971354,94.0888672 10.4303385,95.2708333 24.2929688,97.6347656 Z" id="Path-65" fill="#D5AC00" mask="url(#mask-2)"></path>
                    <path d="M37.1826172,100.026367 C34.0887371,99.4359549 32.5294923,98.9945486 32.5048828,98.7021484 C32.3511723,96.8758197 34.589517,95.4887838 34.3876953,89.7397461 C34.2548467,85.9554568 31.6215536,78.1733056 31.6552734,74.5844727 C31.6968568,70.1587164 32.5048828,65.6050116 32.5048828,64.828125 C32.5048828,62.234375 35.0058594,58.5478516 40.9589844,58.5478516 C46.9121094,58.5478516 52.5283203,56.8261719 54.1660156,56.8261719 C55.8037109,56.8261719 56.8271484,42.9980469 60.4101563,45.0917969 C63.9931641,47.1855469 77.0615234,49.5703125 74.5615234,55.0625 C72.0615234,60.5546875 54.8427734,66.6230469 50.8261719,68.6484375 C48.1484375,69.9986979 43.6005859,80.4580078 37.1826172,100.026367 Z" id="Path-66" fill="#D5AC00" mask="url(#mask-2)"></path>
                    <path d="M41.5415039,44.3554688 C44.9943034,46.6194661 46.7207031,48.1899414 46.7207031,49.0668945 C46.7207031,50.3823242 48.0849609,51.8740234 46.7207031,51.8740234 C45.8111979,51.8740234 44.5921224,51.8740234 43.0634766,51.8740234 L35.2324219,48.1147461 L41.5415039,44.3554688 Z" id="Path-67" fill="#D5AC00" mask="url(#mask-2)"></path>
                </g>
                <path d="M23.5708008,87.6049805 C24.8564453,87.6139323 26.165446,86.5730794 27.4978027,84.4824219 C29.4963379,81.3464355 28.8132324,74.9528809 28.4375,74.1826172 C28.1870117,73.6691081 26.2560221,73.0515137 22.6445312,72.329834 C21.6375326,76.6840007 21.1340332,79.2697754 21.1340332,80.0871582 C21.1340332,80.904541 21.9462891,83.4104818 23.5708008,87.6049805 Z" id="Path-61" fill="#F9E2BD"></path>
                <path d="M54.5688477,26.1845703 L53.4575195,30.3325195 C65.4724935,22.0818685 72.7314453,17.6612956 75.234375,17.0708008 C78.9887695,16.1850586 83.3676758,16.0297852 87.2143555,15.6474609 C87.3164062,13.0639648 81.1787109,0.962402344 75.234375,0.962402344 C74.9956786,2.4565501 75.1146745,7.10035588 70.4002733,12.4716797 C68.1940823,14.9852897 62.9169405,19.3072298 54.5688477,25.4375" id="Path-114" fill="#EDC001"></path>
                <g id="Group-46" transform="translate(4.000000, 63.000000)">
                    <mask id="mask-4" fill="white">
                        <use xlink:href="#path-3"></use>
                    </mask>
                    <use id="Path-109" fill="#C6A36A" xlink:href="#path-3"></use>
                    <path d="M19.3154297,0.5078125 C10.8063151,2.88606771 7.20572917,6.29361979 8.51367188,10.7304688 C10.4755859,17.3857422 19.1962891,22.2890625 18.1884766,30.71875 C17.1806641,39.1484375 10.4394531,45.9267578 13.2758789,53.9912109 C15.1668294,59.367513 16.0126953,65.84375 15.8134766,73.4199219 C1.6656901,76.0755208 -6.36425781,74.0908203 -8.27636719,67.4658203 C-11.1445312,57.5283203 -10.4394531,41.8154297 -8.27636719,32.3056641 C-6.11328125,22.7958984 -3.34502219,8.61523437 -1.53613281,5.67285156 C0.272756561,2.73046875 10.7382813,-4.67578125 13.2758789,-4.67578125 C14.9676107,-4.67578125 16.9807943,-2.94791667 19.3154297,0.5078125 Z" id="Path-62" fill="#B5945D" mask="url(#mask-4)"></path>
                    <path d="M21.6035156,63.4550781 C21.6035156,61.9560547 23.2294922,60.5439453 21.6035156,55.2871094 C19.9775391,50.0302734 21.6035156,47.7382812 21.6035156,44.3710937 C21.6035156,41.0039062 24.0957031,40.1416016 24.0957031,37.6035156 C24.0957031,35.0654297 21.6035156,42.859375 21.6035156,37.6035156 C21.6035156,32.3476562 19.1113281,29.0322266 21.6035156,29.0322266 C24.0957031,29.0322266 27.9794922,31.3378906 27.9794922,31.3378906 C27.9794922,31.3378906 33.7978516,50.2441406 33.7978516,54.0849609 C33.7978516,57.9257812 21.6035156,64.9541016 21.6035156,63.4550781 Z" id="Path-63" fill="#B5945D" mask="url(#mask-4)"></path>
                </g>
                <path d="M54.3359375,30.9501953 L55.7470703,27.1464844 C56.0593071,24.8264974 56.0593071,23.6665039 55.7470703,23.6665039 C54.0688667,23.6665039 53.6048236,24.300593 53.1949742,25.3310547 C53.0304725,25.7446523 51.6688965,25.1754832 52.4082031,27.1464844 C52.6033106,27.6666434 52.6033106,28.6012137 52.4082031,29.9501953 L54.3359375,30.9501953 Z" id="Path-113" fill="#D5AC00"></path>
            </g>
            <g id="Group-14" transform="translate(264.000000, 57.000000)">
                <path d="M43.8730469,217.484375 C43.8730469,219.954427 43.8730469,221.988932 43.8730469,223.587891 C43.8730469,225.986328 44.1279297,229.580078 49.3369141,229.580078 C54.5458984,229.580078 58.2910156,225.637695 60.9355469,225.637695 C63.5800781,225.637695 74.2558594,224.265625 74.2558594,220.875 C74.2558594,219.385739 74.8845662,216.97772 72.8632812,215.546875 C70.2826744,213.720092 64.4563964,213.089599 59.0644531,213.722656 C52.6542969,214.47526 47.5904948,215.729167 43.8730469,217.484375 Z" id="Path-134" fill="#444444"></path>
                <path d="M20.0859375,208.908203 C19.1543354,210.78676 18.821002,212.435198 19.0859375,213.853516 C19.7568353,217.445131 21.6233946,219.568359 22.1630859,219.568359 C22.9449163,219.568359 27.1714149,220.755537 29.8173218,219.568359 C31.5339203,218.798148 33.6830521,215.553563 34.5214844,213.853516 C36.8525391,209.126953 38.5830078,207.470703 38.5830078,205.71582 C38.5830078,203.960938 38.2603149,196.87793 33.7177734,198.567383 C30.6894124,199.693685 26.1454671,203.140625 20.0859375,208.908203 Z" id="Path-133" fill="#444444"></path>
                <g id="Group-23" transform="translate(17.000000, 104.000000)">
                    <mask id="mask-6" fill="white">
                        <use xlink:href="#path-5"></use>
                    </mask>
                    <use id="Path-18" fill="#444444" xlink:href="#path-5"></use>
                    <path d="M14.5859375,111.233398 C18.2617076,108.884754 19.7939342,105.615222 19.1826172,101.424805 C18.874063,99.309747 12.0273438,106.099609 12.0273438,98.7666016 C12.0273438,79.0019999 11.3493652,71.8300781 12.0273438,68.7138672 C12.7053223,65.5976562 14.6787109,64.5869141 15.9248047,57.6132812 C17.1708984,50.6396484 17.1708984,47.3056641 17.1708984,43.8144531 C17.1708984,41.4869792 18.2177734,37.2916667 20.3115234,31.2285156 C21.6494141,34.7454427 22.3183594,37.2213542 22.3183594,38.65625 C22.3183594,40.0911458 22.3183594,68.0605469 22.3183594,122.564453 C33.5149361,121.067207 39.7864205,118.766751 41.1328125,115.663086 C41.5907453,114.607472 37.3271442,114.845086 35.5166016,113.245117 C33.467414,111.434259 33.8189772,107.753299 34.0419922,106.099609 C35.0965446,98.2799438 32.5028603,96.7797967 32.5966797,85.3720703 C32.6748846,75.8629516 35.5166016,56.1383537 35.5166016,51.2783203 C35.5166016,40.5878906 35.5494054,35.8637281 34.0419922,25.7490234 C32.8769531,17.9316406 44.9680508,8.62653709 44.2480469,6.37890625 C43.421562,3.7988746 38.1461713,3.7988746 28.421875,6.37890625 C7.59309896,-4.37565104 -4.47623698,-9.75292969 -7.78613281,-9.75292969 C-12.7509766,-9.75292969 -13.7119141,-18.1962891 -16.7050781,-7.76464844 C-19.6982422,2.66699219 -16.7050781,94.9238281 -16.7050781,101.424805 C-16.7050781,105.758789 -7.12760417,110.504883 12.0273437,115.663086 L14.5859375,111.233398 Z" id="Path-27" fill="#303030" mask="url(#mask-6)"></path>
                </g>
                <path d="M68.0791016,15.546875 C68.5804036,7.97949219 69.8520508,3.42431641 71.894043,1.88134766 C74.9570312,-0.433105469 84.4077148,-0.291015625 91.3422852,12.0507812 C98.2768555,24.3925781 95.6308594,35.3666992 88.7426758,35.3666992 C84.1505534,35.3666992 78.8141276,32.4363607 72.7333984,26.5756836 L68.0791016,15.546875 Z" id="Path-90" fill="#EDC001"></path>
                <path d="M54.5024414,25.4975586 C61.0288086,21.738444 65.4718424,17.531901 67.831543,12.8779297 C71.3710938,5.89697266 69.7006836,2.90380859 75.6064453,2.90380859 C81.512207,2.90380859 92.0561523,11.1318359 93.1264648,24.815918 C94.1967773,38.5 84.2109375,32.8666992 79.9086914,32.8666992 C75.6064453,32.8666992 71.7983398,32.6899414 61.1660156,38.9272461 C54.0777995,43.0854492 51.8566081,38.6088867 54.5024414,25.4975586 Z" id="Path-89" fill="#FFFFFF"></path>
                <path d="M59.0131836,53.6435547 C59.6075846,54.0846354 59.9047852,54.867513 59.9047852,55.9921875 C59.9047852,57.6791992 61.1137695,59.3862305 57.9819336,59.3862305 C54.8500977,59.3862305 54.1025391,58.1491699 54.1025391,57.3320312 C54.1025391,56.7872721 54.1025391,56.0426432 54.1025391,55.0981445 C53.5898438,53.4327799 53.5898438,52.6000977 54.1025391,52.6000977 C54.6152344,52.6000977 56.2521159,52.9479167 59.0131836,53.6435547 Z" id="Path-70" fill="#717171"></path>
                <g id="Group-21" transform="translate(45.000000, 42.000000)">
                    <mask id="mask-8" fill="white">
                        <use xlink:href="#path-7"></use>
                    </mask>
                    <use id="Path-68" fill="#F9E2BD" xlink:href="#path-7"></use>
                    <path d="M15.9418945,0.242675781 C15.7875977,1.60302734 14.808431,2.62272135 13.0043945,3.30175781 C10.2983398,4.3203125 11.1025391,3.41992187 10.2983398,5.78076172 C9.49414062,8.14160156 12.3081055,8.36962891 9.49414062,10.6308594 C6.68017578,12.8920898 6.328125,15.4628906 3.41845703,13.7758789 C0.508789062,12.0888672 -1.90185547,10.7456055 -2.43066406,8.54003906 C-2.95947266,6.33447266 -4.70410156,2.92578125 -0.934082031,1.19335937 C1.57926432,0.0384114583 7.20458984,-0.278483073 15.9418945,0.242675781 Z" id="Path-25" fill="#F4D098" mask="url(#mask-8)"></path>
                </g>
                <path d="M44.9213867,56.0170898 L46.7045898,51.9023438 C48.0051449,53.3132541 48.9958676,54.1771863 49.6767578,54.4941406 C50.3576481,54.8110949 51.9427718,54.9730415 54.4321289,54.9799805 L54.4321289,59.2763672 C51.7143054,59.0749871 49.7686674,58.7732293 48.5952148,58.3710938 C47.4217623,57.9689582 46.197153,57.1842903 44.9213867,56.0170898 Z" id="Path-64" fill="#FFFFFF"></path>
                <path d="M5.27539063,70.472168 C3.45117188,68.3588867 -0.337890625,63.3286133 0.887695313,59.1137695 C2.11328125,54.8989258 6.62402344,49.8535156 12.8852539,50.5351562 C19.1464844,51.2167969 41.2905273,59.2211914 42.4472656,57.7553711 C42.8693034,56.5219727 43.7027995,55.4019368 44.9477539,54.3952637 C47.245931,57.9413249 50.6070964,59.0613607 55.03125,57.7553711 C55.2845052,62.1987305 54.7166341,65.1741536 53.3276367,66.6816406 L12.8852539,75.3208008 C9.02815755,73.4972331 6.49153646,71.8810221 5.27539063,70.472168 Z" id="Path-54" fill="#D5AC00"></path>
                <g id="Group-18" transform="translate(4.000000, 50.000000)">
                    <mask id="mask-10" fill="white">
                        <use xlink:href="#path-9"></use>
                    </mask>
                    <use id="Path-48" fill="#EDC001" xlink:href="#path-9"></use>
                    <path d="M28.7705078,5.04980469 C24.7919922,8.0485026 22.8027344,11.6731771 22.8027344,15.9238281 C22.8027344,22.2998047 28.1650391,27.2597656 35.3828125,42.8369141 C40.1946615,53.2216797 39.6953125,65.085612 33.8847656,78.4287109 C15.8027344,77.8766276 5.85546875,76.5608724 4.04296875,74.4814453 C1.32421875,71.3623047 -2.86230469,69.9101562 -2.86230469,58.1103516 C-2.86230469,46.3105469 -2.86230469,28.4960938 -2.86230469,22.2099609 C-2.86230469,15.9238281 -5.59667969,9.24511719 -1.49609375,5.04980469 C2.60449219,0.854492187 1.04003906,-1.85351562 6.02050781,-1.85351562 C9.34082031,-1.85351562 13.9615885,-1.85351562 19.8828125,-1.85351562 L28.7705078,5.04980469 Z" id="Path-23" fill="#D5AC00" mask="url(#mask-10)"></path>
                </g>
                <path d="M108.519531,36.6020508 C107.721517,35.889974 110.59904,34.1989746 117.1521,31.5290527 C119.090332,28.598877 118.154053,25.0771484 117.567871,24.5385742 C117.326435,24.3167468 116.485533,23.9522448 115.045166,23.4450684 L119.538887,19.4512832 C119.892623,19.1369015 119.924525,18.5952854 119.610144,18.2415498 C119.59314,18.2224178 119.575288,18.2040573 119.556641,18.1865234 L119.556641,18.1865234 C119.152441,17.8064573 118.544248,17.7429746 118.070274,18.0313777 C113.5722,20.7683737 110.923854,22.5729342 110.125244,23.4450684 C108.857666,24.8293457 105.87085,30.4138184 105.522949,30.9714355 C105.291016,31.3431803 104.664469,32.3971354 103.643311,34.1333008 L108.519531,36.973877 L108.519531,36.6020508 Z" id="Path-51" fill="#F9E2BD"></path>
                <path d="M101.024414,35.9384766 L104.472656,31.6762695 C107.431966,32.0987956 108.911621,33.7109375 108.911621,36.5126953 C106.69873,39.8828125 105.384196,41.2867839 104.968018,40.7246094 L101.024414,35.9384766 Z" id="Path-50" fill="#FFFFFF"></path>
                <path d="M81.2607422,52.3271484 C69.7620443,56.6318359 62.5107422,59.1943359 59.5068359,60.0146484 C55.0009766,61.2451172 45.2734375,61.7753906 41.9267578,64.390625 C38.5800781,67.0058594 37.0341797,78.0947266 46.8691406,77.671875 C59.2978516,75.4755859 72.2519531,67.9521484 81.2607422,65.5722656 C90.2695313,63.1923828 92.3496094,60.4511719 94.4980469,57.8535156 C95.9303385,56.1217448 100.035482,50.3450521 106.813477,40.5234375 C106.226888,37.0299479 104.30306,35.2832031 101.041992,35.2832031 C93.1064453,40.5013021 86.5126953,46.1826172 81.2607422,52.3271484 Z" id="Path-49" fill="#EDC001"></path>
                <g id="Group-20" transform="translate(15.000000, 23.000000)">
                    <mask id="mask-12" fill="white">
                        <use xlink:href="#path-11"></use>
                    </mask>
                    <use id="Path-52" fill="#F9E2BD" xlink:href="#path-11"></use>
                    <path d="M14.3974609,35.6083984 C15.5042318,34.9150391 15.5042318,33.375651 14.3974609,30.9902344 C12.7373047,27.4121094 13.1523438,27.7255859 14.3974609,23.6621094 C15.6425781,19.5986328 11.8652344,20.3066406 14.3974609,13.8417969 C16.085612,9.53190104 12.9355469,8.90527344 4.94726563,11.9619141 C7.02473958,16.414388 7.02473958,19.4775391 4.94726563,21.1513672 C1.83105469,23.6621094 -0.833007812,22.8066406 -0.833007812,26.8984375 C-0.833007812,30.9902344 -3.73144531,35.9824219 -2.28222656,37.4306641 C-1.31608073,38.3961589 4.2438151,37.788737 14.3974609,35.6083984 Z" id="Path-24" fill="#F4D098" mask="url(#mask-12)"></path>
                </g>
                <path d="M11.9794922,29.0893555 C14.5390625,24.6020508 19.734375,20.1748047 23.8515625,18.8769531 C27.96875,17.5791016 30.7158203,18.8442383 30.7158203,21.6362305 C30.7158203,24.4282227 30.6635742,27.1660156 31.7651367,29.699707 C32.8666992,32.2333984 31.0107422,32.8457031 31.7651367,34.9975586 C32.5195313,37.1494141 32.3022461,38.6948242 31.2529297,39.4008789 C30.2036133,40.1069336 30.1884766,38.6054688 28.7851563,38.6054688 C27.3818359,38.6054688 27.3818359,41.7646484 27.3818359,43.2929688 C27.3818359,44.8212891 27.6099144,52.3632812 22.0962169,51.5976562 C16.5825195,50.8320312 18.137207,50.4555664 16.5825195,49.0917969 C15.027832,47.7280273 13.3515625,45.2446289 9.41992188,43.2929688 C5.48828125,41.3413086 9.41992188,33.5766602 11.9794922,29.0893555 Z" id="Path-53" fill="#717171"></path>
                <path d="M50.0695801,45.5212402 L51.2878418,54.8640137 L53.4567871,55.1806641 L52.217041,45.2407227 C55.9753418,44.2543945 58.1660156,43.444987 58.7890625,42.8125 C59.4121094,42.180013 59.4121094,41.3657227 58.7890625,40.3696289 L50.0695801,45.5212402 Z" id="Path-69" fill="#717171"></path>
                <path d="M50.0297852,45.515625 L61.4990234,38.7397461 C62.9674479,32.7752279 60.6118164,28.2646484 54.4321289,25.2080078 C50.3468424,27.5611979 47.601888,29.0895182 46.1972656,29.7929688 C44.28125,30.031901 42.8535156,30.5416667 41.9140625,31.3222656 C40.5048828,32.4931641 38.1245117,38.1831055 42.9438477,42.8666992 C45.0141602,44.9848633 47.3761393,45.8678385 50.0297852,45.515625 Z" id="Path-71" fill="#EDC001"></path>
                <ellipse id="Oval-21" fill="#FFFFFF" transform="translate(46.000000, 38.000000) rotate(-20.000000) translate(-46.000000, -38.000000) " cx="46" cy="38" rx="4" ry="6"></ellipse>
            </g>
            <g id="Group-16" opacity="0.900000036" transform="translate(333.000000, 91.000000)">
                <path d="M49.6203573,214 C52.9064854,214.829173 55.5721722,215.036466 57.6174175,214.62188 C60.5516642,216.440405 62.1403441,215.608884 64.1821788,215.849194 C67.2268544,216.610228 67.9898101,217.67893 67.9898101,220.501421 C67.9898101,221.232041 65.8900521,222.823574 63.2601803,224.069273 C62.2909841,224.528356 59.6213642,224.788357 58.6869643,225.242916 C58.2829929,225.439437 57.0995326,225.042853 56.7256444,225.242916 C55.0218999,226.15457 54.0177363,227.113777 52.7258035,227.412263 C48.7151379,228.338879 46.2515553,226.850203 45.2639909,225.242916 C44.2764265,223.63563 46.3804341,219.681597 46.342679,216.384501 C47.2980617,215.691966 48.3906211,214.897132 49.6203573,214 Z" id="Path-47-Copy" fill="#A2A2A2"></path>
                <path d="M27.6203573,204 C30.9064854,204.829173 33.5721722,205.036466 35.6174175,204.62188 C38.5516642,206.440405 40.1403441,205.608884 42.1821788,205.849194 C45.2268544,206.610228 45.9898101,207.67893 45.9898101,210.501421 C45.9898101,211.232041 43.8900521,212.823574 41.2601803,214.069273 C40.2909841,214.528356 37.6213642,214.788357 36.6869643,215.242916 C36.2829929,215.439437 35.0995326,215.042853 34.7256444,215.242916 C33.0218999,216.15457 32.0177363,217.113777 30.7258035,217.412263 C26.7151379,218.338879 24.2515553,216.850203 23.2639909,215.242916 C22.2764265,213.63563 24.3804341,209.681597 24.342679,206.384501 C25.2980617,205.691966 26.3906211,204.897132 27.6203573,204 Z" id="Path-47-Copy-2" fill="#A2A2A2"></path>
                <g id="Group-31" transform="translate(20.000000, 112.000000)">
                    <mask id="mask-14" fill="white">
                        <use xlink:href="#path-13"></use>
                    </mask>
                    <use id="Path-46" fill="#888888" xlink:href="#path-13"></use>
                    <path d="M30.4882812,9.53710938 C31.5416667,21.0677083 33.2460938,29.9899089 35.6015625,36.3037109 C37.2061958,40.6049088 34.6943317,53.3804499 34.0927734,65.8759766 C33.3697751,80.8940463 34.2472129,95.9805424 32.9199219,101.758789 C30.4882812,112.344727 27.5214844,115.65332 27.5214844,117.305664 C27.5214844,118.958008 10.8320312,107.560547 10.8320312,106.033203 C10.8320312,104.505859 19.5273437,104.049805 19.5273437,101.758789 C19.5273437,99.4677734 19.9270774,95.4755859 21.2109375,89.2626953 C22.4947976,83.0498047 20.2109375,34.6054688 20.2109375,33.0634766 C20.2109375,31.5214844 20.2109375,33.8974609 20.2109375,32.0634766 C20.2109375,30.2294922 13.2929688,52.0703125 15.1230469,65.8759766 C16.953125,79.6816406 11.9648437,81.9697266 8.96875,93.1201172 C5.97265625,104.270508 9.44824219,114.044922 2.45898437,114.044922 C-4.53027344,114.044922 -16.9794922,104.856445 -18.3271484,83.2783203 C-19.6748047,61.7001953 -20.9414063,36.3476563 -15.4970703,22.9423828 C-10.0527344,9.53710938 -7.69238281,1.21972656 -5.01074219,-0.4140625 C-2.32910156,-2.04785156 15.8154297,-0.151367187 16.8417969,1.21972656 C17.5260417,2.13378906 22.0748698,4.90625 30.4882812,9.53710938 Z" id="Path-33" fill="#6A6A6A" mask="url(#mask-14)"></path>
                </g>
                <g id="Group-25" transform="translate(17.000000, 52.000000)">
                    <mask id="mask-16" fill="white">
                        <use xlink:href="#path-15"></use>
                    </mask>
                    <use id="Path-40" fill="#FCF2D0" xlink:href="#path-15"></use>
                    <path d="M17.9443359,50.9609375 C17.9443359,58.4794922 19.2314453,60.2617188 25.5019531,66.1699219 C31.7724609,72.078125 31.4179687,69.6347656 36.9482422,78.5 C42.4785156,87.3652344 26.5234375,82.8154297 20.75,82.8154297 C14.9765625,82.8154297 4.37695312,72.0449219 -10.3271484,69.6347656 C-25.03125,67.2246094 -11.5361328,66.0302734 -9.01464844,50.9609375 C-6.49316406,35.8916016 -5.42773438,33.2890625 -3.36621094,18.4970703 C-1.3046875,3.70507813 -3.36621094,5.21777344 2.0859375,-0.904296875 C7.53808594,-7.02636719 6.99707031,-4.37304687 13.2041016,-4.37304687 C19.4111328,-4.37304687 28.8183594,8.41894531 26.5234375,11.9658203 C24.2285156,15.5126953 15.2324219,12.1923828 17.9443359,16.0742188 C20.65625,19.9560547 19.6162109,20.6357422 21.9814453,30.3007812 C24.3466797,39.9658203 17.9443359,43.4423828 17.9443359,50.9609375 Z" id="Path-28" fill="#EAD797" opacity="0.5" mask="url(#mask-16)"></path>
                </g>
                <g id="Group-26" transform="translate(0.000000, 53.000000)">
                    <mask id="mask-18" fill="white">
                        <use xlink:href="#path-17"></use>
                    </mask>
                    <use id="Path-41" fill="#F9E2BD" xlink:href="#path-17"></use>
                    <path d="M26.921875,8.85058594 C26.921875,8.85058594 21.9570313,17.3291016 16.0361328,21.6269531 C10.1152344,25.9248047 5.34082031,27.2871094 6.62597656,29.2402344 C7.91113281,31.1933594 7.15136719,32.9609375 13.6083984,37.8769531 C20.0654297,42.7929688 24.8398438,44.7753906 24.8398438,42.7929688 C24.8398438,41.4713542 26.9163411,39.2639974 31.0693359,36.1708984 C34.5426432,34.0309245 36.2792969,34.5996094 36.2792969,37.8769531 C36.2792969,42.7929688 37.2988281,48.4560547 31.0693359,50.7744141 C24.8398438,53.0927734 14.6845703,54.8935547 9.89941406,51.9902344 C5.11425781,49.0869141 -2.02734375,45.9814453 -2.02734375,39.3212891 C-2.02734375,32.6611328 -2.1484375,25.6005859 0.0859375,22.90625 C2.3203125,20.2119141 11.1806641,7.29296875 13.6083984,7.29296875 C15.226888,7.29296875 19.6647135,3.11816406 26.921875,-5.23144531 C30.9361979,-7.09472656 32.3186849,-5.92643229 31.0693359,-1.7265625 C29.1953125,4.57324219 26.921875,8.85058594 26.921875,8.85058594 Z" id="Path-29" fill="#F4D098" mask="url(#mask-18)"></path>
                </g>
                <path d="M49.5751953,64.2348633 C45.8277995,62.7706706 41.6238607,62.7706706 36.9633789,64.2348633 L48.3837891,59.4873047 C48.8483073,59.3632813 49.8513997,60.0172526 51.3930664,61.4492188 C53.7055664,63.597168 55.1962891,66.4311523 49.5751953,64.2348633 Z" id="Path-42" fill="#F9E2BD"></path>
                <g id="Group-28" transform="translate(55.000000, 56.000000)">
                    <mask id="mask-20" fill="white">
                        <use xlink:href="#path-19"></use>
                    </mask>
                    <use id="Path-38" fill="#F9E2BD" xlink:href="#path-19"></use>
                    <path d="M2.48242188,17.3095703 C7.5703125,21.7626953 13.5172526,23.1871745 20.3232422,21.5830078 C30.5322266,19.1767578 33.3203125,18.1738281 35.7470703,15.8535156 C38.1738281,13.5332031 43.8320313,8.88574219 48.4648438,5.92871094 C53.0976563,2.97167969 55.3154297,-5.984375 56.4169922,1.53613281 C57.5185547,9.05664062 69.0507813,14.2363281 62.1494141,21.5830078 C55.2480469,28.9296875 36.3447266,31.7519531 20.3232422,34.3925781 C4.30175781,37.0332031 1.36425781,38.1738281 -0.903320312,38.1738281 C-2.22006949,38.1738281 -3.59290648,31.8764828 -0.903320312,21.3234863 C-0.637824312,20.2817728 0.490756417,18.9438008 2.48242188,17.3095703 Z" id="Path-31" fill="#F4D098" mask="url(#mask-20)"></path>
                </g>
                <g id="Group-13" transform="translate(39.500000, 46.500000) rotate(8.000000) translate(-39.500000, -46.500000) translate(23.000000, 27.000000)">
                    <path d="M18.6889648,2.50585938 C23.1866862,3.10546875 26.2942708,5.21582031 28.0117187,8.83691406 C29.6539714,9.21842448 30.4750977,9.70768229 30.4750977,10.3046875 C30.371582,13.2167969 30.5694987,15.1425781 31.0688477,16.0820312 C31.8178711,17.4912109 32.2583008,21.3129883 29.5498047,22.8037109 C27.7441406,23.797526 24.8304036,24.008138 20.8085938,23.4355469 L18.6889648,2.50585938 Z" id="Path-44" fill="#F9E2BD"></path>
                    <g id="Group-29">
                        <mask id="mask-22" fill="white">
                            <use xlink:href="#path-21"></use>
                        </mask>
                        <use id="Path-43" fill="#C6A36A" xlink:href="#path-21"></use>
                        <path d="M17.5747778,-1.49550856 C17.5747778,-1.49550856 11.5093596,-0.874817174 9.02104635,5.83167813 C6.53273306,12.5381734 6.29351535,16.8635605 13.1248828,23.9032022 C19.9562502,30.9428439 33.4835912,25.7025632 30.2714014,35.2927494 C27.0592115,44.8829355 10.7975635,56.4757367 6.46753377,53.5370661 C2.13750407,50.5983955 -17.2209821,35.3354443 -15.9449859,22.24827 C-14.6689897,9.16109556 -6.19256107,-1.10187222 -2.36204172,-1.64021661 C1.46847764,-2.178561 17.5747778,-1.49550856 17.5747778,-1.49550856 Z" id="Path-32" fill="#B5945D" mask="url(#mask-22)"></path>
                    </g>
                </g>
                <g id="Path-45">
                    <use fill="black" fill-opacity="1" filter="url(#filter-24)" xlink:href="#path-23"></use>
                    <use fill="#EDC001" fill-rule="evenodd" xlink:href="#path-23"></use>
                </g>
            </g>
            <g id="Group-19" transform="translate(0.000000, 30.000000)">
                <g id="Group-44" transform="translate(23.823529, 72.191388)">
                    <mask id="mask-26" fill="white">
                        <use xlink:href="#path-25"></use>
                    </mask>
                    <use id="Path-95" fill="#444444" xlink:href="#path-25"></use>
                    <path d="M9.63694853,95.9333508 C9.63694853,95.9333508 7.20315372,87.4244169 8.01441866,79.6187575 C8.82568359,71.8130981 12.4382468,47.591395 14.2322495,40.8535437 C15.4282514,36.3616427 17.7490234,32.7716183 21.1945657,30.0834704 C22.5818589,35.2717678 23.2755055,38.8617923 23.2755055,40.8535437 C23.2755055,43.8411708 26.5507238,123.332685 27.4589269,123.332685 C28.3671301,123.332685 32.7866498,122.721404 35.1183364,121.57192 C37.450023,120.422436 43.8083065,113.487702 41.5162569,109.469236 C39.2242073,105.45077 35.1183364,81.2058538 35.1183364,70.810631 C35.1183364,60.4154082 36.4119393,45.420484 35.1183364,38.0885915 C33.4354894,28.5505383 25.227281,25.9335692 21.1945657,19.5128589 C18.3465577,14.9783868 19.1513541,10.98535 21.1945657,12.2608777 C23.2755055,13.5599581 30.4833984,14.4111094 37.1596392,11.3804949 C39.2550067,10.4293233 41.6105327,8.13787005 41.5162569,7.67239833 C40.829216,4.28024392 29.6619366,1.57834002 8.01441866,-0.433313397 C5.64826517,-8.65537779 3.54894301,-7.68185556 1.71645221,2.48725329 C-1.03228401,17.7409166 -6.93215763,79.0126346 -4.40831801,89.8592255 C-1.8844784,100.705816 9.63694853,95.9333508 9.63694853,95.9333508 Z" id="Path-60" fill="#303030" mask="url(#mask-26)"></path>
                </g>
                <g id="Path-59" transform="translate(18.529412, 23.770335)">
                    <mask id="mask-28" fill="white">
                        <use xlink:href="#path-27"></use>
                    </mask>
                    <use id="Mask" fill="#FCF2D0" xlink:href="#path-27"></use>
                    <path d="M27.1039177,7.36030951 C27.1039177,7.36030951 25.31767,7.82629336 22.9084329,9.90946471 C20.4991958,11.9926361 18.8818359,12.1989758 18.8818359,15.7824088 C18.8818359,19.3658418 8.99327895,19.7234973 13.0931181,28.5049716 C17.1929573,37.2864459 22.9084329,36.4731235 22.9084329,47.0566313 C22.9084329,57.6401391 36.2367877,58.4749551 38.4047564,58.4749551 C40.5727252,58.4749551 54.2836627,59.3407222 54.2836627,53.1195798 C54.2836627,46.8984375 60.7996324,41.4175389 48.7112247,39.8811678 C36.6228171,38.3447967 34.5349839,37.1291118 32.5014361,34.297959 C30.4678883,31.4668062 27.657954,29.9232139 32.5014361,24.3884943 C35.5086742,20.9520783 34.602015,23.4680447 47.2308709,22.6732955 C51.0535972,22.4327267 60.0643968,20.814966 74.2632698,17.8200135 C91.6138988,6.51330164 100.34724,1.66403181 100.463293,3.27220395 C101.933329,23.642832 77.0214844,56.8293854 77.0214844,58.4749551 C77.0214844,61.2356086 79.0851907,82.7430846 46.0891544,80.7837171 C13.0931181,78.8243496 7.23977482,94.6239533 -2.88143382,66.8205368 C-13.0026425,39.0171202 -23.0618107,30.5984599 -16.0917394,13.0802183 C-9.1216682,-4.43802333 -3.97403493,-18.8216208 1.87413833,-15.7179276 C7.72231158,-12.6142344 12.4460018,-12.2918286 14.5665786,-10.4579844 C16.6871553,-8.62414025 27.1039177,7.36030951 27.1039177,7.36030951 Z" fill="#EAD797" opacity="0.5" mask="url(#mask-28)"></path>
                </g>
                <path d="M118.221688,15.9877538 C131.770354,14.2174853 139.925271,10.8578579 142.686437,5.90887159 C146.828187,-1.51460794 151.265364,18.6616425 145.626504,15.3332684 C141.867264,13.1143524 132.917431,14.2559826 118.777006,18.7581592 L118.221688,15.9877538 Z" id="Path-96" fill="#EDC001" transform="translate(133.256561, 11.506855) rotate(10.000000) translate(-133.256561, -11.506855) "></path>
                <path d="M121.464184,14.866419 L124.129891,30.3421368 C122.352753,32.732431 119.893086,33.1280486 116.750891,31.5289895 C115.522625,24.9388386 114.56129,19.3846484 113.866888,14.866419 C113.79286,12.7517181 114.984207,11.6943677 117.440929,11.6943677 C119.897651,11.6943677 121.238736,12.7517181 121.464184,14.866419 Z" id="Path-98" fill="#FFFFFF" transform="translate(118.996766, 22.092394) rotate(10.000000) translate(-118.996766, -22.092394) "></path>
                <ellipse id="Oval-4-Copy" fill="#D5AC00" cx="117.413811" cy="14.7658823" rx="1.76470588" ry="3.5215311"></ellipse>
                <path d="M112.941176,22.6386862 C112.400533,19.7925139 112.400533,18.0736625 112.941176,17.4821322 C114.28093,16.0162771 113.501145,19.5778814 115.470379,19.0666492 C117.546392,18.5276961 121.133804,15.2372621 121.896542,15.3387784 C124.782825,15.7229274 123.06055,21.3500383 123.06055,22.9733594 C123.06055,24.5966804 122.055139,26.8884947 120.254917,26.3385731 C118.454695,25.7886514 116.726288,26.2069217 115.470379,26.8358911 C114.633106,27.255204 113.790038,25.8561357 112.941176,22.6386862 Z" id="Path" fill="#F9E2BD"></path>
                <ellipse id="Oval-4" fill="#EDC001" cx="115.31805" cy="13.9501862" rx="2.20588235" ry="4.84210526"></ellipse>
                <path d="M109.076379,25.0762952 L112.306759,21.0737633 C115.079097,21.470547 116.465266,22.9844691 116.465266,25.6155297 C114.392188,28.7803223 113.160706,30.0987567 112.770823,29.5708327 L109.076379,25.0762952 Z" id="Path-50" fill="#FFFFFF" transform="translate(112.770823, 25.378903) rotate(10.000000) translate(-112.770823, -25.378903) "></path>
                <g id="Group-42" transform="translate(0.000000, 7.043062)">
                    <g id="Group-43"></g>
                </g>
                <g id="Group-41" transform="translate(29.117647, 3.521531)">
                    <mask id="mask-30" fill="white">
                        <use xlink:href="#path-29"></use>
                    </mask>
                    <use id="Path-93" fill="#F9E2BD" xlink:href="#path-29"></use>
                    <path d="M15.7660271,12.485702 C15.7660271,13.3273961 15.0409295,13.4761326 14.4244026,15.3099768 C13.8078757,17.143821 13.0922564,16.962414 13.0922564,19.4161371 C13.0922564,21.8698602 13.0922564,25.7881654 13.0922564,27.5781624 C13.0922564,29.3681594 13.7174,32.5634158 11.3443532,33.4554052 C8.9713063,34.3473946 3.15286075,35.9503962 1.06330423,32.5634158 C-1.0262523,29.1764354 -3.63022748,24.1709779 -3.63022748,22.1630345 C-3.63022748,20.1550912 -2.00855928,17.1640251 -0.915096507,16.6537642 C0.178366268,16.1435033 15.7660271,11.6440079 15.7660271,12.485702 Z" id="Path-58" fill="#F4D098" mask="url(#mask-30)"></path>
                </g>
                <path d="M41.5134169,17.320874 C40.2279446,18.3078226 39.5852084,19.8488135 39.5852084,21.9438466 C39.5852084,25.0863963 41.347357,28.2424967 35.6121172,28.6776616 C29.8768773,29.1128266 30.87941,26.1436653 29.0033652,24.9659791 C27.1273205,23.7882929 21.9942792,20.826215 22.848037,16.5426279 C23.7017948,12.2590407 32.2010987,1.68265491 36.2596891,0.958303985 C40.3182795,0.233953061 43.0845041,1.56500948 43.0845041,3.6250364 C43.0845041,5.68506333 44.2864321,7.09434472 44.896656,8.89629083 C45.5068798,10.6982369 45.8658532,15.316898 44.896656,16.5426279 C43.9274588,17.7683578 43.6740476,19.1853384 42.5937323,18.7942136 C41.8735221,18.5334637 41.5134169,18.0423505 41.5134169,17.320874 Z" id="Path-94" fill="#C6A36A"></path>
            </g>
            <g id="Group-32" transform="translate(155.000000, 38.000000)">
                <path d="M88.5595703,250.875 C93.9430339,248.881836 97.9401042,248.415365 100.550781,249.475586 C104.466797,251.065918 104.37793,256.128221 103.323242,257.835252 C102.268555,259.542284 91.9130859,264.969727 88.5595703,264.969727 C85.2060547,264.969727 73.9033203,269.90048 71.2666016,263.336914 C72.7633464,257.539388 73.6422526,253.385417 73.9033203,250.875 L88.5595703,250.875 Z" id="Path-105" fill="#444444"></path>
                <g id="Path-101">
                    <use fill="black" fill-opacity="1" filter="url(#filter-32)" xlink:href="#path-31"></use>
                    <path stroke="#FFFFFF" stroke-width="4" d="M66.6479492,3.7229688 L66.6479492,49.0477779 C66.6479492,51.252477 68.0919866,53.1969739 70.202557,53.8343049 L121.717269,69.3902526 C122.245974,69.5499062 122.803999,69.2507308 122.963653,68.7220256 C122.991963,68.6282765 123.006348,68.5308774 123.006348,68.4329472 L123.006348,22.8952816 C123.006348,20.68357 121.553274,18.7346346 119.433581,18.1033087 L67.933396,2.76457422 C67.4040892,2.60692634 66.8472025,2.90821535 66.6895546,3.43752206 C66.6619635,3.53016014 66.6479492,3.62630916 66.6479492,3.7229688 Z" stroke-linejoin="square" fill="#F2E4B3" fill-rule="evenodd"></path>
                    <path stroke="#DCB11C" stroke-width="2" d="M65.6479492,3.7229688 L65.6479492,49.0477779 C65.6479492,51.6934168 67.3807941,54.0268131 69.9134785,54.7916103 L121.428191,70.347558 C122.485601,70.6668653 123.601651,70.0685145 123.920958,69.0111041 C123.977578,68.8236059 124.006348,68.6288076 124.006348,68.4329472 L124.006348,22.8952816 C124.006348,20.2412277 122.262659,17.9025052 119.719028,17.1449141 L68.2188427,1.80617965 C67.1602293,1.49088389 66.0464558,2.09346191 65.7311601,3.15207532 C65.6759777,3.33735147 65.6479492,3.52964951 65.6479492,3.7229688 Z" stroke-linejoin="square"></path>
                </g>
                <polygon id="Path-140" fill="#DCB11C" opacity="0.400000006" points="96.8827333 46.2828578 99.2541968 49.5278268 99.2541968 64.5674616 96.1206143 63.7006113"></polygon>
                <path d="M39.1386719,230.810547 C36.6367187,237.133464 36.2451172,240.917969 37.9638672,242.164063 C40.5419922,244.033203 45.078125,245.62793 47.5234375,242.164063 C49.96875,238.700195 51.4023438,239.391396 53.2617188,237.508686 C55.1210938,235.625977 58.1982422,228.600586 55.1210938,225.066406 C53.0696615,222.710286 47.7421875,224.625 39.1386719,230.810547 Z" id="Path-106" fill="#444444"></path>
                <g id="Group-39" transform="translate(37.000000, 148.000000)">
                    <g id="Group-40">
                        <mask id="mask-34" fill="white">
                            <use xlink:href="#path-33"></use>
                        </mask>
                        <use id="Path-104" fill="#888888" xlink:href="#path-33"></use>
                        <path d="M5.84472656,88.8295898 C6.72851562,84.4545898 10.3657227,77.7441406 11.3261719,73.5258789 C12.2866211,69.3076172 16.2348633,62.8139648 17.2060547,60.6645508 C18.1772461,58.5151367 21.2099609,49.21875 22.9882812,46.4345703 C24.7666016,43.6503906 28.0009766,40.390625 30.0258789,38.4599609 C31.3758138,37.1728516 33.9348958,34.0465495 37.703125,29.0810547 C31.3215359,81.1524661 28.2990749,106.808228 28.6357422,106.04834 C28.8874976,105.480105 44.0119711,111.163744 45.5488281,100.594238 C47.2061246,89.1964286 60.388341,65.7626069 58.9462891,49.8974952 C57.2291029,31.0054224 46.6298828,23.6074219 45.5488281,19.8642578 C43.9711238,14.4014389 45.1142578,12.2285156 48.7285156,11.5805664 C51.1380208,11.1486003 54.5439453,9.53889974 58.9462891,6.75146484 C57.4026693,4.82373047 55.3662109,3.85986328 52.8369141,3.85986328 C49.0429687,3.85986328 28.1186523,2.70947266 27.5180664,2.70947266 C26.9174805,2.70947266 21.7148437,-3.32666016 19.4604492,-3.32666016 C17.2060547,-3.32666016 14.1713867,-14.2504883 13.2211914,0.231445313 C12.2709961,14.7133789 -10.6181641,79.9482422 -9.32421875,84.7114258 C-8.03027344,89.4746094 0.579101562,91.5097656 1.26025391,91.5097656 C1.94140625,91.5097656 4.9609375,93.2045898 5.84472656,88.8295898 Z" id="Path-57" fill="#6A6A6A" mask="url(#mask-34)"></path>
                    </g>
                </g>
                <polygon id="Rectangle-47" fill="#C6A36A" points="89 45.2348633 95 47 95 121 89 121"></polygon>
                <polygon id="Rectangle-47-Copy-2" fill="#FFFFFF" points="89 45.2348633 95 47 96.762207 46.1982422 90.4345703 44.3891602"></polygon>
                <polygon id="Rectangle-47-Copy" fill="#B5945D" points="96.8613281 46.046875 95 47 95 121 96.8613281 119.344238"></polygon>
                <path d="M12.2695313,54.5405273 C12.2695313,54.5405273 12.2883301,52.2565918 11.3920898,50.940918 C10.4958496,49.6252441 6.5222168,46.0266113 5.52490234,43.6098633 C4.52758789,41.1931152 0.166748047,38.7033691 0.166748047,37.8833008 C0.166748047,37.0632324 1.1472168,36.2431641 1.79370117,37.0632324 C2.44018555,37.8833008 4.83163464,40.2341309 5.52490234,40.2341309 C6.21817005,40.2341309 6.20336914,39.1333008 5.52490234,38.3605957 C4.84643555,37.5878906 1.53369141,34.5168457 2.33496094,33.5837402 C3.13623047,32.6506348 3.84130859,33.6994629 4.16357422,34.0490723 C4.48583984,34.3986816 7.42504883,37.8833008 8.2487793,37.8833008 C9.07250977,37.8833008 9.68066406,37.6394043 9.40258789,37.0632324 C9.12451172,36.4870605 5.85131836,31.7094727 6.11694336,30.6196289 C6.38256836,29.5297852 7.31054687,30.2651367 7.67773438,30.6196289 C8.04492188,30.9741211 10.5146484,35.4641113 11.3920898,35.7373047 C12.2695313,36.010498 12.2695313,34.1181641 12.2695313,33.5837402 C12.2695313,33.0493164 11.6669922,27.6125488 12.2695313,27.0236816 C12.8720703,26.4348145 13.8691406,26.9506836 13.8691406,27.3051758 C13.8691406,27.659668 15.2819824,36.8193359 16.0910645,37.8833008 C16.3855758,38.2705912 17.4214637,38.3492188 18.1291504,37.8833008 C19.3656217,37.069248 20.4943155,35.2043121 21.328125,34.8037109 C22.6391602,34.1738281 23.704834,35.4533691 23.0610352,35.9880371 C22.4172363,36.5227051 19.3952637,39.7446289 19.0380859,41.9155273 C18.6809082,44.0864258 17.7412109,46.2851563 18.7319336,48.0737305 C19.3924154,49.2661133 19.9401042,50.3562826 20.375,51.3442383 C14.9713542,53.4750977 12.2695313,54.5405273 12.2695313,54.5405273 Z" id="Path-107" fill="#F9E2BD"></path>
                <g id="Group-34" transform="translate(89.000000, 84.000000)">
                    <mask id="mask-36" fill="white">
                        <use xlink:href="#path-35"></use>
                    </mask>
                    <use id="Path-99" fill="#F9E2BD" xlink:href="#path-35"></use>
                    <path d="M4.74658203,5.88891602 C4.37825521,6.87475586 4.37825521,7.91300456 4.74658203,9.00366211 C5.29907227,10.6396484 5.73266602,11.9250488 6.73071289,14.439209 C7.72875977,16.9533691 7.99975586,19.3095703 7.99975586,20.2143555 C7.99975586,21.1191406 6.58691406,24.4729004 4.74658203,24.4729004 C2.90625,24.4729004 -1.44873047,23.5100098 -2.75585938,19.345459 C-4.06298828,15.1809082 -4.06298828,7.7175293 -4.06298828,7.19921875 C-4.06298828,6.6809082 -1.08764648,4.06713867 -0.802490234,4.06713867 C-0.612386068,4.06713867 1.23730469,4.67439779 4.74658203,5.88891602 Z" id="Path-34" fill="#F4D098" mask="url(#mask-36)"></path>
                </g>
                <g id="Group-35" transform="translate(10.000000, 47.000000)">
                    <g id="Group-37">
                        <mask id="mask-38" fill="white">
                            <use xlink:href="#path-37"></use>
                        </mask>
                        <use id="Path-97" fill="#FCF2D0" xlink:href="#path-37"></use>
                        <path d="M76.3828125,75.7607422 C79.3447266,78.1962891 85.3066406,88.0722656 91.6157227,91.1411133 C97.2947087,93.9034713 100.52002,87.2358398 100.52002,83.0400391 C100.52002,78.8442383 102.594473,60.4363111 104.956055,85.175293 C105.289947,88.6730122 104.341379,94.3509093 102.110352,102.208984 C92.5488281,100.687826 86.5403646,98.2613932 84.0849609,94.9296875 C82.8339446,93.2321994 80.2701019,99.5728007 79.2563477,104.578125 C78.5463867,108.083496 85.3164706,105.932313 83.2075195,108.203125 C81.1931363,110.372111 69.7911927,117.02684 68.8442383,115.181152 C66.5922252,110.791805 76.4799805,92.4038086 70.6254883,75.7607422 C69.2683344,71.9026447 73.4208984,73.3251953 76.3828125,75.7607422 Z" id="Path-35" fill="#EAD797" opacity="0.5" mask="url(#mask-38)"></path>
                        <path d="M86.940918,55.5302734 C86.1658529,54.5686849 86.3629557,55.6928711 87.5322266,58.902832 C89.2861328,63.7177734 90.5014648,71.0375977 91.2211914,75.4750977 C91.940918,79.9125977 92.0336421,84.253418 90.5014648,82.065918 C88.9692876,79.878418 83.8847656,70.7809758 83.8847656,69.8525391 C83.8847656,69.439298 82.717153,65.5915649 82.0283203,62.331543 C81.1695394,58.2672113 80.7844444,54.6446761 81.1962891,54.2583008 C81.6910807,53.7941081 83.605957,54.218099 86.940918,55.5302734 Z" id="Path-39" fill="#EAD797" opacity="0.5" mask="url(#mask-38)"></path>
                        <path d="M4.81005859,3.00976562 C4.81005859,3.62011719 12.5571289,27.5083008 16.6044922,33.5834961 C20.6518555,39.6586914 29.9658203,45.0761719 32.0214844,48.4990234 C34.0771484,51.921875 42.512207,47.4106445 42.512207,48.4990234 C42.512207,49.5874023 62.5854492,51.9897461 60.9379883,52.90625 C59.2905273,53.8227539 52.8383789,55.3955078 51.159668,58.2304688 C49.480957,61.0654297 48.9116211,63.0732422 56.1000977,72.7524414 C60.2936444,78.3990028 61.2408441,85.44939 61.3021906,91.2216553 C61.3460029,95.3440677 67.7871094,103.036157 72.9199219,92.7822266 C75.0818446,88.4633068 73.1622889,108.440478 70.1083984,111.537109 C65.7902028,115.915741 57.9730452,111.537109 57.6518555,111.537109 C57.1035156,111.537109 31.9633789,103.338867 30.0380859,99.2397461 C28.112793,95.140625 18.8637695,75.0126953 17.4462891,72.7524414 C16.0288086,70.4921875 -4.85253906,18.112793 -4.85253906,16.9907227 C-4.85253906,15.8686523 -4.45898438,3.00976562 -3.82470703,3.00976562 C-3.19042969,3.00976562 4.81005859,2.39941406 4.81005859,3.00976562 Z" id="Path-55" fill="#EAD797" opacity="0.5" mask="url(#mask-38)"></path>
                    </g>
                </g>
                <path d="M86.909668,85.6186523 C85.90625,85.6186523 85.1455078,85.4511719 85.1455078,86.8759766 C85.1455078,88.3007812 87.6635742,88.7338867 87.6635742,90.6049805 C87.6635742,92.4760742 88.7514648,96.4467773 90.112793,96.4467773 C91.4741211,96.4467773 93.5419922,91.1660156 93.5419922,90.6049805 C93.5419922,90.0439453 93.3779297,90.9838867 91.0507812,90.0439453 C88.7236328,89.1040039 87.9130859,85.6186523 86.909668,85.6186523 Z" id="Path-100" fill="#F4D098"></path>
                <g id="Group-38" transform="translate(47.000000, 70.000000)">
                    <mask id="mask-40" fill="white">
                        <use xlink:href="#path-39"></use>
                    </mask>
                    <use id="Path-102" fill="#F9E2BD" xlink:href="#path-39"></use>
                    <path d="M20.3710938,15.1492188 C18.3484375,19.8515625 18.3484375,17.559375 18.3484375,21.8007813 C18.3484375,26.0421875 20.5695312,29.5210938 21.4320313,29.5210938 C22.2945313,29.5210938 20.7195313,39.8375 15.6710938,39.8375 C10.6226563,39.8375 -11.5226562,52.5695313 -10.4617187,33.859375 C-9.40078125,15.1492188 -13.9929687,3.2125 -1.8328125,4.49921875 C10.3273438,5.7859375 22.39375,10.446875 20.3710938,15.1492188 Z" id="Path-56" fill="#F4D098" mask="url(#mask-40)"></path>
                </g>
                <path d="M67.3369141,72.0458984 C67.3369141,73.2841797 65.7583008,74.9672852 65.7583008,76.4946289 C65.7583008,78.0219727 68.3056641,80.315918 68.3056641,83.2055664 C68.3056641,86.0952148 68.4350586,86.8154297 65.7583008,88.9145508 C63.081543,91.0136719 63.081543,91.1953125 63.081543,93.3549805 C63.081543,95.5146484 64.4443359,97.6040039 59.4072266,97.0639648 C54.3701172,96.5239258 47.4106445,90.25 45.3242187,87.9785156 C43.237793,85.7070312 41.1030273,81.4204102 44.6455078,74.1303711 C48.1879883,66.840332 56.0517578,69.0302734 57.8974609,64.4375 C59.0786133,61.7304687 60.5800781,62.2792969 63.8793945,62.8598633 C65.8178711,64.6933594 65.0761719,68.8452148 66.690918,69.8706055 C68.3056641,70.8959961 67.3369141,70.8076172 67.3369141,72.0458984 Z" id="Path-103" fill="#717171"></path>
            </g>
            <g id="Group-49" transform="translate(70.000000, 95.000000)">
                <path d="M24.4956055,27.3652344 C24.353735,28.0444578 24.353735,28.76923 24.4956055,29.5395508 C24.7084112,30.695032 26.1186523,32.1728516 27.527832,32.1728516 C28.9370117,32.1728516 32.2109375,31.4702148 32.7880859,31.4702148 C33.3652344,31.4702148 35.7651367,31.0085449 35.7651367,30.2226563 C35.7651367,29.4367676 36.8374023,28.0297852 36.3012695,27.3652344 C35.7651367,26.7006836 36.5268555,25.7626953 35.1992187,25.2446289 C34.3141276,24.8992513 30.7462565,25.6061198 24.4956055,27.3652344 Z" id="Path-122" fill="#1E1E1E"></path>
                <path d="M31.0869141,8.4519043 L54.3010254,0.625 C62.4255371,5.31705729 64.6954753,12.0680339 61.1108398,20.8779297 C58.2625326,21.4977214 50.4125163,23.3860677 37.560791,26.5429688 L31.0869141,8.84912109 L31.0869141,8.4519043 Z" id="Path-120" fill="#868686"></path>
                <path d="M29.5117188,10.4641113 C30.2205404,8.26619466 31.3690592,7.79622396 32.9572754,9.05419922 C35.3395996,10.9411621 40.0612793,15.8581543 38.9848633,24.6130371 C38.5710049,27.1395812 36.3652813,27.3058985 34.6582031,24.6130371 C33.6192836,22.9741747 31.9037888,18.2578661 29.5117188,10.4641113 Z" id="Path-119" fill="#161616"></path>
                <path d="M2.40332031,20.1259766 L31.6640625,9.62402344 C36.3027344,13.1328125 38.2464193,18.4436849 37.4951172,25.5566406 C37.5654297,25.7623698 27.1893717,28.2011312 6.36694336,32.8729248 C6.64331055,30.4556885 6.39868164,28.0904948 5.63305664,25.7773438 C4.86743164,23.4641927 3.79085286,21.5804036 2.40332031,20.1259766 Z" id="Path-116" fill="#494949"></path>
                <path d="M4.67260742,19.3430176 C7.88761393,22.865153 9.15852865,27.2176921 8.48535156,32.4006348" id="Path-117" stroke="#FFFFFF" stroke-linecap="round" stroke-linejoin="round"></path>
                <path d="M8.45288086,20.6860352 L31.6108398,12.3696289" id="Path-118" stroke="#979797"></path>
                <path d="M33.6970215,7.59741211 C39.6983236,12.1346842 41.8500163,18.1751302 40.1520996,25.71875" id="Path-121" stroke="#FFFFFF" opacity="0.900000036" stroke-linecap="round" stroke-linejoin="round"></path>
                <ellipse id="Oval-5" fill="#1E1E1E" transform="translate(4.309622, 26.551536) rotate(-17.500000) translate(-4.309622, -26.551536) " cx="4.30962201" cy="26.551536" rx="1.90237598" ry="6.65831593"></ellipse>
                <polygon id="Path-123-Copy" fill="#5B5B5B" points="32.5351562 30.6186523 27.2692871 97.7905273 25.4692383 98.3154297 31.6298828 30.6186523"></polygon>
                <polygon id="Path-123" fill="#868686" points="30.0200195 30.6186523 22.003418 97.6967773 25.4692383 98.3154297 31.6298828 30.6186523"></polygon>
                <path d="M32.5478516,30.1918945 L62.4067383,86.4008789 L63.6620374,85.0245075 C64.2425533,84.3880015 64.3502637,83.4512891 63.9293695,82.6996332 L34.5273438,30.1918945 L32.5478516,30.1918945 Z" id="Path-124" fill="#868686"></path>
                <path d="M32.5478516,30.1918945 L62.4067383,86.4008789 L60.9495926,86.4008789 C60.1932458,86.4008789 59.5015997,85.974212 59.1622272,85.298278 L31.831543,30.8632812 L32.5478516,30.1918945 Z" id="Path-124-Copy" fill="#5B5B5B"></path>
                <path d="M27.0419922,30.1508789 L16.4073563,74.129154 C16.151866,75.1857039 16.7870194,76.2528734 17.8375413,76.5321164 L17.9702148,76.5673828 L19.2548508,75.9380672 C19.813535,75.6643798 20.213045,75.146296 20.3357244,74.5363922 L29.2636719,30.1508789 L28.578125,30.8232422 L27.0419922,30.1508789 Z" id="Path-125" fill="#1E1E1E"></path>
            </g>
            <ellipse id="Oval-24" fill="#878787" cx="247" cy="88.5" rx="1" ry="1.5"></ellipse>
            <g id="Group-48" transform="translate(67.000000, 166.000000)">
                <path d="M49.820731,82.3145125 L83.4087535,98.1654579 C83.908214,98.4011646 84.5041848,98.1873498 84.7398915,97.6878893 C84.9039643,97.3402204 84.8542055,96.9292757 84.6118966,96.630813 L44.1015625,46.7324219" id="Path-130" stroke="#5B5B5B" stroke-width="2.57400013" stroke-linecap="round" stroke-linejoin="round"></path>
                <path d="M4.85714286,40.8165662 L4.85714286,59.5602551" id="Path-126" stroke="#5B5B5B" stroke-width="2.57400013" stroke-linecap="round" stroke-linejoin="round"></path>
                <path d="M4.84873047,59.678069 L45.9639016,116.026895 C46.9405002,117.365335 48.8172096,117.658665 50.1556494,116.682066 C50.4277697,116.483513 50.6645062,116.240546 50.8559261,115.963361 L88.6294643,61.2655008 L48.4441334,87.916108 C47.4156438,88.5981945 46.0743796,88.5808498 45.063872,87.8723957 L4.84873047,59.678069 Z" id="Path-128" stroke="#5B5B5B" stroke-width="2.57400013" stroke-linecap="round" stroke-linejoin="round"></path>
                <path d="M1,39.2322167 C2.83984375,37.4345703 35.5994001,25.8655588 39.9813756,24.52655 C44.363351,23.1875412 47.7345843,23.288124 51.3600725,24.52655 C54.9855608,25.764976 57.0811244,30.7548269 52.5597796,30.7548269 C48.0384347,30.7548269 12.6743862,45.739467 6.83719308,45.739467 C1,45.739467 -0.83984375,41.0298631 1,39.2322167 Z" id="Path-131-Copy" fill="#D5AC00"></path>
                <path d="M50.1120257,82.4402411 L6.17984812,96.8918165 C5.65521931,97.0643942 5.09002178,96.7790003 4.91744411,96.2543715 C4.81071843,95.92993 4.87696052,95.5734568 5.09311618,95.3090151 L45.5517578,45.8125" id="Path-129" stroke="#5B5B5B" stroke-width="2.57400013" stroke-linecap="round" stroke-linejoin="round"></path>
                <path d="M44.7850474,46.0531594 C54.019495,51.8143859 69.1357422,55.9229682 90.1337891,58.3789062 C90.2258222,63.5483635 76.7316351,71.434698 49.6512277,82.0379098 C32.7762742,82.6241177 18.0544085,75.2331131 5.48563058,59.8648962 C20.6237444,65.924173 33.72355,61.3202607 44.7850474,46.0531594 Z" id="Path-127-Copy" fill="#D5AC00"></path>
                <path d="M5.55894252,2.05532483 C19.0098819,14.699757 33.7073103,21.0219732 49.6512277,21.0219732 C49.7892774,28.776159 44.4457224,43.4613117 44.527832,50.979597 C44.6081797,58.3365557 46.3159783,68.6893267 49.6512277,82.0379098 C32.7762742,82.6241177 18.0544085,75.2331131 5.48563058,59.8648962 C10.9181083,41.2264804 10.9425456,21.9566232 5.55894252,2.05532483 Z" id="Path-127" fill="#EDC001"></path>
                <path d="M97.8429827,44.7616284 C95.1162807,44.0072573 92.6921735,45.0623291 90.5706613,47.9268441 C88.449149,50.791359 87.3459124,54.5770449 87.2609515,59.2839019" id="Path-132" stroke="#5B5B5B" stroke-width="2.57400013" stroke-linecap="round" stroke-linejoin="round"></path>
                <path d="M49.8571429,62.2335574 L49.8571429,81.8049425" id="Path-126-Copy" stroke="#5B5B5B" stroke-width="2.57400013" stroke-linecap="round" stroke-linejoin="round"></path>
                <path d="M45.3960658,58.9849027 C68.4623326,48.0737974 81.4561244,42.1719085 84.3774414,41.279236 C88.7594169,39.9402272 92.1306501,40.04081 95.7561384,41.279236 C99.3816267,42.517662 101.47719,47.5075129 96.9558454,47.5075129 C92.4345006,47.5075129 57.070452,66.492153 51.2332589,66.492153 C47.3417969,66.492153 45.3960658,63.9897362 45.3960658,58.9849027 Z" id="Path-131" fill="#EDC001"></path>
                <path d="M49.8571429,62.2335574 L49.8571429,22.3581265" id="Path-126-Copy-2" stroke="#5B5B5B" stroke-width="2.57400013" stroke-linecap="round" stroke-linejoin="round"></path>
                <path d="M4.85714286,41.5482532 L4.85714286,0.453255615" id="Path-126-Copy-3" stroke="#5B5B5B" stroke-width="2.57400013" stroke-linecap="round" stroke-linejoin="round"></path>
            </g>
        </g>
    </g>
</svg>