<svg width="458px" height="241px" xmlns="http://www.w3.org/2000/svg" xmlns:xlink="http://www.w3.org/1999/xlink">
  <defs>
    <path d="M6 0h446a6 6 0 0 1 6 6v314a6 6 0 0 1-6 6H6a6 6 0 0 1-6-6V6a6 6 0 0 1 6-6z" id="a"/>
    <path d="M30 0h519a30 30 0 0 1 30 30v181a30 30 0 0 1-30 30H12a12 12 0 0 1-12-12V30A30 30 0 0 1 30 0z" id="c"/>
  </defs>
  <g transform="translate(0 -46)" fill="none" fill-rule="evenodd">
    <mask id="b" fill="#fff">
      <use xlink:href="#a"/>
    </mask>
    <g mask="url(#b)">
      <g transform="translate(0 46)">
        <mask id="d" fill="#fff">
          <use xlink:href="#c"/>
        </mask>
        <use fill="#2A2A2A" xlink:href="#c"/>
        <path d="M51 43h514c5 0 9 4 9 9v284c0 5-4 9-9 9H51c-5 0-9-4-9-9V52c0-5 4-9 9-9z" fill="#FFF" mask="url(#d)"/>
      </g>
    </g>
    <rect fill="#EDC001" mask="url(#b)" x="68" y="183" width="122" height="48" rx="24"/>
    <rect fill="#E9E9E9" mask="url(#b)" x="68" y="120" width="122" height="48" rx="24"/>
    <path d="M127.7 212.2h3v-9.5l-2.1 1.7-.3.2h-.3a.8.8 0 0 1-.6-.3l-.8-1 4.5-3.8h2v12.7h2.6v1.8h-8v-1.8zm15-12.8c.6 0 1.2 0 1.8.3.5.2 1 .4 1.4.8a3.8 3.8 0 0 1 1.2 3c0 .5 0 1-.2 1.5l-.6 1.3-1 1.2-1 1.2-3.3 3.3a7.9 7.9 0 0 1 1.8-.3h3.7c.3 0 .5 0 .6.2l.3.6v1.5h-10v-.8a1.4 1.4 0 0 1 .5-1l4.4-4.4a20.8 20.8 0 0 0 1.7-2.1l.4-1 .2-1.1c0-.4 0-.7-.2-1a1.8 1.8 0 0 0-1-1l-1-.1c-.5 0-1 .1-1.4.4-.4.3-.6.7-.8 1.2 0 .3-.2.5-.3.6a1 1 0 0 1-.6.1 2 2 0 0 1-.3 0l-1.3-.2c0-.7.3-1.3.6-1.9a4.4 4.4 0 0 1 2.5-2l1.8-.3zm11.3 14.8c-.7 0-1.4-.1-2-.3-.7-.2-1.2-.5-1.6-.9a3.8 3.8 0 0 1-1.4-3c0-1 .2-1.6.6-2.2.4-.6 1-1 2-1.3-.7-.3-1.3-.7-1.6-1.3-.4-.5-.5-1.2-.5-2a3.5 3.5 0 0 1 1.2-2.7c.4-.4 1-.6 1.5-.8.5-.2 1.1-.3 1.8-.3s1.3 0 1.8.3a3.8 3.8 0 0 1 2.4 2c.2.5.3 1 .3 1.6 0 .7-.1 1.4-.5 2-.3.5-.9.9-1.6 1.2a3 3 0 0 1 2 1.3c.4.6.6 1.3.6 2.1a3.8 3.8 0 0 1-1.4 3c-.4.5-1 .8-1.6 1-.6.2-1.3.3-2 .3zm0-2l1-.1.8-.5c.3-.2.4-.5.5-.8l.2-.9c0-.8-.2-1.4-.7-1.8-.4-.4-1-.6-1.8-.6s-1.4.2-1.8.6c-.5.4-.7 1-.7 1.8 0 .3 0 .6.2 1a2 2 0 0 0 1.2 1.2l1.1.1zm0-6.6l1-.2a1.8 1.8 0 0 0 1-1.3l.1-.8-.1-.8c0-.2-.2-.4-.4-.6l-.7-.5-.9-.2-1 .2a1.8 1.8 0 0 0-1 1.1l-.1.8v.8l.4.8.7.5 1 .2z" fill="#FFF" mask="url(#b)"/>
    <path d="M86.2 145.3v5.7h-2.7v-14.5H88c1 0 1.8.1 2.5.3a4 4 0 0 1 1.7.9c.5.4.8.8 1 1.3.2.5.3 1 .3 1.7a4.4 4.4 0 0 1-.8 2.6l-1 .9c-.4.3-.9.5-1.4.6.4.2.7.5 1 .9l3.5 5.3h-2.4l-.6-.1-.4-.4-3-4.7a1 1 0 0 0-.4-.3l-.6-.2h-1.2zm0-1.9H88c.5 0 1 0 1.3-.2l1-.5.5-.8.2-1a2 2 0 0 0-.7-1.7c-.5-.4-1.2-.6-2.2-.6h-1.8v4.8zm14.5-2.8a5 5 0 0 1 1.7.3 4 4 0 0 1 2.4 2.4 5.5 5.5 0 0 1 .3 2.4l-.1.3-.2.1h-6.6c0 1.1.3 2 .8 2.4.5.5 1.2.7 2 .7l1-.1c.3 0 .6-.2.8-.3l.6-.3.4-.2.3.1.2.2.7.9-1 .8a5.2 5.2 0 0 1-2.1.8 8 8 0 0 1-1.1 0c-.7 0-1.4 0-2-.3-.6-.2-1.2-.6-1.6-1a5 5 0 0 1-1-1.8 6.7 6.7 0 0 1-.1-4.3c.2-.6.5-1.2 1-1.6.4-.5.9-.9 1.5-1.1.6-.3 1.3-.4 2-.4zm0 1.8c-.7 0-1.3.2-1.7.6a3 3 0 0 0-.8 1.7h4.7c0-.3 0-.6-.2-1a2 2 0 0 0-.4-.7l-.6-.5-1-.2zm14.5 8.6H114l-.5-.1-.3-.4-.2-.8a8.5 8.5 0 0 1-1.6 1.1 4 4 0 0 1-.8.3 5.1 5.1 0 0 1-2.2-.1l-1-.5-.6-1a3 3 0 0 1-.2-1.1l.3-1.2c.2-.3.5-.7 1-1a13.4 13.4 0 0 1 4.8-1v-.7c0-.7-.1-1.2-.4-1.5-.3-.3-.7-.5-1.3-.5a3 3 0 0 0-1.7.5c-.2 0-.3.2-.5.3l-.5.1-.5-.1a1 1 0 0 1-.3-.3l-.4-.8a6 6 0 0 1 4.3-1.6c.6 0 1 0 1.6.2a3.4 3.4 0 0 1 1.9 2.1c.2.5.3 1 .3 1.6v6.5zm-4.9-1.5l.8-.1a2.7 2.7 0 0 0 1.1-.6l.5-.5v-1.7l-1.8.2c-.4 0-.8.2-1.1.3l-.7.5a1 1 0 0 0-.1.7c0 .4 0 .7.3.9.3.2.6.3 1 .3zm14.5 1.5c-.3 0-.5-.1-.6-.4l-.2-1-.7.6a4.2 4.2 0 0 1-1.6.8l-1 .2a3.4 3.4 0 0 1-2.8-1.4c-.3-.5-.6-1-.8-1.7a8.3 8.3 0 0 1 0-4.3l1-1.7a3 3 0 0 1 1.4-1.1 4 4 0 0 1 1.8-.4 3.6 3.6 0 0 1 2.5 1V136h2.5v15h-1.5zm-3.3-1.8a2.5 2.5 0 0 0 2.3-1.3v-4.5a2.4 2.4 0 0 0-2-1l-1 .2a2 2 0 0 0-.7.7l-.5 1-.2 1.6c0 .6 0 1.1.2 1.5 0 .4.2.8.4 1l.6.6 1 .2zM133 151v-14.9h2.4v5.9l1.4-1a4 4 0 0 1 3.4 0 3.5 3.5 0 0 1 1.9 2.6 8.2 8.2 0 0 1 0 4.3c-.2.7-.5 1.2-.9 1.7a4 4 0 0 1-3.2 1.6 3.6 3.6 0 0 1-1.6-.4 3 3 0 0 1-.6-.4l-.5-.6-.1.7-.2.4-.4.1H133zm4.8-8.5a2.5 2.5 0 0 0-2.3 1.3v4.5a2.4 2.4 0 0 0 2 1l1-.2.7-.7.5-1 .2-1.6c0-.6 0-1.1-.2-1.5a3 3 0 0 0-.4-1c-.2-.3-.4-.5-.7-.6a2 2 0 0 0-.8-.2zm11-2c.7 0 1.4.2 2 .4a4.5 4.5 0 0 1 2.6 2.8c.3.6.4 1.3.4 2.2 0 .8-.1 1.5-.4 2.2a4.4 4.4 0 0 1-2.6 2.7 5.7 5.7 0 0 1-4.2 0 4.5 4.5 0 0 1-2.6-2.7c-.2-.7-.4-1.4-.4-2.3 0-.8.2-1.5.4-2.1.2-.7.6-1.2 1-1.7a4 4 0 0 1 1.6-1c.7-.3 1.4-.4 2.1-.4zm0 8.8c.8 0 1.4-.3 1.8-1 .4-.5.6-1.3.6-2.4 0-1.1-.2-2-.6-2.6-.4-.5-1-.8-1.9-.8-.8 0-1.5.3-1.9.8-.4.6-.6 1.5-.6 2.6 0 1 .2 2 .6 2.5.4.6 1 .8 2 .8zm11.3-8.7a4.5 4.5 0 0 1 4.7 3c.2.7.4 1.4.4 2.3 0 .8-.2 1.5-.4 2.2-.3.6-.6 1.2-1 1.6a4 4 0 0 1-1.6 1c-.6.3-1.3.5-2.1.5s-1.5-.2-2.1-.4a4.5 4.5 0 0 1-2.6-2.8c-.3-.6-.4-1.3-.4-2.2 0-.8.1-1.5.4-2.1.2-.7.6-1.2 1-1.7s1-.8 1.6-1c.6-.3 1.3-.4 2-.4zm0 8.7c.8 0 1.5-.3 1.9-1 .4-.5.6-1.3.6-2.4 0-1.1-.2-2-.6-2.6-.4-.5-1-.8-2-.8-.8 0-1.4.3-1.8.8-.4.6-.7 1.5-.7 2.6 0 1 .3 2 .7 2.5.4.6 1 .8 1.9.8zm9.5-13.2v8.6h.4l.4-.1.3-.3 2.6-3.1c0-.2.2-.3.3-.3l.5-.2h2.3l-3.2 3.9-.3.3-.4.3.3.4.4.4 3.4 5h-2.3a1 1 0 0 1-.4-.1 1 1 0 0 1-.4-.3l-2.6-4a.8.8 0 0 0-.3-.2l-.5-.1h-.5v4.7H167v-14.9h2.5z" fill="#2A2A2A" mask="url(#b)"/>
    <path fill="#FFF" mask="url(#b)" d="M105.5 198l10.5 16H95z"/>
    <path d="M106.8 249.3l1.1-.2a2.3 2.3 0 0 0 1.4-1.5l.2-1.2v-7h2.1v7c0 .6 0 1.3-.3 1.9a4.3 4.3 0 0 1-2.5 2.5 6 6 0 0 1-2 .3c-.7 0-1.4 0-2-.3a4.3 4.3 0 0 1-2.4-2.5c-.3-.6-.4-1.3-.4-2v-6.9h2.2v7c0 .4 0 .8.2 1.2 0 .3.3.6.5.9l.8.6 1.1.2zm6.9 4.4v-11h1.2l.3.2c.1 0 .2.1.2.3l.2.7 1.1-1a3.1 3.1 0 0 1 2.8 0l1 .8.5 1.3a6.6 6.6 0 0 1 0 3.5l-.7 1.4a3.3 3.3 0 0 1-3.8 1c-.3-.1-.6-.3-.8-.6v3.4h-2zm3.8-9.5a2 2 0 0 0-1 .3 3 3 0 0 0-.8.7v3.7a1.9 1.9 0 0 0 1.6.7c.3 0 .5 0 .8-.2.2 0 .4-.2.6-.5l.4-.8.1-1.3-.1-1.2c0-.3-.2-.6-.3-.8l-.6-.5-.7-.1zm9.4 6.8H125l-3.3-8.2h1.6l.4.1.2.3 1.6 4.3a8.2 8.2 0 0 1 .4 1.5 14.6 14.6 0 0 1 .4-1.5l1.6-4.3.2-.3.4-.1h1.5l-3 8.2zm7.9-8.3c.6 0 1.2 0 1.7.3a3.6 3.6 0 0 1 2 2.1c.2.6.3 1.1.3 1.8a5 5 0 0 1-.2 1.7c-.2.6-.5 1-.9 1.4-.3.3-.7.6-1.2.8-.5.2-1 .3-1.7.3-.6 0-1.2 0-1.7-.3a3.6 3.6 0 0 1-2-2.2 5 5 0 0 1-.4-1.7c0-.7.1-1.2.3-1.8l.8-1.3a4.3 4.3 0 0 1 3-1.1zm0 6.9c.7 0 1.2-.2 1.5-.7.3-.4.5-1.1.5-2 0-.9-.2-1.6-.5-2-.3-.5-.8-.7-1.5-.7s-1.2.2-1.5.7c-.4.4-.5 1.1-.5 2 0 .9.1 1.5.5 2 .3.5.8.7 1.5.7zm8.3 1.5c-.7 0-1.3-.2-1.7-.6-.3-.4-.5-1-.5-1.6v-4.6h-.9l-.2-.1-.2-.3v-.8l1.4-.2.4-2.3.1-.2.3-.1h1v2.6h2.2v1.4h-2.2v4.4l.2.6c.2.2.3.2.5.2h.4a1.7 1.7 0 0 0 .3-.2h.3l.1.1.6 1a3 3 0 0 1-1 .5c-.3.2-.7.2-1.1.2zm6.9-8.4c.5 0 1 0 1.4.2a3.1 3.1 0 0 1 1.9 1.9 4.4 4.4 0 0 1 .2 2v.2l-.2.1H148c0 .9.3 1.5.7 1.9.4.4.9.6 1.5.6l.9-.1.6-.3.4-.2.4-.1h.2l.2.2.5.7-.7.6a4.1 4.1 0 0 1-1.7.7h-1c-.5 0-1 0-1.5-.3-.5-.2-1-.4-1.3-.8a4 4 0 0 1-.9-1.4 5.3 5.3 0 0 1 0-3.5c.2-.5.4-.9.8-1.2a4 4 0 0 1 1.2-1 4 4 0 0 1 1.7-.2zm0 1.4c-.6 0-1 .1-1.3.5-.4.3-.6.8-.7 1.4h3.7v-.8l-.4-.6-.5-.4-.8-.1z" fill="#363636" mask="url(#b)"/>
    <g mask="url(#b)">
      <g fill="#2A2A2A" transform="translate(321 124)">
        <rect opacity="0.049999997" x="105" y="32" width="73" height="24" rx="4"/>
        <path d="M115 45v4h-2V38.9h3.2c.7 0 1.3 0 1.7.2.5.1 1 .3 1.3.6.3.2.5.6.7 1l.2 1a3 3 0 0 1-.6 1.9 3 3 0 0 1-.7.6l-1 .5c.3.1.5.3.7.6L121 49h-1.7l-.4-.1a.9.9 0 0 1-.3-.3l-2.1-3.2-.3-.3a1 1 0 0 0-.4 0h-.8zm0-1.3h1.1l1-.1.6-.4.4-.6.1-.7c0-.5-.1-.9-.5-1.2-.3-.2-.8-.4-1.5-.4H115v3.4zm10.2-2c.5 0 1 0 1.4.3a3.1 3.1 0 0 1 1.8 1.9 4.4 4.4 0 0 1 0 3c-.1.5-.4.9-.7 1.2-.3.3-.6.6-1 .7a4 4 0 0 1-1.5.3c-.6 0-1 0-1.5-.3a3.1 3.1 0 0 1-1.8-1.9 4.4 4.4 0 0 1 0-3c.1-.5.4-.9.7-1.2.3-.3.7-.6 1.1-.7a4 4 0 0 1 1.5-.3zm0 6c.6 0 1-.1 1.3-.5.3-.4.4-1 .4-1.8a3 3 0 0 0-.4-1.8c-.3-.4-.7-.6-1.3-.6-.6 0-1 .2-1.4.6a3 3 0 0 0-.4 1.8c0 .8.1 1.4.4 1.8.3.4.8.6 1.4.6zM130 49v-7.2h1c.2 0 .4.1.5.3v.6l.5-.4a2.5 2.5 0 0 1 .9-.5h.6c.4 0 .8 0 1.1.3.3.2.5.5.7 1a2.2 2.2 0 0 1 1-1c.1-.2.4-.3.6-.3a3 3 0 0 1 1.7 0l.8.6c.2.3.4.5.5.9l.1 1.1V49h-1.7v-4.6c0-.4 0-.8-.3-1-.2-.2-.5-.4-.9-.4l-.5.1a1.2 1.2 0 0 0-.6.7l-.1.6V49h-1.8v-4.6c0-.5 0-.8-.3-1-.2-.2-.4-.4-.8-.4l-.7.2-.6.5V49H130zm17.4 0h-1.1l-.2-.4-.2-.5a6 6 0 0 1-1 .8l-.6.1a3.6 3.6 0 0 1-1.6 0c-.2 0-.4-.2-.6-.4a1 1 0 0 1-.5-.6l-.1-.8c0-.3 0-.6.2-.8.1-.3.4-.5.7-.7.3-.3.8-.4 1.3-.6l2-.2v-.4c0-.5 0-.9-.2-1.1-.2-.2-.5-.4-1-.4a2.1 2.1 0 0 0-1 .4l-.5.2h-.7l-.2-.2-.3-.6c.8-.7 1.8-1.1 3-1.1.4 0 .8 0 1.1.2a2.4 2.4 0 0 1 1.4 1.4l.2 1.2V49zm-3.4-1l.5-.1a1.9 1.9 0 0 0 .8-.4l.4-.4V46l-1.3.2-.8.2a1 1 0 0 0-.4.3l-.2.5c0 .3.1.5.3.6.2.2.4.2.7.2zm5 1v-7.2h1.1c.3 0 .4.1.5.3v.6a4 4 0 0 1 1-.7 2.6 2.6 0 0 1 1.3-.3c.4 0 .7 0 1 .2.4.1.6.3.8.6l.5.8.1 1.1V49h-1.7v-4.6c0-.4-.1-.7-.3-1-.2-.2-.5-.4-1-.4l-.8.3a3 3 0 0 0-.7.5V49h-1.7zm13-5.7v.2h-.5a8.3 8.3 0 0 0-.8-.4 2 2 0 0 0-.6 0h-.8l-.5.6-.4.7v2l.4.8c.1.2.3.3.6.4l.7.2a1.8 1.8 0 0 0 1-.3l.4-.3h.3l.3.1.5.6a3.1 3.1 0 0 1-1.3 1l-.8.1-.7.1c-.5 0-.9 0-1.3-.2a3 3 0 0 1-1-.8l-.7-1.1a4.6 4.6 0 0 1 0-3c.1-.5.3-1 .6-1.2a3 3 0 0 1 1.1-.8l1.5-.3c.6 0 1 0 1.4.3.4.1.8.4 1.1.7l-.4.6zm4.7-1.6c.4 0 .8 0 1.2.2a2.7 2.7 0 0 1 1.7 1.7 3.9 3.9 0 0 1 .2 1.7l-.1.2h-.1l-.2.1H165c.1.8.3 1.3.6 1.6.4.4.8.6 1.4.6l.7-.1.6-.2.4-.3h.5l.1.1.5.6-.6.6a3.6 3.6 0 0 1-1.6.5l-.7.1c-.5 0-1 0-1.4-.2-.5-.2-.8-.5-1.2-.8-.3-.3-.5-.7-.7-1.2a4.7 4.7 0 0 1 0-3c.1-.5.3-.8.6-1.2l1.1-.7 1.5-.3zm0 1.2c-.5 0-.9.2-1.2.5-.3.3-.4.7-.5 1.2h3.2v-.7l-.3-.5-.5-.3-.7-.2zM5.2 15.3c.5 0 .9-.1 1-.4.2-.3.3-.8.3-1.4V2.7h-2a2 2 0 0 0-1.8.9 5 5 0 0 0-.5 2.6h-.8L1.6 2h11.6l.1 4.2h-.7c0-.8-.1-1.5-.3-2a2 2 0 0 0-.8-1.1c-.3-.3-.8-.4-1.5-.4H8.3v11l-.1 1.5h1.7v.8H5.2v-.7zm9.3.1c.4 0 .6-.1.8-.3.2-.2.3-.4.3-.7V3.5l.1-1.3h-1.4v-.8l1.7-.1c.4 0 .6-.2.8-.4h.6V7L19 6a5 5 0 0 1 1.7-.3c1.1 0 2 .3 2.5 1 .5.8.8 2 .8 3.5v5h1.2v.8H21v-.6c.4 0 .7-.1.8-.3.2-.2.3-.4.3-.7v-4.2c0-1.2-.1-2-.5-2.6-.3-.6-.9-.9-1.7-.9-.5 0-1 .2-1.4.4-.5.2-1 .5-1.2.9v5.9l-.1 1.3h1.3v.8h-4.1v-.6zm17 1c-1 0-1.7-.3-2.5-.7-.7-.5-1.3-1-1.7-1.9a5 5 0 0 1-.7-2.8c0-1 .2-1.8.7-2.6a5 5 0 0 1 1.8-2 4.7 4.7 0 0 1 4.6-.2c.6.3 1.1.8 1.5 1.5.3.6.5 1.4.5 2.4l-7 .1a7 7 0 0 0 .8 3.8c.5.9 1.3 1.3 2.5 1.3.6 0 1.2-.2 1.9-.5a4 4 0 0 0 1.5-1.2l.4.4c-.5.8-1.1 1.4-2 1.8a6 6 0 0 1-2.3.5zm2.3-7c0-.8-.1-1.5-.5-2-.4-.7-.9-1-1.6-1-1.7 0-2.7 1-3 3h5.1zm16.1 7a7 7 0 0 1-4-1.1 7 7 0 0 1-2.3-2.8 8.4 8.4 0 0 1 0-7c.5-1 1.3-2 2.4-2.7a6 6 0 0 1 3.8-1.1A6.8 6.8 0 0 1 56 5.5a8 8 0 0 1 0 7c-.5 1-1.3 2-2.4 2.7a6 6 0 0 1-3.8 1.1zm0-.9a4 4 0 0 0 2.7-.9 5 5 0 0 0 1.7-2.3c.4-1 .6-1.9.6-3a9 9 0 0 0-.6-3.2c-.5-1-1-2-1.8-2.6a4 4 0 0 0-2.8-1c-1 0-2 .3-2.7.9-.7.6-1.3 1.3-1.7 2.3a9.2 9.2 0 0 0 0 6.1c.4 1 1 2 1.8 2.7.8.7 1.7 1 2.9 1zm8.7-.1c.4 0 .7-.1.9-.3l.3-.7v-6l.1-1.3h-1.4v-.8h1.7l.6-.5h.6l.1 2c.4-.6.8-1 1.5-1.5.6-.4 1.2-.6 1.9-.6.4 0 .7 0 1 .3.2.2.4.5.4 1l-.3.6c-.1.2-.4.3-.7.3a.9.9 0 0 1-.7-.3 1 1 0 0 1-.2-.8c-.5 0-1 .2-1.6.6-.5.4-.9.9-1.3 1.6v6.2h1.2v.8h-4v-.6zm13 1a4 4 0 0 1-3.8-2.5 7.2 7.2 0 0 1 .1-5.5 5 5 0 0 1 6.8-2.2V3.5l.1-1.3h-1.4v-.8l1.7-.1c.3 0 .6-.2.8-.4h.5v14.3h1.4v.8h-2.9l-.1-1a4 4 0 0 1-1.4 1l-1.8.3zm.7-1a3.3 3.3 0 0 0 2.4-1.4V7.2c-.6-.5-1.3-.7-2.2-.7-1 0-1.7.4-2.3 1.2-.6.7-.9 1.8-.9 3.1 0 1.4.3 2.5.8 3.3.5.8 1.3 1.2 2.2 1.2zm11.8 1c-1 0-1.7-.3-2.5-.7-.7-.5-1.3-1-1.7-1.9a5 5 0 0 1-.7-2.8c0-1 .2-1.8.7-2.6a5 5 0 0 1 1.8-2 4.7 4.7 0 0 1 4.6-.2c.6.3 1.1.8 1.5 1.5.3.6.5 1.4.5 2.4l-7 .1a7 7 0 0 0 .8 3.8c.5.9 1.3 1.3 2.5 1.3.6 0 1.2-.2 1.9-.5a4 4 0 0 0 1.5-1.2l.4.4c-.5.8-1.1 1.4-2 1.8a6 6 0 0 1-2.3.5zm2.3-7c0-.8-.1-1.5-.5-2-.4-.7-.9-1-1.6-1-1.7 0-2.7 1-3 3h5.1zm3.7 6c.4 0 .7-.1.8-.3.2-.2.3-.4.3-.7v-6l.2-1.3h-1.5v-.8h1.7l.7-.5h.6v2c.4-.6.9-1 1.5-1.5.6-.4 1.3-.6 2-.6.3 0 .7 0 1 .3.2.2.3.5.3 1 0 .2 0 .4-.2.6a1 1 0 0 1-.7.3.9.9 0 0 1-.7-.3 1 1 0 0 1-.3-.8c-.5 0-1 .2-1.5.6-.5.4-1 .9-1.3 1.6v6.2h1.2v.8h-4.1v-.6zm18.9 1a5 5 0 0 1-2.5-.7c-.8-.5-1.4-1-1.9-1.8a6 6 0 0 1-.6-2.7c0-1 .2-2 .6-2.8.5-.8 1-1.5 1.8-2s1.6-.7 2.6-.7a5 5 0 0 1 5 5c0 1-.2 2-.7 2.9a5 5 0 0 1-1.8 2c-.7.5-1.6.7-2.5.7zm.1-.9c1 0 1.7-.4 2.2-1.2.5-.8.7-1.8.7-3 0-1.3-.3-2.5-.8-3.4-.5-1-1.2-1.5-2.2-1.5-1 0-1.7.4-2.3 1.3-.5.8-.7 1.8-.7 3l.3 2.4c.3.7.6 1.3 1.1 1.7.5.5 1 .7 1.7.7zm6.7-.1c.4 0 .7-.1.9-.3l.3-.7V6.9h-1.7V6h1.7v-.4c0-1.6.3-2.7.8-3.6.6-.8 1.5-1.2 2.8-1.2.5 0 1 .1 1.4.4.5.2.7.6.7 1 0 .3 0 .6-.2.7l-.6.3a1 1 0 0 1-.7-.3.9.9 0 0 1-.2-.5l.1-.5a1 1 0 0 0-.3-.3h-.5c-.6 0-1 .1-1.2.6a3 3 0 0 0-.4 1.7V6h2.7v.8h-2.7v8.4h1.2v.8h-4v-.6zm15.7 1c-1.8 0-2.7-1.3-2.7-3.8V6.8h-1.5V6a2 2 0 0 0 1.6-.9c.5-.5.8-1.2 1-1.9h.7V6h3.3v.8h-3.3a2587.9 2587.9 0 0 1 0 5.6c0 1 0 1.6.3 2 .2.6.6.8 1.2.8a2 2 0 0 0 1-.3c.3-.3.6-.5.9-1l.5.5a3.4 3.4 0 0 1-3 1.9zm3.8-1c.4 0 .6-.1.8-.3.2-.2.3-.4.3-.7V3.5l.1-1.3h-1.4v-.8l1.7-.1c.4 0 .6-.2.8-.4h.6V7l1.6-1c.6-.2 1.8.7 1 .7-.5 0-1 .2-1.4.4-.5.2-1 .5-1.2.9v5.9l-.1 1.3h1.3v.8h-4.1v-.6zM2.7 50.3c-.5 0-1-.1-1.2-.4-.4-.2-.5-.4-.5-.8 0-.2 0-.4.2-.6l.5-.2c.2 0 .4 0 .5.2l.2.5-.1.3.3.3h.3c.4 0 .6-.2.7-.4.2-.3.3-.8.3-1.4v-8.4l-1.7.1v-.7h4.3v.5c-.5 0-.8.2-1 .4-.2.3-.2.7-.2 1.2v5.2c0 1-.1 1.8-.3 2.4-.2.6-.5 1-.8 1.3-.4.3-1 .5-1.5.5zm8.8 0c-.7 0-1.4-.2-2-.6-.5-.3-1-.8-1.3-1.5a4.5 4.5 0 0 1 0-4.3 4 4 0 0 1 1.4-1.6 3.8 3.8 0 0 1 3.7-.2c.5.3.9.7 1.2 1.2.3.6.4 1.2.4 2H9.3c0 1.4.2 2.4.6 3 .5.8 1.1 1.1 2 1.1.5 0 1 0 1.5-.3.6-.3 1-.6 1.2-1l.4.3c-.4.7-1 1.1-1.6 1.4-.6.3-1.2.5-1.9.5zm2-5.6a3 3 0 0 0-.5-1.6c-.3-.5-.7-.7-1.3-.7-1.3 0-2.1.7-2.4 2.3h4.1zm2.8 4.8c.4 0 .6 0 .7-.2l.2-.6v-1.1l.1-3.7v-1h-1v-.6l1.2-.1c.3-.1.5-.2.6-.4h.5v1L20 42l1.4-.3c.9 0 1.6.3 2 1 .4.5.6 1.4.6 2.6v4h1v.7h-3.3v-.5c.3 0 .5 0 .7-.2l.2-.6v-3.4a4 4 0 0 0-.4-2c-.3-.5-.7-.7-1.4-.7-.3 0-.7 0-1.1.2l-1 .8v5.7h1v.7h-3.3v-.5zm9.8 0c.3 0 .5 0 .6-.2l.3-.6V43h-1v-.6l1.2-.1c.3-.1.5-.2.6-.4h.5v1l1.3-.8 1.4-.3c.9 0 1.6.3 2 1 .4.5.6 1.4.6 2.6v4h1v.7h-3.3v-.5c.3 0 .6 0 .7-.2l.2-.6v-3.4a4 4 0 0 0-.4-2c-.3-.5-.7-.7-1.3-.7-.4 0-.8 0-1.2.2l-1 .8v5.6h1v.7h-3.2v-.5zM37 54.3c-.4 0-.6 0-.9-.2a.9.9 0 0 1-.3-.7c0-.2 0-.4.2-.6l.5-.2c.2 0 .4 0 .5.2l.1.5v.2h.2l.4-.1.4-.5c.3-.4.6-1.3 1.1-2.7l-2.5-5.4-.8-2.2h-.8V42h3.3v.5c-.5 0-.8.2-.8.6l.4 1.3 1.9 4a330.9 330.9 0 0 0 2.1-5.8h-1V42h2.4v.5c-.3.1-.6.3-.8.6l-.6 1.5-2 5.5a33 33 0 0 1-1 2.5l-.8 1.3c-.4.3-.7.4-1.2.4zm12.4-12.7l-.2-.6a25 25 0 0 1-.5-1.5h-.9v-.7h4v.5l-1 .2-.3.6a30.2 30.2 0 0 0 1.6 5.4 215.8 215.8 0 0 0 .7 2 71.4 71.4 0 0 1 2-6l.8-2.7h.6a68.2 68.2 0 0 0 2 6 44.3 44.3 0 0 0 .9 2.9 96.2 96.2 0 0 1 2.8-8.2h-1.3v-.7H64v.5c-.4 0-.7.2-.9.3-.2 0-.4.3-.5.6l-.6 1.5-.8 2.4-2 6h-.6l-3-8.5-2.8 8.6h-.4l-2.9-8.6zm15 8c.3 0 .5-.2.6-.3l.2-.6v-4.8l.2-1h-1.2v-.6h.5l.9-.1.5-.4h.5v1.6c.3-.4.7-.8 1.2-1.1.5-.4 1-.6 1.5-.6.4 0 .6.1.8.3.2.2.4.4.4.8l-.2.5-.6.2c-.2 0-.4 0-.6-.2a.8.8 0 0 1-.2-.7 2 2 0 0 0-1.2.5 4 4 0 0 0-1 1.3v4.9h1v.7h-3.4v-.5zm8.5-9.3c-.3 0-.5-.1-.6-.3a1 1 0 0 1-.3-.7c0-.2.1-.5.3-.7a.8.8 0 0 1 1.2 0c.2.2.2.4.2.7 0 .3 0 .5-.2.7l-.6.3zm-1.6 9.2c.3 0 .5 0 .6-.2l.3-.6v-5.8h-1v-.6l1.3-.1c.3-.1.5-.2.6-.4h.5v7.5h1v.7h-3.3v-.5zm7.5.8c-1.5 0-2.2-1-2.2-3v-4.6h-1.2V42c.5 0 1-.2 1.3-.7.4-.4.6-1 .8-1.5h.5V42h2.7v.6H78a2070.9 2070.9 0 0 1 0 4.5c0 .8.1 1.3.3 1.7.2.4.5.5 1 .5.2 0 .5 0 .7-.2l.8-.7.4.3c-.4.7-.8 1-1.2 1.3l-1.2.3zm7 0c-.7 0-1.4-.2-2-.6-.6-.3-1-.8-1.4-1.5a4.8 4.8 0 0 1 0-4.2 4 4 0 0 1 1.5-1.7 3.8 3.8 0 0 1 3.7-.2c.5.3.9.7 1.2 1.2.3.6.4 1.2.4 2h-5.6c0 1.4.2 2.4.6 3 .4.8 1.1 1.1 2 1.1.5 0 1 0 1.5-.3s1-.6 1.2-1l.4.3c-.4.7-1 1.1-1.6 1.4-.6.3-1.2.5-1.9.5zm1.9-5.6a3 3 0 0 0-.4-1.6c-.3-.5-.7-.7-1.3-.7-1.3 0-2.1.7-2.4 2.3h4.1zm6.2 5.6a4.5 4.5 0 0 1-2.4-.7v.5H91l-.1-2.7h.5a2.3 2.3 0 0 0 1.2 2l1.1.2c.5 0 .9 0 1.2-.3.4-.2.6-.5.6-1a1 1 0 0 0-.3-.7l-.6-.5-1.1-.5L92 46c-.3-.1-.6-.4-.9-.7a2 2 0 0 1-.3-1.2c0-.4 0-.7.2-1 .2-.4.5-.7.9-1 .4-.2 1-.4 1.6-.4l1 .2 1 .5v-.6h.6v2.8h-.5c0-.6-.2-1.1-.6-1.6-.3-.4-.8-.7-1.4-.7-.5 0-.9.2-1.2.4a1.1 1.1 0 0 0-.1 1.6l.7.6 1.1.5 1.3.6c.4.2.7.4 1 .8.2.3.3.7.3 1.1 0 .5-.2 1-.4 1.3-.3.4-.6.6-1 .8l-1.4.3zm-92 30.2c.4 0 .6-.1.8-.3l.3-.6v-9.1H2v-.7h3.8c2 0 3.6.4 4.7 1.4 1.2 1 1.8 2.3 1.8 4.2 0 1-.3 2-.7 2.8a5 5 0 0 1-2.1 2 7 7 0 0 1-3.3.8H1.9v-.5zm4.1-.1a4.4 4.4 0 0 0 4-2.5c.4-.7.6-1.6.6-2.5a5 5 0 0 0-1.3-3.7c-.8-.9-2.1-1.3-3.8-1.3-.4 0-.7 0-.8.2-.2.1-.3.3-.3.6v9.2H6zm7.6.1c.3 0 .6 0 .7-.2l.2-.6v-4.8l.1-1h-1.1v-.6h.5l.9-.1.5-.4h.4l.1 1.6c.3-.4.7-.8 1.2-1.1.5-.4 1-.6 1.5-.6.3 0 .6.1.8.3.2.2.3.4.3.8 0 .1 0 .3-.2.5l-.5.2c-.3 0-.5 0-.6-.2a.8.8 0 0 1-.2-.7 2 2 0 0 0-1.2.5 4 4 0 0 0-1 1.3v3.9l-.1 1h1v.7h-3.3v-.5zm8.5-9.2l-.6-.3a1 1 0 0 1-.2-.7c0-.2 0-.5.3-.7a.8.8 0 0 1 1.2 0l.2.7c0 .3 0 .5-.2.7a1 1 0 0 1-.7.3zm-1.5 9.2c.3 0 .5 0 .6-.2l.3-.6v-5.8h-1v-.6l1.3-.1c.2-.1.5-.2.6-.4h.5v7.5h1v.7h-3.3v-.5zm5.2-4.7a7 7 0 0 1-.7-2.2h-.7V73h3v.5c-.5 0-.7.2-.7.6 0 .3 0 .7.3 1.2l1.2 2.8.5 1.2.2-.4.2-.7 1.3-3.5.5-1h-1V73h2.5v.5c-.2 0-.4 0-.6.2l-.4.7-.6 1.2-2 5.4H28l-2.3-5.2zM37 81.3c-.7 0-1.4-.2-2-.6-.6-.3-1-.8-1.4-1.5a4.8 4.8 0 0 1 0-4.2 4 4 0 0 1 1.4-1.7 3.8 3.8 0 0 1 3.8-.2c.5.3.9.7 1.1 1.2.3.6.5 1.2.5 2h-5.7c0 1.4.2 2.4.7 3 .4.8 1 1.1 2 1.1.5 0 1 0 1.5-.3s1-.6 1.2-1l.4.3c-.4.7-1 1.1-1.6 1.4-.6.3-1.3.5-1.9.5zm1.9-5.6a3 3 0 0 0-.5-1.6c-.2-.5-.7-.7-1.3-.7-1.3 0-2 .7-2.3 2.3h4zm2.9 4.8c.3 0 .5 0 .7-.2l.2-.6V75l.1-1h-1.1v-.6l1.3-.1.6-.4h.4l.1 1 1.2-.8 1.4-.3c1 0 1.6.3 2 1 .5.5.7 1.4.7 2.6v4h1v.7H47v-.5c.3 0 .5 0 .6-.2l.3-.6v-3.4a4 4 0 0 0-.4-2c-.3-.5-.8-.7-1.4-.7-.4 0-.8 0-1.1.2l-1 .8v5.6h1v.7h-3.3v-.5zm10.5 3l.5-1A3.6 3.6 0 0 0 53 81a1 1 0 0 1-.4.1c-.2 0-.4 0-.5-.2a.8.8 0 0 1-.2-.6c0-.3 0-.5.2-.7l.6-.2c.4 0 .7.1.9.4.2.3.3.6.3 1 0 .5-.1 1-.4 1.6a4 4 0 0 1-.8 1.5l-.4-.4zm11.4-2.2a4 4 0 0 1-2-.5c-.6-.4-1.1-.8-1.5-1.5-.3-.6-.5-1.3-.5-2.2a4.5 4.5 0 0 1 2-3.7c.7-.4 1.4-.7 2.2-.7.6 0 1 .1 1.5.3.5.2.8.4 1 .7.3.3.5.7.5 1 0 .3-.1.5-.3.6 0 .2-.3.3-.5.3-.3 0-.4-.1-.6-.3a.8.8 0 0 1-.1-.5c0-.2 0-.4.2-.6a1 1 0 0 0-.7-.7l-1-.2c-.5 0-.9.2-1.3.4a4 4 0 0 0-1 1.2l-.2 1.8c0 .8 0 1.4.3 2 .2.5.5 1 1 1.3.4.3.9.4 1.4.4.5 0 1-.1 1.4-.4.5-.2.8-.6 1.1-1l.4.4a4 4 0 0 1-1.5 1.4 4 4 0 0 1-1.8.5zm4.6-.8c.3 0 .5 0 .6-.2l.3-.6v-5.8h-1v-.6h.4l1-.1.4-.4h.5v1.6c.4-.4.7-.8 1.2-1.1.5-.4 1-.6 1.6-.6.3 0 .6.1.8.3.2.2.3.4.3.8 0 .1 0 .3-.2.5l-.6.2c-.2 0-.4 0-.6-.2a.8.8 0 0 1-.1-.7 2 2 0 0 0-1.3.5 4 4 0 0 0-1 1.3v4.9h1v.7h-3.3v-.5zm10.8.8c-.8 0-1.4-.2-2-.6-.6-.3-1-.8-1.4-1.5-.4-.6-.5-1.3-.5-2.2 0-.7.1-1.4.5-2a4 4 0 0 1 1.4-1.7 3.8 3.8 0 0 1 3.8-.2c.4.3.8.7 1.1 1.2.3.6.5 1.2.5 2h-5.7c0 1.4.2 2.4.7 3 .4.8 1 1.1 2 1.1.5 0 1 0 1.5-.3s.9-.6 1.2-1l.4.3c-.5.7-1 1.1-1.6 1.4a5 5 0 0 1-2 .5zm1.9-5.6a3 3 0 0 0-.5-1.6c-.3-.5-.7-.7-1.3-.7-1.3 0-2 .7-2.3 2.3h4zm5.1 5.6c-.8 0-1.4-.2-1.8-.6-.4-.3-.6-.8-.6-1.3 0-.7.3-1.2.8-1.6.5-.4 1-.8 1.8-1a8 8 0 0 1 2.3-.3v-1c0-.6-.1-1.2-.3-1.6-.2-.4-.6-.6-1.3-.6l-1 .2c-.2.2-.5.4-.6.7l.2.6c0 .1 0 .3-.2.4 0 .2-.3.2-.5.2s-.4 0-.5-.2a.8.8 0 0 1-.2-.5c0-.4.1-.7.4-1l1.1-.7c.5-.2 1-.3 1.7-.3.9 0 1.5.3 2 .8.4.4.6 1.2.6 2.2v3.6l-.1 1H91v.7h-2.3v-1c-.8.9-1.7 1.3-2.6 1.3zm.4-1c.4 0 .8 0 1-.2a4 4 0 0 0 1.1-.7v-2.3c-.9 0-1.7.2-2.3.5-.7.3-1 .8-1 1.5 0 .4 0 .7.3 1l.9.2zm8.6 1c-1.4 0-2.1-1-2.1-3v-4.6h-1.2V73c.5 0 1-.2 1.3-.7l.8-1.5h.5V73h2.7v.6h-2.7a2070.9 2070.9 0 0 1 0 4.5c0 .8 0 1.3.2 1.7.2.4.5.5 1 .5.3 0 .5 0 .8-.2l.7-.7.5.3c-.5.7-.9 1-1.3 1.3l-1.2.3zm4.8-10l-.6-.3a1 1 0 0 1-.2-.7c0-.2 0-.5.2-.7a.8.8 0 0 1 1.2 0c.2.2.3.4.3.7 0 .3-.1.5-.3.7-.1.2-.4.3-.6.3zm-1.6 9.2c.3 0 .6 0 .7-.2l.2-.6v-4.8l.1-1h-1.1v-.6l1.4-.1.6-.4h.4v7.5h1v.7h-3.3v-.5zm5.3-4.7a7 7 0 0 1-.7-2.2h-.7V73h3v.5c-.5 0-.7.2-.7.6 0 .3 0 .7.3 1.2L106 78l.5 1.2.1-.4.3-.7 1.3-3.5c0-.3.2-.7.4-1h-1V73h2.6v.5c-.3 0-.5 0-.6.2l-.5.7-.5 1.2-2.1 5.4h-.6l-2.3-5.2zm11.2 5.5c-.8 0-1.4-.2-2-.6-.6-.3-1-.8-1.4-1.5-.4-.6-.5-1.3-.5-2.2 0-.7.1-1.4.5-2a4 4 0 0 1 1.4-1.7 3.8 3.8 0 0 1 3.8-.2c.4.3.8.7 1.1 1.2.3.6.5 1.2.5 2h-5.7c0 1.4.2 2.4.7 3 .4.8 1 1.1 2 1.1.5 0 1 0 1.5-.3s.9-.6 1.2-1l.3.3c-.4.7-.9 1.1-1.5 1.4a5 5 0 0 1-2 .5zm1.8-5.6a3 3 0 0 0-.4-1.6c-.3-.5-.7-.7-1.3-.7-1.3 0-2 .7-2.3 2.3h4zm3.7 7.8c.2-.2.4-.5.5-1a3.6 3.6 0 0 0 .3-1.5 1 1 0 0 1-.4.1c-.2 0-.4 0-.6-.2a.8.8 0 0 1-.2-.6c0-.3.1-.5.3-.7l.6-.2c.4 0 .6.1.8.4.2.3.3.6.3 1 0 .5 0 1-.3 1.6a4 4 0 0 1-.8 1.5l-.5-.4zm9.8-2.2c-.8 0-1.4-.2-1.8-.6-.4-.3-.6-.8-.6-1.3 0-.7.2-1.2.7-1.6.5-.4 1.1-.8 1.9-1a8 8 0 0 1 2.3-.3v-1c0-.6-.1-1.2-.4-1.6-.2-.4-.6-.6-1.2-.6l-1 .2c-.3.2-.5.4-.6.7l.2.6-.2.4c-.1.2-.3.2-.5.2-.3 0-.4 0-.6-.2a.8.8 0 0 1-.1-.5c0-.4 0-.7.4-1 .2-.3.6-.5 1.1-.7.5-.2 1-.3 1.6-.3 1 0 1.6.3 2 .8.4.4.6 1.2.6 2.2v4.6h1v.7h-2.2l-.1-1c-.8.9-1.6 1.3-2.5 1.3zm.3-1c.4 0 .8 0 1.1-.2a4 4 0 0 0 1-.7v-2.3a6 6 0 0 0-2.3.5c-.7.3-1 .8-1 1.5 0 .4.1.7.3 1l1 .2zm5.7.2c.3 0 .5 0 .7-.2l.2-.6V75l.1-1H136v-.6l1.3-.1.6-.4h.4v1l1.3-.8 1.4-.3c1 0 1.6.3 2 1 .3.3-.2 2.8-1.6 7.3v-.5c.3 0 .5 0 .6-.2l.3-.6v-3.4a4 4 0 0 0-.5-2c-.2-.5-.7-.7-1.3-.7-.4 0-.8 0-1.2.2l-.9.8v5.6h1v.7H136v-.5zM1.6 108.6c.3 0 .5 0 .6-.2l.3-.6v-8.9l.1-1H1.5v-.6l1.3-.1.5-.4h.5v.9L5 97l1.4-.3c.6 0 1.2.2 1.7.5.5.4 1 .8 1.3 1.4a4.9 4.9 0 0 1 0 4.4c-.5.8-1 1.3-1.6 1.7a3.8 3.8 0 0 1-4 0v3.7h1v.7H1.6v-.5zm4.2-4a2 2 0 0 0 1.3-.4l.8-1.3a6 6 0 0 0 .3-2c0-.9-.2-1.7-.6-2.4a2 2 0 0 0-1.8-1c-.4 0-.7.1-1 .3l-.9.6v5.6a3 3 0 0 0 1.9.6zm7.7.7c-.8 0-1.4-.2-1.8-.6-.4-.3-.6-.8-.6-1.3 0-.7.2-1.2.7-1.6.5-.4 1.2-.8 2-1a8 8 0 0 1 2.2-.3v-1c0-.6-.1-1.2-.3-1.6-.2-.4-.7-.6-1.3-.6l-1 .2c-.3.2-.5.4-.6.7l.2.6c0 .1 0 .3-.2.4-.1.2-.3.2-.5.2s-.4 0-.5-.2a.8.8 0 0 1-.2-.5c0-.4.1-.7.4-1l1-.7c.5-.2 1-.3 1.6-.3 1 0 1.6.3 2 .8.5.4.7 1.2.7 2.2v3.6l-.1 1h1.1v.7H16v-1c-.9.9-1.7 1.3-2.6 1.3zm.4-1c.4 0 .7 0 1-.2a4 4 0 0 0 1-.7v-2.3a6 6 0 0 0-2.3.5c-.6.3-1 .8-1 1.5 0 .4.1.7.4 1l.9.2zm5.6.2c.3 0 .5 0 .7-.2l.2-.6v-4.8l.1-1h-1.1v-.6h.5l.9-.1.5-.4h.4l.1 1.6c.3-.4.7-.8 1.2-1.1.5-.4 1-.6 1.5-.6.3 0 .6.1.8.3.2.2.3.4.3.8 0 .1 0 .3-.2.5l-.5.2c-.3 0-.5 0-.6-.2a.8.8 0 0 1-.2-.7 2 2 0 0 0-1.2.5 4 4 0 0 0-1 1.3v3.9l-.1 1h1v.7h-3.3v-.5zm9.2.8c-.8 0-1.4-.2-1.8-.6-.4-.3-.6-.8-.6-1.3 0-.7.2-1.2.7-1.6.5-.4 1.1-.8 1.9-1a8 8 0 0 1 2.3-.3v-1c0-.6-.1-1.2-.3-1.6-.2-.4-.7-.6-1.3-.6l-1 .2c-.3.2-.5.4-.6.7l.2.6c0 .1 0 .3-.2.4-.1.2-.3.2-.5.2s-.4 0-.5-.2a.8.8 0 0 1-.2-.5c0-.4.1-.7.4-1 .2-.3.6-.5 1.1-.7.5-.2 1-.3 1.6-.3 1 0 1.6.3 2 .8.4.4.6 1.2.6 2.2v4.6h1v.7h-2.2l-.1-1c-.8.9-1.6 1.3-2.5 1.3zm.3-1c.5 0 .8 0 1.2-.2a4 4 0 0 0 1-.7v-2.3c-1 0-1.7.2-2.4.5s-1 .8-1 1.5c0 .4.1.7.4 1l.8.2zm5.7.2c.3 0 .5 0 .7-.2l.2-.6V99l.1-1h-1.1v-.6l1.3-.1.6-.4h.4l.1 1 1.2-.8 1.4-.3c1 0 1.6.3 2 1 .5.5.7 1.4.7 2.6v4h1v.7H40v-.5c.3 0 .5 0 .6-.2l.3-.6v-3.4a4 4 0 0 0-.4-2c-.3-.5-.8-.7-1.4-.7-.4 0-.8 0-1.1.2l-1 .8v5.6h1v.7h-3.3v-.5zm13.7.8a4 4 0 0 1-2-.6c-.7-.3-1.1-.8-1.5-1.4-.4-.6-.5-1.3-.5-2.1s.1-1.6.5-2.3a4 4 0 0 1 1.4-1.6c.6-.4 1.3-.6 2-.6a4 4 0 0 1 4.1 4.1 5 5 0 0 1-.5 2.2 5 5 0 0 1-1.5 1.7c-.6.4-1.3.6-2 .6zm.1-.7c.8 0 1.4-.3 1.7-1 .4-.6.6-1.4.6-2.3a6 6 0 0 0-.6-2.8c-.4-.8-1-1.1-1.8-1.1a2 2 0 0 0-1.8 1c-.4.6-.6 1.4-.6 2.3 0 .7 0 1.3.3 2 .2.5.4 1 .8 1.4.4.3.9.5 1.4.5zm5.3 0c.3 0 .5-.2.6-.3l.3-.6v-5.8h-1v-.6h.4l1-.1.4-.4h.5v1.6c.3-.4.7-.8 1.2-1.1.5-.4 1-.6 1.6-.6.3 0 .5.1.8.3.2.2.3.4.3.8 0 .1 0 .3-.2.5l-.6.2c-.2 0-.4 0-.6-.2a.8.8 0 0 1-.1-.7 2 2 0 0 0-1.3.5 4 4 0 0 0-1 1.3v4.9h1v.7h-3.3v-.5zm6.9 0c.3 0 .5-.2.7-.3l.2-.6v-4.8l.1-1h-1.1v-.6l1.3-.1.6-.4h.4v.9a4 4 0 0 1 1.2-.7 3.2 3.2 0 0 1 2.6 0l.8.8 1.3-.8 1.4-.3c1 0 1.6.3 2 .9.5.6.7 1.5.7 2.7v3l-.1 1h1v.7h-3.3v-.5c.3 0 .6 0 .7-.2l.2-.6v-3.4c0-.9 0-1.6-.4-2-.3-.5-.7-.7-1.3-.7-.4 0-.7 0-1 .2-.4.2-.7.3-1 .6.2.3.2.7.2 1.1v4.8h1v.7h-3.3v-.5c.3 0 .5 0 .7-.2l.2-.6v-3.4a4 4 0 0 0-.3-2c-.3-.5-.8-.7-1.4-.7-.3 0-.6 0-1 .2l-.8.5v6h1v.7h-3.3v-.5zm16.5.7c-.7 0-1.3-.2-1.7-.6-.5-.3-.7-.8-.7-1.3 0-.7.3-1.2.8-1.6.5-.4 1.1-.8 1.9-1a8 8 0 0 1 2.2-.3v-1c0-.6 0-1.2-.3-1.6-.2-.4-.6-.6-1.3-.6l-1 .2-.6.7c.2.1.2.3.2.6l-.1.4c-.2.2-.3.2-.6.2-.2 0-.4 0-.5-.2a.8.8 0 0 1-.2-.5c0-.4.2-.7.4-1 .3-.3.7-.5 1.2-.7.4-.2 1-.3 1.6-.3.9 0 1.5.3 2 .8.4.4.6 1.2.6 2.2v4.6h1v.7H80l-.1-1c-.8.9-1.7 1.3-2.6 1.3zm.4-1c.4 0 .8 0 1.1-.2a4 4 0 0 0 1-.7v-2.3c-.9 0-1.6.2-2.3.5-.7.3-1 .8-1 1.5 0 .4 0 .7.3 1l1 .2zm5.5.2c.3 0 .5 0 .7-.2l.2-.6V94h-1v-.6c.6 0 1 0 1.3-.2.3 0 .5-.1.7-.3h.4v11.4h1v.7H83v-.5zm11 .8c-.8 0-1.4-.2-1.8-.6-.4-.3-.6-.8-.6-1.3 0-.7.2-1.2.7-1.6.5-.4 1.1-.8 1.9-1a8 8 0 0 1 2.2-.3v-1c0-.6 0-1.2-.3-1.6-.2-.4-.6-.6-1.3-.6l-1 .2-.6.7c.2.1.2.3.2.6l-.1.4c-.1.2-.3.2-.5.2-.3 0-.4 0-.6-.2a.8.8 0 0 1-.2-.5c0-.4.2-.7.4-1 .3-.3.7-.5 1.2-.7.5-.2 1-.3 1.6-.3.9 0 1.6.3 2 .8.4.4.6 1.2.6 2.2v4.6h1v.7h-2.2l-.1-1c-.8.9-1.6 1.3-2.5 1.3zm.3-1c.4 0 .8 0 1.1-.2a4 4 0 0 0 1-.7v-2.3a6 6 0 0 0-2.3.5c-.7.3-1 .8-1 1.5 0 .4 0 .7.3 1l1 .2zm5.7.2c.3 0 .5 0 .6-.2l.3-.6V99l.1-1H100v-.6l1.3-.1.5-.4h.5v1l1.3-.8 1.4-.3c1 0 1.6.3 2 1 .4.5.7 1.4.7 2.6v3l-.1 1h1v.7h-3.3v-.5c.3 0 .6 0 .7-.2l.2-.6v-3.4a4 4 0 0 0-.4-2c-.3-.5-.7-.7-1.3-.7-.4 0-.8 0-1.2.2l-1 .8.1.6v5.1h1v.7H100v-.5zm13.1.8a3.3 3.3 0 0 1-3-2c-.3-.6-.4-1.3-.4-2 0-1 .1-1.7.5-2.4a4 4 0 0 1 5.4-1.7V94h-1v-.6c.6 0 1 0 1.3-.2.3 0 .5-.1.6-.3h.5v11.4h1v.7H116l-.1-.8c-.3.3-.7.6-1.2.8-.4.2-.9.3-1.4.3zm.6-.8a2 2 0 0 0 1-.3l1-.8V98a4 4 0 0 0-1.8-.5c-.8 0-1.4.3-1.9 1-.5.6-.7 1.4-.7 2.4 0 1.1.2 2 .6 2.7.4.6 1 1 1.8 1zm13.7.8a4 4 0 0 1-2-.5c-.6-.4-1.1-.8-1.5-1.5-.3-.6-.5-1.3-.5-2.2a4.5 4.5 0 0 1 2-3.7c.7-.4 1.4-.7 2.2-.7.6 0 1 .1 1.5.3.5.2.8.4 1 .7.3.3.4.7.4 1 0 .3 0 .5-.2.6-.1.2-.3.3-.5.3-.3 0-.4-.1-.6-.3a.8.8 0 0 1-.1-.5c0-.2 0-.4.2-.6a1 1 0 0 0-.7-.7l-1-.2c-.5 0-1 .2-1.3.4a4 4 0 0 0-1 1.2c-.1.5-.3 1.1-.3 1.8 0 .8.2 1.4.4 2 .2.5.5 1 1 1.3.4.3.9.4 1.4.4.5 0 1-.1 1.4-.4.5-.2.8-.6 1.1-1l.4.4a4 4 0 0 1-1.5 1.4 4 4 0 0 1-1.8.5zm8.5 0a4 4 0 0 1-2-.6c-.6-.3-1-.8-1.4-1.4-.4-.6-.6-1.3-.6-2.1s.2-1.6.6-2.3a4 4 0 0 1 1.4-1.6c.6-.4 1.3-.6 2-.6a4 4 0 0 1 4 4.1 4 4 0 0 1-.5 2.2 3.7 3.7 0 0 1-3.5 2.2zm.2-.7c.7 0 1.3-.3 1.7-1 .4-.6.5-1.4.5-2.3a6 6 0 0 0-.6-2.8c-.4-.8-1-1.1-1.8-1.1a2 2 0 0 0-1.7 1c-.4.6-.6 1.4-.6 2.3 0 .7 0 1.3.2 2 .2.5.5 1 .9 1.4.4.3.8.5 1.4.5zm5.2 0c.3 0 .6-.2.7-.3l.2-.6V99l.2-1h-1.2v-.6l1.3-.1.6-.4-1.8 8.2v-.5zM4.7 129.2c-1.4 0-2.2-1-2.2-3v-4.6H1.4v-.7c.5 0 1-.2 1.3-.7.4-.4.7-1 .8-1.5H4v2.2h2.7v.6H4a2071 2071 0 0 1 0 4.5c0 .8 0 1.3.2 1.7.2.4.5.5 1 .5.2 0 .5 0 .8-.2l.7-.7.4.3c-.4.7-.8 1-1.2 1.3l-1.2.3zm4.8-10l-.6-.3a1 1 0 0 1-.3-.7c0-.2.1-.5.3-.7a.8.8 0 0 1 1.2 0c.2.2.3.4.3.7 0 .3-.1.5-.3.7l-.6.3zm-1.6 9.2c.3 0 .5 0 .7-.2l.2-.6v-4.7l.1-1H7.8v-.6l1.3-.1.7-.4h.4v7.5h1v.7H7.9v-.5zm7.5.8c-1.5 0-2.2-1-2.2-3v-4.6H12v-.7c.5 0 1-.2 1.3-.7.4-.4.6-1 .8-1.5h.6v2.2h2.7v.6h-2.7a2070.9 2070.9 0 0 1 0 4.5c0 .8 0 1.3.2 1.7.2.4.5.5 1 .5.2 0 .5 0 .8-.2l.7-.7.4.3c-.4.7-.8 1-1.2 1.3l-1.2.3zm3-.8c.3 0 .6 0 .7-.2l.2-.6V119l.1-1h-1.1v-.6c.6 0 1 0 1.3-.2.3 0 .5-.1.7-.3h.4v11.4h1v.7h-3.3v-.5zm8.4.8c-.7 0-1.4-.2-2-.6-.6-.3-1-.8-1.4-1.5a4.8 4.8 0 0 1 0-4.2 4 4 0 0 1 1.4-1.7 3.8 3.8 0 0 1 3.8-.2c.5.3.9.7 1.2 1.2.2.6.4 1.2.4 2h-5.6c0 1.4.2 2.4.6 3 .4.8 1 1.1 2 1.1.5 0 1 0 1.5-.3s1-.6 1.2-1l.4.3c-.4.7-1 1.1-1.6 1.4-.6.3-1.3.5-1.9.5zm1.9-5.6a3 3 0 0 0-.5-1.6c-.2-.5-.7-.7-1.2-.7-1.4 0-2.2.7-2.4 2.3h4zm6.2 5.6a4.5 4.5 0 0 1-2.5-.7l.1.5h-.7v-2.7h.4a2.3 2.3 0 0 0 1.3 2l1.1.2c.5 0 .9 0 1.2-.3.4-.2.6-.5.6-1a1 1 0 0 0-.3-.7l-.7-.5-1-.5-1.4-.6c-.4-.1-.7-.4-.9-.7a2 2 0 0 1-.4-1.2c0-.4.1-.7.3-1 .2-.4.5-.7.9-1a3.4 3.4 0 0 1 2.6-.2l1 .5v-.6h.6v2.8h-.5c0-.6-.2-1.1-.6-1.6-.3-.4-.8-.7-1.4-.7-.5 0-1 .2-1.2.4a1.1 1.1 0 0 0-.1 1.6l.7.6 1 .5 1.4.6c.4.2.7.4.9.8.2.3.4.7.4 1.1 0 .5-.2 1-.4 1.3-.3.4-.6.6-1 .8l-1.4.3zm4.9 2.2l.5-1a3.6 3.6 0 0 0 .2-1.5 1 1 0 0 1-.4.1c-.2 0-.4 0-.5-.2a.8.8 0 0 1-.2-.6c0-.3 0-.5.2-.7l.6-.2c.4 0 .7.1.9.4.2.3.3.6.3 1 0 .5-.1 1-.4 1.6a4 4 0 0 1-.8 1.5l-.4-.4zm9.7-2.2c-.8 0-1.4-.2-1.8-.6-.4-.3-.6-.8-.6-1.3 0-.7.3-1.2.8-1.6.5-.4 1-.8 1.8-1a8 8 0 0 1 2.3-.3v-1c0-.6-.1-1.2-.3-1.6-.2-.4-.6-.6-1.3-.6l-1 .2c-.3.2-.5.4-.6.7l.2.6c0 .1 0 .3-.2.4 0 .2-.3.2-.5.2s-.4 0-.5-.2a.8.8 0 0 1-.2-.5c0-.4.1-.7.4-1l1.1-.7c.5-.2 1-.3 1.7-.3.9 0 1.5.3 2 .8.4.4.6 1.2.6 2.2v3.6l-.1 1h1.1v.7h-2.3v-1c-.9.9-1.7 1.3-2.6 1.3zm.4-1c.4 0 .8 0 1-.2a4 4 0 0 0 1-.7V125a5 5 0 0 0-2.2.5c-.7.3-1 .8-1 1.5 0 .4 0 .7.3 1l.9.2zm5.6.2c.3 0 .6 0 .7-.2l.2-.6V123l.2-1h-1.2v-.6l1.3-.1.6-.4h.5v1l1.3-.8a3 3 0 0 1 1.3-.3c1 0 1.6.3 2 1 .5.5.7 1.4.7 2.6v4h1v.7h-3.3v-.5c.3 0 .5 0 .7-.2l.2-.6v-3.4a4 4 0 0 0-.4-2c-.3-.5-.8-.7-1.4-.7-.4 0-.7 0-1.1.2l-1 .8v5.6h1v.7h-3.3v-.5zm13.2.8a3.3 3.3 0 0 1-3-2c-.3-.6-.5-1.3-.5-2 0-1 .2-1.7.5-2.4a4 4 0 0 1 5.5-1.7V118h-1.1v-.6c.6 0 1 0 1.4-.2l.6-.3h.5v10.4l-.1 1h1.1v.7h-2.3v-.8l-1.2.8c-.4.2-1 .3-1.4.3zm.5-.8c.4 0 .7-.1 1-.3l1-.8V122c-.5-.3-1.1-.5-1.8-.5-.8 0-1.4.3-1.8 1-.5.6-.7 1.4-.7 2.4 0 1.1.2 2 .6 2.7.4.6 1 1 1.7 1zm9.8 0c.3 0 .5 0 .7-.2l.2-.6v-4.7l.1-1h-1v-.6l1.3-.1.6-.4h.4l.1.9a4 4 0 0 1 1.1-.7 3.2 3.2 0 0 1 2.6 0c.4.2.6.5.8.8l1.3-.8 1.4-.3c1 0 1.6.3 2 .9.5.6.7 1.5.7 2.7v3l-.1 1h1v.7h-3.3v-.5c.3 0 .6 0 .7-.2l.2-.6v-3.4c0-.9 0-1.6-.3-2-.3-.5-.8-.7-1.4-.7-.3 0-.7 0-1 .2l-.9.6.2 1.1v3.8l-.1 1h1v.7H84v-.5c.3 0 .5 0 .7-.2l.2-.6v-3.4a4 4 0 0 0-.3-2c-.3-.5-.7-.7-1.4-.7-.3 0-.6 0-1 .2l-.8.5v6h1v.7H79v-.5zm15.6 4.8c-.4 0-.7 0-1-.2a.9.9 0 0 1-.2-.7c0-.2 0-.4.2-.6l.5-.2c.2 0 .3 0 .4.2l.2.5v.2h.2l.4-.1.4-.5c.2-.4.6-1.3 1-2.7l-2.4-5.4-.9-2.2h-.7v-.6H96v.5c-.6 0-.8.2-.8.6 0 .3.1.7.4 1.3l1.8 4a330.9 330.9 0 0 0 2.2-5.8h-1.1v-.6h2.5v.5c-.4.1-.6.3-.8.6-.2.3-.5.8-.7 1.5l-2 5.5a33 33 0 0 1-1 2.5l-.8 1.3c-.3.3-.7.4-1.1.4zm11.5-4.8c.3 0 .5 0 .6-.2l.3-.6v-6.1l-1.3.1v-.7h1.3c0-1.3.3-2.3 1-3 .7-.8 1.7-1.2 3.2-1.2.7 0 1.3.2 1.8.4.5.3.7.6.7 1 0 .3 0 .5-.2.6l-.5.2c-.2 0-.4 0-.5-.2a.7.7 0 0 1-.2-.5l.1-.4c-.4-.3-1-.5-1.6-.5-.7 0-1.3.3-1.8.8-.4.5-.6 1.2-.6 2.2v.6h4.5l.4-.2h.4v7.5h1v.7h-3.3v-.5c.3 0 .5 0 .7-.2l.2-.6v-5.1l.1-1h-4v6.7h1v.7H106v-.5zm9.8 0c.4 0 .6 0 .7-.2l.2-.6v-4.7l.2-1h-1.2v-.6h.5l.9-.1.5-.4h.5v1.6c.3-.4.7-.8 1.2-1.1.5-.4 1-.6 1.5-.6.4 0 .6.1.8.3.2.2.4.4.4.8l-.2.5-.6.2c-.2 0-.4 0-.6-.2a.8.8 0 0 1-.2-.7 2 2 0 0 0-1.2.5 4 4 0 0 0-1 1.3v4.9h1v.7h-3.4v-.5zm10.3.8a4.5 4.5 0 0 1-2.5-.7v.5h-.6l-.1-2.7h.5a2.3 2.3 0 0 0 1.2 2l1.2.2c.4 0 .8 0 1.2-.3.3-.2.5-.5.5-1 0-.2 0-.5-.2-.7l-.7-.5-1-.5-1.5-.6c-.3-.1-.6-.4-.8-.7a2 2 0 0 1-.4-1.2c0-.4 0-.7.3-1 .1-.4.4-.7.8-1 .4-.2 1-.4 1.6-.4l1 .2 1 .5v-.6h.7v2.8h-.6a3 3 0 0 0-.5-1.6c-.4-.4-.9-.7-1.5-.7-.5 0-.8.2-1.1.4a1.1 1.1 0 0 0-.1 1.6l.6.6 1.1.5 1.4.6.9.8c.2.3.3.7.3 1.1 0 .5-.1 1-.4 1.3-.2.4-.6.6-1 .8a3 3 0 0 1-1.3.3zm7 0c-1.4 0-2.1-1-2-3v-4.6h-1.3v-.7c.5 0 1-.2 1.3-.7.4-.4.6-1 .8-1.5h.6v2.2h2.6v.6h-2.6a2071.7 2071.7 0 0 1 0 4.5c0 .8 0 1.3.2 1.7.2.4.5.5 1 .5.2 0 .5 0 .8-.2l.7-.7.4.3c-.4.7-.8 1-1.2 1.3l-1.2.3zm9.4-.5a4 4 0 0 1-1.4-1.5c-.4-.6-.6-1.3-.6-2.2a4.5 4.5 0 0 1 2-3.7c.7-.4.2 1 0 1.5s-.3 1.1-.3 1.8c0 .8 0 1.4.3 2 .2.5.6 2.4 0 2z"/>
      </g>
    </g>
    <g mask="url(#b)">
      <g transform="translate(214 120)">
        <rect fill="#2A2A2A" width="92" height="146" rx="7.64999986"/>
        <rect fill="#FFF" x="8.43333333" y="9.22105263" width="75.1333333" height="126.789474" rx="3.05999994"/>
        <path d="M18.4 40a1.5 1.5 0 1 1 0-3.1h55.2a1.5 1.5 0 0 1 0 3H18.4zm0 6.1a1.5 1.5 0 0 1 0-3h55.2a1.5 1.5 0 0 1 0 3H18.4zm0 6.2a1.5 1.5 0 0 1 0-3.1h55.2a1.5 1.5 0 1 1 0 3H18.4zm0 6.1a1.5 1.5 0 1 1 0-3h55.2a1.5 1.5 0 1 1 0 3H18.4zm3.8 6.1a1.5 1.5 0 1 1 0-3h51.4a1.5 1.5 0 0 1 0 3H22.2zm-3.8 6.2a1.5 1.5 0 1 1 0-3h55.2a1.5 1.5 0 0 1 0 3H18.4zm0 6.1a1.5 1.5 0 0 1 0-3h55.2a1.5 1.5 0 1 1 0 3H18.4zm0 6.2a1.5 1.5 0 0 1 0-3h55.2a1.5 1.5 0 1 1 0 3H18.4zm0 6.1a1.5 1.5 0 1 1 0-3h55.2a1.5 1.5 0 1 1 0 3H18.4zm0 6.2a1.5 1.5 0 1 1 0-3h55.2a1.5 1.5 0 0 1 0 3H18.4zm0 6.1a1.5 1.5 0 0 1 0-3h55.2a1.5 1.5 0 0 1 0 3H18.4zm0 6.2a1.5 1.5 0 1 1 0-3h55.2a1.5 1.5 0 0 1 0 3H18.4zm3.8 6.1a1.5 1.5 0 0 1 0-3h51.4a1.5 1.5 0 1 1 0 3H22.2zm-3.8 6.2a1.5 1.5 0 1 1 0-3.1h55.2a1.5 1.5 0 0 1 0 3H18.4zm0 6.1a1.5 1.5 0 0 1 0-3h55.2a1.5 1.5 0 0 1 0 3H18.4z" fill="#D8D8D8"/>
        <rect fill="#D8D8D8" x="44.4666667" y="21.5157895" width="3.06666667" height="5.37894737" rx="1.53333333"/>
      </g>
    </g>
  </g>
</svg>
