<svg width="521px" height="310px" xmlns="http://www.w3.org/2000/svg" xmlns:xlink="http://www.w3.org/1999/xlink">
  <defs>
    <linearGradient x1="3.02355127%" y1="46.9764487%" x2="96.9764487%" y2="46.9764487%" id="b">
      <stop stop-color="#F6F6F6" offset="0%"/>
      <stop stop-color="#FFF" offset="100%"/>
    </linearGradient>
    <rect id="a" width="521" height="310" rx="6"/>
    <path d="M6.4 0h435.2c3.5 0 6.4 2.9 6.4 6.4v332.8c0 3.5-2.9 6.4-6.4 6.4H6.4a6.4 6.4 0 0 1-6.4-6.4V6.4C0 2.9 2.9 0 6.4 0z" id="e"/>
    <filter x="-10.2%" y="-10.3%" width="120.3%" height="126.3%" filterUnits="objectBoundingBox" id="d">
      <feOffset dy="10" in="SourceAlpha" result="shadowOffsetOuter1"/>
      <feGaussianBlur stdDeviation="13.5" in="shadowOffsetOuter1" result="shadowBlurOuter1"/>
      <feColorMatrix values="0 0 0 0 0 0 0 0 0 0 0 0 0 0 0 0 0 0 0.1 0" in="shadowBlurOuter1"/>
    </filter>
    <circle id="f" cx="26.3999972" cy="26.3999944" r="25.5999985"/>
    <path d="M14.3 18.3c4 0 6.3-.3 7.2-.9 1.3-.9 3.1-13.4 2.7-15.2C23.9 1 29 .4 39.4.4l-1.8 11.7c-.4 4 0 5 0 5.3 0 .6 1.8 1.8 5.4 3.6L31 42 .3 39.3l13-20 1-1z" id="h"/>
    <path d="M20.8 36.1c-10 3.1-15.4 3.6-17.2 0-.8-1.7-.4-3.5 0-9.4.1-1.4-3.1-.4-3.1-3 0-2.4 4-5.4 5-8.5 0-.1.1-8.3 1.3-10.3C9.4.4 14.2 1.3 19 .9c4-.4 7.1-.8 9.4.9 5 3.5 7.7 6 7.7 14 0 4.4-4.8 7.8-8.6 11.4-3 2.8-2.3 7.5-6.7 8.9z" id="j"/>
    <path d="M94.3 163.7a24.4 24.4 0 1 1-33.2 15.1 6.4 6.4 0 0 0 6.3-1.2A6.4 6.4 0 0 0 80 177a6.4 6.4 0 0 0 10.4-6.2 6.4 6.4 0 0 0 4-7zm-11.9-2l-.4.8-.2-.8h.6zm-4.7 9.4l-.8-.6c.3 0 .7-.2 1-.4l-.2 1z" id="m"/>
    <filter x="-6.1%" y="-6.2%" width="112.3%" height="124.6%" filterUnits="objectBoundingBox" id="l">
      <feOffset dy="6" in="SourceAlpha" result="shadowOffsetOuter1"/>
      <feColorMatrix values="0 0 0 0 0.91372549 0 0 0 0 0.91372549 0 0 0 0 0.91372549 0 0 0 1 0" in="shadowOffsetOuter1"/>
    </filter>
    <path d="M71.2 171.2a1.6 1.6 0 0 0 0-3.2c-.9 0-.8.7-.8 1.6 0 .9 0 1.6.8 1.6z" id="o"/>
    <filter x="-41.6%" y="-31.3%" width="183.3%" height="225.0%" filterUnits="objectBoundingBox" id="n">
      <feOffset dy="2" in="SourceAlpha" result="shadowOffsetOuter1"/>
      <feColorMatrix values="0 0 0 0 0.945098039 0 0 0 0 0.945098039 0 0 0 0 0.945098039 0 0 0 1 0" in="shadowOffsetOuter1"/>
    </filter>
    <path d="M77.2 172a2 2 0 0 0 2-2c0-.5-1-.2-1.3-.5-.4-.4-.1-1.5-.7-1.5a2 2 0 1 0 0 4z" id="q"/>
    <filter x="-25.0%" y="-25.0%" width="150.0%" height="200.0%" filterUnits="objectBoundingBox" id="p">
      <feOffset dy="2" in="SourceAlpha" result="shadowOffsetOuter1"/>
      <feColorMatrix values="0 0 0 0 0.945098039 0 0 0 0 0.945098039 0 0 0 0 0.945098039 0 0 0 1 0" in="shadowOffsetOuter1"/>
    </filter>
    <path d="M74.8 166.4a2 2 0 1 0 0-4c-1.1 0-1.2.9-1.2 2s.1 2 1.2 2z" id="s"/>
    <filter x="-31.3%" y="-25.0%" width="162.5%" height="200.0%" filterUnits="objectBoundingBox" id="r">
      <feOffset dy="2" in="SourceAlpha" result="shadowOffsetOuter1"/>
      <feColorMatrix values="0 0 0 0 0.945098039 0 0 0 0 0.945098039 0 0 0 0 0.945098039 0 0 0 1 0" in="shadowOffsetOuter1"/>
    </filter>
    <ellipse id="t" cx="25.5881173" cy="7.90588188" rx="25.5881173" ry="7.90588188"/>
    <ellipse id="v" cx="17.9960385" cy="5.47330284" rx="17.9960385" ry="5.47330284"/>
  </defs>
  <g fill="none" fill-rule="evenodd">
    <mask id="c" fill="#fff">
      <use xlink:href="#a"/>
    </mask>
    <use fill="url(#b)" xlink:href="#a"/>
    <g mask="url(#c)">
      <g transform="translate(32 20)">
        <use fill="#000" filter="url(#d)" xlink:href="#e"/>
        <use fill="#FFF" xlink:href="#e"/>
        <g transform="translate(20 68)">
          <mask id="g" fill="#fff">
            <use xlink:href="#f"/>
          </mask>
          <use fill="#F7F7F7" xlink:href="#f"/>
          <g mask="url(#g)">
            <g transform="translate(-1 29)">
              <mask id="i" fill="#fff">
                <use xlink:href="#h"/>
              </mask>
              <use fill="#F3CFB4" xlink:href="#h"/>
              <path d="M23.3 11.2c.7 6.2 3.2 9.4 7.6 9.4 4.3 0 5.4 3 3 8.9L47 20.3 41.5 3.1c1.3-3.2.4-4.1-3-2.7-3.3 1.5-8.4 5.1-15.2 10.8zM20.6 17c-2.4 7.1-2.4 12.8 0 17 2.4 4.1.6 6.8-5.4 8L13 27.7c.3-6.1 1-10 2.2-11.6 1.2-1.6 3-1.3 5.4.9z" fill="#D1A98B" mask="url(#i)"/>
            </g>
          </g>
          <g mask="url(#g)">
            <g transform="translate(9 2)">
              <ellipse stroke="#979797" stroke-width="0.899999976" transform="rotate(-3 2.5 19.6)" cx="2.48170732" cy="19.6086957" rx="1.57926829" ry="3.56521739"/>
              <g transform="translate(.9 1.8)">
                <mask id="k" fill="#fff">
                  <use xlink:href="#j"/>
                </mask>
                <use fill="#F3CFB4" xlink:href="#j"/>
                <ellipse fill="#454545" mask="url(#k)" cx="11.2804878" cy="17.826087" rx="1.35365854" ry="2.67391304"/>
                <path d="M5.9 7.1c7.2-.3 11.1.5 11.7 2.3.6 1.7 1.4 4.6 2.3 8.4l2.2 1.4c1.2-4.2 3-6 5.4-5.4 2.6.7 2.4 5.5 1 8.5-.7 1.2-3.3 1.7-3.2 2.7 0 2.1 1.1 4 3.1 5.8L34.7 16 22.1 1H7.7L5.9 7z" fill="#D1A98B" mask="url(#k)"/>
              </g>
              <path d="M6.3 9c-3.7-4.2-5-6.3-4-6.3 7.6 0 11.2-1.4 14.4-1.8C23 0 31.6 0 35.7 9.8c4 9.8-2.6 20.5-4.8 21.4-2.3.9-4 5.3-4 3.6 0-.6 1-2 .4-3.6-.7-1.9-.9-2.2 0-3.4.1-.3 2.4-1.7 3-2.7.8-1.7 1-3.9 1.1-5 .3-2.3-.5-4.6-2.5-5.4-4-1.6-6.2 6.2-6.2 6.2l-2.4-1.3c1.2-4.4 1.2-7.7 0-9.8-1.2-2-5.9-2.4-14-.9z" fill="#454545"/>
              <ellipse stroke="#979797" stroke-width="0.899999976" transform="rotate(-3 8.1 20)" cx="8.12195122" cy="20.0543478" rx="1.80487805" ry="4.01086957"/>
              <path d="M9.7 18.5l14.5-.8M4.1 19.2c.8-1.2 1.5-1.2 2 0" stroke="#979797" stroke-width="0.899999976"/>
            </g>
          </g>
        </g>
        <rect fill="#F7F7F7" x="19.1999989" y="139.199992" width="129.599992" height="182.399989" rx="4.79999971"/>
        <use fill="#000" filter="url(#l)" xlink:href="#m"/>
        <use fill="#EDC001" xlink:href="#m"/>
        <use fill="#000" filter="url(#n)" xlink:href="#o"/>
        <use fill="#D5AC00" xlink:href="#o"/>
        <use fill="#000" filter="url(#p)" xlink:href="#q"/>
        <use fill="#D5AC00" xlink:href="#q"/>
        <use fill="#000" filter="url(#r)" xlink:href="#s"/>
        <use fill="#D5AC00" xlink:href="#s"/>
        <rect fill="#F7F7F7" x="159.199991" y="139.199992" width="129.599992" height="182.399989" rx="4.79999971"/>
        <g transform="translate(188 160)">
          <ellipse fill="#E9E9E9" cx="35.9999979" cy="39.5999976" rx="35.9999979" ry="13.1999992"/>
          <ellipse fill="#EDC001" cx="35.9999979" cy="35.5999979" rx="35.9999979" ry="13.1999992"/>
          <ellipse fill="#D5AC00" cx="40.3999976" cy="34.7999979" rx="21.9999987" ry="8.3999995"/>
          <g transform="translate(8)">
            <path d="M28.4 38.1C53 38.1 56.8 15.3 56.8 10 56.8 4.4 44.1 0 28.4 0S0 4.4 0 9.9C0 15.3 3.8 38 28.4 38z" fill="#FFF"/>
            <ellipse fill="#FFF" cx="28.3999983" cy="9.88235235" rx="28.3999983" ry="9.88235235"/>
            <g transform="translate(2.8 1.1)">
              <mask id="u" fill="#fff">
                <use xlink:href="#t"/>
              </mask>
              <use fill="#F1F1F1" xlink:href="#t"/>
              <ellipse fill="#D5AC00" mask="url(#u)" cx="25.8693054" cy="13.7411757" rx="22.4950482" ry="5.36470556"/>
            </g>
          </g>
          <path d="M62.8 12.8c3.5-2.4 6.5-2.4 9.2 0 1.6 1.5.3 7-4.8 10.8-2.2 1.6-7 3.6-14.4 6" stroke="#FFF" stroke-width="3.99999976"/>
        </g>
        <rect fill="#F7F7F7" x="299.199982" y="139.199992" width="129.599992" height="182.399989" rx="4.79999971"/>
        <g transform="translate(317.6 156)">
          <ellipse fill="#E9E9E9" cx="25.3186798" cy="27.6615368" rx="25.3186798" ry="9.13846099"/>
          <ellipse fill="#EDC001" cx="25.3186798" cy="24.6461524" rx="25.3186798" ry="9.13846099"/>
          <ellipse fill="#D5AC00" cx="28.4131851" cy="24.0923063" rx="15.4725266" ry="5.81538427"/>
          <g transform="translate(5.6)">
            <path d="M20 26.4c17.3 0 20-15.8 20-19.6C40 3.1 31 0 20 0S0 3 0 6.8s2.7 19.6 20 19.6z" fill="#FFF"/>
            <ellipse fill="#FFF" cx="19.9736252" cy="6.84162855" rx="19.9736252" ry="6.84162855"/>
            <g transform="translate(2 .8)">
              <mask id="w" fill="#fff">
                <use xlink:href="#v"/>
              </mask>
              <use fill="#F1F1F1" xlink:href="#v"/>
              <ellipse fill="#D5AC00" mask="url(#w)" cx="18.1937972" cy="9.5131216" rx="15.8206932" ry="3.71402693"/>
            </g>
          </g>
          <path d="M44.2 8.9c2.4-1.7 4.6-1.7 6.4 0 1.2 1 .2 4.8-3.3 7.4A40 40 0 0 1 37 20.5" stroke="#FFF" stroke-width="2.55999985"/>
        </g>
        <g transform="translate(334.4 174.4)">
          <ellipse fill="#E9E9E9" cx="41.3311716" cy="25.3309461" rx="41.3038492" ry="12.5062947"/>
          <ellipse fill="#FFF" cx="41.3311716" cy="22.3412919" rx="41.3038492" ry="12.5062947"/>
          <path fill="#F1F1F1" d="M19.2 30.2h51.6v-9.9l-10.4-4z"/>
          <path fill="#D5AC00" d="M19.2 30.2V13.3l41.2-8v18.5z"/>
          <path d="M19.2 30.2v-1.8l35.8-6c1.1-.2 2-1.2 2-2.3V5.9l3.4-.7v18.6l-41.2 6.4z" fill="#A18200"/>
          <path fill="#EDC001" d="M19.2 13.3l41.2-8L37.2 0z"/>
          <path fill="#D5AC00" d="M57 6l3.4-.8L37.2 0l-1.8 1.3z"/>
        </g>
        <path d="M84.7 108l.6-.2.3-.5V101v-1l-.9.1v-.6h6v2.3h-.4c0-.7-.2-1.2-.5-1.5-.3-.2-.7-.3-1.3-.3h-1c-.2 0-.4 0-.5.2-.2.1-.2.3-.3.5v3.1h2.2v-1.1h.5v2.7H89l-.1-.7c0-.2-.2-.3-.4-.4h-1.8v3.7H88v.5h-3.3v-.4zm10 .6A3 3 0 0 1 92 107c-.2-.5-.4-1-.4-1.6 0-.7.2-1.3.5-1.9.2-.5.6-1 1.1-1.2A3.2 3.2 0 0 1 98 105c0 .6-.2 1.2-.5 1.7-.2.6-.6 1-1.1 1.3a3 3 0 0 1-1.6.5zm.2-.5c.6 0 1-.3 1.3-.8.3-.5.5-1.1.5-1.9 0-.8-.2-1.6-.5-2.2-.3-.6-.8-1-1.4-1-.7 0-1.2.3-1.5.9-.3.5-.5 1.1-.5 1.9l.3 1.5c.1.5.3.9.6 1.2.4.2.7.4 1.2.4zm4.2 0c.2 0 .4-.1.5-.3l.2-.4v-3.9-.8H99v-.5h1.1l.4-.3h.3l.1 1.2c.2-.3.5-.6 1-.9.3-.3.7-.4 1.2-.4.2 0 .4 0 .6.2.2.1.3.3.3.6l-.2.4-.5.2c-.1 0-.3 0-.4-.2a.6.6 0 0 1-.2-.5c-.3 0-.6.1-1 .4-.3.2-.5.6-.8 1v4.1l.8-.1v.5H99v-.4zm11.3.5c-1.2 0-1.8-.8-1.8-2.4v-3.7h-1v-.5c.5 0 .8-.2 1.1-.6.3-.3.5-.7.7-1.2h.4v1.8h2.1v.5h-2.1a1656 1656 0 0 1 .2 5c.1.2.4.4.7.4.3 0 .5 0 .7-.2l.6-.6.3.3c-.3.5-.6.8-1 1l-1 .2zm2.4-.6c.2 0 .4 0 .5-.2l.2-.4v-7l.1-.8h-.9v-.5l1-.1c.3 0 .5-.2.6-.3h.4v4a4 4 0 0 1 1-.7l1-.2c.8 0 1.3.2 1.7.7.3.4.5 1.2.5 2.2v3.3l.7-.1v.5H117v-.4c.3 0 .5 0 .6-.2l.2-.4v-2.7c0-.8-.1-1.3-.4-1.7-.2-.3-.5-.5-1-.5-.4 0-.7 0-1 .2-.3.1-.5.3-.7.6v3.7l-.1 1 .8-.1v.5h-2.6v-.4zm11 .6c-.6 0-1.2-.1-1.6-.4a3 3 0 0 1-1.2-1.2c-.3-.5-.4-1-.4-1.6 0-.7.1-1.3.4-1.9.3-.5.6-1 1.1-1.2a3.2 3.2 0 0 1 4.9 2.8c0 .6-.1 1.2-.4 1.7-.3.6-.7 1-1.2 1.3a3 3 0 0 1-1.6.5zm0-.5c.7 0 1.2-.3 1.4-.8.3-.5.5-1.1.5-1.9 0-.8-.2-1.6-.5-2.2-.3-.6-.8-1-1.4-1-.7 0-1.1.3-1.5.9-.3.5-.4 1.1-.4 1.9 0 .5 0 1 .2 1.5.1.5.4.9.7 1.2.3.2.6.4 1 .4zm7 .5a3.6 3.6 0 0 1-2-.6v.5h-.5l-.1-2.2h.4a1.9 1.9 0 0 0 1 1.6l.9.2c.3 0 .7 0 1-.3.2-.1.4-.4.4-.7 0-.2 0-.4-.2-.6l-.6-.4-.8-.4-1.1-.5c-.3-.1-.5-.3-.7-.6-.2-.2-.3-.6-.3-1 0-.2 0-.5.2-.8.1-.3.4-.5.7-.7.3-.2.7-.3 1.3-.3l.8.1.8.4v-.4h.5v2.2h-.4c0-.5-.2-1-.5-1.3-.3-.3-.7-.5-1.2-.5-.3 0-.7 0-.9.3-.2.1-.3.4-.3.6 0 .3 0 .5.2.7l.6.4.9.4 1 .5.7.6c.2.3.3.6.3 1 0 .3 0 .7-.3 1a2 2 0 0 1-.8.6l-1 .2zm6.3 0a3 3 0 0 1-2.7-1.6c-.3-.5-.4-1.1-.4-1.8 0-.6.1-1.1.4-1.7.3-.5.6-1 1.1-1.2a3 3 0 0 1 3-.2c.4.2.7.5 1 1 .2.4.3 1 .3 1.5l-4.5.1c0 1 .2 1.8.5 2.4.4.6.9.9 1.6.9.4 0 .8-.2 1.2-.4.4-.2.8-.4 1-.7l.3.2a3 3 0 0 1-1.3 1.1c-.5.3-1 .4-1.5.4zm1.5-4.4c0-.5-.1-1-.3-1.4-.3-.3-.6-.5-1-.5-1.1 0-1.8.6-2 1.9h3.3zm5.6 3.8c.2 0 .4 0 .5-.2l.2-.4v-7-.8h-.8v-.5l1-.1c.3 0 .5-.2.6-.3h.3v9.3l.8-.1v.5h-2.6v-.4zm5.4.6c-.6 0-1.1-.1-1.4-.4-.4-.3-.5-.7-.5-1.1 0-.5.2-1 .6-1.3.4-.3.9-.6 1.5-.7l1.8-.3v-.8c0-.5-.1-1-.3-1.3-.1-.3-.5-.4-1-.4l-.8.1a1 1 0 0 0-.5.5l.2.5c0 .1 0 .3-.2.4l-.4.2-.4-.2a.7.7 0 0 1-.1-.5c0-.3 0-.5.3-.7.2-.3.5-.5.9-.6l1.3-.2c.7 0 1.2.2 1.6.6.3.3.5 1 .5 1.8v3.8l.8-.1v.5h-1.8l-.1-.7c-.6.6-1.3.9-2 .9zm.3-.7c.3 0 .6 0 .9-.2l.8-.6V105.3c-.7 0-1.4.1-1.9.4-.5.3-.8.7-.8 1.2 0 .3 0 .5.3.7.2.2.4.3.7.3zm7 .7c-1.3 0-1.8-.8-1.8-2.4v-3.7h-1v-.5c.4 0 .8-.2 1-.6.3-.3.5-.7.7-1.2h.4v1.8h2.2v.5h-2.2a1658.3 1658.3 0 0 1 .2 5c.2.2.4.4.8.4.2 0 .4 0 .6-.2l.6-.6.3.3c-.3.5-.6.8-1 1l-.9.2zm5.6 0a3 3 0 0 1-2.7-1.6 3.6 3.6 0 0 1 0-3.5c.2-.5.6-1 1-1.2a3 3 0 0 1 3-.2c.5.2.8.5 1 1 .2.4.4 1 .4 1.5l-4.6.1c0 1 .2 1.8.6 2.4.3.6.8.9 1.6.9.4 0 .8-.2 1.2-.4l1-.7.2.2a3 3 0 0 1-1.2 1.1c-.5.3-1 .4-1.5.4zm1.4-4.4c0-.5 0-1-.3-1.4-.2-.3-.6-.5-1-.5-1 0-1.7.6-2 1.9h3.3zm5.8 3.8c.2 0 .4 0 .5-.2l.2-.4v-3.9-.8h-.8v-.5h1l.5-.3h.3l.1.8 1-.7 1-.2c.8 0 1.4.2 1.7.7.4.5.5 1.2.5 2.2v3.3l.8-.1v.5h-2.6v-.4c.2 0 .4 0 .5-.2l.2-.4v-2.7c0-.8-.1-1.3-.3-1.7-.3-.4-.6-.6-1.1-.6a2.2 2.2 0 0 0-1.7.8V108l.8-.1v.5h-2.6v-.4zm9-7.4c-.2 0-.3 0-.5-.2a.8.8 0 0 1-.2-.6c0-.2 0-.3.2-.5a.6.6 0 0 1 1 0l.2.5c0 .3 0 .4-.2.6l-.5.2zm-1.3 7.4c.3 0 .5 0 .6-.2l.2-.4v-3.9-.8h-.9v-.5h1.1l.5-.3h.4v6.1l.7-.1v.5h-2.6v-.4zm6.7 3.9c-.7 0-1.3-.1-1.8-.3-.5-.1-.8-.3-1-.6-.3-.3-.4-.6-.4-.9 0-.3.1-.6.4-.9.2-.3.5-.5.8-.6-.3 0-.5-.2-.7-.4a.9.9 0 0 1-.2-.6c0-.3.1-.6.4-.9.2-.2.5-.4.9-.4l-1-.8a2.3 2.3 0 0 1 0-2.5l1-.9 1.4-.3a3 3 0 0 1 1.6.5c.1-.4.4-.7.6-1 .3-.2.6-.3 1-.3.2 0 .3 0 .5.2a.6.6 0 0 1 0 .8l-.4.2a.6.6 0 0 1-.5-.5c-.2 0-.4.2-.5.3l-.3.6a2.1 2.1 0 0 1 .7 1.5c0 .5-.1.9-.4 1.3-.2.4-.6.6-1 .9a2.9 2.9 0 0 1-1.7.3h-.5l-.7.1c-.2.1-.3.3-.3.5s.2.4.5.5l1.6.1c1 0 1.8.2 2.4.5.5.3.7.8.7 1.4 0 .5-.1.8-.4 1.2-.3.3-.7.5-1.2.7l-1.5.3zm-.2-5.8c.5 0 .8-.1 1-.5.3-.3.5-.7.5-1.2 0-.6-.2-1.1-.4-1.5-.3-.5-.7-.7-1.1-.7-.5 0-.8.2-1.1.5a2 2 0 0 0-.4 1.3c0 .7.2 1.2.4 1.6.3.3.7.5 1.1.5zm.2 5.3c.5 0 .9 0 1.2-.2.4-.1.7-.3.8-.5.2-.2.3-.5.3-.7 0-.4-.2-.7-.6-.9-.4-.2-1-.3-1.8-.3h-1.4c-.2 0-.4.3-.5.5l-.2.7c0 .4.2.7.6 1 .4.2 1 .4 1.6.4zm3.9-3.4c.2 0 .4 0 .5-.2l.2-.4v-7-.8h-.8v-.5l1-.1c.3 0 .5-.2.6-.3h.3v4a4 4 0 0 1 1-.7l1.1-.2c.8 0 1.3.2 1.6.7.4.4.5 1.2.6 2.2v3.3l.7-.1v.5h-2.6v-.4c.3 0 .4 0 .5-.2l.2-.4v-2.7c0-.8 0-1.3-.3-1.7-.2-.3-.6-.5-1-.5s-.7 0-1 .2c-.3.1-.6.3-.8.6v4.7l.8-.1v.5H188v-.4zm10.2.6c-1.2 0-1.8-.8-1.8-2.4v-3.7h-1v-.5c.5 0 .8-.2 1.1-.6.3-.3.5-.7.7-1.2h.4v1.8h2.1v.5h-2.1a1656 1656 0 0 1 .2 5c.1.2.4.4.7.4.3 0 .5 0 .7-.2l.6-.6.3.3c-.3.5-.7.8-1 1l-1 .2zm5.1 0a3.6 3.6 0 0 1-2-.6l.1.5h-.5v-2.2h.3a1.9 1.9 0 0 0 1 1.6l1 .2c.3 0 .6 0 .9-.3.3-.1.4-.4.4-.7 0-.2 0-.4-.2-.6l-.5-.4-.9-.4-1-.5c-.3-.1-.6-.3-.8-.6-.2-.2-.3-.6-.3-1 0-.2 0-.5.2-.8l.7-.7c.3-.2.8-.3 1.3-.3l.8.1.8.4v-.4h.5v2.2h-.4c0-.5-.2-1-.5-1.3-.2-.3-.6-.5-1.1-.5-.4 0-.7 0-1 .3-.2.1-.3.4-.3.6l.2.7.6.4.9.4 1 .5.8.6c.2.3.3.6.3 1 0 .3-.1.7-.4 1a2 2 0 0 1-.8.6l-1 .2zm9.3 0a3.6 3.6 0 0 1-2-.6l.1.5h-.5v-2.2h.3a1.9 1.9 0 0 0 1 1.6l1 .2c.3 0 .6 0 .9-.3.3-.1.4-.4.4-.7 0-.2 0-.4-.2-.6l-.5-.4-.9-.4-1-.5c-.4-.1-.6-.3-.8-.6-.2-.2-.3-.6-.3-1 0-.2 0-.5.2-.8l.7-.7c.3-.2.8-.3 1.3-.3l.8.1.8.4v-.4h.5v2.2h-.4c0-.5-.2-1-.5-1.3-.2-.3-.6-.5-1.1-.5-.4 0-.7 0-1 .3-.2.1-.3.4-.3.6 0 .3 0 .5.2.7l.6.4.9.4 1 .5.8.6c.2.3.3.6.3 1 0 .3-.2.7-.4 1a2 2 0 0 1-.8.6l-1 .2zm3.2 2.7c.3 0 .5 0 .6-.2l.1-.5v-.9l.1-6.2v-.8h-.8v-.5h1l.4-.3h.4v.7a3 3 0 0 1 1-.6l1-.2c.6 0 1 .1 1.5.4.4.2.7.6 1 1.1.3.5.4 1 .4 1.7s-.2 1.3-.5 1.9c-.3.5-.7 1-1.2 1.2a3 3 0 0 1-3.1 0v3.1h.7v.5h-2.6v-.4zm3.4-3.2c.4 0 .7-.1 1-.4.3-.2.6-.6.7-1l.3-1.5c0-.8-.2-1.4-.5-2-.4-.5-.8-.8-1.5-.8-.3 0-.5 0-.8.2l-.7.5v4.5c.4.3 1 .5 1.5.5zm7.5.5a3 3 0 0 1-2.7-1.6c-.3-.5-.4-1.1-.4-1.8 0-.6 0-1.1.4-1.7.2-.5.6-1 1.1-1.2a3 3 0 0 1 3-.2c.4.2.7.5 1 1 .2.4.3 1 .3 1.5l-4.5.1c0 1 .1 1.8.5 2.4.3.6.9.9 1.6.9.4 0 .8-.2 1.2-.4l1-.7.3.2a3 3 0 0 1-1.3 1.1c-.5.3-1 .4-1.5.4zm1.5-4.4c0-.5-.1-1-.4-1.4-.2-.3-.5-.5-1-.5-1 0-1.7.6-1.9 1.9h3.3zm2.3 3.8c.3 0 .4 0 .6-.2l.1-.4v-3.9l.1-.8h-.9v-.5h1l.5-.3h.4v.8l1-.7 1.2-.2c.7 0 1.2.2 1.6.7.3.5.5 1.2.5 2.2v3.3l.7-.1v.5h-2.6v-.4c.3 0 .5 0 .6-.2l.2-.4v-2.7c0-.8-.1-1.3-.4-1.7-.2-.4-.6-.6-1-.6a2.2 2.2 0 0 0-1.7.8V108l.7-.1v.5h-2.6v-.4zm10.2.6c-1.2 0-1.8-.8-1.7-2.4v-3.7h-1v-.5c.4 0 .8-.2 1-.6.3-.3.5-.7.7-1.2h.4v1.8h2.2v.5H240a1658.3 1658.3 0 0 1 .2 5c.1.2.4.4.8.4.2 0 .4 0 .6-.2l.6-.6.3.3c-.3.5-.6.8-1 1l-.9.2zm5.8-.6c.2 0 .4 0 .5-.2l.2-.4v-7-.8h-.8v-.5l1-.1c.3 0 .5-.2.6-.3h.4v4a4 4 0 0 1 1-.7l1-.2c.8 0 1.3.2 1.7.7.3.4.5 1.2.5 2.2v3.3l.7-.1v.5h-2.6v-.4c.3 0 .4 0 .6-.2l.1-.4v-2.7c0-.8 0-1.3-.3-1.7-.2-.3-.6-.5-1-.5s-.7 0-1 .2c-.3.1-.6.3-.7.6v3.7l-.1 1 .8-.1v.5h-2.6v-.4zm10.5.6c-.7 0-1.3-.2-1.6-.6-.4-.4-.5-1.2-.5-2.2v-2.3-.8h-.9v-.5H255.2l.4-.3h.4v3.9c0 .7.1 1.3.3 1.6.2.4.6.6 1 .6s.7-.1 1-.3l.7-.7v-3.3-1h-.8v-.5h1.1l.5-.3h.3v6h.9v.5h-1.8l-.1-.8-1 .7-1.1.3zm5-.6c.2 0 .3 0 .5-.2l.1-.4v-3.9l.1-.8h-.9v-.5h1l.5-.3h.4v.8l1-.7 1.1-.2c.8 0 1.3.2 1.7.7.3.5.5 1.2.5 2.2v3.3l.7-.1v.5h-2.6v-.4c.3 0 .5 0 .6-.2l.2-.4v-2.7c0-.8-.1-1.3-.4-1.7-.2-.4-.6-.6-1-.6a2.2 2.2 0 0 0-1.7.8V108l.7-.1v.5H262v-.4zm10.1.6c-1.2 0-1.8-.8-1.7-2.4v-3.7h-1v-.5c.4 0 .8-.2 1-.6.3-.3.5-.7.7-1.2h.4v1.8h2.2v.5h-2.2a1657.1 1657.1 0 0 1 .2 5c.1.2.4.4.8.4.2 0 .4 0 .6-.2l.6-.6.3.3c-.3.5-.6.8-1 1l-.9.2zm3.8-8c-.2 0-.3 0-.5-.2a.8.8 0 0 1-.2-.6l.2-.5a.6.6 0 0 1 1 0l.2.5c0 .3 0 .4-.2.6l-.5.2zm-1.3 7.4c.3 0 .5 0 .6-.2l.2-.4v-3.9-.8h-.9v-.5h1.1l.5-.3h.4v6.1l.8-.1v.5h-2.7v-.4zm3.6 0c.3 0 .5 0 .6-.2l.2-.4v-3.9-.8h-.8v-.5h1l.5-.3h.3v.8l1-.7 1.2-.2c.7 0 1.3.2 1.6.7.3.5.5 1.2.5 2.2v3.3l.8-.1v.5h-2.6v-.4c.2 0 .4 0 .5-.2l.2-.4v-2.7c0-.8-.1-1.3-.4-1.7-.2-.4-.5-.6-1-.6a2.2 2.2 0 0 0-1.7.8V108l.8-.1v.5h-2.7v-.4zm10.9 3.9c-.7 0-1.3-.1-1.8-.3-.5-.1-.9-.3-1-.6-.3-.3-.4-.6-.4-.9 0-.3.1-.6.4-.9.2-.3.5-.5.8-.6-.3 0-.5-.2-.7-.4a.9.9 0 0 1-.2-.6c0-.3.1-.6.4-.9.2-.2.5-.4.9-.4l-1-.8a2.3 2.3 0 0 1 0-2.5l1-.9 1.4-.3a3 3 0 0 1 1.6.5c.1-.4.3-.7.6-1 .3-.2.6-.3 1-.3.2 0 .3 0 .5.2a.6.6 0 0 1 0 .8l-.4.2a.6.6 0 0 1-.6-.5c-.2 0-.3.2-.4.3l-.3.6a2.1 2.1 0 0 1 .7 1.5c0 .5-.1.9-.4 1.3-.2.4-.6.6-1 .9a2.9 2.9 0 0 1-1.7.3h-.5l-.7.1c-.2.1-.3.3-.3.5s.2.4.5.5l1.6.1c1 0 1.8.2 2.3.5.6.3.8.8.8 1.4 0 .5-.1.8-.4 1.2-.3.3-.7.5-1.2.7l-1.5.3zm-.2-5.8c.5 0 .8-.1 1-.5.3-.3.4-.7.4-1.2 0-.6 0-1.1-.4-1.5-.2-.5-.6-.7-1-.7-.5 0-.9.2-1.1.5a2 2 0 0 0-.4 1.3c0 .7.1 1.2.4 1.6.3.3.6.5 1.1.5zm.2 5.3c.5 0 .9 0 1.2-.2.4-.1.6-.3.8-.5.2-.2.3-.5.3-.7 0-.4-.2-.7-.6-.9-.4-.2-1-.3-1.8-.3h-1.4c-.2 0-.4.3-.5.5l-.2.7c0 .4.2.7.6 1 .4.2 1 .4 1.6.4zm7.4-3.4c.3 0 .4 0 .5-.2.2 0 .2-.3.2-.4v-4.8h-1v-.6h1v-.3c0-1 .2-1.7.6-2.2.4-.6 1-.8 1.8-.8.3 0 .6 0 .9.2.3.2.4.4.4.7l-.1.4-.4.2c-.2 0-.3 0-.4-.2l-.1-.3v-.3l-.2-.2h-.3c-.4 0-.7 0-.8.4-.2.3-.2.6-.2 1v1.4h1.7v.5h-1.7v5.5l.7-.1v.5h-2.6v-.4zm7.5.6a3 3 0 0 1-2.8-1.6c-.3-.5-.5-1-.5-1.6 0-.7.2-1.3.5-1.9.2-.5.6-1 1.1-1.2a3.2 3.2 0 0 1 4.9 2.8c0 .6-.2 1.2-.4 1.7-.3.6-.7 1-1.2 1.3a3 3 0 0 1-1.6.5zm0-.5c.7 0 1.1-.3 1.4-.8.3-.5.5-1.1.5-1.9 0-.8-.2-1.6-.5-2.2-.3-.6-.8-1-1.4-1-.7 0-1.2.3-1.5.9-.3.5-.5 1.1-.5 1.9l.3 1.5c.1.5.3.9.7 1.2.3.2.6.4 1 .4zm4.3 0c.2 0 .4-.1.5-.3l.2-.4v-3.9-.8h-.8v-.5h1.1l.4-.3h.3l.1 1.2c.2-.3.5-.6 1-.9.3-.3.7-.4 1.2-.4.2 0 .4 0 .6.2.2.1.3.3.3.6 0 .1 0 .3-.2.4l-.5.2c-.1 0-.3 0-.4-.2a.6.6 0 0 1-.2-.5c-.3 0-.6.1-1 .4-.3.2-.5.6-.8 1v4.1l.8-.1v.5h-2.6v-.4zm12 3.8c-.8 0-1.4-.1-1.9-.3-.4-.1-.8-.3-1-.6l-.3-.9c0-.3 0-.6.3-.9.3-.3.5-.5.8-.6-.3 0-.5-.2-.6-.4a.9.9 0 0 1-.2-.6c0-.3 0-.6.3-.9.3-.2.6-.4 1-.4-.5-.2-.8-.5-1-.8a2.3 2.3 0 0 1 0-2.5 2.8 2.8 0 0 1 2.3-1.2 3 3 0 0 1 1.7.5c.1-.4.3-.7.6-1 .3-.2.6-.3 1-.3.1 0 .3 0 .4.2a.6.6 0 0 1 0 .8l-.3.2a.6.6 0 0 1-.6-.5c-.2 0-.4.2-.5.3l-.2.6a2.1 2.1 0 0 1 .6 1.5c0 .5 0 .9-.3 1.3l-1 .9a2.9 2.9 0 0 1-1.8.3h-.4l-.7.1c-.2.1-.3.3-.3.5s.1.4.5.5l1.5.1c1.1 0 1.9.2 2.4.5s.8.8.8 1.4c0 .5-.2.8-.5 1.2l-1.1.7-1.5.3zm-.2-5.8c.4 0 .8-.1 1-.5.3-.3.4-.7.4-1.2 0-.6-.1-1.1-.4-1.5-.2-.5-.6-.7-1-.7-.5 0-.9.2-1.1.5a2 2 0 0 0-.4 1.3c0 .7.1 1.2.4 1.6.2.3.6.5 1 .5zm.1 5.3c.5 0 1 0 1.3-.2l.8-.5c.2-.2.3-.5.3-.7 0-.4-.2-.7-.6-.9-.5-.2-1-.3-1.9-.3h-1.3c-.2 0-.4.3-.5.5-.2.2-.2.4-.2.7 0 .4.2.7.6 1 .4.2.9.4 1.5.4zm4-3.4c.3 0 .5 0 .6-.2l.2-.4v-3.9-.8h-.8v-.5h1.1l.4-.3h.3l.1 1.2c.2-.3.5-.6 1-.9.3-.3.7-.4 1.1-.4.3 0 .5 0 .7.2.2.1.2.3.2.6l-.1.4-.5.2c-.2 0-.3 0-.4-.2a.6.6 0 0 1-.2-.5c-.3 0-.6.1-1 .4-.3.2-.6.6-.8 1v4.1l.8-.1v.5h-2.6v-.4zm8.7.6a3 3 0 0 1-2.7-1.6c-.3-.5-.4-1.1-.4-1.8 0-.6.1-1.1.4-1.7.3-.5.6-1 1.1-1.2a3 3 0 0 1 3-.2c.4.2.7.5 1 1 .2.4.3 1 .3 1.5l-4.5.1c0 1 .2 1.8.5 2.4.3.6.9.9 1.6.9.4 0 .8-.2 1.2-.4l1-.7.3.2a3 3 0 0 1-1.3 1.1c-.5.3-1 .4-1.5.4zm1.5-4.4c0-.5-.1-1-.4-1.4-.2-.3-.5-.5-1-.5-1 0-1.7.6-1.9 1.9h3.3zm4.1 4.4c-.6 0-1-.1-1.4-.4-.3-.3-.5-.7-.5-1.1 0-.5.2-1 .6-1.3.4-.3.9-.6 1.5-.7l1.8-.3v-.8c0-.5 0-1-.2-1.3-.2-.3-.5-.4-1-.4l-.8.1a1 1 0 0 0-.5.5l.1.5-.1.4-.4.2-.5-.2a.7.7 0 0 1-.1-.5c0-.3.1-.5.3-.7.2-.3.5-.5 1-.6l1.2-.2c.7 0 1.3.2 1.6.6.4.3.5 1 .5 1.8v3.8l.9-.1v.5h-1.9v-.7c-.7.6-1.4.9-2 .9zm.3-.7c.3 0 .6 0 1-.2l.7-.6V105.3c-.7 0-1.3.1-1.9.4-.5.3-.8.7-.8 1.2 0 .3.1.5.3.7.2.2.4.3.7.3zm7 .7c-1.2 0-1.8-.8-1.8-2.4v-3.7h-1v-.5c.5 0 .8-.2 1-.6.4-.3.6-.7.7-1.2h.5v1.8h2.1v.5h-2.1a1656 1656 0 0 1 .2 5c.1.2.3.4.7.4.2 0 .4 0 .7-.2l.5-.6.4.3-1 1-1 .2zm8.9 0a3 3 0 0 1-1-.2 2 2 0 0 1-.9-.6l-.3.6h-.5v-8l.1-.8h-.9v-.5l1-.1c.3 0 .5-.2.6-.3h.4v3.9c.2-.3.5-.5.8-.6l1.1-.2a2.7 2.7 0 0 1 2.5 1.5c.3.5.4 1.1.4 1.7 0 .8-.1 1.4-.5 2a3.3 3.3 0 0 1-2.8 1.6zm0-.5c.6 0 1-.3 1.4-.8.4-.5.6-1.1.6-2a4 4 0 0 0-.5-2c-.3-.6-.8-.9-1.5-.9a2.2 2.2 0 0 0-1.5.7v3.3c0 1.1.5 1.7 1.5 1.7zm7.6.5a3 3 0 0 1-2.8-1.6c-.3-.5-.4-1-.4-1.6 0-.7.1-1.3.4-1.9.3-.5.7-1 1.2-1.2a3.2 3.2 0 0 1 4.9 2.8c0 .6-.2 1.2-.5 1.7-.3.6-.7 1-1.2 1.3a3 3 0 0 1-1.6.5zm0-.5c.7 0 1.2-.3 1.5-.8.3-.5.4-1.1.4-1.9 0-.8-.2-1.6-.5-2.2-.3-.6-.8-1-1.4-1-.6 0-1.1.3-1.4.9-.4.5-.5 1.1-.5 1.9 0 .5 0 1 .2 1.5s.4.9.7 1.2c.3.2.7.4 1 .4zm7.5.5c-.6 0-1.2-.1-1.6-.4a3 3 0 0 1-1.2-1.2c-.3-.5-.4-1-.4-1.6 0-.7.1-1.3.4-1.9.3-.5.7-1 1.1-1.2a3.2 3.2 0 0 1 4.9 2.8c0 .6-.1 1.2-.4 1.7-.3.6-.7 1-1.2 1.3a3 3 0 0 1-1.6.5zm0-.5c.7 0 1.2-.3 1.5-.8.2-.5.4-1.1.4-1.9 0-.8-.2-1.6-.5-2.2-.3-.6-.8-1-1.4-1-.7 0-1.1.3-1.5.9-.3.5-.4 1.1-.4 1.9 0 .5 0 1 .2 1.5.1.5.4.9.7 1.2.3.2.6.4 1 .4zm4.2 0c.2 0 .4-.1.5-.3l.2-.4v-1a690.4 690.4 0 0 1 0-6.8h-.8v-.5l1-.1c.3 0 .4-.2.5-.3h.4v6h.5l1.6-1.5.7-.7h-.8v-.5h2.3v.4a2 2 0 0 0-1 .4c-.3.2-.7.5-1 1l-1 1 .4.2.3.5 1 1.1.2.4.7.7.6.3v.4h-1.2c-.2 0-.4 0-.5-.3l-.8-.9-.5-.7a53 53 0 0 0-1-1.2h-.5v2.7l.8-.1v.5H374v-.4zm9.6.5a3.6 3.6 0 0 1-2-.6v.5h-.5v-2.2h.4a1.9 1.9 0 0 0 1 1.6l.9.2c.3 0 .6 0 1-.3.2-.1.4-.4.4-.7l-.2-.6-.6-.4-.9-.4-1-.5c-.3-.1-.5-.3-.7-.6-.2-.2-.3-.6-.3-1 0-.2 0-.5.2-.8.1-.3.3-.5.7-.7.3-.2.7-.3 1.3-.3l.8.1.7.4v-.4h.6v2.2h-.5c0-.5-.1-1-.4-1.3-.3-.3-.7-.5-1.2-.5-.4 0-.7 0-.9.3-.2.1-.3.4-.3.6 0 .3 0 .5.2.7l.5.4 1 .4 1 .5.7.6c.2.3.3.6.3 1 0 .3-.1.7-.3 1a2 2 0 0 1-.8.6l-1.1.2zm3.7-8.4c0-.3 0-.5.2-.7 0-.2.3-.3.5-.3.3 0 .5.1.6.3l.2.7-.5 5.3h-.5l-.5-5.3zm.7 8.4c-.2 0-.4 0-.5-.2a.8.8 0 0 1-.2-.6c0-.2 0-.4.2-.6.1-.2.3-.2.5-.2s.4 0 .6.2l.2.6-.3.6-.5.2zM84.8 88.3h.7l.3-.4.1-1v-6l.1-1.5h-1.2v-1.2h4.4c1.3 0 2.3.2 3 .7.8.4 1.1 1.1 1.1 2 0 .5-.2 1-.6 1.5-.3.4-1 .7-1.7 1a4 4 0 0 1 2.3 1c.6.5.8 1.1.8 1.8 0 1-.3 1.8-1 2.4-.8.5-1.7.8-2.9.8h-5.4v-1zm4.3-5.2c.6 0 1-.2 1.4-.6.2-.4.4-1 .4-1.5 0-.6-.2-1-.5-1.3-.3-.3-.7-.4-1.2-.4h-.5l-.3.4-.1 1V83h.8zm-1 5.2h1.6c.7 0 1.1-.3 1.5-.7.3-.3.4-.8.4-1.4 0-.7-.2-1.2-.6-1.5-.4-.3-.9-.5-1.4-.5h-1.3V87l-.1 1.4zm10.4 1.4c-1 0-1.6-.3-2-.9-.4-.5-.6-1.4-.6-2.7v-1.8-1.4h-1v-1.2l1.5-.1c.5-.1.7-.2.9-.4h.9v5c0 .6 0 1.2.2 1.5.2.3.5.5.9.5.3 0 .5 0 .8-.2l.7-.6v-3.1l.1-1.4h-1.1v-1.2l1.6-.1c.4-.1.7-.2.8-.4h.9v7h1v1.2h-3l-.2-.8a6 6 0 0 1-1.1.8c-.4.2-.8.3-1.3.3zm8.3 4c-.4 0-.7 0-1-.3-.3-.3-.4-.6-.4-1 0-.3 0-.5.3-.8.2-.2.4-.3.7-.3.3 0 .4.1.6.3.2.1.2.3.2.6v.2c.2 0 .4-.2.7-.7l.7-1.9-2.6-5-.5-1.3-.2-1-.8.1v-1.2h4v1c-.4 0-.6.3-.6.6l.1.7 1.6 3.6.3-1.1a70.4 70.4 0 0 1 1.4-3.6h-1v-1.2h3v1c-.4.1-.7.3-.9.6l-.6 1.2-2 5.8a17 17 0 0 1-.9 2.2c-.2.5-.5.9-.9 1.1-.3.3-.7.4-1.2.4zm15-9.4a19.6 19.6 0 0 1-1-3.6v6.1l-.1 1.4h1.2v1.2h-3.7v-1l.7-.2c.1 0 .3-.1.3-.3l.2-1v-6l.1-1.5h-1.2v-1.2h3.6l2.4 6.2a73.4 73.4 0 0 1 .9 2.5 36 36 0 0 0 .8-2l2.4-6.7h3.7v1l-.6.2c-.2 0-.3.1-.4.3l-.1 1 .2 6v1.5h1.2v1.2h-4.5v-1l.7-.2c.1 0 .3-.1.3-.3l.2-1-.2-3.3V83l-.1-2.2-3.3 8.8H124l-2.1-5.3zm13.9 5.4c-.7 0-1.2-.2-1.6-.6-.4-.4-.6-1-.6-1.6 0-1 .5-1.6 1.3-2.1a7 7 0 0 1 3.2-.8v-.8c0-1-.4-1.5-1.1-1.5-.5 0-.9.1-1.2.4.2.2.2.4.2.7 0 .2 0 .4-.2.6-.2.2-.5.3-.8.3a1 1 0 0 1-.8-.3l-.2-.7c0-.5.1-.8.4-1.1a3 3 0 0 1 1.2-.8c.6-.2 1.1-.3 1.7-.3 2 0 3 1 3 3.1v4h1v1.2h-3l-.1-.7c-.7.6-1.5 1-2.4 1zm1-1.6c.5 0 1-.2 1.3-.6v-1.8c-.7 0-1.2.2-1.6.5-.4.3-.6.6-.6 1 0 .3 0 .5.3.7l.6.2zm8.5 1.6c-1.6 0-2.4-1-2.4-3.1v-3.9h-1.1v-1.3c.3 0 .7-.1 1-.3l.7-.8c.3-.3.4-.6.5-.9h1.2v2h2v1.2h-2v4c0 1 .3 1.6.9 1.6.5 0 1-.4 1.5-1l.7.7c-.5.8-1 1.2-1.5 1.4-.5.3-1 .4-1.5.4zm6.7 0c-1.7 0-2.5-1-2.5-3.1v-3.9h-1.1v-1.3c.3 0 .7-.1 1-.3l.7-.8c.3-.3.4-.6.5-.9h1.2v2h2v1.2h-2v4c0 1 .3 1.6 1 1.6.4 0 1-.4 1.4-1l.7.7c-.5.8-1 1.2-1.5 1.4-.5.3-1 .4-1.4.4zm3.1-1.3l.7-.2.2-.5v-7.3l.1-1.4h-1v-1.2l1.6-.1.8-.4h.9V82a4.4 4.4 0 0 1 2.3-.9c1 0 1.6.3 2 .9.5.5.7 1.4.7 2.7v3.5h1v1.2H160v-1c.4 0 .6-.2.7-.4.2-.2.2-.6.2-1v-2.3a3 3 0 0 0-.3-1.6c-.2-.3-.5-.5-1-.5a2.2 2.2 0 0 0-1.5.6v5h1v1.2H155v-1zm14 1.3a4 4 0 0 1-2-.6c-.6-.3-1.1-.8-1.4-1.4-.4-.7-.5-1.4-.5-2.3 0-.7.1-1.4.5-2a4 4 0 0 1 1.4-1.7c.6-.4 1.3-.6 2-.6 1.1 0 2 .3 2.7 1 .6.6 1 1.6 1 3h-5.3c0 1 .2 1.8.6 2.3.3.6.9.8 1.7.8A3.2 3.2 0 0 0 172 87l.7.7c-1 1.3-2.2 2-3.8 2zm1.5-5.6c0-1.2-.5-1.8-1.3-1.8-.5 0-.9.1-1.1.5-.3.3-.5.7-.6 1.3h3zm3.8-.2a18.5 18.5 0 0 1-.4-1.3h-.6v-1.2h3.9v1c-.5 0-.7.3-.7.7l.1.6.6 2 .3 1.4.1-.6.3-1 1.2-4.1h1.7l1.3 4.4.4 1.5c0-.4.2-.8.4-1.4l.6-2a12 12 0 0 1 .5-1.3h-1v-1.2h3.1v1c-.6 0-1 .6-1.4 1.8l-1.9 5.2h-1.6L180 86a38 38 0 0 1-.5-2l-.8 2.8-.8 2.6h-1.6l-2-5.5zm18.7 5.8c-.6 0-1.2-.2-1.6-.6-.4-.4-.6-1-.6-1.6 0-1 .5-1.6 1.4-2.1a7 7 0 0 1 3.1-.8v-.8c0-1-.4-1.5-1-1.5-.5 0-1 .1-1.2.4l.2.7-.3.6c-.2.2-.4.3-.8.3a1 1 0 0 1-.7-.3c-.2-.2-.3-.4-.3-.7 0-.5.1-.8.4-1.1a3 3 0 0 1 1.3-.8c.5-.2 1-.3 1.7-.3 2 0 3 1 3 3.1v2.6l-.1 1.4h1v1.2h-3v-.7h-.1c-.7.6-1.4 1-2.4 1zm1-1.6c.5 0 1-.2 1.3-.6v-1.8c-.6 0-1.2.2-1.6.5-.4.3-.6.6-.6 1 0 .3.1.5.3.7l.6.2zm13.4 1.6a4 4 0 0 1-2-.5c-.6-.4-1-.8-1.4-1.4-.4-.7-.5-1.4-.5-2.2 0-.8.1-1.6.5-2.2.3-.7.8-1.3 1.5-1.7a4 4 0 0 1 2.1-.6c.7 0 1.2.1 1.7.3.5.3.8.5 1 .9.3.3.4.7.4 1 0 .4-.1.6-.3.9a1 1 0 0 1-.8.3c-.4 0-.6 0-.8-.3-.2-.2-.3-.4-.3-.7 0-.2 0-.5.2-.7a.8.8 0 0 0-.4-.4l-.7-.1c-.5 0-1 .2-1.3.7-.3.5-.5 1.2-.5 2.1 0 1 .2 1.7.5 2.3.4.5 1 .8 1.7.8.4 0 .8 0 1.2-.3.5-.2.8-.5 1.1-.9l.7.7c-.5.8-1 1.3-1.7 1.5-.6.3-1.2.5-2 .5zm8.4 0c-.8 0-1.5-.2-2-.5-.7-.4-1.2-.8-1.5-1.5-.4-.6-.6-1.3-.6-2.1 0-.9.2-1.7.6-2.3a4 4 0 0 1 1.5-1.6c.6-.4 1.2-.6 2-.6.7 0 1.4.2 2 .5.6.4 1.1.8 1.5 1.5.3.6.5 1.3.5 2.2a5 5 0 0 1-.5 2.3 3.7 3.7 0 0 1-3.5 2zm0-1.2c.6 0 1-.3 1.3-.8.2-.5.3-1.2.3-2 0-1 0-1.8-.4-2.4-.2-.7-.6-1-1.2-1s-1 .2-1.3.8c-.3.6-.4 1.2-.4 2 0 1 .1 1.8.4 2.4.3.7.8 1 1.4 1zm5.2-.1c.4 0 .7-.2.8-.4l.2-1v-4.3h-1.2v-1.3h1.2v-.5c0-1.2.2-2.1.8-2.7.5-.6 1.3-.9 2.3-.9.7 0 1.2.2 1.5.4.4.3.5.6.5 1 0 .3 0 .6-.3.8a1 1 0 0 1-.7.3 1 1 0 0 1-.7-.3.9.9 0 0 1-.2-.6v-.3l-.4-.2c-.4 0-.6.4-.6 1v2h1.8v1.2h-1.8v5.6h1v1.2H221v-1zm5.9 0c.4 0 .7-.2.8-.4l.2-1v-4.3h-1.2v-1.3h1.2v-.5c0-1.2.2-2.1.8-2.7.5-.6 1.3-.9 2.3-.9.7 0 1.2.2 1.5.4.4.3.5.6.5 1 0 .3 0 .6-.2.8a1 1 0 0 1-.8.3 1 1 0 0 1-.7-.3.9.9 0 0 1-.2-.6v-.3l-.4-.2c-.4 0-.6.4-.6 1v2h1.8v1.2H230v5.6h1v1.2H227v-1zm9.7 1.3a4 4 0 0 1-2.1-.6c-.6-.3-1-.8-1.4-1.4-.3-.7-.5-1.4-.5-2.3 0-.7.2-1.4.5-2a4 4 0 0 1 1.4-1.7c.6-.4 1.3-.6 2.1-.6 1 0 1.9.3 2.6 1 .7.6 1 1.6 1 3H235c0 1 .1 1.8.5 2.3.4.6 1 .8 1.7.8a3.2 3.2 0 0 0 2.4-1.2l.7.7c-1 1.3-2.2 2-3.7 2zM238 84c0-1.2-.5-1.8-1.3-1.8-.5 0-.8.1-1.1.5-.3.3-.5.7-.5 1.3h2.9zm7.2 5.6a4 4 0 0 1-2.1-.6c-.6-.3-1-.8-1.4-1.4-.3-.7-.5-1.4-.5-2.3 0-.7.2-1.4.5-2a4 4 0 0 1 1.4-1.7c.6-.4 1.3-.6 2.1-.6 1 0 2 .3 2.6 1 .7.6 1 1.6 1 3h-5.2c0 1 .1 1.8.5 2.3.4.6 1 .8 1.7.8a3.2 3.2 0 0 0 2.4-1.2l.7.7c-1 1.3-2.2 2-3.7 2zm1.4-5.6c0-1.2-.5-1.8-1.3-1.8-.5 0-.8.1-1.1.5-.3.3-.5.7-.5 1.3h3zm11.5-6.3c-.5.7-.9 1.5-1.2 2.5a17.9 17.9 0 0 0 0 10.4c.3 1 .7 1.8 1.2 2.5l-.6.5c-.6-.5-1.1-1.2-1.7-2-.5-.9-1-1.8-1.3-2.9a10 10 0 0 1 0-6.5 13.1 13.1 0 0 1 3-5l.6.5zm2.8 11.9c-.6 0-1.2-.2-1.6-.6-.4-.4-.5-1-.5-1.6 0-1 .4-1.6 1.3-2.1a7 7 0 0 1 3.1-.8v-.8c0-1-.3-1.5-1-1.5-.5 0-1 .1-1.2.4l.2.7-.3.6c-.2.2-.4.3-.8.3a1 1 0 0 1-.7-.3c-.2-.2-.3-.4-.3-.7 0-.5.2-.8.5-1.1a3 3 0 0 1 1.2-.8c.5-.2 1-.3 1.7-.3 2 0 3 1 3 3.1v2.6l-.1 1.4h1v1.2h-3v-.7h-.1c-.7.6-1.4 1-2.4 1zm1-1.6c.5 0 1-.2 1.3-.6v-1.8c-.6 0-1.1.2-1.6.5-.4.3-.6.6-.6 1 0 .3.1.5.3.7l.6.2zm5.4.3c.4 0 .7-.2.8-.4l.2-1v-2.8V83h-1.1v-1.2l1.6-.1c.4-.1.7-.2.9-.4h.7l.1.8a4.4 4.4 0 0 1 2.3-.9c1 0 1.7.3 2.1.9.4.5.7 1.4.7 2.7v2.1l-.1 1.4h1v1.2h-4.2v-1c.4 0 .7-.2.8-.4l.2-1v-2.3c0-.7-.1-1.3-.3-1.6-.2-.3-.5-.5-1-.5a2.2 2.2 0 0 0-1.5.6v5h1v1.2h-4.2v-1zm13.3 1.3a3 3 0 0 1-1.7-.5c-.5-.4-.9-.8-1.1-1.5-.3-.6-.5-1.3-.5-2 0-1 .2-1.7.5-2.4.4-.7.8-1.2 1.4-1.6a3.8 3.8 0 0 1 3.5-.3v-1l.1-1.4h-1.1v-1.2l1.6-.1.8-.4h.9v10.9h1v1.2h-3l-.2-.7a3 3 0 0 1-2.2 1zm.8-1.5c.3 0 .5 0 .8-.2.2-.1.4-.3.5-.6v-4.8l-.5-.2h-.6c-.7 0-1.2.2-1.5.8-.3.6-.4 1.3-.4 2.2 0 .7.1 1.4.4 2 .3.5.7.8 1.3.8zm11.8 1.5c-.6 0-1.2-.2-1.6-.6-.3-.4-.5-1-.5-1.6 0-1 .4-1.6 1.3-2.1a7 7 0 0 1 3.1-.8v-.8c0-1-.3-1.5-1-1.5-.5 0-1 .1-1.2.4l.2.7-.3.6c-.2.2-.4.3-.8.3a1 1 0 0 1-.7-.3c-.2-.2-.3-.4-.3-.7 0-.5.2-.8.5-1.1a3 3 0 0 1 1.2-.8c.5-.2 1-.3 1.7-.3 2 0 3 1 3 3.1v2.6l-.1 1.4h1v1.2h-3v-.7h-.1c-.7.6-1.4 1-2.4 1zm1-1.6c.5 0 1-.2 1.3-.6v-1.8c-.6 0-1.1.2-1.6.5-.4.3-.6.6-.6 1 0 .3.1.5.3.7l.6.2zm13.4 1.6a4 4 0 0 1-2-.5c-.6-.4-1-.8-1.4-1.4-.4-.7-.5-1.4-.5-2.2 0-.8.1-1.6.5-2.2.3-.7.8-1.3 1.5-1.7a4 4 0 0 1 2.1-.6c.7 0 1.2.1 1.7.3.5.3.8.5 1 .9.3.3.4.7.4 1 0 .4-.1.6-.3.9a1 1 0 0 1-.8.3c-.4 0-.6 0-.8-.3-.2-.2-.3-.4-.3-.7l.2-.7a.8.8 0 0 0-.4-.4l-.7-.1c-.5 0-1 .2-1.3.7-.3.5-.5 1.2-.5 2.1 0 1 .2 1.7.5 2.3.4.5 1 .8 1.7.8.4 0 .8 0 1.3-.3.4-.2.7-.5 1-.9l.7.7c-.5.8-1 1.3-1.7 1.5-.6.3-1.2.5-1.9.5zm6.5 0c-.7 0-1.2-.2-1.6-.6-.4-.4-.6-1-.6-1.6 0-1 .5-1.6 1.3-2.1a7 7 0 0 1 3.2-.8v-.8c0-1-.4-1.5-1-1.5s-1 .1-1.2.4l.2.7-.3.6c-.2.2-.4.3-.8.3a1 1 0 0 1-.7-.3c-.2-.2-.3-.4-.3-.7 0-.5.1-.8.4-1.1a3 3 0 0 1 1.3-.8c.5-.2 1-.3 1.7-.3 2 0 3 1 3 3.1v2.6l-.2 1.4h1v1.2h-3v-.7c-.7.6-1.5 1-2.4 1zm1-1.6c.5 0 1-.2 1.3-.6v-1.8c-.6 0-1.2.2-1.6.5-.4.3-.6.6-.6 1 0 .3.1.5.3.7l.6.2zm5.1.3c.4 0 .7-.2.8-.4l.2-1v-6.6V79h-1v-1.2l1.6-.1.8-.4h.9v7.3h.7l1.2-1.3.6-.7h-.8v-1.2h3.6v1a3 3 0 0 0-1.3.4l-1 .9-1 1.1.5.4.5.6 1 1.4.8.9c.2.2.5.3.8.3v1h-1.9c-.3 0-.6-.1-.8-.3l-1-1-1.1-1.8-.5-.6h-.3v2.5h1v1.2h-4.3v-1zm13.6 1.3a4 4 0 0 1-2-.6c-.7-.3-1.1-.8-1.5-1.4-.3-.7-.5-1.4-.5-2.3 0-.7.2-1.4.5-2a4 4 0 0 1 1.5-1.7c.6-.4 1.3-.6 2-.6 1 0 2 .3 2.6 1 .7.6 1 1.6 1 3h-5.2c0 1 .2 1.8.5 2.3.4.6 1 .8 1.7.8a3.2 3.2 0 0 0 2.4-1.2l.7.7c-.9 1.3-2.1 2-3.7 2zm1.4-5.6c0-1.2-.4-1.8-1.3-1.8-.4 0-.8.1-1 .5-.3.3-.5.7-.6 1.3h3zm6.5 2.4c-.3 0-.7 0-1-.3-.2-.1-.3-.4-.3-.8 0-.3 0-.5.2-.8l1-1.2c.5-.4.8-.8 1-1.2.2-.4.3-.8.3-1.4 0-.5 0-1-.3-1.3-.2-.3-.5-.4-1-.4a1.7 1.7 0 0 0-1.2.5l.2.3v.5c0 .2 0 .4-.2.7-.2.2-.4.3-.8.3-.3 0-.6 0-.8-.3-.2-.2-.3-.4-.3-.8s.2-.7.5-1.1c.3-.4.7-.7 1.2-.9a4 4 0 0 1 1.7-.4c1.2 0 2 .3 2.6.8.5.5.8 1 .8 1.8 0 .6-.2 1.1-.6 1.6-.4.4-.9 1-1.6 1.5l-.9.8c-.2.1-.2.3-.2.5l.1.4.5.1h.5l.2.8-.8.2-.8.1zm.2 3.2a1 1 0 0 1-.8-.4l-.3-.9c0-.3 0-.6.3-.9a1.1 1.1 0 0 1 1.6 0c.3.3.4.6.4 1 0 .2-.1.5-.4.8-.2.2-.5.4-.8.4zm4.3 3.5c.5-.7.9-1.5 1.2-2.5a17.9 17.9 0 0 0 0-10.4c-.3-1-.7-1.8-1.2-2.5l.5-.6a12.6 12.6 0 0 1 3 4.9 10 10 0 0 1 .1 6.6 13.1 13.1 0 0 1-3 5l-.6-.5zM75 261.1c-1.8-.3-3.4-.9-4.9-1.8l.1 1.6h-3v-9h2.6a8.3 8.3 0 0 0 2.2 4.9 6.3 6.3 0 0 0 4.5 1.6c1.3 0 2.4-.3 3.1-1 .8-.7 1.2-1.7 1.2-2.8a3 3 0 0 0-.8-2c-.4-.6-1-1-1.6-1.3l-3.2-1.4c-2.6-1-4.7-2.3-6.1-3.8a7.6 7.6 0 0 1-2.3-5.7c0-1.8.6-3.5 1.8-5 1.2-1.4 3.2-2.2 6-2.3v-4.6H78v5a9 9 0 0 1 3.1 1.4l-.1-1.5h3v9h-2.6c-.3-2.3-1-3.9-2-5-.9-1-2.2-1.5-4-1.5-1 0-2 .3-2.7.9a3 3 0 0 0-1 2.4c0 .8.2 1.4.6 2 .3.5.9 1 1.7 1.5l3.6 1.8 4.1 2.2c1.2.7 2.1 1.6 3 2.8a6.8 6.8 0 0 1 1 4c0 2-.6 3.7-1.8 5a8.9 8.9 0 0 1-5.5 2.6v5.4H75v-5.4zm15.6-3a5 5 0 0 0 1.5-.3c.4-.1.7-.4.9-.9.2-.4.3-1.2.3-2.2v-15.4l-4.2 2.5-1.4-2.3 8.8-6.4h2.3v24.7l2.8-.2v3h-11v-2.5zM212.8 261.1c-1.8-.3-3.4-.9-4.8-1.8v1.6h-2.9v-9h2.5a8.3 8.3 0 0 0 2.3 4.9 6.3 6.3 0 0 0 4.5 1.6c1.3 0 2.3-.3 3-1 .8-.7 1.2-1.7 1.2-2.8a3 3 0 0 0-.7-2c-.5-.6-1-1-1.7-1.3L213 250c-2.6-1-4.6-2.3-6-3.8a7.6 7.6 0 0 1-2.3-5.7c0-1.8.6-3.5 1.7-5 1.2-1.4 3.2-2.2 6-2.3v-4.6h3.6v5a9 9 0 0 1 3 1.4v-1.5h3v9h-2.6c-.4-2.3-1-3.9-2-5-1-1-2.3-1.5-4-1.5-1.1 0-2 .3-2.7.9a3 3 0 0 0-1 2.4c0 .8.1 1.4.5 2 .4.5 1 1 1.7 1.5l3.6 1.8 4.2 2.2c1.1.7 2 1.6 2.9 2.8a6.8 6.8 0 0 1 1.1 4c0 2-.6 3.7-1.9 5a8.9 8.9 0 0 1-5.4 2.6v5.4h-3.5v-5.4zm22.2.1c-1.8 0-3.3-.3-4.6-.8a6.6 6.6 0 0 1-2.8-2.1c-.6-.9-1-1.8-1-2.7 0-.8.3-1.5.8-2.1.5-.6 1.2-.8 2-.8s1.4.2 1.8.7a2.7 2.7 0 0 1 .4 2.6c0 .3-.2.6-.4.9.2.4.7.8 1.3 1 .7.4 1.4.5 2.1.5 1.6 0 2.8-.5 3.6-1.4.9-1 1.3-2.1 1.3-3.7 0-1.5-.4-2.9-1.3-4-.9-1-2.4-1.6-4.4-1.6l-2 .2V245h1.1c1.7 0 3-.4 4-1.3 1-1 1.4-2.1 1.4-3.6 0-1.4-.3-2.5-.8-3.2-.6-.8-1.5-1.2-2.8-1.2-.6 0-1.2.2-1.8.5a3 3 0 0 0-1.2 1.1l.5 1 .1.9c0 .6-.2 1.1-.6 1.6-.4.6-1 .8-1.9.8-.8 0-1.4-.2-1.8-.7a3 3 0 0 1-.7-2c0-.8.3-1.7 1-2.6.6-1 1.5-1.7 2.7-2.4 1.2-.6 2.7-.9 4.4-.9 2.5 0 4.6.5 6.2 1.6 1.5 1.1 2.3 2.8 2.3 5.2 0 .7-.2 1.5-.6 2.3-.4.9-1 1.6-1.9 2.3-.8.7-2 1.1-3.3 1.4 2.4.5 4.2 1.4 5.4 2.7a6.4 6.4 0 0 1 1.8 4.5 7 7 0 0 1-2.8 6 12 12 0 0 1-7.5 2.1zM352.8 261.1c-1.8-.3-3.4-.9-4.8-1.8v1.6h-3v-9h2.6a8.3 8.3 0 0 0 2.3 4.9 6.3 6.3 0 0 0 4.4 1.6c1.4 0 2.4-.3 3.2-1 .7-.7 1.1-1.7 1.1-2.8a3 3 0 0 0-.7-2c-.5-.6-1-1-1.7-1.3L353 250c-2.6-1-4.6-2.3-6.1-3.8a7.6 7.6 0 0 1-2.2-5.7c0-1.8.6-3.5 1.7-5 1.2-1.4 3.2-2.2 6-2.3v-4.6h3.6v5a9 9 0 0 1 3 1.4v-1.5h2.9v9h-2.5c-.4-2.3-1-3.9-2-5-1-1-2.3-1.5-4-1.5-1.2 0-2 .3-2.7.9a3 3 0 0 0-1 2.4c0 .8.1 1.4.5 2 .4.5 1 1 1.7 1.5l3.6 1.8 4.2 2.2c1.1.7 2 1.6 2.8 2.8a6.8 6.8 0 0 1 1.2 4c0 2-.6 3.7-2 5a8.9 8.9 0 0 1-5.3 2.6v5.4h-3.6v-5.4zm22.1.1c-1.6 0-3-.2-4.2-.8a7 7 0 0 1-2.7-2 4 4 0 0 1-1-2.4c0-.8.3-1.5.8-2.1.5-.6 1.1-.9 2-.9.8 0 1.4.3 1.7.8.4.5.6 1 .6 1.7a3 3 0 0 1-.4 1.6c.1.4.5.7 1.1 1 .7.3 1.3.4 1.9.4 1.4 0 2.5-.5 3.2-1.6.7-1.1 1-2.4 1-3.9 0-4.4-1.5-6.6-4.6-6.6a10.3 10.3 0 0 0-4.6 1.4l-1.7-1.3-.1-12.8h10c1 0 1.7-.1 2.1-.5.5-.3.8-1 .8-2h2.4l-.3 6.2-12 .3v6.8c.5-.2 1.3-.5 2.2-.6l2.4-.3c2 0 3.8.4 5.2 1.2 1.4.7 2.4 1.8 3 3 .8 1.4 1.1 2.8 1.1 4.4a8.4 8.4 0 0 1-5 8c-1.6.7-3.2 1-4.9 1z" fill="#2A2A2A"/>
        <path d="M6.4 0h435.2c3.5 0 6.4 2.9 6.4 6.4v38.4H0V6.4C0 2.9 2.9 0 6.4 0z" fill="#EDC001"/>
        <path d="M27.7 17.8v1.7h-5.2v3.3h4v1.6h-4v3.3h5.2v1.7h-7.3V17.8h7.3zm1.7 11.6v-8.2h1.2c.3 0 .4.1.5.4l.2.6a4.5 4.5 0 0 1 1-.8 3 3 0 0 1 1.5-.3c.4 0 .8 0 1.2.2l.9.6.5 1 .2 1.3v5.2h-2v-5.2c0-.5-.1-1-.4-1.2-.2-.3-.5-.4-1-.4a2 2 0 0 0-1 .2l-.8.7v5.9h-2zm11.2-8.2v8.5l-.1 1-.5.8a2 2 0 0 1-.8.6l-1.2.2a3.5 3.5 0 0 1-1-.2v-1l.2-.2h.4l.5-.1.3-.2.2-.4v-9h2zm.3-2.4v.5a1.3 1.3 0 0 1-.8.6 1.2 1.2 0 0 1-1.3-.2c-.2-.1-.2-.3-.3-.4l-.1-.5a1.2 1.2 0 0 1 .4-.9 1.3 1.3 0 0 1 .8-.4l.5.1a1.3 1.3 0 0 1 .7.7l.1.5zm5.4 2.3c.6 0 1.2 0 1.7.3a3.6 3.6 0 0 1 2 2.1c.3.6.4 1.1.4 1.8A5 5 0 0 1 50 27c-.2.6-.5 1-.8 1.4l-1.3.8c-.5.2-1 .3-1.7.3-.6 0-1.2 0-1.7-.3a3.6 3.6 0 0 1-2-2.2 5 5 0 0 1-.4-1.7c0-.7.1-1.2.3-1.8.2-.5.5-1 .9-1.3.3-.4.7-.6 1.2-.8.5-.2 1.1-.3 1.7-.3zm0 6.9c.7 0 1.2-.2 1.5-.7.4-.4.5-1.1.5-2 0-.9-.1-1.6-.5-2-.3-.5-.8-.7-1.5-.7s-1.2.2-1.5.7c-.3.4-.5 1.1-.5 2 0 .9.2 1.5.5 2s.8.7 1.5.7zm8.5 3.7l-.2.3h-1.9l1.5-3.2-3.3-7.6h1.7l.4.1.2.3 1.8 4.2a3.8 3.8 0 0 1 .2.9 6.8 6.8 0 0 1 .3-.9l1.7-4.2a.6.6 0 0 1 .5-.4h1.6l-4.5 10.5zm9-10.6c.6 0 1 0 1.5.2a3.1 3.1 0 0 1 1.8 1.9 4.4 4.4 0 0 1 .3 2l-.1.2-.1.1h-5.3c0 .9.2 1.5.6 1.9.4.4 1 .6 1.6.6l.8-.1a14.1 14.1 0 0 0 1-.5l.5-.1h.2l.1.2.6.7-.7.6a4.1 4.1 0 0 1-1.8.7H64c-.5 0-1 0-1.6-.3-.4-.2-.9-.4-1.2-.8a4 4 0 0 1-.9-1.4 5.3 5.3 0 0 1 0-3.5c.1-.5.4-.9.7-1.2l1.3-1a4 4 0 0 1 1.6-.2zm0 1.4c-.5 0-1 .1-1.3.5-.3.3-.5.8-.6 1.4h3.7v-.8l-.4-.6-.6-.4-.7-.1zm11 6.9c-.3 0-.4-.1-.5-.4l-.2-.8a5 5 0 0 1-.5.6 3.4 3.4 0 0 1-1.3.6l-.8.1a2.7 2.7 0 0 1-2.2-1c-.3-.4-.5-.9-.6-1.4a6.6 6.6 0 0 1 0-3.5c.1-.5.4-1 .7-1.3l1.1-1c.4-.2 1-.3 1.5-.3a2.8 2.8 0 0 1 2 .8v-4.3h2v11.9h-1.2zM72 28c.5 0 .8-.1 1-.3l1-.7v-3.7a2 2 0 0 0-1.7-.8 2 2 0 0 0-.8.2l-.6.5c-.2.2-.3.5-.4.9l-.1 1.2v1.2l.4.9.5.4.7.2zM84 29.5c-.7 0-1.3-.2-1.6-.6-.4-.4-.6-1-.6-1.6v-4.6h-.8l-.3-.1-.1-.3v-.8l1.3-.2.4-2.3.1-.2.3-.1h1v2.6h2.2v1.4h-2.1V27c0 .3 0 .5.2.6 0 .2.3.2.5.2h.3a1.7 1.7 0 0 0 .4-.2h.2l.2.1.6 1a3 3 0 0 1-1 .5c-.4.2-.8.2-1.2.2zm3.5-.1V17.5h2v4.6l1-.8a3 3 0 0 1 1.4-.2c.4 0 .8 0 1.2.2l.8.6c.3.3.5.6.6 1l.2 1.3v5.2h-2v-5.2c0-.5-.1-1-.4-1.2-.2-.3-.6-.4-1-.4a2 2 0 0 0-1 .2l-.8.7v5.9h-2zm11.2-8.2v8.2h-2v-8.2h2zm.3-2.4l-.1.5a1.3 1.3 0 0 1-.7.6 1.2 1.2 0 0 1-1.4-.2l-.2-.4-.1-.5a1.2 1.2 0 0 1 .3-.9 1.3 1.3 0 0 1 1-.4l.4.1a1.3 1.3 0 0 1 .7.7l.1.5zm6.8 4l-.2.2h-.2-.3a21 21 0 0 0-.9-.4l-.6-.1c-.4 0-.7 0-1 .3-.2.1-.3.3-.3.6 0 .2 0 .3.2.4l.5.4.6.2a21 21 0 0 1 1.5.5l.6.4.5.7.1.8c0 .4 0 .8-.2 1-.1.4-.3.7-.6 1a3 3 0 0 1-1 .5 4.4 4.4 0 0 1-2.3.2 4.9 4.9 0 0 1-1.4-.6l-.6-.4.5-.7.2-.2.3-.1h.3a7.7 7.7 0 0 0 1 .5l.7.1h.6l.4-.3.2-.3v-.3-.5l-.5-.3-.7-.3a21.4 21.4 0 0 1-1.5-.5l-.6-.5a2 2 0 0 1-.5-.6l-.1-1a2.4 2.4 0 0 1 .7-1.7 3 3 0 0 1 1-.5 4 4 0 0 1 1.3-.2c.6 0 1.1 0 1.6.2s.8.5 1.2.8l-.5.7zm5.2 6.6v-8.2h1.2l.4.1.2.4v1c.4-.5.7-1 1.1-1.2.4-.3.8-.5 1.3-.5.4 0 .8.1 1 .3l-.2 1.5-.1.2h-1.1c-.4 0-.8 0-1 .3-.4.2-.6.6-.8 1v5.1h-2zm10-8.3c.5 0 1 0 1.4.2a3.1 3.1 0 0 1 1.8 1.9 4.4 4.4 0 0 1 .3 2l-.1.2-.1.1h-5.3c0 .9.2 1.5.6 1.9.4.4 1 .6 1.6.6l.8-.1a14.1 14.1 0 0 0 1-.5l.5-.1h.2l.1.2.6.7-.7.6a4.1 4.1 0 0 1-1.8.7h-.9c-.5 0-1 0-1.6-.3-.4-.2-.9-.4-1.2-.8a4 4 0 0 1-.9-1.4 5.3 5.3 0 0 1 0-3.5c.1-.5.4-.9.7-1.2l1.3-1a4 4 0 0 1 1.6-.2zm0 1.4c-.6 0-1 .1-1.4.5-.3.3-.5.8-.6 1.4h3.7v-.8l-.4-.6-.6-.4-.7-.1zm9.2 6.9h-1.8l-3.2-8.2h1.6l.4.1.2.3 1.5 4.3a8.2 8.2 0 0 1 .4 1.5 14.6 14.6 0 0 1 .4-1.5l1.7-4.3c0-.1 0-.2.2-.3l.3-.1h1.6l-3.3 8.2zm6.5-8.2v8.2h-2v-8.2h2zm.3-2.4v.5a1.3 1.3 0 0 1-.7.6 1.2 1.2 0 0 1-1.4-.2l-.3-.4v-.5a1.2 1.2 0 0 1 .3-.9 1.3 1.3 0 0 1 .9-.4l.5.1a1.3 1.3 0 0 1 .6.7l.1.5zm5.4 2.3c.5 0 1 0 1.4.2a3.1 3.1 0 0 1 1.9 1.9 4.4 4.4 0 0 1 .2 2v.2l-.2.1h-5.3c0 .9.3 1.5.7 1.9.4.4.9.6 1.5.6l.9-.1.6-.3.4-.2.4-.1h.2l.2.2.5.7-.7.6a4.1 4.1 0 0 1-1.7.7h-1c-.5 0-1 0-1.5-.3-.5-.2-1-.4-1.3-.8a4 4 0 0 1-.9-1.4 5.3 5.3 0 0 1 0-3.5c.2-.5.4-.9.8-1.2.3-.4.7-.7 1.2-1a4 4 0 0 1 1.7-.2zm0 1.4c-.6 0-1 .1-1.3.5-.4.3-.6.8-.7 1.4h3.7v-.8l-.4-.6-.5-.4-.8-.1zm4.1-1.3h1.6l.4.1.2.3 1.1 4.3a8.2 8.2 0 0 1 .3 1.4 22 22 0 0 1 .4-1.4l1.4-4.4s0-.2.2-.2l.3-.1h1.2l.2.3 1.4 4.5a17.4 17.4 0 0 1 .3 1.3 20.7 20.7 0 0 1 .3-1.4l1.2-4.3.2-.3.4-.1h1.5l-2.6 8.2h-1.6c-.2 0-.3-.1-.4-.4l-1.5-4.7a9.4 9.4 0 0 1-.2-1 13.7 13.7 0 0 1-.2 1L151 29c-.1.3-.3.4-.5.4H149l-2.6-8.2zm13-2.3a5.6 5.6 0 0 1 1.2-.9 4.4 4.4 0 0 1 1.8-.3c.4 0 .9 0 1.3.2l1 .5.6.9.2 1.1a2.8 2.8 0 0 1-1.2 2.4 97.7 97.7 0 0 1-1 .9c-.2.1-.3.3-.3.5l-.2 1.1h-1.4l-.1-1.3v-.1c0-.3 0-.5.2-.6 0-.2.2-.4.4-.5l.6-.5.5-.4.5-.6a1.5 1.5 0 0 0 0-1.3l-.3-.4-.4-.2-.6-.1a2.6 2.6 0 0 0-1.3.3l-.4.2-.2.1c-.2 0-.4 0-.5-.2l-.5-.8zm1.4 9.4a1.2 1.2 0 0 1 .4-.8 1.3 1.3 0 0 1 .8-.4 1.2 1.2 0 0 1 .9.4 1.2 1.2 0 0 1 .3 1.3l-.3.4-.4.2-.5.1a1.3 1.3 0 0 1-.8-.3l-.3-.4v-.5z" fill="#FFF"/>
        <path fill="#FFF" fill-rule="nonzero" d="M417.6 21.4l-6.2-6.2-1.8 1.8 6.2 6.2-6.2 6.2 1.8 1.8 6.2-6.2 6.2 6.2 1.8-1.8-6.2-6.2 6.2-6.2-1.8-1.8z"/>
        <g transform="translate(28 279.2)">
          <rect fill="#EDC001" width="109.843965" height="31.9999981" rx="4.79999971"/>
          <text font-family="Lato-Bold, Lato" font-size="12.7999992" font-weight="bold" fill="#FFF">
            <tspan x="33.7287971" y="21.7999995">Button</tspan>
          </text>
        </g>
        <g transform="translate(169.6 279.2)">
          <rect fill="#EDC001" width="109.843965" height="31.9999981" rx="4.79999971"/>
          <text font-family="Lato-Bold, Lato" font-size="12.7999992" font-weight="bold" fill="#FFF">
            <tspan x="33.7287971" y="21.7999995">Button</tspan>
          </text>
        </g>
        <g transform="translate(308 279.2)">
          <rect fill="#EDC001" width="109.843965" height="31.9999981" rx="4.79999971"/>
          <text font-family="Lato-Bold, Lato" font-size="12.7999992" font-weight="bold" fill="#FFF">
            <tspan x="33.7287971" y="21.7999995">Button</tspan>
          </text>
        </g>
        <circle fill="#D5AC00" cx="97.1999942" cy="179.599989" r="4.39999974"/>
        <circle fill="#D5AC00" cx="70.3999958" cy="186.399989" r="3.19999981"/>
        <circle fill="#D5AC00" cx="82.7999951" cy="201.199988" r="3.59999979"/>
        <circle fill="#A28300" cx="83.199995" cy="187.199989" r="2.39999986"/>
        <circle fill="#A28300" cx="71.1999958" cy="195.999988" r="2.39999986"/>
        <circle fill="#A28300" cx="96.7999942" cy="192.799989" r="3.19999981"/>
      </g>
    </g>
  </g>
</svg>
