<svg width="504px" height="281px" xmlns="http://www.w3.org/2000/svg" xmlns:xlink="http://www.w3.org/1999/xlink">
  <defs>
    <linearGradient x1="96.9764487%" y1="46.9764487%" x2="3.02355127%" y2="46.9764487%" id="b">
      <stop stop-color="#F6F6F6" offset="0%"/>
      <stop stop-color="#FFF" offset="100%"/>
    </linearGradient>
    <rect id="a" width="504" height="281" rx="6"/>
    <circle id="d" cx="76.7663944" cy="76.7663871" r="75.9999909"/>
    <path d="M43.5 53.7c10 0 16-.8 18.3-2.3 3.4-2.3 8-34.2 6.8-38.7-.7-3 9.5-7.2 30.8-12.6-2.5 15.2-4 25.1-4.5 29.6-1.1 10.2 0 12.8 0 13.7 0 1.5 4.5 4.6 13.7 9.1L77.8 106 0 99.2 41.2 56l2.3-2.3z" id="f"/>
    <path d="M51.2 84.9C40.5 90.6 29.7 102 22.1 97.6 13.8 92.6 7.7 74.8 8.2 67c-3-1.1-7.8-1.5-7.3-6 1.3-3.6 3-3.3 5.3-11.2 0-.3-.9-33.2 2-38.3 6.7-11.6 19-9.1 31-10.2 10.5-1 18.4-2 24.2 2.2C76.1 12.6 83 18.7 83 39.1 83 50.4 70.8 59 61 68.3c-7.7 7.3-3.2 8-9.9 16.6z" id="h"/>
    <path d="M11.2 8.8c7-5.7 16.1-7.4 17.3-7.5 16-2.3 36 3 46 17.3 15.8 22.2-.9 47.8-3.8 62.7-4.8 24.2 7.3 32.3 3.9 42-1.6 4.3-6.8 8-13.3 8.3-.7 0-2.4-2.8-3-2.8-1 0-1.7 4-2.7 3.8-.8-.2-2.5.4-3.2-2-.3-1.3.4-6.3 0-6.4-1.2-.1-3.8 8.8-4.9 8.4-2-.7 2.3-15.2 0-12.3-2.3 3-3.1 8.9-4.3 8.5-1.3-.4 0-8.3-3.4-1.2-3.4 7-1-7.2 3.4-16.9 3.8-8.3 11-14.3 11.6-20.7 1-10.5-3.4-18.8 2.4-24.4 13.6-13.1 5-21 0-23-1.8-.7-4-1-7.3 3.2-2.7 3.5-3.5 15.2-4.7 19-1.1 3.6-4.5-4-7-5.1-2-6.4.3-13-3.2-22.4-3.3-9-8.2-13.3-16.3-15.6-1-.1-8.9-1.1-12.8 2.3-3.9 3.4-6.8 1.8-4.5-5.4C3.3 13 9.5 10 11.2 8.8z" id="j"/>
    <path d="M19.9 128.8a357 357 0 0 0 17.7-6c4.5-1.6 9.6-2.2 15.3-1.8a93.5 93.5 0 0 0-6.7 25c0 4.3 17.1 2 51.4-7 7.7-11.4 14.2-18.2 19.3-20.5 5-2.2 14-2.2 26.6 0l22.1 60c-107.3-7.3-162-10.9-164.2-10.9-2.3 0 4-13 18.5-38.8z" id="m"/>
    <filter x="-0.3%" y="-0.8%" width="100.6%" height="103.2%" filterUnits="objectBoundingBox" id="l">
      <feOffset dy="1" in="SourceAlpha" result="shadowOffsetOuter1"/>
      <feColorMatrix values="0 0 0 0 0.719228316 0 0 0 0 0.579059125 0 0 0 0 0.0843697042 0 0 0 1 0" in="shadowOffsetOuter1"/>
    </filter>
  </defs>
  <g fill="none" fill-rule="evenodd">
    <mask id="c" fill="#fff">
      <use xlink:href="#a"/>
    </mask>
    <use fill="url(#b)" xlink:href="#a"/>
    <path d="M248.2 105.6a6 6 0 0 1-3.7-1.1c-1-.8-1.5-1.7-1.5-2.8 0-.8.3-1.5.8-2.1.4-.6 1.1-.9 2-.9.7 0 1.3.3 1.7.7.4.5.6 1 .6 1.7 0 .4 0 .8-.3 1.3 0 .2.2.4.5.5h.6c1 0 1.6-.9 1.6-2.8V85.7l.1-3.2H248v-2.7h10.4v2.4c-.7 0-1.2 0-1.5.2-.3.1-.6.4-.8.9-.2.4-.3 1-.3 2V96c0 3.3-.6 5.8-1.9 7.4-1.2 1.5-3.1 2.3-5.6 2.3zm19 0a9 9 0 0 1-4.6-1.2 8 8 0 0 1-3.1-3.3c-.8-1.5-1.2-3.1-1.2-5 0-1.7.4-3.3 1.2-4.8a9 9 0 0 1 3.2-3.5c1.3-1 2.9-1.4 4.6-1.4 2.4 0 4.3.7 5.9 2 1.5 1.4 2.3 3.7 2.2 7l-11.8.1a9 9 0 0 0 1.2 5c.8 1.3 2.1 1.9 4 1.9.8 0 1.7-.2 2.6-.7 1-.4 1.8-1 2.6-2l1.6 1.5c-2 3-4.8 4.4-8.4 4.4zm3.3-12.6c-.1-2.7-1-4-3-4a3 3 0 0 0-2.4 1 6 6 0 0 0-1.2 3h6.6zm6.6 9.7c.9 0 1.5-.3 1.7-.8.3-.5.4-1.3.4-2.4v-6l.1-3.2-2.5.2v-2.8c1.5 0 2.8 0 3.7-.3 1-.2 1.6-.5 1.9-.8h1.7l.2 1.8a9.9 9.9 0 0 1 5.2-2c2.2 0 3.8.6 4.7 1.9 1 1.2 1.4 3.3 1.4 6v4.9l-.1 3.2 2.3-.1v2.7h-9.4v-2.3c.9 0 1.5-.3 1.7-.8.3-.5.4-1.3.4-2.4v-5.2a7 7 0 0 0-.7-3.4c-.4-.8-1.2-1.2-2.2-1.2-.6 0-1.2.2-1.8.4a5 5 0 0 0-1.5 1v8.1l-.1 3.2 2.3-.1v2.7h-9.4v-2.3zm21.9 0c.9 0 1.5-.3 1.7-.8.3-.5.4-1.3.4-2.4v-6l.1-3.2-2.5.2v-2.8c1.5 0 2.8 0 3.7-.3 1-.2 1.5-.5 1.9-.8h1.7l.2 1.8a9.9 9.9 0 0 1 5.2-2c2.2 0 3.8.6 4.7 1.9 1 1.2 1.4 3.3 1.4 6v4.9l-.1 3.2 2.3-.1v2.7h-9.4v-2.3c.9 0 1.5-.3 1.7-.8.3-.5.4-1.3.4-2.4v-5.2a7 7 0 0 0-.7-3.4c-.4-.8-1.2-1.2-2.2-1.2-.6 0-1.2.2-1.8.4a5 5 0 0 0-1.5 1v8.1l-.1 3.2 2.3-.1v2.7H299v-2.3zm25.1 12c-.9 0-1.7-.2-2.3-.8-.6-.5-1-1.2-1-2.1 0-.7.3-1.2.7-1.7.5-.5 1-.8 1.7-.8.5 0 1 .2 1.3.6.4.4.5.8.5 1.4v.5c.5 0 1-.5 1.5-1.7.6-1.1 1.1-2.5 1.6-4.2l-5.7-11.4-1.3-2.8-.5-2H319V87h9v2.3c-1 .1-1.6.6-1.6 1.4 0 .4.2.9.4 1.4l3.5 8 .8-2.3 1.5-4.8c.6-1.7 1-2.8 1.5-3.4l-2 .1V87h6.4v2.3c-.7.2-1.3.6-1.8 1.3-.5.7-1 1.6-1.4 2.8l-4.5 12.9c-.7 2.1-1.3 3.8-2 5a8 8 0 0 1-2 2.6c-.7.6-1.6.9-2.7.9zm23.8-12l1.5-.3c.3-.1.6-.4.8-.9.2-.4.3-1 .3-2V85.7l.1-3.2H348v-2.7h10.2c3.3-.1 5.9.5 7.7 1.7 1.7 1.1 2.6 3 2.6 5.7 0 1.6-.5 3.1-1.6 4.4a9.3 9.3 0 0 1-4.7 2.8c.4.2.9.5 1.3 1 .5.4.9.8 1.2 1.3l1.7 2.5c.8 1.3 1.5 2.2 2 2.7a3 3 0 0 0 2 .7v2.4h-6l-1.2-1.2a24 24 0 0 1-1.4-2.2l-2.6-4.3a14 14 0 0 0-1.5-2h-2v7h3v2.7H348v-2.4zm9.5-10c2 0 3.4-.5 4.3-1.4.9-.9 1.3-2.2 1.3-4.1 0-2-.5-3.3-1.5-4-1-.6-2.2-1-3.4-1-.8 0-1.4.2-1.8.6-.4.3-.6 1.1-.6 2.3v7.4l1.7.1zm22 12.9a9 9 0 0 1-4.7-1.2 8 8 0 0 1-3.2-3.3c-.7-1.5-1-3.1-1-5 0-1.7.3-3.3 1-4.8a9 9 0 0 1 3.2-3.5c1.4-1 3-1.4 4.7-1.4 2.4 0 4.3.7 5.8 2 1.6 1.4 2.3 3.7 2.3 7l-11.8.1a9 9 0 0 0 1.2 5c.8 1.3 2.1 1.9 3.9 1.9.8 0 1.7-.2 2.7-.7 1-.4 1.8-1 2.6-2l1.6 1.5c-2 3-4.8 4.4-8.4 4.4zm3.2-12.6c-.1-2.7-1.1-4-3-4a3 3 0 0 0-2.5 1 6 6 0 0 0-1.2 3h6.7zm11 12.6c-1.5 0-2.7-.5-3.5-1.4-1-.9-1.3-2-1.3-3.4 0-2.1 1-3.7 3-4.8 1.9-1.1 4.2-1.7 7-1.8v-2c0-2-.8-3.2-2.4-3.2-1.1 0-2 .4-2.6 1 .2.4.4.8.4 1.4 0 .6-.2 1-.6 1.5-.4.5-1 .7-1.7.7-.8 0-1.3-.2-1.7-.7-.4-.4-.7-1-.7-1.7 0-1 .4-1.8 1-2.5.7-.7 1.6-1.3 2.8-1.7 1.2-.4 2.5-.6 3.8-.6 4.5 0 6.7 2.3 6.7 6.9v5.9c0 1.2 0 2.2-.2 3.2l2.4-.1v2.7h-6.8l-.2-1.7a7.2 7.2 0 0 1-5.3 2.3zm2.3-3.6c1.1 0 2-.4 2.9-1.2v-4c-1.5 0-2.6.4-3.5 1-1 .6-1.4 1.4-1.4 2.3 0 .7.2 1.2.6 1.5.4.3.8.4 1.4.4zm18 3.6c-1.4 0-2.6-.4-3.7-1.1-1.1-.8-2-1.8-2.6-3.2-.6-1.4-1-3-1-4.8 0-2 .5-3.7 1.2-5.2a8.5 8.5 0 0 1 11-4.2v-2.4c0-1.2 0-2.2.2-3.2l-2.6.1V79c1.5 0 2.7-.1 3.7-.3 1-.2 1.5-.5 1.9-.8h1.9v21.4l-.1 3.2 2.3-.1v2.7h-6.8l-.2-1.7a6.8 6.8 0 0 1-5.1 2.3zm2-3.3a3.8 3.8 0 0 0 3-1.7V89.8l-1.2-.5-1.4-.2c-1.6 0-2.7.7-3.3 2-.7 1.3-1 2.9-1 4.8 0 1.8.3 3.2 1 4.5.6 1.3 1.5 1.9 2.8 1.9zm19.9 3.3c-1 0-2-.2-3-.4-1-.3-1.8-.6-2.4-1l.1 1h-2.7l-.2-6.1h2.4a4 4 0 0 0 1.7 2.8c1 .7 2.3 1 3.8 1 .7 0 1.3 0 1.8-.4.5-.3.7-.7.7-1.3 0-.4-.1-.8-.4-1.1a73.2 73.2 0 0 0-7.2-3.2c-.8-.4-1.5-1-2-1.7-.7-.8-1-1.8-1-3a5.6 5.6 0 0 1 3-5 8.9 8.9 0 0 1 8 .4h.1v-1h2.7V93H439a4.7 4.7 0 0 0-5-4 3 3 0 0 0-1.6.4c-.5.3-.7.8-.7 1.5 0 .6.2 1.1.8 1.4a13.6 13.6 0 0 0 3.6 1.4c2 .8 3.6 1.6 4.7 2.6 1 1 1.6 2.2 1.6 3.7a5 5 0 0 1-1 3c-.5.9-1.3 1.5-2.3 2-1 .4-2.1.6-3.2.6zM246.5 135.2v4.8h-1.8v-12.9h3.9c.8 0 1.5.1 2 .3a4 4 0 0 1 1.6.8c.4.3.7.8.9 1.3.2.4.3 1 .3 1.6 0 .6-.1 1.1-.4 1.6-.2.5-.5 1-.9 1.3-.4.4-.9.7-1.5.9-.6.2-1.3.3-2 .3h-2.1zm0-1.4h2c.6 0 1 0 1.4-.2.4-.1.7-.3 1-.6l.5-.8.2-1.1c0-.8-.2-1.5-.7-2-.6-.4-1.3-.6-2.3-.6h-2.1v5.3zm11 .8v5.4h-1.8v-12.9h3.7a8 8 0 0 1 2.1.3c.6.1 1 .4 1.5.7.4.3.6.7.8 1.1.2.4.3 1 .3 1.5 0 .4 0 .9-.2 1.3-.1.4-.4.7-.6 1l-1 .8a5 5 0 0 1-1.4.5l.6.6 3.8 5.1h-1.6c-.3 0-.5-.1-.7-.4l-3.3-4.6a1 1 0 0 0-.4-.3h-1.8zm0-1.3h1.8l1.4-.1c.3-.2.7-.3 1-.6l.5-.8.2-1c0-.8-.2-1.3-.7-1.7-.6-.4-1.3-.6-2.3-.6h-2v4.8zm21.6.3c0 1-.1 1.8-.4 2.6a5.8 5.8 0 0 1-3.3 3.4c-.8.4-1.7.5-2.6.5-1 0-1.8-.1-2.6-.4a5.8 5.8 0 0 1-3.3-3.5 7.4 7.4 0 0 1 0-5.3c.3-.8.7-1.5 1.3-2 .5-.7 1.2-1.1 2-1.5.8-.3 1.6-.4 2.6-.4s1.8.1 2.6.4a5.8 5.8 0 0 1 3.3 3.5c.3.8.4 1.7.4 2.7zm-1.8 0c0-.8 0-1.5-.3-2.2a4 4 0 0 0-2.4-2.6c-.5-.2-1.1-.3-1.8-.3s-1.3 0-2 .3a4 4 0 0 0-1.4 1c-.4.5-.7 1-.9 1.6-.2.7-.3 1.4-.3 2.2 0 .7.1 1.5.3 2 .2.7.5 1.2 1 1.7.3.4.8.7 1.4 1a5 5 0 0 0 1.9.3 5 5 0 0 0 1.9-.3 4 4 0 0 0 1.4-1l1-1.6.2-2.1zm9.6 1v5.4h-1.7v-12.9h3.6a8 8 0 0 1 2.1.3c.6.1 1.1.4 1.5.7.4.3.7.7.9 1.1.2.4.2 1 .2 1.5 0 .4 0 .9-.2 1.3-.1.4-.3.7-.6 1l-1 .8a5 5 0 0 1-1.3.5c.2.2.4.3.5.6l3.8 5.1h-1.5c-.4 0-.6-.1-.7-.4L289 135a1 1 0 0 0-.3-.3h-1.9zm0-1.3h1.8l1.4-.1c.4-.2.7-.3 1-.6l.5-.8c.2-.3.2-.6.2-1 0-.8-.2-1.3-.7-1.7-.5-.4-1.3-.6-2.3-.6H287v4.8zm17.6-6.2v1.4h-6.2v4.3h5v1.4h-5v4.4h6.2v1.4h-8v-12.9h8zm1 0h1.4l.4.1.2.3 3.7 9.1.2.7.2.7a15.2 15.2 0 0 1 .4-1.4l3.6-9c0-.2.2-.3.3-.4l.3-.1h1.4l-5.2 12.9h-1.6l-5.3-12.9zm15.9 12.9h-1.8v-12.9h1.8V140zm11.4-12.9v1.4h-6.2v4.3h5v1.4h-5v4.4h6.2v1.4h-8v-12.9h8zm1 0h1.5l.4.1.2.3 2.6 9a6.6 6.6 0 0 1 .3 1 38.6 38.6 0 0 1 .2-1l3-9 .3-.3.4-.1h.5l.4.1.2.3 3 9 .3 1a39.2 39.2 0 0 0 .2-1l2.7-9s0-.2.2-.3l.4-.1h1.3l-4 12.9h-1.6l-3.2-9.8-.2-.7a56.1 56.1 0 0 0-.2.7l-3.3 9.8H338l-4-12.9zm27.8 0v1.4h-6.2v4.3h5v1.4h-5v4.4h6.2v1.4h-8v-12.9h8zm4.4 7.5v5.4h-1.8v-12.9h3.7a8 8 0 0 1 2.1.3c.6.1 1 .4 1.5.7.4.3.7.7.8 1.1.2.4.3 1 .3 1.5 0 .4 0 .9-.2 1.3-.1.4-.4.7-.6 1l-1 .8a5 5 0 0 1-1.4.5l.6.6 3.8 5.1h-1.6c-.3 0-.5-.1-.7-.4l-3.3-4.6a1 1 0 0 0-.4-.3H366zm0-1.3h1.8l1.4-.1c.3-.2.7-.3 1-.6l.5-.8c.2-.3.2-.6.2-1 0-.8-.2-1.3-.7-1.7-.6-.4-1.3-.6-2.3-.6h-2v4.8z" fill="#2A2A2A" mask="url(#c)"/>
    <g mask="url(#c)" fill="#EDC001">
      <rect width="120" height="41" rx="20.5" transform="translate(239 160)"/>
    </g>
    <path d="M270.7 174v2H265v3.8h5v1.9h-5v5.3h-2.4v-13h8.2zm14.4 6.5c0 1-.2 1.8-.5 2.6-.3.9-.7 1.6-1.3 2.2a6 6 0 0 1-2.1 1.3 7 7 0 0 1-2.7.5 7 7 0 0 1-2.7-.5 6.1 6.1 0 0 1-3.4-3.5 7.2 7.2 0 0 1 0-5.3 6.2 6.2 0 0 1 3.4-3.5 7 7 0 0 1 2.7-.5c1 0 1.9.2 2.7.5a6.2 6.2 0 0 1 3.4 3.5c.3.9.5 1.7.5 2.7zm-2.5 0a6 6 0 0 0-.3-2 4 4 0 0 0-.8-1.4c-.3-.4-.8-.7-1.3-.9-.5-.2-1-.3-1.7-.3-.6 0-1.2.1-1.7.3-.5.2-1 .5-1.3 1a4 4 0 0 0-.8 1.4 6 6 0 0 0-.3 1.9c0 .7 0 1.3.3 2a3.6 3.6 0 0 0 2.1 2.3c.5.2 1 .3 1.7.3.6 0 1.2-.1 1.7-.3.5-.3 1-.6 1.3-1 .4-.3.6-.8.8-1.4a6 6 0 0 0 .3-2zm6.8 4.5h5.2v2H287v-13h2.4v11zm9.3 0h5.2v2h-7.6v-13h2.4v11zm18.7-4.5c0 1-.2 1.8-.5 2.6-.3.9-.8 1.6-1.3 2.2a6 6 0 0 1-2.1 1.3 7 7 0 0 1-2.7.5 7 7 0 0 1-2.7-.5 6.1 6.1 0 0 1-3.4-3.5c-.4-.8-.5-1.7-.5-2.6 0-1 .1-1.8.5-2.7a6.2 6.2 0 0 1 3.4-3.5 7 7 0 0 1 2.7-.5c1 0 1.9.2 2.7.5a6.2 6.2 0 0 1 3.4 3.5c.3.9.5 1.7.5 2.7zm-2.5 0a6 6 0 0 0-.3-2 4 4 0 0 0-.8-1.4c-.4-.4-.8-.7-1.3-.9-.5-.2-1-.3-1.7-.3-.6 0-1.2.1-1.7.3-.5.2-1 .5-1.3 1a4 4 0 0 0-.9 1.4 6 6 0 0 0-.2 1.9c0 .7 0 1.3.2 2 .2.5.5 1 .9 1.4l1.3.9c.5.2 1 .3 1.7.3.6 0 1.2-.1 1.7-.3.5-.3 1-.6 1.3-1 .4-.3.6-.8.8-1.4a6 6 0 0 0 .3-2zm3.2-6.5h2l.5.1c.2.1.3.3.3.4l2.2 7.8a8.4 8.4 0 0 1 .3 1.4 12.3 12.3 0 0 1 .4-1.4l2.5-7.8a.9.9 0 0 1 .8-.5h.7l.5.1c.2.1.3.3.3.4l2.6 7.8.3 1.3a24.8 24.8 0 0 1 .3-1.3l2.2-7.8.3-.4.5-.1h1.9l-4 13h-2.2l-2.9-8.9a20.8 20.8 0 0 1-.2-.8 8.5 8.5 0 0 1-.2.8l-2.9 8.9h-2.2l-4-13z" fill="#FFF" mask="url(#c)"/>
    <g mask="url(#c)">
      <g transform="translate(52 60)">
        <mask id="e" fill="#fff">
          <use xlink:href="#d"/>
        </mask>
        <circle stroke="#FFF" stroke-width="8" cx="76.7663944" cy="76.7663871" r="79.9999909"/>
        <path d="M58.9 105.5c0 3.8-5.5 13-8.2 20.8-2.8 7.8-12.5 11.2-9.7 15 2 2.6 9.5 4.4 22.7 5.7 11.6-15.1 17.4-23.2 17.4-24.2 0-1.2-35.9-109.4-41-87.7C37.8 45.6 59 104.5 59 105.5z" fill="#616161" mask="url(#e)"/>
        <path d="M39.1 75c1.6 0 2.9-3 2.9-8 0-2.5 0-5.6-.6-7.2-.5-1.6-5-2.7-5.4.6-.1 1 1.5 14.6 3.1 14.6z" stroke="#979797" stroke-width="2" mask="url(#e)" transform="rotate(-3 39 66.6)"/>
        <g mask="url(#e)">
          <g transform="translate(1 83.4)">
            <mask id="g" fill="#fff">
              <use xlink:href="#f"/>
            </mask>
            <use fill="#F3CFB4" xlink:href="#f"/>
            <path d="M57.8 36.3c4.6 4.9 11.2 9.9 19.9 15 8.6 5.3 11.2 12.8 7.7 22.8l33.4-23.3L104.7 7c3.5-8.3 1-10.6-7.5-6.9C88.7 4 75.5 16 57.8 36.3zM51.5 42.3c-6 18.2-6 32.6 0 43.2 6 10.7 1.5 17.5-13.7 20.5l-5.7-36.4C33 54 34.9 44 37.8 40c3-4.1 7.5-3.4 13.7 2.3z" fill="#D1A98B" mask="url(#g)"/>
          </g>
        </g>
        <g mask="url(#e)">
          <g transform="translate(36.7 19.1)">
            <mask id="i" fill="#fff">
              <use xlink:href="#h"/>
            </mask>
            <use fill="#F3CFB4" xlink:href="#h"/>
            <path d="M11.6 77.5c5 2 9.4 1.4 13-1.6 5.6-4.6-.5 8.2-6.3 8.2-3.8 0-6-2.2-6.7-6.6z" fill="#FFF" mask="url(#i)"/>
            <ellipse fill="#454545" mask="url(#i)" cx="20.6900063" cy="48.3136316" rx="2.69000626" ry="5.31363165"/>
            <path d="M6 21.8c9.6-4.3 18-2.5 25 5.3 10.6 11.7 6.8 25.1 8.7 30.3 2 5.2 5 8.1 7.6 6.7 2.8-1.5.5-27.7 9.7-25.4 6.6 1.6 10.2 9.4 6.4 17.2-1.4 3-8.1 4.4-8 6.7 0 .5-2 5.7-1.8 9.6.3 4.7 2.9 8.6 1.8 12.7-2.3 8.5-8.6 10.8-8 12 .8 1.9 6.2-4.6 16-19.5l16.1-37.5L47.3 1.3H10.5L6 21.8z" fill="#D1A98B" mask="url(#i)"/>
            <path d="M55 43.4c1.3-.7 4.4-.2 5.6 1.3 1.2 1.5 3.4 9.7 0 9.7s-2-.3-2-3.9c0-2.4-1.2-4.3-3.7-5.8-.8-.4-.8-.8 0-1.3z" fill="#D1A98B" mask="url(#i)"/>
          </g>
          <g transform="translate(39.4 14.6)">
            <mask id="k" fill="#fff">
              <use xlink:href="#j"/>
            </mask>
            <use fill="#717171" xlink:href="#j"/>
            <path d="M.1 12.6c6.6-4 18.3-3.4 35 2 25.2 8.2 3.2 16.5 32.3 18.8 29.2 2.3-13.2 42.6-6.6 67 6.6 24.5 6.6 30.9 6.6 32.2 0 1.4-35.8 5.7-38.7 3.6-3-2.2-27.3-48.8-27.3-62.8S-14 44.9-14 40.5c0-2.9 4.7-12.2 14.1-28z" fill="#616161" mask="url(#k)"/>
          </g>
          <g transform="translate(-4.6 14.6)">
            <use fill="#000" filter="url(#l)" xlink:href="#m"/>
            <use fill="#EDC001" xlink:href="#m"/>
          </g>
        </g>
        <path d="M51.4 50.3c5.5-2.2 10-.7 13.3 4.3M40.8 50c1-.8 2.6-.5 4.5 1.1" stroke="#616161" stroke-width="2" stroke-linecap="round" stroke-linejoin="round" mask="url(#e)"/>
        <path d="M54.3 76c2.9 0 5.2-4.5 5.2-10 0-3.2.6-6.2-.5-8-1-1.5-8.5-1.7-9.5.5-.7 1.8-.5 5-.5 7.4 0 5.6 2.4 10 5.3 10z" stroke="#979797" stroke-width="2.0930398" mask="url(#e)" transform="rotate(-3 54.3 66.4)"/>
        <path d="M42 65c2-3.3 4-3.3 6 0M59 63l29.6-1" stroke="#979797" stroke-width="2.32559984" mask="url(#e)"/>
      </g>
    </g>
    <circle fill="#EDC001" mask="url(#c)" cx="194" cy="79" r="24"/>
    <path d="M202.9 68l-14.2 17.6-4.7-5.4a3 3 0 0 0-4-.4 2.4 2.4 0 0 0-.4 3.5l9.3 10.7 18.5-23c.9-1.1.6-2.7-.6-3.5a3 3 0 0 0-4 .5z" fill="#FFF" mask="url(#c)"/>
  </g>
</svg>
