<svg width="520px" height="310px" xmlns="http://www.w3.org/2000/svg" xmlns:xlink="http://www.w3.org/1999/xlink">
  <defs>
    <linearGradient x1="96.9764487%" y1="46.9764487%" x2="3.02355127%" y2="46.9764487%" id="b">
      <stop stop-color="#F6F6F6" offset="0%"/>
      <stop stop-color="#FFF" offset="100%"/>
    </linearGradient>
    <rect id="a" width="520" height="310" rx="6"/>
    <path d="M140.8 88H1.3C.6 88 0 87.4 0 86.7V1.3C0 .6.6 0 1.3 0h139.5c.7 0 1.3.6 1.3 1.3v85.4c0 .7-.6 1.3-1.3 1.3z" id="d"/>
    <path d="M560.7 284a214 214 0 0 1-11.2-74.4c2.5-25.3 125.2-17.7 135-.8 6.4 11.3 2.1 36.4-13 75.2H560.6z" id="f"/>
  </defs>
  <g fill="none" fill-rule="evenodd">
    <mask id="c" fill="#fff">
      <use xlink:href="#a"/>
    </mask>
    <use fill="url(#b)" xlink:href="#a"/>
    <g mask="url(#c)">
      <g transform="translate(-316 33)">
        <path d="M319 65h163a2 2 0 0 1 2 2v10a2 2 0 0 1-2 2H319a2 2 0 0 1-2-2V67c0-1.1.9-2 2-2zm16-5a2 2 0 0 1-2-2V14c0-1.1.9-2 2-2h6a2 2 0 0 1 2 2v44a2 2 0 0 1-2 2h-6zm16 0a2 2 0 0 1-2-2V7c0-1.1.9-2 2-2h6a2 2 0 0 1 2 2v51a2 2 0 0 1-2 2h-6zm16 0a2 2 0 0 1-2-2V14c0-1.1.9-2 2-2h6a2 2 0 0 1 2 2v44a2 2 0 0 1-2 2h-6zm16 0a2 2 0 0 1-2-2V14c0-1.1.9-2 2-2h6a2 2 0 0 1 2 2v44a2 2 0 0 1-2 2h-6zm16 0a2 2 0 0 1-2-2V2c0-1.1.9-2 2-2h6a2 2 0 0 1 2 2v56a2 2 0 0 1-2 2h-6zm16 0a2 2 0 0 1-2-2V14c0-1.1.9-2 2-2h6a2 2 0 0 1 2 2v44a2 2 0 0 1-2 2h-6zm16 0a2 2 0 0 1-2-2V7c0-1.1.9-2 2-2h6a2 2 0 0 1 2 2v51a2 2 0 0 1-2 2h-6zm16 0a2 2 0 0 1-2-2V14c0-1.1.9-2 2-2h6a2 2 0 0 1 2 2v44a2 2 0 0 1-2 2h-6zm16 0a2 2 0 0 1-2-2V30c0-1.1.9-2 2-2h6a2 2 0 0 1 2 2v28a2 2 0 0 1-2 2h-6zM557.5 252h-44.7c-8.8 1.3-13.1 5.5-13.1 12.5s21.6 9 64.8 6l-7-18.5zM657 142h163a2 2 0 0 1 2 2v10a2 2 0 0 1-2 2H657a2 2 0 0 1-2-2v-10c0-1.1.9-2 2-2zm16-5a2 2 0 0 1-2-2V91c0-1.1.9-2 2-2h6a2 2 0 0 1 2 2v44a2 2 0 0 1-2 2h-6zm16 0a2 2 0 0 1-2-2V84c0-1.1.9-2 2-2h6a2 2 0 0 1 2 2v51a2 2 0 0 1-2 2h-6zm16 0a2 2 0 0 1-2-2V91c0-1.1.9-2 2-2h6a2 2 0 0 1 2 2v44a2 2 0 0 1-2 2h-6zm16 0a2 2 0 0 1-2-2V91c0-1.1.9-2 2-2h6a2 2 0 0 1 2 2v44a2 2 0 0 1-2 2h-6zm16 0a2 2 0 0 1-2-2V79c0-1.1.9-2 2-2h6a2 2 0 0 1 2 2v56a2 2 0 0 1-2 2h-6zm16 0a2 2 0 0 1-2-2V91c0-1.1.9-2 2-2h6a2 2 0 0 1 2 2v44a2 2 0 0 1-2 2h-6zm16 0a2 2 0 0 1-2-2V84c0-1.1.9-2 2-2h6a2 2 0 0 1 2 2v51a2 2 0 0 1-2 2h-6zm16 0a2 2 0 0 1-2-2V91c0-1.1.9-2 2-2h6a2 2 0 0 1 2 2v44a2 2 0 0 1-2 2h-6zm16 0a2 2 0 0 1-2-2v-28c0-1.1.9-2 2-2h6a2 2 0 0 1 2 2v28a2 2 0 0 1-2 2h-6z" fill="#E9E9E9"/>
        <path d="M724 51l10.5 3.5a45 45 0 0 1 29.6 53.4L742 199" stroke="#012C3B" stroke-width="5"/>
        <circle stroke="#FFF" stroke-width="0.522547056" fill="#FFF" cx="710" cy="66" r="10.7387265"/>
        <path d="M689.2 48.4a28.1 28.1 0 0 1 42.4-7.5 28.1 28.1 0 0 1 0 43l-42.4-35.5zM775.3 204.1c9.3-5-5.5-7.5-44.3-7.5s-53.6 2.5-44.3 7.5h88.6z" fill="#012C3B"/>
        <path d="M720.4 202.8c1.9-4.3-1.4-6.5-10.4-6.5s-12.3 2.2-10.4 6.5h20.8z" stroke="#FFF" stroke-width="0.653183859" fill="#FFF"/>
        <path d="M483.9 95h144.6c2.8 0 5.2 2.3 5.2 5.2v96h-155v-96c0-2.9 2.3-5.2 5.2-5.2z" fill="#2A2A2A"/>
        <path d="M465 203.5c-2 0-3.7-1.7-3.7-3.8v-2.5c0-.7.5-1.2 1.1-1.2h189.2c.6 0 1.2.5 1.2 1.2v2.5c0 2.1-1.7 3.8-3.8 3.8H465z" stroke="#FFF" stroke-width="0.5" fill="#EDC001"/>
        <path d="M544 199.5h25.4c1.3 0 2.4-1 2.4-2.4v-1.3h-30.1v1.3c0 1.4 1 2.4 2.4 2.4z" fill="#EDEDED"/>
        <g transform="translate(485.5 101.5)">
          <mask id="e" fill="#fff">
            <use xlink:href="#d"/>
          </mask>
          <use fill="#FCF2D0" xlink:href="#d"/>
          <path fill="#FFF" mask="url(#e)" d="M4.4 13.9H138v69.8H4.4z"/>
          <path fill="#F8D763" opacity="0.100000001" mask="url(#e)" transform="matrix(1 0 0 -1 0 57.5)" d="M4.4 13.9H138v29.7H4.4z"/>
          <path d="M98 27.8v-.3a1 1 0 0 0-.3-.3l-.3-.1h-.2l-.1-.1h-.2L38.8 39a1 1 0 0 0-.3 1.9l16.7 8.8L58 65.8v.4l.1.3v.1l.2.2h.1l.2.1.4.1c.3 0 .6-.1.7-.3L71 59.3l11.6 7.5a1 1 0 0 0 1.5-.5l14-37.8v-.7zm-11.5 6.8l-24 17.6h-.1v.1l-.1.1-.2.3-2.7 9-2.2-12.1 29.3-15zm-25.6 29l2.7-9 5.5 3.5-8.2 5.5z" fill="#2A2A2A" fill-rule="nonzero" mask="url(#e)"/>
          <path fill="#FFF" mask="url(#e)" d="M21.5 4.7h90v6h-90z"/>
          <rect fill="#F8D763" mask="url(#e)" x="4.38830747" y="4.72868577" width="5.88957055" height="5.89189189" rx="1"/>
          <rect fill="#F8D763" mask="url(#e)" x="12.6337062" y="4.72868577" width="5.88957055" height="5.89189189" rx="1"/>
          <rect fill="#F8D763" mask="url(#e)" x="132.191988" y="4.72868577" width="5.88957055" height="5.89189189" rx="1"/>
          <rect fill="#F8D763" mask="url(#e)" x="123.357633" y="4.72868577" width="5.88957055" height="5.89189189" rx="1"/>
        </g>
        <rect fill="#E9E9E9" x="317" y="203" width="481" height="18" rx="9"/>
        <path fill="#E9E9E9" d="M341 226h53v100h-53zM718 226h53v100h-53z"/>
        <g>
          <use stroke="#EDC001" stroke-width="12" fill="#EDC001" xlink:href="#f"/>
          <use stroke="#DCB11C" stroke-width="5" xlink:href="#f"/>
        </g>
      </g>
    </g>
  </g>
</svg>
