<svg width="717px" height="410px" xmlns="http://www.w3.org/2000/svg" xmlns:xlink="http://www.w3.org/1999/xlink">
  <defs>
    <path d="M475.4 269c-57.6 0-112.7-9.1-162.5-7.6-91 2.7-162.5 14.6-170.5 11.1a65.6 65.6 0 0 0-25.8-3.5c-5.9.7-21.3 14.2-28.6 15-92.1 11.2-92.8 22.5-52 26 40.9 3.5 145.8 3.8 220.7 24.4 75 20.5 246.6-20.6 283.8-20.6 18.5 0 119.4-7.3 108.7-15.3-4.4-3.2-30.6-11.7-61.9-17-21-3.6-44.3-1.4-64.1-3.5-23.9-2.5-42.8-9-47.8-9z" id="a"/>
    <filter x="-0.8%" y="-6.3%" width="101.6%" height="112.7%" filterUnits="objectBoundingBox" id="b">
      <feOffset dy="-10" in="SourceAlpha" result="shadowOffsetInner1"/>
      <feComposite in="shadowOffsetInner1" in2="SourceAlpha" operator="arithmetic" k2="-1" k3="1" result="shadowInnerInner1"/>
      <feColorMatrix values="0 0 0 0 0.950866284 0 0 0 0 0.898140144 0 0 0 0 0.718871269 0 0 0 1 0" in="shadowInnerInner1"/>
    </filter>
    <path id="c" d="M333.2 273v28.4L163 282.6v-27.2z"/>
    <filter x="-2.1%" y="-7.6%" width="104.1%" height="115.2%" filterUnits="objectBoundingBox" id="d">
      <feOffset dy="7" in="SourceAlpha" result="shadowOffsetInner1"/>
      <feComposite in="shadowOffsetInner1" in2="SourceAlpha" operator="arithmetic" k2="-1" k3="1" result="shadowInnerInner1"/>
      <feColorMatrix values="0 0 0 0 0.950866284 0 0 0 0 0.898140144 0 0 0 0 0.718871269 0 0 0 1 0" in="shadowInnerInner1"/>
    </filter>
    <path d="M49.6 0c48.5 30.5 61.5 98.5 39 204.1l-39 8V0zm0 0v212.1l-38.9-8C-11.8 98.6 1.2 30.5 49.7 0z" id="e"/>
    <filter x="-5.5%" y="-2.6%" width="111.1%" height="105.2%" filterUnits="objectBoundingBox" id="f">
      <feOffset dx="-11" dy="-9" in="SourceAlpha" result="shadowOffsetInner1"/>
      <feComposite in="shadowOffsetInner1" in2="SourceAlpha" operator="arithmetic" k2="-1" k3="1" result="shadowInnerInner1"/>
      <feColorMatrix values="0 0 0 0 0.900722789 0 0 0 0 0.900722789 0 0 0 0 0.900722789 0 0 0 1 0" in="shadowInnerInner1"/>
    </filter>
    <circle id="i" cx="71.5" cy="98.5" r="23.5"/>
    <filter x="-5.3%" y="-5.3%" width="114.9%" height="121.3%" filterUnits="objectBoundingBox" id="h">
      <feOffset dx="2" dy="5" in="SourceAlpha" result="shadowOffsetOuter1"/>
      <feColorMatrix values="0 0 0 0 0.901960784 0 0 0 0 0.901960784 0 0 0 0 0.901960784 0 0 0 1 0" in="shadowOffsetOuter1"/>
    </filter>
    <circle id="j" cx="71.5" cy="98.5" r="16.5"/>
    <filter x="-10.6%" y="-10.6%" width="121.2%" height="121.2%" filterUnits="objectBoundingBox" id="k">
      <feOffset dx="2" dy="3" in="SourceAlpha" result="shadowOffsetInner1"/>
      <feComposite in="shadowOffsetInner1" in2="SourceAlpha" operator="arithmetic" k2="-1" k3="1" result="shadowInnerInner1"/>
      <feColorMatrix values="0 0 0 0 0 0 0 0 0 0 0 0 0 0 0 0 0 0 0.5 0" in="shadowInnerInner1"/>
    </filter>
    <path d="M4 9h73c.6 0 1 .4 1 1v32c0 .6-.4 1-1 1H4a1 1 0 0 1-1-1V10c0-.6.4-1 1-1z" id="l"/>
    <filter x="-2.0%" y="-4.4%" width="104.0%" height="108.8%" filterUnits="objectBoundingBox" id="m">
      <feOffset dx="3" dy="2" in="SourceAlpha" result="shadowOffsetInner1"/>
      <feComposite in="shadowOffsetInner1" in2="SourceAlpha" operator="arithmetic" k2="-1" k3="1" result="shadowInnerInner1"/>
      <feColorMatrix values="0 0 0 0 0.266741071 0 0 0 0 0.266741071 0 0 0 0 0.266741071 0 0 0 0.5 0" in="shadowInnerInner1"/>
    </filter>
    <path d="M374 288.1c.3 0 .5-.2.7-.4l.3-.7.4-1.2 2.5-10 1-.2 2.8 9.4a12.7 12.7 0 0 1 .4 1.7l.8-.2v1.4l-3.6.6v-1.2c.4 0 .6-.3.6-.8l-.1-.9-.3-1-2.9.6-.2 1-.2.6-.2.8a8 8 0 0 1 1-.2v1.5l-3 .4v-1.2zm5.2-4.6l-.6-2.2c-.3-1-.5-1.7-.5-2.4l-.6 2.5-.5 2.4 2.2-.3zm12.2 3.3c-1 .1-1.7 0-2.4-.5a4.2 4.2 0 0 1-1.6-2 11 11 0 0 1 0-6.5c.4-1.1.9-2 1.6-2.8.7-.8 1.5-1.3 2.5-1.4a4 4 0 0 1 2.5.4v-.7l1-.2v4.2l-.9.2c0-1-.3-1.7-.8-2.1-.4-.5-1-.7-1.6-.6-.6.1-1.1.5-1.5 1-.4.5-.7 1.2-1 2a10.5 10.5 0 0 0 .5 6.4c.5.9 1.2 1.2 2 1a5 5 0 0 0 2-.7v-1.7-1.6l-.7.1-.3.1V280l3.5-.6v1.2l-.5.2-.3.5v4h-.4c-.2 0-.4 0-.6.2l-.8.4-1.1.6-1 .3zm5.7-2.5c.2 0 .4 0 .5-.2.2 0 .3-.2.3-.4l.1-1v-7l.1-1.6-1 .2V273l3.8-.6c1.2-.2 2.1-.1 2.8.4.6.5 1 1.4 1 2.7 0 .8-.2 1.6-.6 2.3-.4.7-1 1.2-1.8 1.7.2 0 .4.2.5.4l.5.6.6 1.1.7 1.2c.2.2.5.3.8.3v1.2l-2.2.3a2 2 0 0 1-.5-.5l-.5-1-1-2a6 6 0 0 0-.5-1l-.7.2v3.5l1-.2v1.4l-3.9.6v-1.2zm3.5-5.5c.7-.2 1.3-.5 1.6-1 .3-.4.5-1.2.5-2.1 0-1-.2-1.6-.6-1.9l-1.2-.3a1 1 0 0 0-.7.4c-.2.2-.2.6-.2 1.2v3.7h.6zm5.6 4c.3 0 .4 0 .6-.2l.3-.4v-8l.1-1.6-1 .2v-1.4l6.7-1v3.4l-.8.2c0-1-.2-1.5-.5-1.8-.3-.3-.7-.4-1.1-.3h-.5l-.5.3-.3.5-.1 1v2.7l1.6-.3-.1-1.5 1-.2v4.4l-.9.1-.1-1-.5-.4h-.7l-.3.1v4.6l1.7-.3c.5 0 .9-.3 1.2-.8.3-.5.4-1.2.4-2l1-.2-.2 4-7 1.1v-1.2zm7.7-1.3c.2 0 .4-.1.6-.4l.4-.7.3-1.2 2.6-10 1-.2 2.7 9.4a12.7 12.7 0 0 1 .4 1.7l.8-.2v1.4l-3.6.6v-1.2c.4 0 .6-.3.6-.8l-.1-.9-.3-1-2.9.6-.2 1-.1.6-.3.9a8 8 0 0 1 1-.3v1.5l-2.9.5v-1.3zm5.1-4.6l-.6-2.2-.5-2.4-.5 2.5-.6 2.4 2.2-.3zm6.1 2.8l.6-.2.3-.5v-9.6h-.5c-.6.2-1 .5-1.2 1-.3.5-.5 1.2-.5 2.2l-.8.1v-4l8-1.4.2 4-1 .2c0-1 0-1.6-.4-2a1 1 0 0 0-1.2-.6l-.6.1v10.1l1-.2v1.4l-3.9.6v-1.2zm13.9-.8h-1.2l-1.1-.5v.7l-1 .2v-4.2l.8-.1c.2 1 .4 1.6.9 2 .4.5 1 .7 1.6.6.5 0 .8-.3 1.1-.7.3-.4.5-.8.5-1.3 0-.3-.1-.7-.3-.9a2 2 0 0 0-.7-.5l-1.1-.5c-1-.4-1.8-.9-2.3-1.4-.5-.6-.7-1.5-.7-2.6 0-.5 0-1 .3-1.6a3.4 3.4 0 0 1 2.8-2.3h1.2c.4 0 .7.3 1 .5v-.8l1-.1v4.2l-.9.1a4 4 0 0 0-.7-2.1c-.4-.5-1-.6-1.6-.5-.4 0-.7.2-1 .6-.3.3-.4.7-.4 1.2s.1.9.5 1.2l1.6 1c1 .3 1.7.7 2.2 1.2.6.6.9 1.4.9 2.4 0 .7-.2 1.4-.5 2a4 4 0 0 1-3 2.2zm6.2-2.5l.6-.2.3-.5V266l-.5.1c-.6.1-1 .4-1.2 1-.3.5-.5 1.2-.5 2.2l-.9.1.1-4 8-1.4.2 4-1 .2c0-1 0-1.7-.4-2a1 1 0 0 0-1.2-.6l-.6.1v10.1l1-.3v1.4l-3.9.7v-1.2zm11.4-.4c-1 .2-2 0-2.7-.5a4.4 4.4 0 0 1-1.5-2.2 10.1 10.1 0 0 1 0-6.3c.4-1.1 1-2 1.7-2.8.7-.8 1.5-1.2 2.5-1.4 1-.2 1.9 0 2.6.6.7.5 1.2 1.2 1.5 2.2.4 1 .5 2 .5 3s-.1 2.1-.5 3.2c-.3 1-.9 2-1.6 2.8-.7.7-1.5 1.2-2.5 1.4zm.1-1.4a2 2 0 0 0 1.4-1c.4-.5.6-1.1.8-2a12 12 0 0 0-.4-6.3c-.5-1-1.1-1.3-2-1.2-.6.1-1 .5-1.4 1-.4.6-.7 1.3-.8 2a12.3 12.3 0 0 0 0 5c.2.8.5 1.4.9 2 .4.4.9.6 1.5.5zm5.7-1l.5-.3.3-.4.1-1v-7-1.6l-1 .2v-1.4l3.8-.6c1.3-.2 2.2-.1 2.9.4.6.5 1 1.4 1 2.7 0 .8-.2 1.6-.6 2.3-.4.7-1 1.2-1.8 1.7.2 0 .3.2.5.4.2.1.3.3.4.6l.7 1.1.7 1.2c.2.2.4.3.7.3v1.2l-2.2.3a2 2 0 0 1-.4-.5l-.5-1-1-2a6 6 0 0 0-.6-1l-.7.2v3.5l1.1-.2v1.4l-4 .6v-1.2zm3.5-5.6c.7-.2 1.2-.5 1.6-1 .3-.4.4-1.2.4-2.1 0-1-.1-1.6-.5-1.9-.4-.2-.8-.3-1.3-.3a1 1 0 0 0-.6.4c-.2.2-.3.6-.3 1.2v3.7h.7zm7.6 3.7l.6-.2.3-.5v-2.6l-2.4-4.8-.3-.9-.2-.7-.6.1v-1.4l3.9-.6v1.2c-.3 0-.5 0-.7.2l-.3.6.2.7 1 2a74 74 0 0 1 .7 1.7l.1-.3a41 41 0 0 0 .5-1.6l.7-2 .7-1.7-.7.2h-.3v-1.3l3-.5v1.2c-.4 0-.6.3-.9.6l-.7 1.5-1.7 4.8v3.7l1-.2v1.3l-3.9.7v-1.2z" id="o"/>
    <filter x="-2.1%" y="-4.5%" width="102.8%" height="108.9%" filterUnits="objectBoundingBox" id="n">
      <feMorphology radius="0.25" operator="dilate" in="SourceAlpha" result="shadowSpreadOuter1"/>
      <feOffset dx="-1" in="shadowSpreadOuter1" result="shadowOffsetOuter1"/>
      <feColorMatrix values="0 0 0 0 0.719228316 0 0 0 0 0.579059125 0 0 0 0 0.0843697042 0 0 0 1 0" in="shadowOffsetOuter1"/>
    </filter>
  </defs>
  <g transform="translate(30 24)" fill="none" fill-rule="evenodd">
    <path d="M392.3 209.3l.8-.2c5-1.5 16 17.7 19.6 19.3 6.1 2.7 11.5-1.8 20.5-1 4.2.3 7.7 8 9.5 8 6.5 0 5-5.7 8.9-7 3.6-1.3 7.7 2 11.5 0 4.7-2.4 8.4-7 11.8-5.8 1.6.6 11.5 11.2 19 12.8 8.6 2 15.2-5 22.5 0 12.6 8.6 11.4 19.2 20.8 31.1 8.1 10.2 28.6 22.1 21.2 25-17.2 6.8-93.7 4.4-229.4-7.4H108a205.5 205.5 0 0 0 30.3-23.6c5.6-6 12.6-14.3 21-25 6-19.2 12-26 18.3-20.6 6.4 5.5 10.8 10 13.4 13.5 18.8 4.7 28.5 4.7 29.2 0 1-7 7-20.5 10.6-23.6 3.5-3.2 4.7-2.8 8.8-2.8 4 0 1.2 7 7 7 5.7 0 7 13.6 19.3 13.6 3.7 0 5.5-5.6 13.9-13.5a31 31 0 0 1 10.1-4.3c3 .7 4.7 1.6 5.2 2.6 4.4 8.5 2.6 12.9 5 15.2 2.3 2.4.5 3.5 9.5 0 3.4-1.3 7 3.4 11.8 5.8 3.8 2 8-1.3 11.5 0 3.9 1.3 2.4 7 8.9 7 1.8 0 5.3-7.7 9.6-8 9-.8 14.3 3.7 20.4 1 3.6-1.6 14.6-20.8 19.7-19.3l.8.2z" fill="#E9E9E9"/>
    <path d="M548.5 281H264.3A9855.9 9855.9 0 0 0 36 296.5c-53.5 5-40.8 19 0 22.5 40.9 3.5 145.8 3.8 220.7 24.4 75 20.5 246.6-20.6 283.8-20.6 15.8 0 94-9.8 108.5-15.8 23.1-5-10.4-13.7-100.5-26z" fill="#EBEBEB" opacity="0.600000024"/>
    <use fill="#FCF2D0" xlink:href="#a"/>
    <use fill="#000" filter="url(#b)" xlink:href="#a"/>
    <path d="M158 286.8l26 6.2 166.1 18.5 96.3-4.6c21-6.9 37-11.4 47.8-13.5 5.2-1 26.4-3.7 63.7-7.9 1-.1 4.2 5.5 13.6 7.5 9.6 2 55.2.6 57 .4 1.2-.2-7.1-2.6-22.5-6.6-2.8-.7-12.3-.5-15.5-1.3-3.8-.9-8.7-1.5-14.9-2l3.6-3.2-71-5-183.5 6-166.7 5.5z" fill="#F2E5B7"/>
    <path d="M509.6 247.7V275a5 5 0 0 1-4.2 5L342.2 306c-3 .4-6 .5-9 0l-1.4-.2v-38l6 .6 169-25c1 .4 1.7.8 2 1.2.2.4.5 1.4.8 3z" fill="#D5AC00"/>
    <path d="M153.2 251.5v1a2 2 0 0 0 1.8 2l175.5 18.2a3 3 0 0 1 2.7 3V298a3 3 0 0 1-3.4 3l-174.7-19.4a1.8 1.8 0 0 0-2 1.8v.2a2 2 0 0 0 1.8 2l179.5 20.7a3 3 0 0 0 3.3-3v-32.2a3 3 0 0 0-2.7-3l-179.6-18.5a2 2 0 0 0-2.2 2z" fill="#FCDA4E"/>
    <path fill="#EDC001" d="M333.2 273v28.4l-178-19.8 68.5-9.6z"/>
    <use fill="#FFFAE8" xlink:href="#c"/>
    <use fill="#000" filter="url(#d)" xlink:href="#c"/>
    <path fill="#EDC001" d="M344.6 231l162.2 12.3-169 25-182.6-18.8z"/>
    <path d="M505.4 280l-167.7 26.7v-5L509.6 274v1.1a5 5 0 0 1-4.2 5z" fill="#AD8C00" opacity="0.300000012"/>
    <ellipse fill="#D5AC00" cx="332" cy="247.5" rx="112" ry="10.5"/>
    <ellipse fill="#FFF" cx="332" cy="246" rx="110" ry="10"/>
    <rect stroke="#979797" fill="#D8D8D8" x="318.5" y="243.5" width="22" height="1" rx="0.5"/>
    <path d="M257.3 241.6c17.1-.5 30.3.8 39.4 4a88.4 88.4 0 0 0 18 3.8c4.6.6 7.4 6 29.1 9.5 21.8 3.7 18.7-.4 54.4 4.4a142 142 0 0 0 63.6-4.4c-8.7-8.9-24.9-14.7-48.5-17.3-14.8-1.6-27.3-1.3-46.5-1.3-12.1 0-20.7-4-37.6-4-7.6 0-13.8 4-31 4-11.4 0-25 .5-40.9 1.3z" fill="#CEB357" opacity="0.200000003"/>
    <path d="M361.4 156.3c21.8 12 34.9 40.3 39.2 85-11.3 1.3-13.6-11.7-16.6-24.2-2-8.4-9.6-17-22.6-26v-34.8z" fill="#D5AC00"/>
    <path d="M361.4 152.3a136.7 136.7 0 0 1 24.6 31c7.4 14.6-4.4 27.2-6.9 23.9-2.5-3.5-8.5-8.9-17.7-16v-38.9z" fill="#D5AC00"/>
    <path fill="#474747" d="M312 225l3-21h28l3.3 21-16.8 8z"/>
    <path fill="#D5AC00" d="M293 204l1.5 5.5 35 7 33.5-7 1.5-5.5z"/>
    <path d="M296.2 156.3c-21.8 12-34.9 40.3-39.2 85 11.3 1.3 13.6-11.7 16.6-24.2 2-8.4 9.6-17 22.6-26v-34.8z" fill="#EDC001"/>
    <g transform="translate(279.1)">
      <mask id="g" fill="#fff">
        <use xlink:href="#e"/>
      </mask>
      <use fill="#FFF" xlink:href="#e"/>
      <use fill="#000" filter="url(#f)" xlink:href="#e"/>
      <path d="M52.9 158a120.5 120.5 0 0 1 11.5 46.5H47.9l5-46.5z" fill="#E6E6E6" mask="url(#g)"/>
    </g>
    <g transform="translate(257)">
      <use fill="#000" filter="url(#h)" xlink:href="#i"/>
      <use fill="#EDC001" xlink:href="#i"/>
    </g>
    <g transform="translate(257)">
      <use fill="#4A4A4A" xlink:href="#j"/>
      <use fill="#000" filter="url(#k)" xlink:href="#j"/>
      <circle stroke="#B79416" stroke-width="2" cx="71.5" cy="98.5" r="17.5"/>
    </g>
    <path d="M328.6 156.3h1.6c1.1 0 2 1 2 2V249c0 1-.9 2-2 2h-1.6a2 2 0 0 1-2-2v-90.6c0-1.2.9-2 2-2z" fill="#EDC001"/>
    <g>
      <path d="M564 233h17a3 3 0 0 1 3 3v49a3 3 0 0 1-3 3h-17a3 3 0 0 1-3-3v-49a3 3 0 0 1 3-3z" fill="#D8D8D8"/>
      <path d="M564 251h17a3 3 0 0 1 3 3v29h-23v-29a3 3 0 0 1 3-3z" fill="#BBB"/>
      <path d="M535 239h75a3 3 0 0 1 3 3v34a3 3 0 0 1-3 3h-75a3 3 0 0 1-3-3v-34a3 3 0 0 1 3-3z" fill="#464646"/>
      <g transform="translate(532 233)">
        <use fill="#636363" xlink:href="#l"/>
        <use fill="#000" filter="url(#m)" xlink:href="#l"/>
      </g>
      <path d="M559.3 248.8v3h-6V269h-3.8v-17.1h-6.2v-3.1h16zm1.8 10.3h7.2v2.9h-7.2V259zm12.4 7.3h4v-11.8l.1-1.4-2.9 2.4a1 1 0 0 1-.4.2h-.3a1.1 1.1 0 0 1-.9-.3l-1-1.5 6.1-5.3h2.8v17.7h3.7v2.6h-11.2v-2.6zm28-7.5c0 1.7-.2 3.3-.6 4.6a9.4 9.4 0 0 1-1.5 3.2c-.7.9-1.5 1.5-2.4 1.9a7 7 0 0 1-3 .6 6.3 6.3 0 0 1-5.3-2.5c-.6-.8-1.1-2-1.5-3.2-.4-1.3-.5-2.9-.5-4.6 0-1.8.1-3.3.5-4.6.4-1.3.9-2.4 1.6-3.2a6.3 6.3 0 0 1 5.2-2.6c1.1 0 2 .2 3 .7.9.4 1.7 1 2.4 1.9.6.8 1.1 1.9 1.5 3.2.4 1.3.6 2.8.6 4.6zm-3.6 0c0-1.5 0-2.7-.3-3.7-.2-1-.5-1.7-.9-2.3-.3-.5-.7-1-1.2-1.2a3.3 3.3 0 0 0-2.9 0c-.5.3-.9.7-1.2 1.2-.4.6-.7 1.4-.9 2.3-.2 1-.3 2.2-.3 3.7 0 1.4.1 2.7.3 3.6.2 1 .5 1.7.9 2.3.3.6.7 1 1.2 1.2a3.2 3.2 0 0 0 2.9 0c.5-.2.9-.6 1.2-1.2.4-.6.7-1.3.9-2.3.2-1 .3-2.2.3-3.6z" fill="#FFF"/>
    </g>
    <path d="M352.2 152.2c-.3 0-.6 0-.9-.2a2 2 0 0 1-1-1.2v-2.6l4.4.4-.1 1.6c0 .4-.2.7-.3 1a2 2 0 0 1-1.2 1h-.9zm0-.8h.7c.2 0 .4-.2.5-.3.2 0 .3-.2.4-.4l.1-.5v-.9l-3-.2v1.4c0 .2.2.3.3.4l.4.4.7.1zm-2.4 3.4v-.8l4.4.3v.9l-4.4-.4zm3.1 4.8v-.1-.1-.2a4.6 4.6 0 0 0 .2-.3l.1-.4v-.3-.2l-.3-.1h-.2-.2l-.2.2-.2.3a15.7 15.7 0 0 1-.3.7l-.3.3a1 1 0 0 1-.8.3l-.5-.2a1.3 1.3 0 0 1-.7-.8v-.7a2 2 0 0 1 .7-1.3l.3.2v.1l.1.1v.2a4.9 4.9 0 0 0-.4.4v.4.6l.5.2h.3l.2-.3.1-.3a10.6 10.6 0 0 1 .3-.7l.3-.3.3-.2a1.3 1.3 0 0 1 1.4.4l.2.5v.6l-.1.7-.4.5-.4-.2zm-3 4.8v.1l-.3.3-.5-.7v-1c0-.2 0-.5.2-.8a2 2 0 0 1 1.2-1 2.6 2.6 0 0 1 1.8.2 2 2 0 0 1 1 1.3 2.4 2.4 0 0 1-.1 1.7 2 2 0 0 1-.5.6l-.3-.3v-.2-.1a1.7 1.7 0 0 0 .2-.4l.1-.5v-.5c0-.2-.2-.4-.3-.5l-.4-.3-.7-.2h-.6l-.5.3-.4.4-.1.5v.3a1.3 1.3 0 0 0 .1.5l.1.2v.1zm.7 6.5l-.9-.3a2 2 0 0 1-1-1.2c-.1-.3-.2-.6-.1-.9 0-.3 0-.6.2-.9a2 2 0 0 1 1.3-1l.9-.1.8.2a2 2 0 0 1 1 1.3c.2.3.2.6.2.9l-.3.9a2 2 0 0 1-1.2 1h-1zm0-.8h.7l.5-.3.3-.4.2-.6v-.6l-.3-.4-.5-.3a2 2 0 0 0-.6-.2 2 2 0 0 0-.7 0l-.5.3-.3.4-.2.6v.5l.4.5.4.3.6.2zm2 2.2v.7a.3.3 0 0 1-.2.2l-2.8.8a3.6 3.6 0 0 1-.6.1l.6.3 2.6 1.2v.1l.1.2v.6l-4.2-2.1v-.7l4.5-1.4zm-.7 8.6h-.7l.2-2h-1.2l-.1 1.4h-.7l.2-1.5-1.2-.1-.2 1.9h-.7l.3-2.8 4.3.4-.2 2.7zm-2.9 2.5l-1.7-.2v-.8l4.4.4-.1 1.3c0 .3 0 .6-.2.8 0 .2-.1.4-.3.5a1 1 0 0 1-.4.2h-.5a1.3 1.3 0 0 1-.7-.2l-.3-.3-.2-.5-.2.3-1.7 1v-.8l.1-.2.1-.1 1.5-.8h.1v-.3l.1-.3zm.6 0v1.2l.3.2.3.1c.2 0 .4 0 .5-.2.2-.1.2-.3.3-.6v-.5l-1.4-.2zm-1.2 6.2l-1.6-.2v-.8l1.7.2 2.8-1.4v.8l-.1.1-.2.1-1.5.7a3.6 3.6 0 0 1-.5.1 3.3 3.3 0 0 1 .5.3l1.4.9v.1l.1.2v.7l-2.6-1.8z" fill="#2A2A2A"/>
    <circle fill="#FFF" cx="507.842212" cy="84.0171286" r="29.1288872"/>
    <circle fill="#FFF" cx="335.5" cy="89.5" r="1.5"/>
    <g transform="rotate(.3 426.9 274.3)">
      <use fill="#000" filter="url(#n)" xlink:href="#o"/>
      <use fill="#FFF" xlink:href="#o"/>
    </g>
  </g>
</svg>
